<svg width="14" height="14" viewBox="0 0 14 14" fill="none" xmlns="http://www.w3.org/2000/svg">
<path d="M6.33325 6.3335V3.66683H7.66659V6.3335H10.3333V7.66683H7.66659V10.3335H6.33325V7.66683H3.66659V6.3335H6.33325ZM6.99992 13.6668C3.31792 13.6668 0.333252 10.6822 0.333252 7.00016C0.333252 3.31816 3.31792 0.333496 6.99992 0.333496C10.6819 0.333496 13.6666 3.31816 13.6666 7.00016C13.6666 10.6822 10.6819 13.6668 6.99992 13.6668ZM6.99992 12.3335C8.41441 12.3335 9.77096 11.7716 10.7712 10.7714C11.7713 9.77121 12.3333 8.41465 12.3333 7.00016C12.3333 5.58567 11.7713 4.22912 10.7712 3.22893C9.77096 2.22873 8.41441 1.66683 6.99992 1.66683C5.58543 1.66683 4.22888 2.22873 3.22868 3.22893C2.22849 4.22912 1.66659 5.58567 1.66659 7.00016C1.66659 8.41465 2.22849 9.77121 3.22868 10.7714C4.22888 11.7716 5.58543 12.3335 6.99992 12.3335Z" fill="#9A9A9A"/>
</svg>
