<svg width="30" height="30" viewBox="0 0 30 30" fill="none" xmlns="http://www.w3.org/2000/svg">
<path d="M14.9996 1.50812C12.8807 1.50812 10.9152 2.58073 9.78726 4.45656L0.876495 19.2759C0.298585 20.2371 -0.00446207 21.3282 4.96513e-05 22.4313C0.00866293 24.5452 1.13079 26.5239 2.93378 27.618C3.8769 28.1903 4.9681 28.4928 6.08929 28.4928H23.9108C25.0322 28.4928 26.1234 28.1903 27.0664 27.618C28.8701 26.5235 29.9913 24.5444 29.9999 22.4311C30.0044 21.3279 29.7014 20.2368 29.1236 19.2759L20.2128 4.45656C19.1028 2.61038 17.154 1.50812 14.9996 1.50812Z" fill="#FF8188"/>
<path d="M3.04833 22.4309C3.04382 21.3278 3.34687 20.2367 3.92478 19.2755L12.8356 4.45625C13.6864 3.04127 15.0139 2.08367 16.5243 1.69836C16.0342 1.57338 15.5231 1.50775 14.9996 1.50775C12.8808 1.50775 10.9152 2.58037 9.78732 4.45619L0.876495 19.2755C0.298585 20.2368 -0.00446207 21.3278 4.96513e-05 22.431C0.00866293 24.5449 1.13079 26.5236 2.93378 27.6177C3.87696 28.19 4.9681 28.4925 6.08935 28.4925H9.13763C8.01644 28.4925 6.92525 28.1899 5.98212 27.6177C4.17913 26.5236 3.057 24.5449 3.04833 22.4309Z" fill="#FF656F"/>
<path d="M14.9996 4.03381C16.1787 4.03375 17.3575 4.60903 18.0484 5.75805L26.9591 20.5773C28.3859 22.9504 26.6811 25.967 23.911 25.967H6.08944C3.32101 25.967 1.61364 22.9518 3.04116 20.5773L11.952 5.75805C12.6435 4.60809 13.8216 4.03387 14.9996 4.03381Z" fill="#FF656F"/>
<path d="M6.08945 20.5774L15.0003 5.75805C15.3853 5.1178 15.9214 4.65655 16.5241 4.37302C16.0442 4.14731 15.522 4.03382 14.9996 4.03387C13.8216 4.03393 12.6434 4.60815 11.952 5.75811L3.04117 20.5774C1.61365 22.9518 3.32095 25.967 6.08945 25.967H9.13773C6.36923 25.967 4.66193 22.9518 6.08945 20.5774Z" fill="#FF4756"/>
<path d="M14.9997 9.51379C13.6382 9.51379 13.3867 10.7857 13.4623 12.0959L13.6701 16.7327C13.9647 18.1814 16.0355 18.178 16.3294 16.7327L16.5372 12.0959C16.6129 10.6824 16.3617 9.51379 14.9997 9.51379Z" fill="#DFEBFA"/>
<path d="M14.9999 22.6026C15.8252 22.6026 16.4944 21.9335 16.4944 21.1081C16.4944 20.2828 15.8252 19.6136 14.9999 19.6136C14.1745 19.6136 13.5054 20.2828 13.5054 21.1081C13.5054 21.9335 14.1745 22.6026 14.9999 22.6026Z" fill="#DFEBFA"/>
<path d="M15.28 16.7327L15.0722 12.0959C15.0146 11.0973 15.1477 10.1217 15.8167 9.71372C15.6041 9.58522 15.3358 9.51379 14.9997 9.51379C13.6382 9.51379 13.3867 10.7857 13.4623 12.0958L13.6701 16.7326C13.8884 17.8059 15.081 18.0813 15.8043 17.5647C15.5518 17.3842 15.3562 17.1074 15.28 16.7327Z" fill="#B1DBFC"/>
<path d="M15.1153 21.1081C15.1153 20.5793 15.3903 20.1149 15.8048 19.8493C15.5724 19.7003 15.2963 19.6136 14.9999 19.6136C14.1745 19.6136 13.5054 20.2827 13.5054 21.1081C13.5054 21.9336 14.1745 22.6026 14.9999 22.6026C15.2963 22.6026 15.5724 22.5159 15.8048 22.367C15.3903 22.1014 15.1153 21.637 15.1153 21.1081Z" fill="#B1DBFC"/>
</svg>
