<svg width="23" height="23" viewBox="0 0 23 23" fill="none" xmlns="http://www.w3.org/2000/svg">
<path d="M17.1602 7.13301L16.5136 6.48645C16.2504 6.2233 15.8238 6.2233 15.5607 6.48645C15.2975 6.7496 15.2975 7.17622 15.5607 7.43938L17.3575 9.23625C17.6207 9.4994 18.0473 9.4994 18.3105 9.23625L20.1073 7.43938C20.3705 7.17622 20.3705 6.7496 20.1073 6.48645C19.8442 6.2233 19.4176 6.2233 19.1544 6.48645L18.5078 7.13301V3.36914C18.5078 2.99701 18.2061 2.69531 17.834 2.69531H12.4434C12.0712 2.69531 11.7695 2.99701 11.7695 3.36914C11.7695 3.74127 12.0712 4.04297 12.4434 4.04297H17.1602V7.13301Z" fill="#4F4F4F"/>
<path d="M10.5567 18.9575H5.83987V15.8674L6.48643 16.514C6.74958 16.7772 7.1762 16.7772 7.43935 16.514C7.70251 16.2508 7.70251 15.8242 7.43935 15.5611L5.64248 13.7642C5.37933 13.501 4.9527 13.501 4.68955 13.7642L2.89268 15.5611C2.62952 15.8242 2.62952 16.2508 2.89268 16.514C3.15583 16.7772 3.58245 16.7772 3.8456 16.514L4.49221 15.8674V19.6313C4.49221 20.0034 4.79391 20.3051 5.16604 20.3051H10.5567C10.9288 20.3051 11.2305 20.0034 11.2305 19.6313C11.2305 19.2592 10.9288 18.9575 10.5567 18.9575Z" fill="#4F4F4F"/>
<path d="M22.3262 21.6523H21.6523V17.1602H20.3047V21.6523H18.5078V17.1602H17.1602V21.6523H15.3633V17.1602H14.0156V21.6523H13.3418C12.9697 21.6523 12.668 21.954 12.668 22.3262C12.668 22.6983 12.9697 23 13.3418 23H22.3262C22.6983 23 23 22.6983 23 22.3262C23 21.954 22.6983 21.6523 22.3262 21.6523Z" fill="#4F4F4F"/>
<path d="M22.6275 14.0871L18.1353 11.841C17.9456 11.7461 17.7224 11.7461 17.5326 11.841L13.0405 14.0871C12.8122 14.2012 12.668 14.4345 12.668 14.6897V15.1389C12.668 15.5111 12.9697 15.8128 13.3418 15.8128H22.3262C22.6983 15.8128 23 15.5111 23 15.1389V14.6897C23 14.4345 22.8558 14.2012 22.6275 14.0871Z" fill="#4F4F4F"/>
<path d="M10.332 10.5566C10.332 10.1845 10.0303 9.88281 9.6582 9.88281H8.98438V5.39062H7.63672V9.88281H5.83984V5.39062H4.49219V9.88281H2.69531V5.39062H1.34766V9.88281H0.673828C0.301695 9.88281 0 10.1845 0 10.5566C0 10.9288 0.301695 11.2305 0.673828 11.2305H9.6582C10.0303 11.2305 10.332 10.9288 10.332 10.5566Z" fill="#4F4F4F"/>
<path d="M0.673828 4.04274H9.6582C10.0303 4.04274 10.332 3.74104 10.332 3.36891V2.91969C10.332 2.66444 10.1878 2.43116 9.95954 2.31697L5.46735 0.0708784C5.27765 -0.0239517 5.05438 -0.0239517 4.86468 0.0708784L0.372492 2.31697C0.144199 2.43116 0 2.66444 0 2.91969V3.36891C0 3.74104 0.301695 4.04274 0.673828 4.04274Z" fill="#4F4F4F"/>
</svg>
