<svg width="15" height="20" viewBox="0 0 15 20" fill="none" xmlns="http://www.w3.org/2000/svg">
<path d="M10.538 14.0165L11.4658 12.5324L13.14 11.9695L13.3255 10.236L14.5852 9.01358L13.9863 7.37273L14.5852 5.73183L13.3256 4.50937L13.1401 2.77593L11.4658 2.21304L10.5381 0.728944L8.78325 0.937811L7.29258 0L5.80192 0.937889L4.04714 0.729023L3.11939 2.21308L1.44514 2.77597L1.25965 4.50941L0 5.73187L0.598899 7.37276L0 9.01366L1.25961 10.2361L1.4451 11.9696L3.11935 12.5324L4.0471 14.0165L5.80192 13.8077L7.29258 14.7455L8.78325 13.8077L10.538 14.0165ZM2.16391 7.37276C2.16391 4.58499 4.46464 2.31695 7.29258 2.31695C10.1205 2.31695 12.4213 4.58499 12.4213 7.37276C12.4213 10.1605 10.1205 12.4286 7.29258 12.4286C4.46464 12.4286 2.16391 10.1605 2.16391 7.37276Z" fill="#8D28AD"/>
<path d="M7.29268 3.48975C5.12061 3.48975 3.35352 5.23174 3.35352 7.37294C3.35352 9.51415 5.12061 11.2561 7.29268 11.2561C9.46475 11.2561 11.2318 9.51415 11.2318 7.37294C11.2318 5.23174 9.46475 3.48975 7.29268 3.48975Z" fill="#8D28AD"/>
<path d="M5.5214 15.0223L3.43393 15.2707L2.33103 13.5064L1.9561 13.3804L0.338867 18.3634L3.25034 18.2056L5.52821 20.0001L6.86866 15.8699L5.5214 15.0223Z" fill="#8D28AD"/>
<path d="M12.2544 13.5064L11.1515 15.2707L9.06406 15.0223L7.7168 15.8699L9.05725 20.0001L11.3351 18.2056L14.2466 18.3634L12.6294 13.3804L12.2544 13.5064Z" fill="#8D28AD"/>
</svg>
