<svg width="15" height="19" viewBox="0 0 15 19" fill="none" xmlns="http://www.w3.org/2000/svg">
<path d="M5.53633 8.02703C6.06016 9.5184 6.97616 10.8411 8.18801 11.856L9.09721 10.9726C9.24342 10.8305 9.43662 10.747 9.64025 10.7378C9.84389 10.7286 10.0438 10.7943 10.2023 10.9226C11.2468 11.767 12.4581 12.3808 13.7568 12.7236C13.9594 12.7772 14.1344 12.9053 14.2469 13.0822C14.3593 13.2591 14.4009 13.472 14.3634 13.6782L13.6988 17.3367C13.662 17.5397 13.5512 17.7218 13.3878 17.8478C13.2244 17.9738 13.0201 18.0347 12.8144 18.0187C12.3716 17.9849 11.9298 17.9275 11.4886 17.8474C4.47017 16.5724 -0.186375 9.84853 1.08858 2.83006C1.16871 2.38895 1.27038 1.95513 1.39442 1.52877C1.45181 1.33058 1.58069 1.16074 1.7561 1.0521C1.93151 0.943464 2.14099 0.903764 2.34399 0.940685L6.00245 1.60527C6.20871 1.64271 6.39329 1.75652 6.51937 1.924C6.64545 2.09148 6.70378 2.30033 6.68272 2.50891C6.5469 3.84514 6.6954 5.19499 7.11848 6.46974C7.18283 6.66316 7.17406 6.87346 7.09382 7.06084C7.01358 7.24823 6.86744 7.39971 6.68305 7.48662L5.53633 8.02703ZM3.56636 7.11271L5.32632 6.28308C5.05756 5.24846 4.93864 4.18064 4.97319 3.11224L2.81108 2.71948C2.78144 2.85469 2.7541 2.99117 2.72923 3.1281C1.61789 9.24123 5.67324 15.097 11.7865 16.2075C11.9235 16.2324 12.0608 16.2548 12.198 16.2738L12.5907 14.1117C11.5784 13.7683 10.6207 13.2814 9.74668 12.6659L8.35106 14.0216C7.93473 13.7662 7.53697 13.4817 7.16074 13.1702L7.11811 13.1345C5.67617 11.9271 4.58631 10.3534 3.9632 8.57892L3.94478 8.52645C3.7855 8.0647 3.65904 7.59228 3.56636 7.11271Z" fill="white"/>
</svg>
