<svg width="43" height="43" viewBox="0 0 43 43" fill="none" xmlns="http://www.w3.org/2000/svg">
<circle cx="21.5" cy="21.5" r="21" stroke="#BDBDBD"/>
<path fill-rule="evenodd" clip-rule="evenodd" d="M25.75 22C25.75 20.525 24.9 19.2583 23.6667 18.6416V20.4833L25.7083 22.525C25.7333 22.3583 25.75 22.1833 25.75 22ZM27.8333 22C27.8333 22.7833 27.6667 23.5167 27.3833 24.2L28.6417 25.4583C29.1917 24.425 29.5 23.25 29.5 22C29.5 18.4333 27.0083 15.45 23.6667 14.6917V16.4083C26.075 17.125 27.8333 19.3583 27.8333 22ZM15.5583 14.5L14.5 15.5583L18.4417 19.5H14.5V24.5H17.8333L22 28.6667V23.0583L25.5417 26.6C24.9833 27.0333 24.3583 27.375 23.6667 27.5833V29.3C24.8167 29.0417 25.8583 28.5083 26.7417 27.7917L28.4417 29.5L29.5 28.4417L22 20.9417L15.5583 14.5ZM22 15.3333L20.2583 17.075L22 18.8167V15.3333Z" fill="#333333"/>
</svg>
