<svg width="43" height="43" viewBox="0 0 43 43" fill="none" xmlns="http://www.w3.org/2000/svg">
<circle cx="21.5" cy="21.5" r="21.5" fill="#EB5757"/>
<g clip-path="url(#clip0)">
<path d="M14.2089 24.7649L12.1451 22.6616C11.9973 22.5111 11.9121 22.3101 11.9066 22.0992C11.9012 21.8883 11.9759 21.6832 12.1158 21.5252C12.3582 21.2523 12.5613 21.0344 12.7254 20.8733C17.9818 15.7157 26.4231 15.7957 31.5808 21.0521C31.7418 21.2162 31.9413 21.4373 32.1779 21.7154C32.3148 21.8759 32.3856 22.0824 32.3762 22.2932C32.3668 22.504 32.2777 22.7033 32.1271 22.851L30.0238 24.9148C29.9501 24.9873 29.8521 25.0297 29.7488 25.034C29.6455 25.0382 29.5443 25.0039 29.4649 24.9378C29.317 24.8144 29.1977 24.7178 29.1047 24.6468C28.177 23.9378 27.1475 23.3732 26.051 22.972C25.8778 22.9085 25.7752 22.7301 25.8075 22.5489L26.1911 20.3722C23.6119 19.3136 20.7246 19.2862 18.1258 20.2958L18.4669 22.4758C18.4809 22.5649 18.4631 22.656 18.4167 22.7334C18.3703 22.8107 18.2982 22.8692 18.2131 22.8989C17.1099 23.2798 16.0707 23.8252 15.1305 24.5167C15.0362 24.5859 14.9145 24.6796 14.766 24.7996C14.6853 24.864 14.5836 24.8962 14.4806 24.8899C14.3775 24.8836 14.2805 24.8392 14.2083 24.7655L14.2089 24.7649Z" fill="white"/>
</g>
<defs>
<clipPath id="clip0">
<rect width="20" height="20" fill="white" transform="translate(36.2832 22.2754) rotate(135.543)"/>
</clipPath>
</defs>
</svg>
