<svg width="43" height="43" viewBox="0 0 43 43" fill="none" xmlns="http://www.w3.org/2000/svg">
<circle cx="21.5" cy="21.5" r="21" stroke="#BDBDBD"/>
<path fill-rule="evenodd" clip-rule="evenodd" d="M22.0003 23.6665C23.3837 23.6665 24.492 22.5498 24.492 21.1665L24.5003 16.1665C24.5003 14.7832 23.3837 13.6665 22.0003 13.6665C20.617 13.6665 19.5003 14.7832 19.5003 16.1665V21.1665C19.5003 22.5498 20.617 23.6665 22.0003 23.6665ZM26.417 21.1665C26.417 23.6665 24.3003 25.4165 22.0003 25.4165C19.7003 25.4165 17.5837 23.6665 17.5837 21.1665H16.167C16.167 24.0082 18.4337 26.3582 21.167 26.7665V29.4998H22.8337V26.7665C25.567 26.3665 27.8337 24.0165 27.8337 21.1665H26.417Z" fill="#110F24"/>
</svg>
