<svg width="31" height="22" viewBox="0 0 31 22" fill="none" xmlns="http://www.w3.org/2000/svg">
<path d="M25.0375 1.49683H26.3747C26.7686 1.49683 27.0879 1.81615 27.0879 2.20999V4.49691H24.3242V2.20895C24.3248 1.81553 24.644 1.49683 25.0375 1.49683Z" fill="#800080"/>
<path d="M19.4555 0.575073H11.2151C10.8196 0.575004 10.4563 0.793176 10.2706 1.14235L8.48584 4.49612H22.1848L20.3997 1.14089C20.2135 0.79248 19.8505 0.574934 19.4555 0.575073Z" fill="#F9DAFF"/>
<path d="M2.27514 3.46448H28.3951C29.3798 3.46448 30.178 4.26273 30.178 5.24743V19.9564C30.178 20.9411 29.3798 21.7394 28.3951 21.7394H2.27514C1.29044 21.7394 0.492188 20.9412 0.492188 19.9565V5.24743C0.492188 4.26273 1.29044 3.46448 2.27514 3.46448Z" fill="#F5BBEE"/>
<path d="M0.492188 7.75818H30.178V17.4456H0.492188V7.75818Z" fill="#800080"/>
<path d="M15.335 19.8751C19.3518 19.8751 22.608 16.6189 22.608 12.6021C22.608 8.58534 19.3518 5.3291 15.335 5.3291C11.3183 5.3291 8.06201 8.58534 8.06201 12.6021C8.06201 16.6189 11.3183 19.8751 15.335 19.8751Z" fill="#EBA0E1"/>
<path d="M20.8248 12.5996C20.8307 15.6387 18.3718 18.1071 15.3327 18.113C12.2936 18.1189 9.82519 15.66 9.81935 12.6209C9.81343 9.58176 12.2723 7.11334 15.3114 7.10749C16.4296 7.10534 17.5217 7.4438 18.4427 8.07793C19.9319 9.10173 20.8226 10.7924 20.8248 12.5996Z" fill="#C926B4"/>
<path d="M19.4024 11.1809C19.4068 14.2094 16.9553 16.668 13.9268 16.6724C12.8119 16.674 11.7229 16.3357 10.8051 15.7026C9.08984 13.2049 9.72404 9.78973 12.2217 8.07448C14.0964 6.78701 16.5712 6.78965 18.4431 8.0813C19.0685 8.99392 19.4029 10.0746 19.4024 11.1809Z" fill="#FDE0F9"/>
<path d="M14.6234 10.8268C15.2306 10.8268 15.7229 10.3346 15.7229 9.72736C15.7229 9.12013 15.2306 8.62787 14.6234 8.62787C14.0162 8.62787 13.5239 9.12013 13.5239 9.72736C13.5239 10.3346 14.0162 10.8268 14.6234 10.8268Z" fill="#FFCAF8"/>
<path d="M12.809 12.3785C13.0798 12.3785 13.2992 12.159 13.2992 11.8883C13.2992 11.6175 13.0798 11.3981 12.809 11.3981C12.5383 11.3981 12.3188 11.6175 12.3188 11.8883C12.3188 12.159 12.5383 12.3785 12.809 12.3785Z" fill="#FBEBF9"/>
<path d="M4.28924 6.77978C4.80468 6.77978 5.22253 6.36193 5.22253 5.84649C5.22253 5.33105 4.80468 4.91321 4.28924 4.91321C3.7738 4.91321 3.35596 5.33105 3.35596 5.84649C3.35596 6.36193 3.7738 6.77978 4.28924 6.77978Z" fill="#F9DAFF"/>
<path d="M23.1739 13.1668C23.1759 14.7051 22.6878 16.2039 21.7802 17.4459H20.7593C23.2259 14.6877 23.2259 10.5164 20.7593 7.75818C22.298 9.1347 23.1764 11.1022 23.1739 13.1668Z" fill="#43013A"/>
<path d="M21.7792 17.4472C19.4178 20.6941 14.8714 21.4121 11.6245 19.0507C11.2046 18.7454 10.8186 18.3959 10.4731 18.0083C13.4536 20.6943 18.0472 20.4556 20.7332 17.4751C20.7415 17.4658 20.7499 17.4565 20.7582 17.4471H21.7792V17.4472Z" fill="#98378B"/>
</svg>
