<svg width="24" height="16" viewBox="0 0 24 16" fill="none" xmlns="http://www.w3.org/2000/svg">
<path fill-rule="evenodd" clip-rule="evenodd" d="M24 14.6667V1.33333C24 0.604167 23.3958 0 22.6667 0H1.33333C0.604167 0 0 0.604167 0 1.33333V14.6667C0 15.3958 0.604167 16 1.33333 16H22.6667C23.3958 16 24 15.3958 24 14.6667ZM11.6562 2.21875C10.7917 1.64583 9.77083 1.33333 8.72917 1.33333C5.80208 1.33333 3.42708 3.70833 3.42708 6.625C3.42708 9.55208 5.80208 11.9271 8.72917 11.9271C9.77083 11.9271 10.7917 11.6146 11.6562 11.0417C8.86458 8.77083 8.88542 4.48958 11.6562 2.21875ZM12 2.46875C9.3125 4.58333 9.30208 8.6875 12 10.7917C14.6979 8.6875 14.6875 4.58333 12 2.46875ZM12.3438 11.0417C15.1458 8.78125 15.1042 4.48958 12.3438 2.21875C13.2083 1.64583 14.2292 1.33333 15.2708 1.33333C18.1979 1.33333 20.5729 3.70833 20.5729 6.625C20.5729 9.55208 18.1979 11.9271 15.2708 11.9271C14.2396 11.9271 13.2083 11.6146 12.3438 11.0417ZM20.0625 9.73958H20.1354V9.70833H19.9583V9.73958H20.0312V9.91667H20.0625V9.73958ZM20.4062 9.91667H20.3646V9.76042L20.3125 9.89583H20.2708L20.2083 9.76042V9.91667H20.1771V9.70833H20.2292L20.2917 9.84375L20.3542 9.70833H20.4062V9.91667ZM20.2812 14.5938H20.3125L20.2708 14.5417C20.283 14.5417 20.2881 14.5381 20.2923 14.5351C20.2952 14.533 20.2978 14.5312 20.3021 14.5312C20.3125 14.5208 20.3125 14.5104 20.3125 14.5C20.3125 14.4896 20.3125 14.4792 20.3021 14.4688C20.2978 14.4688 20.2935 14.467 20.2884 14.4649C20.2812 14.4619 20.2726 14.4583 20.2604 14.4583H20.1979V14.5938H20.2292V14.5417H20.2396L20.2812 14.5938ZM7.5625 13.4375C7.29167 13.4375 7.13542 13.6354 7.13542 13.8854C7.13542 14.1354 7.29167 14.3333 7.5625 14.3333C7.8125 14.3333 7.97917 14.1458 7.97917 13.8854C7.97917 13.6354 7.8125 13.4375 7.5625 13.4375ZM12.0625 13.4271C12.2604 13.4271 12.3958 13.5417 12.4271 13.7604H11.6979C11.7292 13.5625 11.8542 13.4271 12.0625 13.4271ZM16.1875 13.4375C15.9271 13.4375 15.7708 13.6354 15.7708 13.8854C15.7708 14.1354 15.9271 14.3333 16.1875 14.3333C16.4479 14.3333 16.6146 14.1458 16.6146 13.8854C16.6146 13.6354 16.4479 13.4375 16.1875 13.4375ZM18.6042 13.8854C18.6042 13.6354 18.7708 13.4375 19.0312 13.4375C19.2812 13.4375 19.4583 13.6354 19.4583 13.8854C19.4583 14.1458 19.2812 14.3333 19.0312 14.3333C18.7708 14.3333 18.6042 14.1354 18.6042 13.8854ZM20.2083 14.625C20.2292 14.6354 20.2396 14.6354 20.25 14.6354C20.2708 14.6354 20.2812 14.6354 20.2917 14.625C20.3125 14.625 20.3229 14.6146 20.3333 14.6042C20.3385 14.599 20.3411 14.5937 20.3438 14.5885C20.3464 14.5833 20.349 14.5781 20.3542 14.5729C20.3542 14.5607 20.3577 14.5521 20.3607 14.5449C20.3628 14.5399 20.3646 14.5356 20.3646 14.5312C20.3646 14.519 20.361 14.5104 20.358 14.5033C20.356 14.4982 20.3542 14.4939 20.3542 14.4896L20.3507 14.4822L20.3486 14.4772L20.3456 14.4697C20.3422 14.4608 20.3398 14.4544 20.3333 14.4479C20.3269 14.4415 20.3205 14.439 20.3116 14.4356C20.3061 14.4335 20.2996 14.4311 20.2917 14.4271C20.2812 14.4167 20.2708 14.4167 20.25 14.4167C20.2396 14.4167 20.2292 14.4167 20.2083 14.4271C20.2031 14.4323 20.1979 14.4349 20.1927 14.4375C20.1875 14.4401 20.1823 14.4427 20.1771 14.4479C20.1667 14.4583 20.1562 14.4688 20.1562 14.4896C20.1458 14.5 20.1458 14.5104 20.1458 14.5312C20.1458 14.5417 20.1458 14.5521 20.1562 14.5729C20.1562 14.5833 20.1667 14.5938 20.1771 14.6042C20.1875 14.6146 20.1979 14.625 20.2083 14.625ZM6.23958 14.5938H6.55208V13.7083C6.55208 13.375 6.33333 13.1562 5.98958 13.1458C5.8125 13.1458 5.625 13.1979 5.5 13.3958C5.40625 13.2396 5.25 13.1458 5.03125 13.1458C4.88542 13.1458 4.73958 13.1979 4.625 13.3542V13.1875H4.3125V14.5938H4.625V13.8125C4.625 13.5625 4.76042 13.4375 4.96875 13.4375C5.17708 13.4375 5.28125 13.5729 5.28125 13.8125V14.5938H5.58333V13.8125C5.58333 13.5625 5.72917 13.4375 5.92708 13.4375C6.13542 13.4375 6.23958 13.5729 6.23958 13.8125V14.5938ZM8.27083 14.5938H7.96875V14.4167C7.86458 14.5521 7.71875 14.625 7.52083 14.625C7.125 14.625 6.82292 14.3125 6.82292 13.8854C6.82292 13.4583 7.125 13.1458 7.52083 13.1458C7.71875 13.1458 7.86458 13.2292 7.96875 13.3542V13.1875H8.27083V14.5938ZM9.82292 14.1667C9.82292 13.9167 9.63542 13.7917 9.33333 13.75L9.1875 13.7292C9.05208 13.7083 8.94792 13.6771 8.94792 13.5833C8.94792 13.4896 9.04167 13.4271 9.20833 13.4271C9.39583 13.4271 9.5625 13.4896 9.65625 13.5417L9.78125 13.2917C9.63542 13.1979 9.4375 13.1458 9.20833 13.1458C8.85417 13.1458 8.625 13.3229 8.625 13.6042C8.625 13.8333 8.79167 13.9688 9.11458 14.0104L9.25 14.0312C9.42708 14.0625 9.5 14.1042 9.5 14.1771C9.5 14.2917 9.38542 14.3542 9.17708 14.3542C8.96875 14.3542 8.8125 14.2812 8.70833 14.2083L8.57292 14.4479C8.73958 14.5625 8.94792 14.625 9.17708 14.625C9.58333 14.625 9.82292 14.4375 9.82292 14.1667ZM11.0938 14.2604L11.1771 14.5208C11.0833 14.5833 10.9271 14.625 10.8021 14.625C10.4375 14.625 10.3125 14.4271 10.3125 14.1042V13.4688H10.0208V13.1875H10.3125V12.7604H10.625V13.1875H11.125V13.4688H10.625V14.1042C10.625 14.2396 10.6667 14.3333 10.8229 14.3333C10.9062 14.3333 11 14.3125 11.0938 14.2604ZM12.0729 13.1458C11.6667 13.1458 11.375 13.4479 11.375 13.8854C11.375 14.3333 11.6771 14.625 12.0938 14.625C12.3021 14.625 12.5 14.5729 12.6667 14.4271L12.5208 14.1979C12.4062 14.2917 12.25 14.3542 12.1146 14.3542C11.9167 14.3542 11.7396 14.2604 11.6875 14.0104H12.7396V13.8854C12.7396 13.4479 12.4688 13.1458 12.0729 13.1458ZM13.3646 13.3542C13.4375 13.2292 13.5521 13.1458 13.7292 13.1458C13.7917 13.1458 13.875 13.1562 13.9479 13.1875L13.8542 13.4792C13.7917 13.4479 13.7292 13.4375 13.6667 13.4375C13.4583 13.4375 13.3646 13.5729 13.3646 13.8021V14.5938H13.0521V13.1875H13.3646V13.3542ZM14.0417 13.8854C14.0417 14.3125 14.3333 14.625 14.7917 14.625C15 14.625 15.1458 14.5833 15.2917 14.4583L15.1458 14.2083C15.0312 14.2917 14.9167 14.3438 14.7812 14.3333C14.5312 14.3333 14.3542 14.1562 14.3542 13.8854C14.3542 13.6146 14.5312 13.4375 14.7812 13.4375C14.9167 13.4375 15.0312 13.4792 15.1458 13.5625L15.2917 13.3125C15.1458 13.1979 15 13.1458 14.7917 13.1458C14.3333 13.1458 14.0417 13.4583 14.0417 13.8854ZM16.9062 14.5938H16.5938V14.4167C16.5 14.5521 16.3542 14.625 16.1562 14.625C15.7604 14.625 15.4479 14.3125 15.4479 13.8854C15.4479 13.4583 15.7604 13.1458 16.1562 13.1458C16.3542 13.1458 16.5 13.2292 16.5938 13.3542V13.1875H16.9062V14.5938ZM17.9792 13.1458C17.8021 13.1458 17.6875 13.2292 17.6146 13.3542V13.1875H17.3125V14.5938H17.6146V13.8021C17.6146 13.5729 17.7188 13.4375 17.9167 13.4375C17.9792 13.4375 18.0417 13.4479 18.1042 13.4792L18.1979 13.1875C18.1354 13.1562 18.0417 13.1458 17.9792 13.1458ZM19.7396 14.5938H19.4375V14.4167C19.3438 14.5521 19.1979 14.625 18.9896 14.625C18.6042 14.625 18.2917 14.3125 18.2917 13.8854C18.2917 13.4583 18.6042 13.1458 18.9896 13.1458C19.1979 13.1458 19.3438 13.2292 19.4375 13.3542V12.6146H19.7396V14.5938ZM20.2427 14.3865C20.2397 14.3872 20.2362 14.3882 20.2324 14.3893C20.2223 14.3923 20.2101 14.3958 20.1979 14.3958C20.1771 14.4062 20.1667 14.4167 20.1562 14.4271C20.1354 14.4375 20.125 14.4583 20.125 14.4688C20.1146 14.4896 20.1146 14.5104 20.1146 14.5312C20.1146 14.5417 20.1146 14.5625 20.125 14.5833C20.125 14.5938 20.1354 14.6146 20.1562 14.625C20.1667 14.6354 20.1771 14.6458 20.1979 14.6562C20.2188 14.6667 20.2396 14.6667 20.25 14.6667C20.2708 14.6667 20.2917 14.6667 20.3125 14.6562C20.3177 14.651 20.3255 14.6458 20.3333 14.6406C20.3411 14.6354 20.349 14.6302 20.3542 14.625C20.3594 14.6198 20.3646 14.612 20.3698 14.6042C20.3722 14.6006 20.3745 14.597 20.3769 14.5937C20.3797 14.5898 20.3826 14.5862 20.3854 14.5833C20.3958 14.5625 20.3958 14.5417 20.3958 14.5312C20.3958 14.5104 20.3958 14.4896 20.3854 14.4688C20.3802 14.4635 20.375 14.4557 20.3698 14.4479L20.3698 14.4479C20.3646 14.4401 20.3594 14.4323 20.3542 14.4271C20.349 14.4219 20.3411 14.4167 20.3333 14.4115C20.3287 14.4084 20.3241 14.4053 20.3201 14.4022C20.3172 14.4001 20.3146 14.398 20.3125 14.3958C20.3021 14.3958 20.2917 14.3932 20.2812 14.3906C20.2708 14.388 20.2604 14.3854 20.25 14.3854C20.248 14.3854 20.2455 14.3858 20.2427 14.3865Z" fill="#333333"/>
</svg>
