<svg width="24" height="16" viewBox="0 0 24 16" fill="none" xmlns="http://www.w3.org/2000/svg">
<path d="M23.2727 3.77273V2.54545C23.2727 1.13964 22.1331 0 20.7273 0H2.54545C1.13964 0 0 1.13964 0 2.54545V3.77273C0 3.89823 0.101773 4 0.227273 4H23.0455C23.171 4 23.2727 3.89823 23.2727 3.77273Z" fill="#4F4F4F"/>
<path d="M0 5.6818V13.4545C0 14.8603 1.13964 16 2.54545 16H20.7273C22.1331 16 23.2727 14.8603 23.2727 13.4545V5.6818C23.2727 5.5563 23.171 5.45453 23.0455 5.45453H0.227273C0.101773 5.45453 0 5.5563 0 5.6818ZM5.81818 11.6363C5.81818 12.038 5.49255 12.3636 5.09091 12.3636H4.36364C3.962 12.3636 3.63636 12.038 3.63636 11.6363V10.9091C3.63636 10.5074 3.962 10.1818 4.36364 10.1818H5.09091C5.49255 10.1818 5.81818 10.5074 5.81818 10.9091V11.6363Z" fill="#4F4F4F"/>
</svg>
