<svg width="40" height="40" viewBox="0 0 40 40" fill="none" xmlns="http://www.w3.org/2000/svg">
<circle cx="20" cy="20" r="20" fill="#C926B4"/>
<g clip-path="url(#clip0)">
<path d="M30.0002 21.6016C30.0002 21.278 29.7379 21.0156 29.4143 21.0156H25.0959C24.98 21.7901 24.9115 22.5729 24.8906 23.3594H30.0002V21.6016Z" fill="#FCF8FD"/>
<path d="M24.8381 24.5312C24.696 25.5855 24.2163 26.5579 23.4516 27.3218C22.5296 28.2428 21.3041 28.75 20.0011 28.75H20.0006C17.9705 28.7497 16.131 27.4721 15.4231 25.5707C15.2995 25.2388 15.2171 24.8916 15.1754 24.5312H10V29.4141C10 29.7377 10.2623 30 10.5859 30H29.4141C29.7377 30 30 29.7377 30 29.4141V24.5312H24.8381ZM12.1875 27.0703C11.8639 27.0703 11.6016 26.808 11.6016 26.4844C11.6016 26.1608 11.8639 25.8984 12.1875 25.8984C12.5111 25.8984 12.7734 26.1608 12.7734 26.4844C12.7734 26.808 12.5111 27.0703 12.1875 27.0703ZM14.5312 27.6562C14.2077 27.6562 13.9453 27.3939 13.9453 27.0703C13.9453 26.7467 14.2077 26.4844 14.5312 26.4844C14.8548 26.4844 15.1172 26.7467 15.1172 27.0703C15.1172 27.3939 14.8548 27.6562 14.5312 27.6562ZM25.4688 27.6562C25.1452 27.6562 24.8828 27.3939 24.8828 27.0703C24.8828 26.7467 25.1452 26.4844 25.4688 26.4844C25.7923 26.4844 26.0547 26.7467 26.0547 27.0703C26.0547 27.3939 25.7923 27.6562 25.4688 27.6562ZM27.8125 27.0703C27.4889 27.0703 27.2266 26.808 27.2266 26.4844C27.2266 26.1608 27.4889 25.8984 27.8125 25.8984C28.1361 25.8984 28.3984 26.1608 28.3984 26.4844C28.3984 26.808 28.1361 27.0703 27.8125 27.0703Z" fill="#FCF8FD"/>
<path d="M17.8129 15.0781C17.1345 15.0781 16.5263 14.7278 16.1857 14.1411C15.8452 13.5544 15.8429 12.8525 16.1795 12.2634L17.3042 10.2952C17.4085 10.1127 17.6026 10 17.8129 10C18.0232 10 18.2173 10.1127 18.3216 10.2952L19.4463 12.2634C19.7829 12.8525 19.7806 13.5544 19.44 14.1411C19.0995 14.7278 18.4913 15.0781 17.8129 15.0781Z" fill="#FCF8FD"/>
<path d="M14.0236 19.7656C13.2518 19.7656 12.5597 19.3671 12.1723 18.6996C11.7849 18.032 11.7823 17.2334 12.1652 16.5633L13.5148 14.2014C13.6192 14.0189 13.8133 13.9062 14.0236 13.9062C14.2338 13.9062 14.428 14.0189 14.5323 14.2015L15.8819 16.5634C16.2649 17.2334 16.2622 18.0321 15.8748 18.6996C15.4874 19.3672 14.7954 19.7656 14.0236 19.7656Z" fill="#FCF8FD"/>
<path d="M15.2089 23.1371C15.3194 22.4187 15.4735 21.7104 15.6691 21.0156H10.5859C10.2623 21.0156 10 21.278 10 21.6016V23.3594H15.1795C15.188 23.2856 15.1974 23.2116 15.2089 23.1371Z" fill="#FCF8FD"/>
<path d="M28.2932 10.2507C28.1446 10.0377 27.8736 9.94809 27.6273 10.03L27.5566 10.0536C24.6515 11.022 22.0722 12.7709 20.0974 15.1114C18.1227 17.4519 16.8328 20.2888 16.3672 23.3154C16.2637 23.9877 16.3156 24.6089 16.5215 25.1618C17.0595 26.6069 18.4574 27.578 20.0007 27.5781H20.0012C20.9915 27.5781 21.9227 27.1926 22.6236 26.4926C23.3248 25.7921 23.711 24.861 23.711 23.8706V23.8675C23.711 19.2137 25.3127 14.6487 28.2212 11.0132L28.2702 10.9519C28.4324 10.749 28.4417 10.4637 28.2932 10.2507ZM20.0001 25.7422C19.0293 25.7422 18.2423 24.9552 18.2423 23.9843C18.2423 23.0135 19.0293 22.2265 20.0001 22.2265C20.9709 22.2265 21.7579 23.0135 21.7579 23.9843C21.7579 24.9552 20.9709 25.7422 20.0001 25.7422ZM20.0001 24.5703C19.6765 24.5703 19.4142 24.3079 19.4142 23.9843C19.4142 23.6608 19.6765 23.3984 20.0001 23.3984C20.3237 23.3984 20.586 23.6608 20.586 23.9843C20.586 24.3079 20.3237 24.5703 20.0001 24.5703Z" fill="#FCF8FD"/>
</g>
<defs>
<clipPath id="clip0">
<rect width="20" height="20" fill="white" transform="translate(10 10)"/>
</clipPath>
</defs>
</svg>
