<svg width="25" height="15" viewBox="0 0 25 15" fill="none" xmlns="http://www.w3.org/2000/svg">
<path fill-rule="evenodd" clip-rule="evenodd" d="M11.9246 7.70014C11.9194 7.98805 11.6838 8.22361 11.3959 8.21837C11.108 8.21319 10.8724 7.97763 10.8777 7.68972C10.8777 7.21331 10.4903 6.82595 10.014 6.82595H10.0035C9.52713 6.82595 9.13976 7.21855 9.145 7.6949C9.145 8.17126 9.5376 8.55863 10.014 8.55344C11.0714 8.55344 11.9246 9.4067 11.9246 10.4641C11.9141 11.3174 11.3488 12.0607 10.5322 12.3014V12.6417C10.5322 12.9296 10.2966 13.1651 10.0087 13.1651C9.72081 13.1651 9.48525 12.9296 9.48525 12.6417V12.3014C8.66864 12.0607 8.10329 11.3174 8.09806 10.4641C8.09806 10.1762 8.33362 9.94063 8.62153 9.94063C8.90944 9.94063 9.145 10.1762 9.145 10.4641C9.145 10.9404 9.53236 11.3278 10.0087 11.3278C10.4851 11.3278 10.8724 10.9404 10.8724 10.4641C10.8724 9.9877 10.4851 9.60038 10.0087 9.60038C9.15547 9.60038 8.40691 9.03498 8.17134 8.21319C7.88344 7.20284 8.46972 6.1402 9.48525 5.85229V5.51204C9.48525 5.22413 9.72081 4.98857 10.0087 4.98857C10.2966 4.98857 10.5322 5.22413 10.5322 5.51204V5.85229C11.354 6.09309 11.9141 6.83641 11.9246 7.68972V7.70014ZM5.65346 4.24003H1.85831L4.75833 1.518H8.53777L5.67963 4.19821C5.66916 4.20334 5.66393 4.18769 5.65346 4.24003ZM18.0859 1.53893C18.0911 1.53893 18.0963 1.518 18.1068 1.518H22.5563L19.6563 4.24003H15.2016L18.0859 1.53893ZM24.3308 11.4011C24.1685 11.1604 23.8492 11.0975 23.6084 11.2598L19.7034 13.8196H14.5629V11.6733H19.8604C19.9703 11.6733 20.0802 11.6315 20.164 11.5687L24.1947 8.65822C24.4303 8.49071 24.4826 8.16093 24.3099 7.93055C24.1424 7.69499 23.8126 7.64264 23.5823 7.81538L19.6929 10.6264H14.5629V8.42784H19.8604C19.9756 8.43308 20.0907 8.39649 20.1849 8.32838L24.2157 5.15093C24.4408 4.96772 24.4774 4.63793 24.2942 4.41284C24.1162 4.18775 23.7916 4.1511 23.5666 4.32385L19.6772 7.38091H14.5629V5.28703H19.8604C19.9913 5.2818 20.1222 5.22945 20.2164 5.14051L24.2471 1.4029C24.4041 1.25109 24.4564 1.02076 24.3779 0.816611C24.2994 0.612511 24.1057 0.476356 23.8912 0.471122H18.8972C18.892 0.471122 18.8815 0.37695 18.8659 0.33502C18.7873 0.136102 18.5936 0 18.379 0H10.3699C10.239 0 10.1082 0.0523469 10.014 0.141389L9.66323 0.471122H4.55418C4.42331 0.476356 4.29244 0.528703 4.19822 0.622927L0.16751 4.35531C0.0104694 4.50706 -0.0418775 4.73739 0.0366428 4.94154C0.115163 5.1457 0.308846 5.2818 0.523468 5.28703H5.50689V7.38091H0.523468C0.235561 7.38091 0 7.61647 0 7.90437C0 8.19228 0.235561 8.42784 0.523468 8.42784H5.50689V10.6264H0.523468C0.235561 10.6264 0 10.862 0 11.1499C0 11.4378 0.235561 11.6733 0.523468 11.6733H5.50689V13.8196H0.523468C0.235561 13.8196 0 14.0551 0 14.343C0 14.6309 0.235561 14.8665 0.523468 14.8665H19.8604C19.9651 14.8613 20.0645 14.8299 20.1484 14.767L24.1791 12.1288C24.4198 11.9718 24.4879 11.6419 24.3308 11.4011Z" fill="#4F4F4F"/>
<rect x="6.81384" y="4.95551" width="6.19438" height="9.29157" fill="#4F4F4F"/>
</svg>
