<svg width="44" height="28" viewBox="0 0 44 28" fill="none" xmlns="http://www.w3.org/2000/svg">
<path d="M6.65061 1.02344H21.817C23.1887 1.02344 24.5042 1.56835 25.4742 2.5383C26.4441 3.50825 26.989 4.82379 26.989 6.19551V11.3096C26.9892 11.9889 26.8555 12.6616 26.5956 13.2892C26.3358 13.9168 25.9548 14.4871 25.4745 14.9675C24.9942 15.4478 24.424 15.8289 23.7965 16.0889C23.1689 16.3489 22.4963 16.4827 21.817 16.4827H9.51255L5.46106 20.1813V16.3447C4.32727 16.0763 3.31721 15.4332 2.5943 14.5194C1.87139 13.6057 1.47792 12.4747 1.47754 11.3096V6.19551C1.4778 4.8237 2.02294 3.50817 2.99305 2.53824C3.96316 1.56832 5.2788 1.02344 6.65061 1.02344Z" fill="url(#paint0_linear_2_55081)" fill-opacity="0.2"/>
<path d="M5.46196 21.0679C5.22715 21.0676 5.00203 20.9742 4.83599 20.8082C4.66995 20.6421 4.57655 20.417 4.57629 20.1822V17.0034C3.40886 16.5772 2.40063 15.8025 1.68811 14.7842C0.975592 13.7659 0.59322 12.5533 0.592773 11.3105V6.19642C0.592773 5.40082 0.749495 4.61301 1.05399 3.87799C1.35848 3.14296 1.80478 2.47512 2.3674 1.91259C2.93002 1.35006 3.59794 0.903875 4.33301 0.599503C5.06809 0.295132 5.85592 0.138541 6.65152 0.138672H21.8179C23.4245 0.138937 24.9653 0.777215 26.1014 1.91318C27.2375 3.04914 27.8761 4.58979 27.8766 6.19642V11.3105C27.8763 12.9173 27.2379 14.4582 26.1018 15.5944C24.9656 16.7306 23.4247 17.369 21.8179 17.3693H9.85732L6.05874 20.836C5.8958 20.9851 5.68288 21.0679 5.46196 21.0679ZM6.65152 1.91001C5.51501 1.91133 4.42541 2.36333 3.62168 3.16687C2.81795 3.97041 2.3657 5.05991 2.36411 6.19642V11.3105C2.36067 12.2853 2.69282 13.2317 3.30476 13.9905C3.90381 14.7366 4.73417 15.262 5.66488 15.484C5.85912 15.5297 6.03222 15.6396 6.15614 15.796C6.28006 15.9524 6.34753 16.1461 6.34763 16.3456V18.174L8.91667 15.8328C9.08053 15.6833 9.29463 15.6009 9.51645 15.6019H21.8179C22.9546 15.6006 24.0443 15.1485 24.8481 14.3447C25.6518 13.5409 26.1039 12.4512 26.1053 11.3145V6.19642C26.1037 5.05991 25.6514 3.97041 24.8477 3.16687C24.044 2.36333 22.9544 1.91133 21.8179 1.91001H6.65152Z" fill="white"/>
<path d="M36.7743 4.33521H18.851C17.2298 4.33521 15.675 4.97922 14.5287 6.12558C13.3823 7.27194 12.7383 8.82673 12.7383 10.4479V16.4907C12.7382 17.2935 12.8962 18.0885 13.2033 18.8302C13.5104 19.572 13.9607 20.2459 14.5283 20.8137C15.0959 21.3814 15.7698 21.8317 16.5115 22.139C17.2532 22.4463 18.0482 22.6044 18.851 22.6044H33.3916L38.1798 26.9748V22.4415C39.5199 22.1245 40.7137 21.3645 41.568 20.2845C42.4223 19.2045 42.8871 17.8677 42.887 16.4907V10.4479C42.887 8.82673 42.243 7.27194 41.0967 6.12558C39.9503 4.97922 38.3955 4.33521 36.7743 4.33521Z" fill="url(#paint1_linear_2_55081)"/>
<path d="M38.1797 27.8611C37.9579 27.8622 37.7437 27.7798 37.5799 27.6302L33.0456 23.4907H18.8509C16.9951 23.4907 15.2153 22.7535 13.903 21.4412C12.5907 20.129 11.8535 18.3491 11.8535 16.4933V10.4486C11.8535 8.59274 12.5907 6.81293 13.903 5.50066C15.2153 4.1884 16.9951 3.45117 18.8509 3.45117H36.7742C38.6301 3.45117 40.4099 4.1884 41.7221 5.50066C43.0344 6.81293 43.7716 8.59274 43.7716 10.4486V16.4913C43.7736 18.0826 43.2315 19.6268 42.2352 20.8677C41.4087 21.896 40.3101 22.6715 39.0644 23.1058V26.9754C39.0646 27.0918 39.0419 27.2071 38.9975 27.3146C38.9531 27.4222 38.8878 27.52 38.8056 27.6023C38.7233 27.6846 38.6255 27.7498 38.5179 27.7942C38.4104 27.8386 38.2951 27.8613 38.1787 27.8611H38.1797ZM18.8509 5.22151C17.4656 5.22389 16.1378 5.77546 15.1585 6.75529C14.1792 7.73512 13.6284 9.06327 13.6269 10.4486V16.4913C13.6282 17.8773 14.1793 19.2062 15.1592 20.1863C16.1392 21.1664 17.4679 21.7178 18.8539 21.7194H33.3915C33.6133 21.7183 33.8274 21.8008 33.9913 21.9503L37.297 24.9682V22.4421C37.2973 22.2425 37.3648 22.0488 37.4886 21.8922C37.6125 21.7357 37.7855 21.6255 37.9798 21.5794C39.1146 21.309 40.1271 20.6686 40.8577 19.7591C41.604 18.8339 42.0089 17.68 42.0043 16.4913V10.4486C42.0027 9.06275 41.4515 7.73415 40.4716 6.75423C39.4916 5.77431 38.163 5.2231 36.7772 5.22151H18.8509Z" fill="white"/>
<path d="M22.2895 14.8061C23.1657 14.8061 23.8759 14.0959 23.8759 13.2197C23.8759 12.3436 23.1657 11.6333 22.2895 11.6333C21.4134 11.6333 20.7031 12.3436 20.7031 13.2197C20.7031 14.0959 21.4134 14.8061 22.2895 14.8061Z" fill="white"/>
<path d="M27.8139 14.8061C28.6901 14.8061 29.4004 14.0959 29.4004 13.2197C29.4004 12.3436 28.6901 11.6333 27.8139 11.6333C26.9378 11.6333 26.2275 12.3436 26.2275 13.2197C26.2275 14.0959 26.9378 14.8061 27.8139 14.8061Z" fill="white"/>
<path d="M33.3354 14.8061C34.2116 14.8061 34.9218 14.0959 34.9218 13.2197C34.9218 12.3436 34.2116 11.6333 33.3354 11.6333C32.4593 11.6333 31.749 12.3436 31.749 13.2197C31.749 14.0959 32.4593 14.8061 33.3354 14.8061Z" fill="white"/>
<defs>
<linearGradient id="paint0_linear_2_55081" x1="14.2333" y1="1.02344" x2="14.2333" y2="20.1813" gradientUnits="userSpaceOnUse">
<stop stop-color="#E294D8"/>
<stop offset="1" stop-color="#F307D5"/>
</linearGradient>
<linearGradient id="paint1_linear_2_55081" x1="27.8127" y1="4.33521" x2="27.8127" y2="26.9748" gradientUnits="userSpaceOnUse">
<stop stop-color="#C926B4"/>
<stop offset="1" stop-color="#8D28AD"/>
</linearGradient>
</defs>
</svg>
