<svg width="8" height="8" viewBox="0 0 8 8" fill="none" xmlns="http://www.w3.org/2000/svg">
<path d="M7.96154 1.21793C7.98718 1.26921 8 1.30767 8 1.33331C8 1.35895 7.98718 1.39742 7.96154 1.4487L3.17308 7.60254C3.09615 7.67947 3.03846 7.71793 3 7.71793C2.9359 7.71793 2.8718 7.68588 2.80769 7.62177L0.0961538 5.00639L0.0384615 4.9487C0.0128204 4.89742 0 4.85895 0 4.83331C0 4.82049 0.0128204 4.78844 0.0384615 4.73716L0.0769231 4.6987C0.435899 4.31408 0.717948 4.01921 0.923077 3.81408C1 3.73716 1.05128 3.6987 1.07692 3.6987C1.12821 3.6987 1.19231 3.73716 1.26923 3.81408L2.80769 5.31408L6.65385 0.371775C6.67949 0.346133 6.71795 0.333313 6.76923 0.333313C6.80769 0.333313 6.85256 0.346133 6.90385 0.371775L7.96154 1.21793Z" fill="white"/>
</svg>
