<svg width="15" height="15" viewBox="0 0 15 15" fill="none" xmlns="http://www.w3.org/2000/svg">
<path d="M14.5713 2.05081C14.3506 1.82976 13.9926 1.82938 13.7719 2.04987L6.98992 8.81399L4.54299 6.15638C4.33155 5.92687 3.97407 5.91199 3.74418 6.1234C3.51446 6.33483 3.49975 6.69249 3.71119 6.92221L6.55668 10.0125C6.66089 10.1257 6.80673 10.1915 6.96051 10.1947C6.96464 10.1949 6.96862 10.1949 6.97258 10.1949C7.12202 10.1949 7.26578 10.1355 7.37169 10.03L14.5702 2.85035C14.7914 2.62989 14.7918 2.27185 14.5713 2.05081Z" fill="#C926B4"/>
<path d="M14.4347 6.93466C14.1224 6.93466 13.8693 7.18772 13.8693 7.5C13.8693 11.0122 11.0122 13.8693 7.5 13.8693C3.98801 13.8693 1.13065 11.0122 1.13065 7.5C1.13065 3.98801 3.98801 1.13065 7.5 1.13065C7.81225 1.13065 8.06534 0.877588 8.06534 0.565342C8.06534 0.253066 7.81225 0 7.5 0C3.36445 0 0 3.36445 0 7.5C0 11.6354 3.36445 15 7.5 15C11.6354 15 15 11.6354 15 7.5C15 7.18775 14.7469 6.93466 14.4347 6.93466Z" fill="#C926B4"/>
</svg>
