<svg width="39" height="39" viewBox="0 0 39 39" fill="none" xmlns="http://www.w3.org/2000/svg">
<path d="M19.5 0C8.78262 0 0 8.78262 0 19.5C0 30.2174 8.78262 39 19.5 39C30.2174 39 39 30.2174 39 19.5C39 8.78262 30.2174 0 19.5 0ZM4.64648 19.5C4.64648 11.3191 11.3191 4.64648 19.5 4.64648C22.5849 4.64648 25.5557 5.60617 28.0922 7.41145L19.5 16.0036L7.4116 28.0922C5.60617 25.5556 4.64648 22.5849 4.64648 19.5ZM19.5 34.3535C16.4151 34.3535 13.4443 33.3937 10.9078 31.5884L31.5885 10.9077C33.3938 13.4443 34.3535 16.415 34.3535 19.5C34.3535 27.6808 27.6809 34.3535 19.5 34.3535Z" fill="#FF3636"/>
</svg>
