<svg width="39" height="39" viewBox="0 0 39 39" fill="none" xmlns="http://www.w3.org/2000/svg">
<path d="M19.5 39C30.2696 39 39 30.2696 39 19.5C39 8.73045 30.2696 0 19.5 0C8.73045 0 0 8.73045 0 19.5C0 30.2696 8.73045 39 19.5 39Z" fill="#00DF76"/>
<path d="M19.5001 0C19.4912 0 19.4825 0.000304649 19.4736 0.000304649V38.9996C19.4825 38.9996 19.4912 38.9999 19.5001 38.9999C30.2696 38.9999 39.0001 30.2695 39.0001 19.4999C39.0001 8.73034 30.2696 0 19.5001 0Z" fill="#00AB5E"/>
<path d="M8.47578 19.8873L16.363 27.7719C16.707 28.1158 17.2647 28.1158 17.6087 27.7719L30.5572 14.8276C30.9012 14.4837 30.9012 13.9261 30.5572 13.5822L28.2004 11.2262C27.8564 10.8823 27.2986 10.8823 26.9546 11.2262L17.5366 20.641C17.1926 20.9848 16.6349 20.9848 16.2909 20.641L12.0704 16.4218C11.7332 16.0847 11.1888 16.0771 10.8423 16.4046L8.49346 18.6247C8.13294 18.9655 8.12494 19.5365 8.47578 19.8873Z" fill="#FFF5F5"/>
<path d="M28.1999 11.2262C27.856 10.8823 27.2982 10.8823 26.9542 11.2262L19.4736 18.7043V25.9072L30.5568 14.8277C30.9008 14.4838 30.9008 13.9262 30.5568 13.5822L28.1999 11.2262Z" fill="#DFEBF1"/>
</svg>
