<svg width="40" height="40" viewBox="0 0 40 40" fill="none" xmlns="http://www.w3.org/2000/svg">
<circle cx="20" cy="20" r="20" fill="#C926B4"/>
<path d="M23.5461 23.5908H21.6353C21.5394 23.5923 21.4452 23.6165 21.3605 23.6614C21.2758 23.7063 21.2029 23.7707 21.1478 23.8492L18.3621 27.7878L16.4342 24.4926C16.38 24.4012 16.303 24.3255 16.2107 24.273C16.1184 24.2204 16.014 24.1928 15.9078 24.1928L11.9497 24.2318C11.7915 24.2362 11.6412 24.3021 11.5307 24.4153C11.4201 24.5286 11.358 24.6804 11.3574 24.8387C11.3902 26.5193 12.0808 28.1201 13.2809 29.297C14.4811 30.474 16.095 31.1333 17.7759 31.1333C19.4568 31.1333 21.0707 30.474 22.2709 29.297C23.471 28.1201 24.1616 26.5193 24.1944 24.8387C24.1947 24.5943 24.1801 24.3501 24.1505 24.1075C24.1283 23.9633 24.0551 23.8318 23.9442 23.737C23.8333 23.6422 23.692 23.5903 23.5461 23.5908Z" fill="white"/>
<path d="M12.5638 21.4267H13.7434C13.8529 21.4264 13.9602 21.3965 14.0541 21.3403C14.148 21.2841 14.2251 21.2037 14.2772 21.1075L16.3805 17.2079L18.1938 20.7784C18.233 20.8552 18.2879 20.9227 18.3551 20.9767C18.4222 21.0306 18.5001 21.0697 18.5834 21.0913C18.6668 21.113 18.7538 21.1167 18.8388 21.1023C18.9237 21.0878 19.0046 21.0555 19.0761 21.0075L19.8731 20.4738H22.5955C22.7004 20.4732 22.8034 20.4459 22.8947 20.3942C22.986 20.3426 23.0625 20.2685 23.117 20.1789C23.1711 20.0893 23.2011 19.9872 23.2041 19.8826C23.2071 19.7779 23.183 19.6743 23.1341 19.5817L17.7722 9.32583C17.7184 9.22347 17.6366 9.13854 17.5363 9.08094C17.436 9.02335 17.3214 8.99548 17.2059 9.0006C17.0904 9.00571 16.9787 9.04359 16.8839 9.10981C16.7891 9.17603 16.7151 9.26787 16.6705 9.37458L11.9959 20.5859C11.9577 20.6788 11.9431 20.7796 11.9534 20.8795C11.9636 20.9794 11.9984 21.0752 12.0546 21.1585C12.1108 21.2417 12.1867 21.3097 12.2755 21.3565C12.3643 21.4033 12.4634 21.4274 12.5638 21.4267Z" fill="white"/>
<path d="M30 15.2166C30.0003 14.4779 29.7841 13.7553 29.3782 13.1382C28.9724 12.521 28.3946 12.0363 27.7162 11.7439C27.0379 11.4514 26.2888 11.3642 25.5614 11.4928C24.834 11.6215 24.1603 11.9605 23.6234 12.4678C23.0865 12.9752 22.7101 13.6287 22.5406 14.3477C22.3711 15.0666 22.4159 15.8195 22.6695 16.5133C22.9232 17.207 23.3745 17.8113 23.9678 18.2513C24.5611 18.6914 25.2703 18.948 26.0078 18.9894V20.4518C26.0078 20.8515 25.4619 21.3267 24.9988 21.3267H20.1487C20.0418 21.3262 19.9367 21.3542 19.8441 21.4077C19.7516 21.4612 19.675 21.5385 19.6222 21.6314L18.4694 23.6202L17.0071 19.7499C16.9641 19.6348 16.8873 19.5355 16.7869 19.4649C16.6864 19.3942 16.567 19.3556 16.4442 19.354C16.3214 19.3524 16.201 19.388 16.0988 19.456C15.9966 19.524 15.9173 19.6214 15.8713 19.7352L14.8964 22.1286H10.6093C10.4477 22.1286 10.2927 22.1928 10.1785 22.3071C10.0642 22.4213 10 22.5763 10 22.7379C10 22.8995 10.0642 23.0545 10.1785 23.1688C10.2927 23.283 10.4477 23.3472 10.6093 23.3472H15.3229C15.4443 23.3474 15.563 23.3113 15.6638 23.2435C15.7645 23.1758 15.8427 23.0795 15.8884 22.967L16.4246 21.6411L17.7821 25.2531C17.8225 25.3617 17.893 25.4566 17.9854 25.5265C18.0778 25.5964 18.1882 25.6386 18.3037 25.648H18.3524C18.4596 25.6482 18.5649 25.6201 18.6578 25.5666C18.7506 25.5132 18.8277 25.4361 18.8813 25.3433L20.5021 22.5356H24.9988C26.1443 22.5356 27.2264 21.5168 27.2264 20.442V18.8554C28.0227 18.635 28.7249 18.16 29.2257 17.5029C29.7266 16.8458 29.9985 16.0428 30 15.2166ZM26.2198 17.7708C25.7129 17.7708 25.2174 17.6204 24.796 17.3386C24.3746 17.0568 24.0463 16.6563 23.8526 16.1878C23.6589 15.7193 23.6086 15.2039 23.7081 14.7068C23.8075 14.2098 24.0522 13.7533 24.4112 13.3954C24.7701 13.0375 25.2272 12.7941 25.7246 12.6961C26.222 12.5981 26.7372 12.6498 27.2052 12.8448C27.6731 13.0398 28.0727 13.3693 28.3532 13.7915C28.6338 14.2137 28.7828 14.7096 28.7814 15.2166C28.7782 15.8943 28.507 16.5432 28.0271 17.0217C27.5472 17.5002 26.8975 17.7695 26.2198 17.7708Z" fill="white"/>
<path d="M27.6725 13.5205C27.5446 13.4218 27.3829 13.3777 27.2226 13.3978C27.0624 13.4179 26.9165 13.5006 26.817 13.6278L25.8421 14.8464C25.7413 14.9727 25.6947 15.134 25.7128 15.2947C25.7309 15.4553 25.812 15.6022 25.9384 15.7031C26.0647 15.8039 26.226 15.8504 26.3866 15.8324C26.5473 15.8143 26.6942 15.7332 26.7951 15.6068L27.7699 14.3882C27.8216 14.3252 27.86 14.2526 27.8831 14.1746C27.9062 14.0965 27.9134 14.0146 27.9043 13.9338C27.8952 13.8529 27.87 13.7747 27.8302 13.7037C27.7904 13.6327 27.7367 13.5704 27.6725 13.5205Z" fill="white"/>
</svg>
