<svg width="3" height="9" viewBox="0 0 3 9" fill="none" xmlns="http://www.w3.org/2000/svg">
<path d="M1.21765 8.091C0.888315 8.091 0.615315 7.99133 0.398648 7.792C0.190648 7.584 0.0866485 7.32833 0.0866485 7.025C0.0866485 6.72167 0.190648 6.47033 0.398648 6.271C0.615315 6.063 0.888315 5.959 1.21765 5.959C1.53832 5.959 1.80265 6.063 2.01065 6.271C2.21865 6.47033 2.32265 6.72167 2.32265 7.025C2.32265 7.32833 2.21865 7.584 2.01065 7.792C1.80265 7.99133 1.53832 8.091 1.21765 8.091ZM1.21765 2.709C0.888315 2.709 0.615315 2.60933 0.398648 2.41C0.190648 2.202 0.0866485 1.94633 0.0866485 1.643C0.0866485 1.33967 0.190648 1.08833 0.398648 0.888999C0.615315 0.680999 0.888315 0.576999 1.21765 0.576999C1.53832 0.576999 1.80265 0.680999 2.01065 0.888999C2.21865 1.08833 2.32265 1.33967 2.32265 1.643C2.32265 1.94633 2.21865 2.202 2.01065 2.41C1.80265 2.60933 1.53832 2.709 1.21765 2.709Z" fill="black"/>
</svg>
