<svg width="119" height="83" viewBox="0 0 119 83" fill="none" xmlns="http://www.w3.org/2000/svg">
<path d="M118.5 41.5C118.5 35.9784 115.306 30.6473 109.369 25.7314C103.435 20.8182 94.8184 16.3712 84.1269 12.627C62.7485 5.14002 33.182 0.5 0.5 0.5C-32.182 0.5 -61.7485 5.14002 -83.1269 12.627C-93.8184 16.3712 -102.435 20.8182 -108.369 25.7314C-114.306 30.6473 -117.5 35.9784 -117.5 41.5C-117.5 47.0216 -114.306 52.3527 -108.369 57.2686C-102.435 62.1818 -93.8184 66.6288 -83.1269 70.373C-61.7485 77.86 -32.182 82.5 0.5 82.5C33.182 82.5 62.7485 77.86 84.1269 70.373C94.8184 66.6288 103.435 62.1818 109.369 57.2686C115.306 52.3527 118.5 47.0216 118.5 41.5Z" stroke="#C926B4"/>
</svg>
