<svg width="40" height="40" viewBox="0 0 40 40" fill="none" xmlns="http://www.w3.org/2000/svg">
<circle cx="20" cy="20" r="20" fill="#C926B4"/>
<g clip-path="url(#clip0)">
<path d="M10.6257 15.6168C10.7646 15.6168 10.9041 15.5618 11.0159 15.4502C11.0229 15.4432 11.7359 14.7388 13.1189 14.0223C14.3941 13.3617 16.5176 12.5548 19.3919 12.462C19.7154 12.4516 19.9701 12.1489 19.9607 11.786C19.9514 11.423 19.6805 11.137 19.3582 11.1478C13.3997 11.34 10.3595 14.344 10.233 14.4718C9.83454 14.8744 10.0918 15.6168 10.6257 15.6168Z" fill="#FCF8FD"/>
<path d="M19.9293 19.2086C20.4954 19.2527 20.9763 18.7562 20.9763 18.111C20.4612 18.0598 20.0495 17.598 20.0039 17.02C19.7194 17.02 19.4688 17.1482 19.2856 17.3684C18.7227 18.0451 19.1212 19.1461 19.9293 19.2086Z" fill="#FCF8FD"/>
<path d="M29.844 17.6693C29.6797 17.4706 29.4122 17.2071 29.2193 17.029C29.5007 16.7701 29.7737 16.3983 29.9308 15.8697C30.0333 15.5253 29.8674 15.153 29.5605 15.038C29.2536 14.9231 28.9217 15.1092 28.8192 15.4536C28.6956 15.8694 28.4148 16.0917 28.2124 16.2025C27.9256 15.9922 27.6009 15.7732 27.2388 15.5554C27.2152 15.5432 27.9039 15.0719 28.3566 13.8021C28.4767 13.465 28.3306 13.0824 28.0301 12.9476C27.7296 12.8127 27.3887 12.9768 27.2685 13.3138C26.8944 14.3634 26.272 14.7566 25.9813 14.8884C25.9645 14.883 25.5758 14.6917 24.969 14.4681C25.3688 14.0589 25.7383 13.47 25.8871 12.635C25.9506 12.279 25.7448 11.9327 25.4274 11.8615C25.1099 11.7905 24.8015 12.0212 24.738 12.3772C24.546 13.4541 23.7388 13.8782 23.4334 14.0021C22.9721 13.8908 22.6379 13.83 22.1958 13.7616C22.4397 13.3913 22.6507 12.9097 22.7621 12.2845C22.8256 11.9285 22.6198 11.5821 22.3024 11.5109C21.9848 11.4398 21.6765 11.6707 21.613 12.0267C21.4154 13.1352 20.7608 13.5154 20.5465 13.6118C20.5462 13.6118 20.546 13.6118 20.5457 13.6118C19.2412 13.5654 17.9952 13.6854 16.8517 13.9361C12.488 14.8933 10.2492 17.5564 10.156 17.6693C10.0567 17.7896 9.99873 17.953 10 18.1218C10.0017 18.3257 10.0506 23.1602 10.9972 27.0542C11.0824 27.4045 11.4045 27.6111 11.7167 27.5154C12.0288 27.4199 12.213 27.0585 12.1278 26.7082C11.9296 25.8927 11.7723 25.0245 11.6476 24.1655C12.8242 26.5022 14.5303 28.2399 16.6476 29.2401C16.9475 29.3818 17.2901 29.2222 17.4151 28.8894C17.5406 28.5547 17.4006 28.1693 17.1024 28.0284C14.6027 26.8475 12.9348 24.6567 11.9636 21.8409C14.0015 24.6651 16.721 26.4868 20 26.4868C23.0003 26.4868 25.5759 24.9626 27.6052 22.4103C29.1863 20.4218 29.9246 18.4508 29.9553 18.3678C30.043 18.1306 29.9995 17.8578 29.844 17.6693ZM20.2015 15.716C20.7228 15.7707 21.123 16.2306 21.1677 16.8058C21.6805 16.856 22.0904 17.3051 22.139 17.8896C22.2605 19.3508 21.1936 20.6245 19.8488 20.5206C18.7865 20.4383 17.9301 19.4775 17.8568 18.2857C17.7642 16.7798 18.8967 15.5797 20.2015 15.716ZM16.5078 16.4588C15.4832 19.1769 17.2043 22.2258 19.8199 22.3624C21.9908 22.4758 23.7891 20.5271 23.7891 18.116C23.7891 17.5326 23.6858 16.9687 23.4888 16.4496C23.3061 15.9683 23.6896 15.4265 24.194 15.581C24.3661 15.6337 24.507 15.7722 24.5761 15.9567C24.8281 16.6291 24.9604 17.358 24.9609 18.1121C24.9628 21.1219 22.8625 23.5704 20.1815 23.6783C17.3637 23.7916 15.0391 21.2527 15.0391 18.116C15.0391 17.3599 15.1717 16.6289 15.4246 15.955C15.4935 15.7711 15.6344 15.6335 15.806 15.581C16.3143 15.4253 16.691 15.9728 16.5078 16.4588Z" fill="#FCF8FD"/>
</g>
<defs>
<clipPath id="clip0">
<rect width="20" height="22.439" fill="white" transform="translate(10 9)"/>
</clipPath>
</defs>
</svg>
