<svg width="24" height="25" viewBox="0 0 24 25" fill="none" xmlns="http://www.w3.org/2000/svg">
<path d="M5.004 19.2029C5.25192 18.5003 5.71169 17.8919 6.31992 17.4615C6.92815 17.0311 7.6549 16.8 8.4 16.8C9.1451 16.8 9.87185 17.0311 10.4801 17.4615C11.0883 17.8919 11.5481 18.5003 11.796 19.2029H24V21.6029H11.796C11.5481 22.3056 11.0883 22.914 10.4801 23.3444C9.87185 23.7748 9.1451 24.0059 8.4 24.0059C7.6549 24.0059 6.92815 23.7748 6.31992 23.3444C5.71169 22.914 5.25192 22.3056 5.004 21.6029H0V19.2029H5.004ZM12.204 10.8029C12.4519 10.1003 12.9117 9.49186 13.5199 9.06149C14.1282 8.63111 14.8549 8.4 15.6 8.4C16.3451 8.4 17.0718 8.63111 17.6801 9.06149C18.2883 9.49186 18.7481 10.1003 18.996 10.8029H24V13.2029H18.996C18.7481 13.9056 18.2883 14.514 17.6801 14.9444C17.0718 15.3748 16.3451 15.6059 15.6 15.6059C14.8549 15.6059 14.1282 15.3748 13.5199 14.9444C12.9117 14.514 12.4519 13.9056 12.204 13.2029H0V10.8029H12.204ZM5.004 2.40294C5.25192 1.7003 5.71169 1.09186 6.31992 0.661488C6.92815 0.231115 7.6549 0 8.4 0C9.1451 0 9.87185 0.231115 10.4801 0.661488C11.0883 1.09186 11.5481 1.7003 11.796 2.40294H24V4.80294H11.796C11.5481 5.50558 11.0883 6.11402 10.4801 6.54439C9.87185 6.97477 9.1451 7.20588 8.4 7.20588C7.6549 7.20588 6.92815 6.97477 6.31992 6.54439C5.71169 6.11402 5.25192 5.50558 5.004 4.80294H0V2.40294H5.004ZM8.4 4.80294C8.71826 4.80294 9.02348 4.67651 9.24853 4.45147C9.47357 4.22643 9.6 3.9212 9.6 3.60294C9.6 3.28468 9.47357 2.97946 9.24853 2.75441C9.02348 2.52937 8.71826 2.40294 8.4 2.40294C8.08174 2.40294 7.77652 2.52937 7.55147 2.75441C7.32643 2.97946 7.2 3.28468 7.2 3.60294C7.2 3.9212 7.32643 4.22643 7.55147 4.45147C7.77652 4.67651 8.08174 4.80294 8.4 4.80294ZM15.6 13.2029C15.9183 13.2029 16.2235 13.0765 16.4485 12.8515C16.6736 12.6264 16.8 12.3212 16.8 12.0029C16.8 11.6847 16.6736 11.3795 16.4485 11.1544C16.2235 10.9294 15.9183 10.8029 15.6 10.8029C15.2817 10.8029 14.9765 10.9294 14.7515 11.1544C14.5264 11.3795 14.4 11.6847 14.4 12.0029C14.4 12.3212 14.5264 12.6264 14.7515 12.8515C14.9765 13.0765 15.2817 13.2029 15.6 13.2029ZM8.4 21.6029C8.71826 21.6029 9.02348 21.4765 9.24853 21.2515C9.47357 21.0264 9.6 20.7212 9.6 20.4029C9.6 20.0847 9.47357 19.7795 9.24853 19.5544C9.02348 19.3294 8.71826 19.2029 8.4 19.2029C8.08174 19.2029 7.77652 19.3294 7.55147 19.5544C7.32643 19.7795 7.2 20.0847 7.2 20.4029C7.2 20.7212 7.32643 21.0264 7.55147 21.2515C7.77652 21.4765 8.08174 21.6029 8.4 21.6029Z" fill="url(#paint0_linear)"/>
<defs>
<linearGradient id="paint0_linear" x1="12" y1="0" x2="12" y2="24.0059" gradientUnits="userSpaceOnUse">
<stop stop-color="#B722D2"/>
<stop offset="1" stop-color="#800080"/>
</linearGradient>
</defs>
</svg>
