<svg width="65" height="73" viewBox="0 0 65 73" fill="none" xmlns="http://www.w3.org/2000/svg">
<path d="M54.7851 4.27734L50.5078 0H14.4922L10.2149 4.27734H0.419922V31.0249C0.419922 50.2729 13.3804 67.5249 31.9012 72.8288L32.5 73L33.0988 72.8288C51.6196 67.5249 64.5801 50.2729 64.5801 31.0249V4.27734H54.7851Z" fill="#F3F5F9"/>
<path d="M64.5801 4.27734V31.0249C64.5801 50.2729 51.6196 67.5249 33.0988 72.8288L32.5 73V0H50.5078L54.7851 4.27734H64.5801Z" fill="#E1E6F0"/>
<path d="M60.3027 8.55469V31.0249C60.3027 48.177 48.8824 63.5898 32.5 68.5514C16.1176 63.5898 4.69727 48.177 4.69727 31.0249V8.55469H12.0117L16.289 4.27734H48.7111L52.9885 8.55469H60.3027Z" fill="#C926B4" fill-opacity="0.7"/>
<path d="M60.3027 8.55469V31.0249C60.3027 48.177 48.8824 63.5898 32.5 68.5514V4.27734H48.711L52.9883 8.55469H60.3027Z" fill="#C926B4"/>
<path d="M43.1934 19.248V27.9453H38.916V19.248C38.916 15.6977 36.0503 12.832 32.5 12.832C28.9497 12.832 26.084 15.6977 26.084 19.248V27.9453H21.8066V19.248C21.8066 13.3453 26.5973 8.55469 32.5 8.55469C38.4027 8.55469 43.1934 13.3453 43.1934 19.248Z" fill="#F3F5F9"/>
<path d="M43.1934 19.248V27.9453H38.916V19.248C38.916 15.6977 36.0503 12.832 32.5 12.832V8.55469C38.4027 8.55469 43.1934 13.3453 43.1934 19.248Z" fill="#E1E6F0"/>
<path d="M17.5293 25.8066V40.7773C17.5293 49.0326 24.2447 55.748 32.5 55.748C40.7553 55.748 47.4707 49.0326 47.4707 40.7773V25.8066H17.5293Z" fill="#FFDF40"/>
<path d="M47.4707 25.8066V40.7773C47.4707 49.0326 40.7553 55.748 32.5 55.748V25.8066H47.4707Z" fill="#FFBE40"/>
<path d="M30.3613 34.3613H34.6387V47.1934H30.3613V34.3613Z" fill="#5F5166"/>
<path d="M32.5 34.3613H34.6387V47.1934H32.5V34.3613Z" fill="#45354D"/>
</svg>
