<svg width="295" height="295" viewBox="0 0 295 295" fill="none" xmlns="http://www.w3.org/2000/svg">
<path d="M243.702 133.843C242.528 130.674 239.906 128.353 237.201 126.659C234.743 125.102 231.957 124.146 229.28 123.081C228.024 122.589 226.795 122.07 225.565 121.469C224.992 121.196 224.445 120.868 223.899 120.54C223.817 120.486 223.763 120.459 223.735 120.431C223.708 120.404 223.653 120.349 223.571 120.295C223.189 119.994 222.834 119.666 222.479 119.339C220.376 117.345 218.928 114.231 217.371 111.581C215.541 108.413 213.328 105.681 210.378 103.66C205.489 100.273 198.879 100.3 193.634 102.513C188.144 104.834 183.61 109.259 179.95 114.04C176.262 118.874 173.23 124.392 171.072 130.183C170.062 132.859 169.215 135.646 168.751 138.514C168.477 140.18 169.27 141.382 170.362 141.955C170.526 142.228 170.717 142.502 170.963 142.747C171.291 143.075 171.591 143.403 171.892 143.731C171.919 143.758 172.028 143.895 172.11 143.977C172.22 144.113 172.356 144.277 172.465 144.414C173.176 145.315 173.858 146.271 174.514 147.254C175.934 149.33 177.245 151.515 178.557 153.673C181.452 158.399 184.375 163.07 187.926 167.249C191.176 171.046 195.301 174.323 200.135 175.252C202.785 175.771 205.462 175.471 208.002 174.678C211.307 173.64 213.601 171.237 215.432 168.259C216.169 167.058 216.852 165.801 217.562 164.599C217.726 164.299 218.054 163.862 218.464 163.315C219.037 162.578 219.01 162.605 219.747 162.059C222.697 159.928 226.549 161.021 229.826 159.737C232.858 158.535 235.617 155.913 237.884 153.564C240.288 151.106 242.364 148.047 243.539 144.741C244.822 141.245 245.041 137.421 243.702 133.843Z" fill="#F7D7F3"/>
<path d="M33.8976 166.866C34.8809 169.844 37.3119 172.083 39.8522 173.75C42.174 175.279 44.8235 176.29 47.3638 177.382C48.5656 177.901 49.7402 178.42 50.8874 179.021C51.4337 179.295 51.9527 179.622 52.4443 179.95C52.5263 180.005 52.5536 180.032 52.6082 180.059C52.6355 180.087 52.6902 180.141 52.7721 180.196C53.1272 180.469 53.455 180.797 53.7828 181.125C55.7221 183.037 56.9786 185.959 58.3443 188.445C59.9832 191.422 61.9772 194.017 64.736 196.011C69.3249 199.316 75.7439 199.589 80.9337 197.814C86.3693 195.957 91.0129 192.078 94.8096 187.871C98.6337 183.61 101.83 178.694 104.233 173.476C105.326 171.073 106.309 168.56 106.91 165.965C107.265 164.463 106.555 163.315 105.517 162.742C105.38 162.496 105.217 162.223 104.971 162.004C104.67 161.704 104.397 161.376 104.097 161.048C104.069 161.021 103.987 160.912 103.905 160.83C103.796 160.693 103.687 160.557 103.578 160.393C102.922 159.519 102.321 158.617 101.748 157.716C100.491 155.749 99.3166 153.701 98.142 151.679C95.5744 147.227 92.9795 142.829 89.7017 138.814C86.7517 135.181 82.9004 132.013 78.2568 130.92C75.7166 130.319 73.0943 130.483 70.5814 131.084C67.3309 131.876 64.9818 134.007 63.0425 136.629C62.2504 137.694 61.5402 138.814 60.8027 139.879C60.6115 140.152 60.2837 140.535 59.874 140.999C59.273 141.655 59.3277 141.627 58.5629 142.092C55.5855 143.922 51.898 142.72 48.6476 143.758C45.643 144.714 42.8295 147.008 40.5078 149.057C38.0494 151.215 35.8916 153.892 34.5804 156.896C33.1874 160.038 32.805 163.534 33.8976 166.866Z" fill="#F7D7F3"/>
<path d="M209.806 86.9708H204.37V81.5352H198.579V86.9708H193.144V92.7615H198.579V98.1972H204.37V92.7615H209.806V86.9708Z" stroke="#43383E" stroke-width="3" stroke-miterlimit="10"/>
<path d="M241.491 101.011H238.951V98.1973H236.274V101.011H233.733V103.988H236.274V106.774H238.951V103.988H241.491V101.011Z" stroke="#F7D7F3" stroke-width="3" stroke-miterlimit="10"/>
<path d="M69.1883 165.828H64.0258V160.639H58.5082V165.828H53.3457V171.319H58.5082V176.509H64.0258V171.319H69.1883V165.828Z" fill="white"/>
<path d="M41.0269 184.785H38.4867V181.972H35.8098V184.785H33.2695V187.762H35.8098V190.549H38.4867V187.762H41.0269V184.785Z" stroke="#F7D7F3" stroke-width="3" stroke-miterlimit="10"/>
<path d="M67.2763 203.195H63.343V199.289H59.1911V203.195H55.2578V207.374H59.1911V211.308H63.343V207.374H67.2763V203.195Z" stroke="#43383E" stroke-width="3" stroke-miterlimit="10"/>
<path d="M45.4794 214.695H40.0438V209.232H34.253V214.695H28.8174V220.458H34.253V225.894H40.0438V220.458H45.4794V214.695Z" fill="white"/>
<path d="M231.029 141.792C230.784 142.966 229.5 143.704 228.189 143.43C226.85 143.157 225.976 141.983 226.222 140.808L228.762 128.489C229.008 127.315 230.292 126.577 231.603 126.85C232.942 127.123 233.816 128.298 233.57 129.473L231.029 141.792Z" fill="white"/>
<path d="M229.664 148.921C229.363 150.314 227.997 151.215 226.604 150.942C225.211 150.641 224.31 149.276 224.583 147.883C224.883 146.49 226.249 145.588 227.642 145.861C229.063 146.162 229.964 147.527 229.664 148.921Z" fill="white"/>
<path d="M185.086 229.199C185.086 236.956 178.803 243.239 171.019 243.239H90.2214C82.464 243.239 76.1543 236.956 76.1543 229.199V65.8562C76.1543 58.0988 82.4367 51.7891 90.2214 51.7891H171.019C178.776 51.7891 185.086 58.0715 185.086 65.8562V229.199Z" fill="#C5ADCD"/>
<path d="M184.648 68.3418H75.6621V168.942H184.648V68.3418Z" fill="#C5ADCD"/>
<path d="M127.56 138.295L136.41 115.269L184.648 133.815V128.544L138.186 110.68L154.438 68.3418H148.593L147.036 72.439L142.857 68.3418H136.629L145.315 76.8913L125.566 128.298L97.7871 108.74L107.566 68.3418H103.632L94.4274 106.364L75.6621 93.1436V100.764L76.263 100.273L123.545 133.542L109.915 168.97H115.788L125.512 143.621L158.18 168.97H167.112L127.56 138.295Z" fill="#A1B9B0"/>
<path d="M169.98 107.621C169.98 104.78 167.686 102.485 164.845 102.485C162.004 102.485 159.71 104.78 159.71 107.621C159.71 108.413 159.901 109.177 160.229 109.86L164.791 118.465L169.461 109.915C169.789 109.205 169.98 108.44 169.98 107.621ZM164.845 110.079C163.534 110.079 162.441 109.014 162.441 107.675C162.441 106.364 163.507 105.271 164.845 105.271C166.156 105.271 167.249 106.337 167.249 107.675C167.249 108.986 166.156 110.079 164.845 110.079Z" fill="white"/>
<path d="M184.566 168.97H75.6621V217.317H184.566V168.97Z" fill="#4C6A5E"/>
<path d="M160.72 177.109H115.732V183.801H160.72V177.109Z" fill="#A1B9B0"/>
<path d="M115.897 190.466C136.41 190.466 156.924 190.466 177.437 190.466C178.311 190.466 178.311 189.101 177.437 189.101C156.924 189.101 136.41 189.101 115.897 189.101C115.023 189.101 115.023 190.466 115.897 190.466Z" fill="#658D7E"/>
<path d="M115.897 197.568C136.41 197.568 156.924 197.568 177.437 197.568C178.311 197.568 178.311 196.203 177.437 196.203C156.924 196.203 136.41 196.203 115.897 196.203C115.023 196.203 115.023 197.568 115.897 197.568Z" fill="#658D7E"/>
<path d="M135.59 202.758H115.732V207.812H135.59V202.758Z" fill="#658D7E"/>
<path d="M111.063 192.46C111.063 201.119 104.043 208.112 95.4112 208.112C86.7524 208.112 79.7598 201.092 79.7598 192.46C79.7598 183.802 86.7797 176.809 95.4112 176.809C104.043 176.809 111.063 183.829 111.063 192.46Z" fill="#658D7E"/>
<path d="M104.643 189.428C103.66 197.213 100.601 201.065 95.1923 200.491C90.2483 199.972 87.0252 197.678 85.796 190.876C84.3756 182.955 89.1284 177.137 95.2196 177.137C101.283 177.109 105.463 182.928 104.643 189.428Z" fill="#41363C"/>
<path d="M100.956 205.189C101.229 206.773 97.6777 207.866 95.0828 207.811C93.4166 207.784 89.9203 206.664 90.2481 205.135C90.6032 203.496 91.1495 198.798 91.1495 198.798C92.1875 197.923 97.8416 197.486 100.109 197.76C100.136 197.76 100.245 200.71 100.956 205.189Z" fill="#F6ADC0"/>
<path d="M93.4992 203.823C94.9195 204.807 96.4219 205.653 98.17 205.872C99.0441 205.981 99.9455 205.981 100.847 205.845C100.956 205.626 101.011 205.408 100.983 205.162C100.246 200.682 100.164 197.732 100.164 197.732C97.8969 197.486 92.2427 197.923 91.2047 198.77C91.2047 198.77 91.0682 199.999 90.877 201.42C91.5598 202.403 92.7344 203.277 93.4992 203.823Z" fill="#41363C"/>
<path d="M103.605 191.04C103.278 197.76 97.7873 202.267 95.1924 202.212C92.4336 202.157 86.4244 196.858 86.7521 190.139C86.8614 187.708 87.7355 183.638 88.6369 182.545C90.2211 180.661 90.5489 180.224 96.0392 180.524C101.092 180.797 102.704 181.671 103.059 184.867C103.25 186.506 103.742 187.926 103.605 191.04Z" fill="#F6ADC0"/>
<path d="M92.0782 191.204C92.0782 191.887 91.6684 192.433 91.1768 192.433C90.6851 192.433 90.2754 191.887 90.2754 191.204C90.2754 190.521 90.6851 189.975 91.1768 189.975C91.6684 189.975 92.0782 190.521 92.0782 191.204Z" fill="#41363C"/>
<path d="M100.245 191.204C100.245 191.887 99.8354 192.433 99.3438 192.433C98.8521 192.433 98.4424 191.887 98.4424 191.204C98.4424 190.521 98.8521 189.975 99.3438 189.975C99.8354 189.975 100.245 190.521 100.245 191.204Z" fill="#41363C"/>
<path d="M104.342 185.058C104.342 187.981 98.7156 190.275 93.9628 185.468C90.9855 182.463 86.5059 187.571 86.5059 184.648C86.5059 181.726 89.9475 179.349 94.1813 179.349C98.4151 179.349 104.342 182.135 104.342 185.058Z" fill="#41363C"/>
<path d="M90.9036 194.618C92.7893 194.618 94.318 193.09 94.318 191.204C94.318 189.318 92.7893 187.79 90.9036 187.79C89.0179 187.79 87.4893 189.318 87.4893 191.204C87.4893 193.09 89.0179 194.618 90.9036 194.618Z" stroke="#41363C" stroke-miterlimit="10"/>
<path d="M99.3167 194.618C101.202 194.618 102.731 193.09 102.731 191.204C102.731 189.318 101.202 187.79 99.3167 187.79C97.431 187.79 95.9023 189.318 95.9023 191.204C95.9023 193.09 97.431 194.618 99.3167 194.618Z" stroke="#41363C" stroke-miterlimit="10"/>
<path d="M184.648 229.199C184.648 236.956 178.366 243.239 170.581 243.239H89.7839C82.0265 243.239 75.7168 236.956 75.7168 229.199V65.8562C75.7168 58.0988 81.9992 51.7891 89.7839 51.7891H170.581C178.339 51.7891 184.648 58.0715 184.648 65.8562V229.199Z" stroke="#42373D" stroke-width="4" stroke-miterlimit="10"/>
<path d="M123.763 156.077C123.763 159.191 121.223 161.731 118.109 161.731C114.995 161.731 112.455 159.191 112.455 156.077C112.455 152.963 114.995 150.423 118.109 150.423C121.223 150.423 123.763 152.936 123.763 156.077Z" fill="#ED6049"/>
<path d="M110.516 148.784V104.397C110.516 102.567 108.877 101.065 106.829 101.065H55.668C53.6467 101.065 51.9805 102.567 51.9805 104.397V150.669C51.9805 152.499 53.6194 154.001 55.668 154.001H106.829H115.733L110.516 148.784Z" fill="#F2CF63"/>
<path d="M105.654 126.987L96.4217 113.739C95.2744 112.319 94.0453 110.461 92.2152 110.461H60.7758C58.973 110.461 57.498 111.936 57.498 113.739V140.235C57.498 142.037 58.973 143.512 60.7758 143.512H83.3105H93.1439H102.977C104.78 143.512 106.255 142.037 106.255 140.235V128.899C106.255 128.189 106.036 127.533 105.654 126.987Z" fill="white"/>
<path d="M86.6162 126.577H105.354L97.2144 114.859H86.6162V126.577Z" fill="#A1B9B0"/>
<path d="M106.255 132.177H57.498V136.411H106.255V132.177Z" fill="#ED6049"/>
<path d="M84.6766 106.173C82.5734 106.173 80.8799 108.112 80.8799 110.489H88.4734C88.4734 108.085 86.7799 106.173 84.6766 106.173Z" fill="#ED6049"/>
<path d="M82.4089 118.874H78.3936V114.859H74.1325V118.874H70.1172V123.135H74.1325V127.151H78.3936V123.135H82.4089V118.874Z" fill="#648C7D"/>
<path d="M65.9657 148.21C68.5604 148.21 70.6639 146.107 70.6639 143.512C70.6639 140.917 68.5604 138.814 65.9657 138.814C63.371 138.814 61.2676 140.917 61.2676 143.512C61.2676 146.107 63.371 148.21 65.9657 148.21Z" fill="#4C6A5E"/>
<path d="M94.5097 148.21C97.1044 148.21 99.2078 146.107 99.2078 143.512C99.2078 140.917 97.1044 138.814 94.5097 138.814C91.915 138.814 89.8115 140.917 89.8115 143.512C89.8115 146.107 91.915 148.21 94.5097 148.21Z" fill="#4C6A5E"/>
<path d="M212.045 176.317C212.018 176.317 211.991 176.317 211.963 176.317L212.045 176.7C212.045 176.7 211.243 179.527 201 179.5C195.237 179.5 195 181.5 195 181.5L184 178.615L185.5 178.448C170.941 178.448 167.331 224.091 167.331 243.676H254.138C254.165 230.21 244.577 176.263 212.045 176.317Z" fill="#F2CF63"/>
<path d="M225.266 186.287C225.266 187.954 223.9 189.319 222.234 189.319C220.568 189.319 219.202 187.954 219.202 186.287C219.202 184.621 220.568 183.255 222.234 183.255C223.9 183.255 225.266 184.621 225.266 186.287Z" fill="#EFE6D2"/>
<path d="M225.266 211.417C225.266 213.083 223.9 214.449 222.234 214.449C220.568 214.449 219.202 213.083 219.202 211.417C219.202 209.751 220.568 208.385 222.234 208.385C223.9 208.413 225.266 209.751 225.266 211.417Z" fill="#EFE6D2"/>
<path d="M213.193 199.125C213.193 200.791 211.827 202.157 210.161 202.157C208.495 202.157 207.129 200.791 207.129 199.125C207.129 197.459 208.495 196.093 210.161 196.093C211.827 196.093 213.193 197.432 213.193 199.125Z" fill="#EFE6D2"/>
<path d="M211.936 221.879C211.936 223.545 210.57 224.911 208.904 224.911C207.238 224.911 205.872 223.545 205.872 221.879C205.872 220.212 207.238 218.847 208.904 218.847C210.598 218.847 211.936 220.212 211.936 221.879Z" fill="#EFE6D2"/>
<path d="M226.632 234.662C226.632 236.328 225.266 237.694 223.6 237.694C221.934 237.694 220.568 236.328 220.568 234.662C220.568 232.996 221.934 231.63 223.6 231.63C225.294 231.657 226.632 232.996 226.632 234.662Z" fill="#EFE6D2"/>
<path d="M200.41 234.662C200.41 236.328 199.044 237.694 197.378 237.694C195.711 237.694 194.346 236.328 194.346 234.662C194.346 232.996 195.711 231.63 197.378 231.63C199.044 231.657 200.41 232.996 200.41 234.662Z" fill="#EFE6D2"/>
<path d="M199.782 208.412C199.782 210.079 198.416 211.444 196.75 211.444C195.084 211.444 193.718 210.079 193.718 208.412C193.718 206.746 195.084 205.38 196.75 205.38C198.443 205.38 199.782 206.746 199.782 208.412Z" fill="#EFE6D2"/>
<path d="M189.32 198.798C189.32 200.464 187.954 201.83 186.288 201.83C184.622 201.83 183.256 200.464 183.256 198.798C183.256 197.131 184.622 195.766 186.288 195.766C187.954 195.793 189.32 197.131 189.32 198.798Z" fill="#EFE6D2"/>
<path d="M239.087 222.07C239.087 223.736 237.722 225.101 236.055 225.101C234.389 225.101 233.023 223.736 233.023 222.07C233.023 220.403 234.389 219.038 236.055 219.038C237.722 219.038 239.087 220.403 239.087 222.07Z" fill="#EFE6D2"/>
<path d="M189.32 223.354C189.32 225.02 187.954 226.386 186.288 226.386C184.622 226.386 183.256 225.02 183.256 223.354C183.256 221.688 184.622 220.322 186.288 220.322C187.954 220.349 189.32 221.688 189.32 223.354Z" fill="#EFE6D2"/>
<path d="M237.613 199.125C237.613 200.791 236.247 202.157 234.581 202.157C232.915 202.157 231.549 200.791 231.549 199.125C231.549 197.459 232.915 196.093 234.581 196.093C236.274 196.093 237.613 197.432 237.613 199.125Z" fill="#EFE6D2"/>
<path d="M249.248 209.996C249.248 211.662 247.883 213.028 246.217 213.028C244.55 213.028 243.185 211.662 243.185 209.996C243.185 208.33 244.55 206.964 246.217 206.964C247.883 206.964 249.248 208.33 249.248 209.996Z" fill="#EFE6D2"/>
<path d="M250.341 236.519C250.341 238.185 248.976 239.551 247.309 239.551C245.643 239.551 244.277 238.185 244.277 236.519C244.277 234.853 245.643 233.487 247.309 233.487C248.976 233.487 250.341 234.826 250.341 236.519Z" fill="#EFE6D2"/>
<path d="M212.045 176.317C212.018 176.317 211.99 176.317 211.963 176.317L212.045 176.7C212.045 176.7 206.609 186.67 196.366 186.642C190.603 186.642 187.052 178.448 187.052 178.448L187.079 178.066L193.5 188.008C191.26 188.008 187.817 184.73 186.014 186.642C186.888 189.374 183.583 186.26 186.014 188.008C190.139 190.985 194.809 192.023 199.835 191.477C208.603 190.521 214.968 184.485 219.229 177.219C216.962 176.618 214.558 176.317 212.045 176.317Z" fill="white"/>
<path d="M226.659 202.758C228.025 216.498 229.199 230.237 230.538 243.949C230.592 244.605 231.63 244.605 231.576 243.949C230.21 230.237 229.035 216.47 227.697 202.758C227.615 202.103 226.577 202.103 226.659 202.758Z" fill="#EFE6D2"/>
<path d="M175.607 239.223C176.482 235.754 177.328 232.258 178.066 228.762C178.421 227.014 178.776 225.238 179.104 223.463C179.268 222.589 179.404 221.687 179.541 220.813C179.595 220.404 179.677 219.994 179.732 219.584C179.732 219.502 179.759 219.393 179.787 219.229C181.234 206.965 180.169 194.646 179.923 182.327C170.773 194.209 167.358 227.697 167.358 243.676H174.515C174.87 242.201 175.225 240.698 175.607 239.223Z" fill="#41363C"/>
<path d="M183.283 166.266C183.283 173.613 179.513 179.978 179.513 179.978C169.653 181.999 166.238 174.378 166.238 174.378C160.338 164.244 168.069 149.112 170.199 149.112C174.569 149.112 183.283 158.918 183.283 166.266Z" fill="#F6ADC0"/>
<path d="M173.531 150.368C173.285 155.148 173.149 159.901 173.067 164.681C173.04 167.085 173.067 169.489 173.094 171.892C175.553 173.285 177.929 172.548 180.305 171.182C181.289 170.608 182.381 170.062 183.119 169.161C183.228 168.232 183.31 167.249 183.31 166.265C183.283 160.502 177.929 153.264 173.531 150.368Z" fill="#41363C"/>
<path d="M172.957 172.357L165.664 159.355L182.463 143.512L188.991 154.547L172.957 172.357Z" fill="#4B695D"/>
<path d="M180.059 179.896C183.364 210.488 182.463 238.513 166.047 238.513C157.907 238.513 148.538 233.46 148.538 220.267C148.538 207.074 166.238 174.378 166.238 174.378C171.564 182.49 180.059 179.896 180.059 179.896Z" fill="#F2CF63"/>
<path d="M163.069 180.715C163.315 181.234 163.588 181.726 163.889 182.217C164.053 182.463 164.763 183.419 164.763 183.446C165.391 184.184 166.101 184.867 166.839 185.495C167.003 185.577 168.068 186.342 168.341 186.506C168.887 186.833 169.434 187.134 170.007 187.38C170.035 187.38 170.035 187.38 170.062 187.407C170.472 187.544 170.881 187.708 171.291 187.817C172.029 188.035 172.793 188.227 173.558 188.363C173.613 188.363 173.695 188.363 173.777 188.363C174.214 188.39 174.623 188.418 175.06 188.39C175.416 188.39 176.836 188.172 176.617 188.254C177.191 188.145 177.765 187.981 178.311 187.817C178.584 187.735 179.786 187.216 179.813 187.243C180.114 187.107 180.414 186.943 180.715 186.779C180.523 184.512 180.305 182.217 180.032 179.896C180.032 179.896 171.564 182.463 166.21 174.378C166.21 174.378 164.899 176.809 162.987 180.606C163.015 180.633 163.042 180.66 163.069 180.715Z" fill="white"/>
<path d="M168.232 239.524L168.123 238.431C171.046 238.131 173.422 236.82 175.334 234.416C183.31 224.555 181.535 198.606 179.513 179.95L180.606 179.841C183.856 209.805 182.463 227.369 176.208 235.099C174.105 237.721 171.401 239.196 168.232 239.524Z" fill="#41363C"/>
<path d="M173.039 212.728C174.713 212.728 176.071 211.371 176.071 209.696C176.071 208.022 174.713 206.664 173.039 206.664C171.364 206.664 170.007 208.022 170.007 209.696C170.007 211.371 171.364 212.728 173.039 212.728Z" fill="#EFE6D2"/>
<path d="M163.014 198.825C164.689 198.825 166.046 197.467 166.046 195.793C166.046 194.118 164.689 192.761 163.014 192.761C161.34 192.761 159.982 194.118 159.982 195.793C159.982 197.467 161.34 198.825 163.014 198.825Z" fill="#EFE6D2"/>
<path d="M161.649 219.038C161.649 220.704 160.283 222.07 158.617 222.07C156.951 222.07 155.585 220.704 155.585 219.038C155.585 217.372 156.951 216.006 158.617 216.006C160.31 216.033 161.649 217.372 161.649 219.038Z" fill="#EFE6D2"/>
<path d="M171.127 232.558C171.127 234.225 169.762 235.59 168.095 235.59C166.429 235.59 165.063 234.225 165.063 232.558C165.063 230.892 166.429 229.526 168.095 229.526C169.789 229.554 171.127 230.892 171.127 232.558Z" fill="#EFE6D2"/>
<path d="M99.43 230.51C99.43 229.83 99.5833 229.22 99.89 228.68C100.197 228.133 100.613 227.707 101.14 227.4C101.673 227.093 102.263 226.94 102.91 226.94C103.67 226.94 104.333 227.123 104.9 227.49C105.467 227.857 105.88 228.377 106.14 229.05H105.05C104.857 228.63 104.577 228.307 104.21 228.08C103.85 227.853 103.417 227.74 102.91 227.74C102.423 227.74 101.987 227.853 101.6 228.08C101.213 228.307 100.91 228.63 100.69 229.05C100.47 229.463 100.36 229.95 100.36 230.51C100.36 231.063 100.47 231.55 100.69 231.97C100.91 232.383 101.213 232.703 101.6 232.93C101.987 233.157 102.423 233.27 102.91 233.27C103.417 233.27 103.85 233.16 104.21 232.94C104.577 232.713 104.857 232.39 105.05 231.97H106.14C105.88 232.637 105.467 233.153 104.9 233.52C104.333 233.88 103.67 234.06 102.91 234.06C102.263 234.06 101.673 233.91 101.14 233.61C100.613 233.303 100.197 232.88 99.89 232.34C99.5833 231.8 99.43 231.19 99.43 230.51ZM107.105 231.24C107.105 230.68 107.218 230.19 107.445 229.77C107.671 229.343 107.981 229.013 108.375 228.78C108.775 228.547 109.218 228.43 109.705 228.43C110.185 228.43 110.601 228.533 110.955 228.74C111.308 228.947 111.571 229.207 111.745 229.52V228.52H112.665V234H111.745V232.98C111.565 233.3 111.295 233.567 110.935 233.78C110.581 233.987 110.168 234.09 109.695 234.09C109.208 234.09 108.768 233.97 108.375 233.73C107.981 233.49 107.671 233.153 107.445 232.72C107.218 232.287 107.105 231.793 107.105 231.24ZM111.745 231.25C111.745 230.837 111.661 230.477 111.495 230.17C111.328 229.863 111.101 229.63 110.815 229.47C110.535 229.303 110.225 229.22 109.885 229.22C109.545 229.22 109.235 229.3 108.955 229.46C108.675 229.62 108.451 229.853 108.285 230.16C108.118 230.467 108.035 230.827 108.035 231.24C108.035 231.66 108.118 232.027 108.285 232.34C108.451 232.647 108.675 232.883 108.955 233.05C109.235 233.21 109.545 233.29 109.885 233.29C110.225 233.29 110.535 233.21 110.815 233.05C111.101 232.883 111.328 232.647 111.495 232.34C111.661 232.027 111.745 231.663 111.745 231.25ZM115.062 226.6V234H114.152V226.6H115.062ZM117.473 226.6V234H116.563V226.6H117.473ZM122.374 224.58L119.634 235.7H118.734L121.464 224.58H122.374ZM123.34 230.51C123.34 229.83 123.493 229.22 123.8 228.68C124.107 228.133 124.523 227.707 125.05 227.4C125.583 227.093 126.173 226.94 126.82 226.94C127.58 226.94 128.243 227.123 128.81 227.49C129.377 227.857 129.79 228.377 130.05 229.05H128.96C128.767 228.63 128.487 228.307 128.12 228.08C127.76 227.853 127.327 227.74 126.82 227.74C126.333 227.74 125.897 227.853 125.51 228.08C125.123 228.307 124.82 228.63 124.6 229.05C124.38 229.463 124.27 229.95 124.27 230.51C124.27 231.063 124.38 231.55 124.6 231.97C124.82 232.383 125.123 232.703 125.51 232.93C125.897 233.157 126.333 233.27 126.82 233.27C127.327 233.27 127.76 233.16 128.12 232.94C128.487 232.713 128.767 232.39 128.96 231.97H130.05C129.79 232.637 129.377 233.153 128.81 233.52C128.243 233.88 127.58 234.06 126.82 234.06C126.173 234.06 125.583 233.91 125.05 233.61C124.523 233.303 124.107 232.88 123.8 232.34C123.493 231.8 123.34 231.19 123.34 230.51ZM134.075 228.42C134.488 228.42 134.861 228.51 135.195 228.69C135.528 228.863 135.788 229.127 135.975 229.48C136.168 229.833 136.265 230.263 136.265 230.77V234H135.365V230.9C135.365 230.353 135.228 229.937 134.955 229.65C134.681 229.357 134.308 229.21 133.835 229.21C133.355 229.21 132.971 229.36 132.685 229.66C132.405 229.96 132.265 230.397 132.265 230.97V234H131.355V226.6H132.265V229.3C132.445 229.02 132.691 228.803 133.005 228.65C133.325 228.497 133.681 228.42 134.075 228.42ZM137.361 231.24C137.361 230.68 137.475 230.19 137.701 229.77C137.928 229.343 138.238 229.013 138.631 228.78C139.031 228.547 139.475 228.43 139.961 228.43C140.441 228.43 140.858 228.533 141.211 228.74C141.565 228.947 141.828 229.207 142.001 229.52V228.52H142.921V234H142.001V232.98C141.821 233.3 141.551 233.567 141.191 233.78C140.838 233.987 140.425 234.09 139.951 234.09C139.465 234.09 139.025 233.97 138.631 233.73C138.238 233.49 137.928 233.153 137.701 232.72C137.475 232.287 137.361 231.793 137.361 231.24ZM142.001 231.25C142.001 230.837 141.918 230.477 141.751 230.17C141.585 229.863 141.358 229.63 141.071 229.47C140.791 229.303 140.481 229.22 140.141 229.22C139.801 229.22 139.491 229.3 139.211 229.46C138.931 229.62 138.708 229.853 138.541 230.16C138.375 230.467 138.291 230.827 138.291 231.24C138.291 231.66 138.375 232.027 138.541 232.34C138.708 232.647 138.931 232.883 139.211 233.05C139.491 233.21 139.801 233.29 140.141 233.29C140.481 233.29 140.791 233.21 141.071 233.05C141.358 232.883 141.585 232.647 141.751 232.34C141.918 232.027 142.001 231.663 142.001 231.25ZM145.519 229.27V232.5C145.519 232.767 145.576 232.957 145.689 233.07C145.802 233.177 145.999 233.23 146.279 233.23H146.949V234H146.129C145.622 234 145.242 233.883 144.989 233.65C144.736 233.417 144.609 233.033 144.609 232.5V229.27H143.899V228.52H144.609V227.14H145.519V228.52H146.949V229.27H145.519Z" fill="white"/>
<path d="M211.669 169.509L211.612 169.582L211.551 169.659C211.542 169.678 211.537 169.699 211.535 169.72C211.535 169.774 211.516 169.857 211.503 169.965C211.49 170.074 211.478 170.252 211.468 170.431C211.468 170.498 211.468 170.562 211.468 170.632C211.468 170.756 211.452 170.887 211.446 171.018C211.446 171.222 211.427 171.432 211.42 171.633C211.414 171.834 211.42 172.029 211.404 172.201C211.388 172.373 211.404 172.459 211.404 172.596C211.388 174.162 211.366 176.197 211.34 178.158C211.318 180.996 220.686 181.586 220.702 182.533C220.737 184.83 203.689 195.917 198.851 196C187.604 196 185.231 185 185.231 185L193.437 187.065L194.461 182.533L194.993 180.196C194.829 180.167 194.669 180.121 194.515 180.059C194.307 179.982 194.04 179.874 193.73 179.74C191.606 178.783 188.009 176.19 186.749 172.086C185.582 168.3 186.453 165.009 186.488 162.783C186.523 160.557 185.624 158.976 185.231 156.485C184.731 153.296 186.025 149.297 187.604 148.365C194.693 144.137 207.485 148.158 207.485 148.158C207.485 148.158 213.917 149.453 212.176 158.379C212.616 158.089 212.032 160.022 212.638 159.904C213.914 159.677 212.517 160.458 213.254 161.036C214.858 162.305 214.858 165.338 211.669 169.509Z" fill="url(#paint0_linear)"/>
<path d="M211.669 169.509L211.611 169.583C211.595 169.608 211.576 169.634 211.554 169.659C211.544 169.678 211.537 169.699 211.535 169.72C211.535 169.774 211.515 169.857 211.503 169.965C211.49 170.074 211.48 170.252 211.468 170.431C211.468 170.498 211.468 170.562 211.468 170.632C211.468 170.756 211.452 170.887 211.445 171.018C211.445 171.222 211.429 171.432 211.42 171.633C211.41 171.834 211.42 172.029 211.404 172.201C211.388 172.373 211.404 172.459 211.404 172.596C207.542 178.997 201.074 181.366 194.626 181.908L195.012 180.202C203.68 178.831 208.09 172.647 211.669 169.509Z" fill="url(#paint1_linear)"/>
<path d="M204.627 141.713C203.246 138.645 195.404 136.177 189.859 137.395C186.306 138.176 181.988 140.358 180.269 144.612C178.824 148.184 176.483 156.845 185.732 161.798C187.827 154.945 196.785 158.772 201.968 149.201C202.963 147.364 203.272 151.414 203.859 151.478C209.009 150.203 211.949 153.073 210.431 161.798C210.655 160.908 212.941 160.803 213.503 161.6C213.821 162.034 215.502 163.804 212.208 168.616C212.243 168.639 211.452 169.082 211.292 171.212C211.002 175.068 211.248 181.689 211.343 181.714C212.884 182.151 223.28 188.182 223.666 186.632C224.4 183.679 219.798 163.833 220.621 158.198C221.673 150.984 214.118 140.077 204.627 141.713Z" fill="#1F1844"/>
<path d="M222.849 188.114C224.862 188.114 226.494 186.483 226.494 184.469C226.494 182.456 224.862 180.824 222.849 180.824C220.836 180.824 219.204 182.456 219.204 184.469C219.204 186.483 220.836 188.114 222.849 188.114Z" fill="#1F1844"/>
<path d="M219.205 168.715C221.218 168.715 222.85 167.083 222.85 165.07C222.85 163.057 221.218 161.425 219.205 161.425C217.192 161.425 215.56 163.057 215.56 165.07C215.56 167.083 217.192 168.715 219.205 168.715Z" fill="#1F1844"/>
<path d="M220.69 174.216C222.703 174.216 224.335 172.584 224.335 170.571C224.335 168.558 222.703 166.926 220.69 166.926C218.677 166.926 217.045 168.558 217.045 170.571C217.045 172.584 218.677 174.216 220.69 174.216Z" fill="#1F1844"/>
<path d="M222.052 181.312C224.066 181.312 225.697 179.68 225.697 177.667C225.697 175.654 224.066 174.022 222.052 174.022C220.039 174.022 218.407 175.654 218.407 177.667C218.407 179.68 220.039 181.312 222.052 181.312Z" fill="#1F1844"/>
<path d="M219.205 162.656C221.218 162.656 222.85 161.024 222.85 159.011C222.85 156.998 221.218 155.366 219.205 155.366C217.192 155.366 215.56 156.998 215.56 159.011C215.56 161.024 217.192 162.656 219.205 162.656Z" fill="#1F1844"/>
<path d="M218.408 156.118C220.421 156.118 222.053 154.486 222.053 152.473C222.053 150.46 220.421 148.828 218.408 148.828C216.395 148.828 214.763 150.46 214.763 152.473C214.763 154.486 216.395 156.118 218.408 156.118Z" fill="#1F1844"/>
<path d="M215.558 151.095C217.571 151.095 219.203 149.463 219.203 147.45C219.203 145.437 217.571 143.805 215.558 143.805C213.545 143.805 211.913 145.437 211.913 147.45C211.913 149.463 213.545 151.095 215.558 151.095Z" fill="#1F1844"/>
<path d="M211.117 147.45C213.13 147.45 214.762 145.818 214.762 143.805C214.762 141.792 213.13 140.16 211.117 140.16C209.104 140.16 207.472 141.792 207.472 143.805C207.472 145.818 209.104 147.45 211.117 147.45Z" fill="#1F1844"/>
<path d="M207.471 146.968C209.484 146.968 211.116 145.337 211.116 143.323C211.116 141.31 209.484 139.678 207.471 139.678C205.458 139.678 203.826 141.31 203.826 143.323C203.826 145.337 205.458 146.968 207.471 146.968Z" fill="#1F1844"/>
<path d="M202.545 143.323C204.558 143.323 206.19 141.691 206.19 139.678C206.19 137.665 204.558 136.033 202.545 136.033C200.531 136.033 198.899 137.665 198.899 139.678C198.899 141.691 200.531 143.323 202.545 143.323Z" fill="#1F1844"/>
<path d="M197.018 142.29C199.031 142.29 200.663 140.658 200.663 138.645C200.663 136.632 199.031 135 197.018 135C195.005 135 193.373 136.632 193.373 138.645C193.373 140.658 195.005 142.29 197.018 142.29Z" fill="#1F1844"/>
<path d="M191.488 142.718C193.501 142.718 195.133 141.086 195.133 139.072C195.133 137.059 193.501 135.427 191.488 135.427C189.475 135.427 187.843 137.059 187.843 139.072C187.843 141.086 189.475 142.718 191.488 142.718Z" fill="#1F1844"/>
<path d="M186.494 144.842C188.507 144.842 190.139 143.21 190.139 141.196C190.139 139.183 188.507 137.551 186.494 137.551C184.481 137.551 182.849 139.183 182.849 141.196C182.849 143.21 184.481 144.842 186.494 144.842Z" fill="#1F1844"/>
<path d="M182.239 148.487C184.252 148.487 185.884 146.855 185.884 144.841C185.884 142.828 184.252 141.196 182.239 141.196C180.226 141.196 178.594 142.828 178.594 144.841C178.594 146.855 180.226 148.487 182.239 148.487Z" fill="#1F1844"/>
<path d="M180.645 154.74C182.658 154.74 184.29 153.108 184.29 151.095C184.29 149.082 182.658 147.45 180.645 147.45C178.632 147.45 177 149.082 177 151.095C177 153.108 178.632 154.74 180.645 154.74Z" fill="#1F1844"/>
<path d="M181.177 159.763C183.191 159.763 184.822 158.131 184.822 156.118C184.822 154.105 183.191 152.473 181.177 152.473C179.164 152.473 177.532 154.105 177.532 156.118C177.532 158.131 179.164 159.763 181.177 159.763Z" fill="#1F1844"/>
<path d="M182.849 163.408C184.862 163.408 186.494 161.776 186.494 159.763C186.494 157.75 184.862 156.118 182.849 156.118C180.836 156.118 179.204 157.75 179.204 159.763C179.204 161.776 180.836 163.408 182.849 163.408Z" fill="#1F1844"/>
<defs>
<linearGradient id="paint0_linear" x1="185.116" y1="170.66" x2="214.306" y2="170.66" gradientUnits="userSpaceOnUse">
<stop stop-color="#753200"/>
<stop offset="1" stop-color="#A04400"/>
</linearGradient>
<linearGradient id="paint1_linear" x1="209.915" y1="170.201" x2="196.31" y2="183.557" gradientUnits="userSpaceOnUse">
<stop stop-color="#A04400"/>
<stop offset="1" stop-color="#753200"/>
</linearGradient>
</defs>
</svg>
