<svg width="31" height="26" viewBox="0 0 31 26" fill="none" xmlns="http://www.w3.org/2000/svg">
<path d="M28.364 2.40656C29.5893 2.56399 30.4632 3.67319 30.3296 4.90133L28.5908 20.2856C28.4571 21.51 27.3561 22.3942 26.1317 22.2604C26.1072 22.2577 26.0828 22.2546 26.0583 22.2512H25.9449V8.15202C25.9449 6.8995 24.9295 5.88406 23.677 5.88406H4.77734L5.19314 2.10414C5.35079 0.858051 6.47677 -0.0327228 7.72568 0.100763L28.364 2.40656Z" fill="#800080"/>
<path d="M25.9449 22.2519V23.6127C25.9449 24.8652 24.9294 25.8807 23.6769 25.8807H2.92518C1.67266 25.8807 0.657227 24.8652 0.657227 23.6127V20.4375L6.89409 15.9016C7.88297 15.1514 9.26673 15.215 10.1826 16.0528L14.3405 19.6816C15.212 20.4206 16.4559 20.5268 17.44 19.9461L25.9449 14.9567V22.2519Z" fill="#C926B4"/>
<path d="M25.9449 8.15345V14.9573L17.44 19.9468C16.4559 20.5275 15.212 20.4213 14.3405 19.6822L10.1826 16.0535C9.26673 15.2157 7.88297 15.152 6.89409 15.9023L0.657227 20.4382V8.15345C0.657227 6.90093 1.67266 5.8855 2.92518 5.8855H23.6769C24.9295 5.88557 25.9449 6.90093 25.9449 8.15345Z" fill="#F5BBEE"/>
<path d="M15.7771 14.5028C17.1131 14.5028 18.1962 13.4197 18.1962 12.0837C18.1962 10.7476 17.1131 9.66449 15.7771 9.66449C14.441 9.66449 13.3579 10.7476 13.3579 12.0837C13.3579 13.4197 14.441 14.5028 15.7771 14.5028Z" fill="#F9DAFF"/>
</svg>
