<svg width="24" height="24" viewBox="0 0 24 24" fill="none" xmlns="http://www.w3.org/2000/svg">
<path d="M18.8209 0.271973V1.67649H21.6021L18.2291 5.04947C17.2733 4.33805 16.0245 3.94735 14.5514 3.94735C13.3028 3.94735 12.1455 4.34564 11.1997 5.02172C12.2944 6.28247 12.9578 7.92727 12.9578 9.72408C12.9578 11.5209 12.2944 13.1656 11.1997 14.4264C12.1455 15.1025 13.3028 15.5008 14.5514 15.5008C17.7367 15.5008 20.3281 12.9094 20.3281 9.72408C20.3281 8.24879 19.9363 6.99835 19.2228 6.042L22.5953 2.66958V5.45077H23.9998V0.271973H18.8209Z" fill="#CCCED0"/>
<path d="M9.12844 14.4264C8.03377 13.1656 7.37039 11.5208 7.37039 9.724C7.37039 7.92719 8.03377 6.28244 9.12844 5.02164C8.18264 4.34556 7.02534 3.94727 5.77673 3.94727C2.59139 3.94727 0 6.5387 0 9.72405C0 12.6716 2.21916 15.1104 5.07445 15.458V19.972H3.18033V21.3766H5.07445V23.728H6.47897V21.3766H8.37309V19.972H6.47897V15.4581C7.45823 15.3389 8.36269 14.9738 9.12844 14.4264Z" fill="#CCCED0"/>
<path d="M10.1642 13.4775C10.9315 13.4775 11.5535 11.7971 11.5535 9.72412C11.5535 7.65117 10.9315 5.9707 10.1642 5.9707C9.3969 5.9707 8.7749 7.65117 8.7749 9.72412C8.7749 11.7971 9.3969 13.4775 10.1642 13.4775Z" fill="#CCCED0"/>
</svg>
