<svg width="24" height="24" viewBox="0 0 24 24" fill="none" xmlns="http://www.w3.org/2000/svg">
<path d="M18.8052 0V1.40625H21.5898L17.976 5.02008C16.8886 4.149 15.51 3.62709 14.0116 3.62709C12.5765 3.62709 11.2513 4.10573 10.1865 4.91147C9.1218 4.10578 7.79655 3.62709 6.36142 3.62709C2.85911 3.62709 0.00976562 6.47644 0.00976562 9.97875C0.00976562 13.2434 2.48566 15.9403 5.6583 16.2913V20.2394H3.76187V21.6456H5.65834V24H7.06459V21.6457H8.96102V20.2394H7.06459V16.2913C8.22827 16.1625 9.29814 15.7184 10.1866 15.0461C11.2513 15.8518 12.5765 16.3305 14.0117 16.3305C17.514 16.3305 20.3633 13.4811 20.3633 9.9788C20.3633 8.48039 19.8415 7.10184 18.9704 6.01444L22.5842 2.40061V5.18522H23.9905V0H18.8052ZM10.1866 13.1099C9.48681 12.2565 9.06625 11.1659 9.06625 9.9788C9.06625 8.79169 9.48681 7.70105 10.1866 6.84773C10.8863 7.70105 11.3069 8.79169 11.3069 9.9788C11.3069 11.1659 10.8863 12.2565 10.1866 13.1099ZM1.41606 9.9788C1.41606 7.25189 3.63456 5.03339 6.36147 5.03339C7.39497 5.03339 8.35534 5.35228 9.14969 5.89655C8.22058 7.0013 7.65995 8.42569 7.65995 9.9788C7.65995 11.5319 8.22058 12.9563 9.14969 14.061C8.35534 14.6053 7.39502 14.9242 6.36147 14.9242C3.63456 14.9242 1.41606 12.7057 1.41606 9.9788ZM14.0116 14.9242C12.9781 14.9242 12.0177 14.6053 11.2234 14.061C12.1525 12.9563 12.7131 11.5319 12.7131 9.9788C12.7131 8.42569 12.1525 7.0013 11.2234 5.89655C12.0177 5.35228 12.9781 5.03339 14.0116 5.03339C16.7385 5.03339 18.957 7.25189 18.957 9.9788C18.957 12.7057 16.7385 14.9242 14.0116 14.9242Z" fill="#CCCED0"/>
</svg>
