<svg width="14" height="18" viewBox="0 0 14 18" fill="none" xmlns="http://www.w3.org/2000/svg">
<path fill-rule="evenodd" clip-rule="evenodd" d="M9.84375 9.9375C10.3125 10.3125 10.6641 10.6094 10.8984 10.8281C11.1328 11.0469 11.3672 11.3906 11.6016 11.8594C11.8359 12.3281 11.9531 12.8281 11.9531 13.3594C11.9531 14.6094 11.3672 15.6953 10.1953 16.6172C9.02343 17.5391 7.42189 18 5.39062 18C3.64062 18 2.30469 17.6406 1.38281 16.9219C0.460933 16.2031 0 15.3594 0 14.3906C0 13.1406 0.656243 12.125 1.96875 11.3438C2.875 10.8125 4.20312 10.4688 5.95312 10.3125C5.70312 9.875 5.57812 9.45313 5.57812 9.04688C5.57812 8.82812 5.59375 8.67188 5.625 8.57812H5.4375C4.12499 8.57812 3.07813 8.17188 2.29688 7.35938C1.54687 6.60937 1.17188 5.71876 1.17188 4.6875C1.17188 3.37499 1.71874 2.26563 2.8125 1.35938C3.96876 0.45312 5.45312 0 7.26562 0H13.5L10.6875 1.54688H10.0781C10.7969 2.39063 11.1562 3.29687 11.1562 4.26562C11.1562 4.85938 11.0313 5.39844 10.7812 5.88281C10.5312 6.36719 10.2891 6.71875 10.0547 6.9375C9.82031 7.15625 9.48438 7.42187 9.04688 7.73438V7.78125C8.70312 8.125 8.53125 8.39062 8.53125 8.57812C8.53125 8.79688 8.6875 9.03125 9 9.28125L9.84375 9.9375ZM3.98438 3.5625C3.98438 4.375 4.20312 5.17187 4.64062 5.95312C5.14063 6.79688 5.78125 7.21875 6.5625 7.21875C7.09375 7.21875 7.53125 7.04688 7.875 6.70312C8.1875 6.39062 8.34375 5.92188 8.34375 5.29688C8.34375 4.45312 8.10938 3.60938 7.64062 2.76562C7.17187 1.92187 6.54688 1.5 5.76562 1.5C5.20312 1.5 4.75 1.70312 4.40625 2.10938C4.125 2.45313 3.98438 2.9375 3.98438 3.5625ZM9.1875 13.0781C9.5 13.4219 9.65625 13.8125 9.65625 14.25C9.65625 14.875 9.38282 15.375 8.83594 15.75C8.28906 16.125 7.53125 16.3125 6.5625 16.3125C5.43749 16.3125 4.53125 16.0938 3.84375 15.6562C3.15625 15.2187 2.8125 14.6406 2.8125 13.9219C2.8125 13.0469 3.39062 12.3906 4.54688 11.9531C5.32813 11.7031 6.125 11.5781 6.9375 11.5781C7 11.5781 7.07031 11.5859 7.14844 11.6016C7.22656 11.6172 7.28125 11.625 7.3125 11.625C8.25 12.25 8.875 12.7344 9.1875 13.0781Z" fill="white"/>
</svg>
