<svg width="21" height="20" viewBox="0 0 21 20" fill="none" xmlns="http://www.w3.org/2000/svg">
<path d="M18.6713 8.36775H18.0001V8.33317H10.5001V11.6665H15.2097C14.5226 13.6069 12.6763 14.9998 10.5001 14.9998C7.73883 14.9998 5.50008 12.7611 5.50008 9.99984C5.50008 7.23859 7.73883 4.99984 10.5001 4.99984C11.7747 4.99984 12.9342 5.48067 13.8172 6.26609L16.1742 3.909C14.6859 2.52192 12.6951 1.6665 10.5001 1.6665C5.898 1.6665 2.16675 5.39775 2.16675 9.99984C2.16675 14.6019 5.898 18.3332 10.5001 18.3332C15.1022 18.3332 18.8334 14.6019 18.8334 9.99984C18.8334 9.44109 18.7759 8.89567 18.6713 8.36775Z" fill="#FFC107"/>
<path d="M3.12744 6.12109L5.86536 8.129C6.60619 6.29484 8.40036 4.99984 10.4999 4.99984C11.7745 4.99984 12.9341 5.48067 13.817 6.26609L16.1741 3.909C14.6858 2.52192 12.6949 1.6665 10.4999 1.6665C7.29911 1.6665 4.52327 3.47359 3.12744 6.12109Z" fill="#FF3D00"/>
<path d="M10.5 18.3331C12.6525 18.3331 14.6084 17.5094 16.0871 16.1698L13.508 13.9873C12.6432 14.645 11.5865 15.0007 10.5 14.9998C8.33255 14.9998 6.49213 13.6177 5.7988 11.689L3.0813 13.7827C4.46047 16.4815 7.2613 18.3331 10.5 18.3331Z" fill="#4CAF50"/>
<path d="M18.6713 8.36808H18V8.3335H10.5V11.6668H15.2096C14.8809 12.5903 14.2889 13.3973 13.5067 13.9881L13.5079 13.9872L16.0871 16.1697C15.9046 16.3356 18.8333 14.1668 18.8333 10.0002C18.8333 9.44141 18.7758 8.896 18.6713 8.36808Z" fill="#1976D2"/>
</svg>
