<svg width="40" height="40" viewBox="0 0 40 40" fill="none" xmlns="http://www.w3.org/2000/svg">
<circle cx="20" cy="20" r="20" fill="#C926B4"/>
<path d="M24.358 10.77H15.4247C13.4222 10.77 11.7939 12.5649 11.7939 14.7803V25.9495C11.7939 28.1598 13.4222 29.9598 15.4247 29.9598H16.4863V28.6777H15.4247C14.1298 28.6777 13.076 27.4521 13.076 25.9495V14.7803C13.076 13.2751 14.1298 12.0521 15.4247 12.0521H24.358C25.6529 12.0521 26.7068 13.2751 26.7068 14.7803V25.9495C26.7068 27.4521 25.6529 28.6777 24.358 28.6777H22.8709V29.9598H24.358C26.3606 29.9598 27.9888 28.1649 27.9888 25.9495V14.7803C27.9991 12.5649 26.3709 10.77 24.358 10.77Z" fill="white"/>
<path d="M15.2065 25.6956H16.9218C17.0919 25.6956 17.2549 25.6281 17.3751 25.5079C17.4953 25.3877 17.5629 25.2246 17.5629 25.0546C17.5629 24.8846 17.4953 24.7215 17.3751 24.6013C17.2549 24.4811 17.0919 24.4136 16.9218 24.4136H15.2065C15.0364 24.4136 14.8734 24.4811 14.7532 24.6013C14.633 24.7215 14.5654 24.8846 14.5654 25.0546C14.5654 25.2246 14.633 25.3877 14.7532 25.5079C14.8734 25.6281 15.0364 25.6956 15.2065 25.6956Z" fill="white"/>
<path d="M19.0424 24.4136C18.8724 24.4136 18.7093 24.4811 18.5891 24.6013C18.4689 24.7215 18.4014 24.8846 18.4014 25.0546C18.4014 25.2246 18.4689 25.3877 18.5891 25.5079C18.7093 25.6281 18.8724 25.6956 19.0424 25.6956H20.7501C20.9201 25.6956 21.0831 25.6281 21.2034 25.5079C21.3236 25.3877 21.3911 25.2246 21.3911 25.0546C21.3911 24.8846 21.3236 24.7215 21.2034 24.6013C21.0831 24.4811 20.9201 24.4136 20.7501 24.4136H19.0424Z" fill="white"/>
<path d="M22.8813 24.4136C22.7112 24.4136 22.5482 24.4811 22.428 24.6013C22.3078 24.7215 22.2402 24.8846 22.2402 25.0546C22.2402 25.2246 22.3078 25.3877 22.428 25.5079C22.5482 25.6281 22.7112 25.6956 22.8813 25.6956H24.5864C24.7564 25.6956 24.9194 25.6281 25.0397 25.5079C25.1599 25.3877 25.2274 25.2246 25.2274 25.0546C25.2274 24.8846 25.1599 24.7215 25.0397 24.6013C24.9194 24.4811 24.7564 24.4136 24.5864 24.4136H22.8813Z" fill="white"/>
<path d="M15.1533 14.4033V22.2828H24.5123V14.4033H15.1533ZM19.7431 20.8828C19.3229 20.8919 18.916 20.7359 18.6096 20.4482C18.3033 20.1605 18.122 19.7642 18.1046 19.3443C18.1097 19.1323 18.1433 18.9218 18.2046 18.7187C18.2046 18.7187 18.2046 18.7367 18.2046 18.7443C18.2188 18.6479 18.2438 18.5533 18.279 18.4623L19.1508 16.37C19.1928 16.2681 19.2638 16.1808 19.3549 16.1188C19.4461 16.0569 19.5534 16.0229 19.6636 16.0213C19.771 16.0189 19.8767 16.048 19.9679 16.1049C20.059 16.1619 20.1314 16.2442 20.1764 16.3418L21.102 18.2751L21.1226 18.3187L21.202 18.5341C21.3057 18.7613 21.3673 19.0054 21.3841 19.2546C21.38 19.6874 21.2054 20.1011 20.8982 20.406C20.591 20.7108 20.1759 20.8822 19.7431 20.8828Z" fill="white"/>
<path d="M22.8806 26.5444H16.4858C16.3157 26.5444 16.1527 26.612 16.0325 26.7322C15.9123 26.8524 15.8447 27.0154 15.8447 27.1855C15.8447 27.3555 15.9123 27.5185 16.0325 27.6387C16.1527 27.7589 16.3157 27.8265 16.4858 27.8265H17.337V33.1573C17.337 33.3273 17.4046 33.4903 17.5248 33.6105C17.645 33.7307 17.808 33.7983 17.9781 33.7983H21.3883C21.5583 33.7983 21.7214 33.7307 21.8416 33.6105C21.9618 33.4903 22.0293 33.3273 22.0293 33.1573V30.4829V28.206V27.8265H22.8806C23.0506 27.8265 23.2137 27.7589 23.3339 27.6387C23.4541 27.5185 23.5217 27.3555 23.5217 27.1855C23.5217 27.0154 23.4541 26.8524 23.3339 26.7322C23.2137 26.612 23.0506 26.5444 22.8806 26.5444ZM18.6191 28.6778H20.7499V29.9598H18.6191V28.6778ZM18.6191 30.9444H20.7499V32.2265H18.6191V30.9444Z" fill="white"/>
</svg>
