<svg width="375" height="105" viewBox="0 0 375 105" fill="none" xmlns="http://www.w3.org/2000/svg">
<rect width="375" height="103" fill="url(#paint0_linear)"/>
<mask id="mask0" style="mask-type:alpha" maskUnits="userSpaceOnUse" x="0" y="0" width="375" height="105">
<rect width="375" height="105" fill="url(#paint1_linear)"/>
</mask>
<g mask="url(#mask0)">
<path fill-rule="evenodd" clip-rule="evenodd" d="M46 48H24V50.6875H46V48ZM24 57.3125V54.6875H44V57.3125H24ZM24 64V61.3125H48V64H24Z" fill="url(#paint2_linear)"/>
<circle opacity="0.1" r="55.1051" transform="matrix(-1 0 0 1 22.1058 161.105)" stroke="url(#paint3_linear)" stroke-width="20.4525"/>
<circle opacity="0.1" cx="334.463" cy="66.4633" r="104.336" transform="rotate(-42.995 334.463 66.4633)" stroke="url(#paint4_linear)" stroke-width="37.2548"/>
<circle opacity="0.2" r="62.3619" transform="matrix(0.13797 0.990436 0.990436 -0.13797 322.37 67.3694)" stroke="url(#paint5_linear)" stroke-width="0.93137"/>
</g>
<defs>
<linearGradient id="paint0_linear" x1="333" y1="-4.76851" x2="290.233" y2="134.539" gradientUnits="userSpaceOnUse">
<stop stop-color="#FDF9FF"/>
<stop offset="1" stop-color="#F1F1FA"/>
</linearGradient>
<linearGradient id="paint1_linear" x1="333" y1="-4.8611" x2="288.705" y2="136.673" gradientUnits="userSpaceOnUse">
<stop stop-color="#0F2CE0"/>
<stop offset="1" stop-color="#1836EB"/>
</linearGradient>
<linearGradient id="paint2_linear" x1="36" y1="48" x2="36" y2="64" gradientUnits="userSpaceOnUse">
<stop stop-color="#8D28AD"/>
<stop offset="1" stop-color="#C926B4"/>
</linearGradient>
<linearGradient id="paint3_linear" x1="55.1051" y1="0" x2="55.1051" y2="110.21" gradientUnits="userSpaceOnUse">
<stop stop-color="white"/>
<stop offset="1" stop-color="white" stop-opacity="0"/>
</linearGradient>
<linearGradient id="paint4_linear" x1="334.463" y1="-37.873" x2="334.463" y2="170.8" gradientUnits="userSpaceOnUse">
<stop stop-color="#8D28AD"/>
<stop offset="1" stop-color="white" stop-opacity="0.87"/>
</linearGradient>
<linearGradient id="paint5_linear" x1="62.3619" y1="0" x2="62.3619" y2="124.724" gradientUnits="userSpaceOnUse">
<stop stop-color="#8D28AD"/>
<stop offset="0.994936" stop-color="white" stop-opacity="0.81"/>
</linearGradient>
</defs>
</svg>
