<svg width="204" height="138" viewBox="0 0 204 138" fill="none" xmlns="http://www.w3.org/2000/svg">
<g clip-path="url(#clip0)">
<path opacity="0.1" d="M137.434 138C151.398 138 162.718 137.198 162.718 136.209C162.718 135.22 151.398 134.418 137.434 134.418C123.469 134.418 112.149 135.22 112.149 136.209C112.149 137.198 123.469 138 137.434 138Z" fill="#6C63FF"/>
<path opacity="0.1" d="M204 81.3229C203.996 88.2674 202.494 95.1283 199.597 101.432C196.701 107.736 192.479 113.333 187.223 117.837C181.967 122.34 175.803 125.643 169.154 127.518C162.506 129.392 155.533 129.794 148.715 128.695H73.0925C70.1716 129.098 67.2269 129.3 64.2786 129.3C62.1621 129.3 60.0712 129.199 58.0057 128.996C42.1136 127.444 27.3665 119.992 16.6416 108.095C5.91682 96.1982 -0.0162543 80.7091 3.34466e-05 64.65C3.34466e-05 28.9439 28.7794 0 64.2786 0C92.8693 0 117.096 18.7754 125.445 44.7357C134.057 37.3663 145 33.3278 156.307 33.3458C182.644 33.3458 204 54.8254 204 81.3229Z" fill="#6C63FF"/>
<path opacity="0.1" d="M185.676 119.123C180.501 123.187 174.547 126.135 168.188 127.782C161.828 129.429 155.199 129.74 148.715 128.695H73.0927C70.1719 129.098 67.2271 129.3 64.2789 129.3C62.1624 129.3 60.0714 129.199 58.006 128.996C45.482 127.76 33.5936 122.856 23.8138 114.891C14.0339 106.926 6.79236 96.2506 2.98633 84.1866C9.14354 70.9539 24.9621 61.5376 43.5086 61.5376C61.5814 61.5376 77.0723 70.4812 83.5376 83.1837C86.7212 82.6014 89.9506 82.3095 93.1865 82.3116C111.918 82.3116 127.867 91.9231 133.889 105.355C138.877 103.834 144.062 103.067 149.274 103.078C164.552 103.086 177.979 109.474 185.676 119.123Z" fill="#6C63FF"/>
<path d="M62.6227 120.566C62.6227 125.154 60.8724 127.645 58.0057 128.995C47.2073 127.947 36.8519 124.151 27.9141 117.967C28.1432 116.407 28.5823 114.886 29.2192 113.445L37.3725 115.996L30.1113 111.697C31.0933 110.011 32.348 108.502 33.8238 107.231L47.5217 111.515L36.7902 105.175C39 103.957 41.4458 103.235 43.9595 103.058C46.4732 102.882 48.9952 103.255 51.3519 104.152C53.7086 105.049 55.8443 106.448 57.6119 108.254C59.3796 110.061 60.7373 112.231 61.5918 114.615L61.6292 114.722C61.6576 114.803 61.6861 114.883 61.7128 114.966C61.809 115.251 61.8974 115.539 61.9782 115.831C62.0084 115.935 62.0369 116.038 62.0618 116.144C62.0868 116.25 62.1135 116.345 62.1366 116.445C62.1598 116.545 62.1794 116.624 62.1972 116.706C62.2096 116.76 62.2221 116.814 62.2328 116.868C62.2524 116.954 62.2702 117.047 62.2862 117.127C62.3111 117.253 62.336 117.38 62.3574 117.505C62.3788 117.631 62.4019 117.767 62.4215 117.897C62.4411 118.028 62.4643 118.188 62.4821 118.334C62.4999 118.481 62.5141 118.596 62.5266 118.727C62.5266 118.768 62.5355 118.807 62.539 118.848C62.5515 118.963 62.5604 119.078 62.5693 119.192C62.5702 119.207 62.5702 119.222 62.5693 119.237C62.58 119.38 62.5889 119.523 62.596 119.667C62.6031 119.81 62.6085 119.95 62.612 120.086C62.613 120.1 62.613 120.113 62.612 120.127C62.6209 120.27 62.6227 120.417 62.6227 120.566Z" fill="#6C63FF"/>
<path opacity="0.1" d="M62.6224 120.566C62.6224 125.154 60.8722 127.645 58.0054 128.995C51.0223 128.319 44.1979 126.489 37.8066 123.58L38.0987 123.385C39.4181 122.505 40.782 121.606 42.3346 121.307C43.7003 121.044 45.1088 121.266 46.4958 121.187C48.9105 121.039 51.1835 119.991 52.872 118.248C53.8638 117.217 54.6526 115.951 55.8367 115.163C57.1223 114.314 58.7533 114.131 60.2774 114.343C60.7202 114.408 61.1589 114.498 61.5915 114.613L61.6289 114.72C61.6574 114.801 61.6859 114.882 61.7126 114.964C61.8087 115.249 61.8972 115.538 61.9779 115.829C62.0082 115.933 62.0366 116.037 62.0616 116.142C62.0865 116.248 62.1132 116.343 62.1364 116.443C62.1595 116.544 62.1791 116.622 62.1969 116.705C62.2094 116.758 62.2218 116.812 62.2325 116.866C62.2521 116.952 62.2699 117.045 62.2859 117.126C62.3108 117.251 62.3358 117.378 62.3571 117.503C62.3785 117.629 62.4017 117.765 62.4212 117.896C62.4408 118.026 62.464 118.186 62.4818 118.333C62.4996 118.479 62.5138 118.594 62.5263 118.725C62.5263 118.766 62.5352 118.805 62.5388 118.847C62.5512 118.961 62.5601 119.076 62.569 119.19C62.5699 119.205 62.5699 119.22 62.569 119.235C62.5797 119.378 62.5886 119.522 62.5957 119.665C62.6029 119.808 62.6082 119.948 62.6118 120.084C62.6127 120.098 62.6127 120.112 62.6118 120.125C62.6207 120.27 62.6224 120.417 62.6224 120.566Z" fill="black"/>
<path d="M166.572 123.544C166.573 124.011 166.525 124.477 166.429 124.934C166.411 125.02 166.392 125.104 166.372 125.187C165.867 127.226 164.44 128.718 162.738 128.813C162.681 128.813 162.624 128.813 162.56 128.813C160.76 128.813 159.237 127.252 158.735 125.101C158.721 125.043 158.709 124.986 158.696 124.922C158.6 124.465 158.552 123.999 158.554 123.532C158.554 120.618 160.347 118.258 162.56 118.258C164.773 118.258 166.572 120.631 166.572 123.544Z" fill="#3F3D56"/>
<path opacity="0.1" d="M166.572 123.544C166.574 124.011 166.526 124.477 166.43 124.934C166.412 125.02 166.393 125.104 166.373 125.186C166.312 125.186 166.254 125.186 166.195 125.186C165.754 125.163 165.316 125.103 164.884 125.007C164.502 125.126 164.112 125.216 163.716 125.276C163.413 125.322 163.108 125.351 162.801 125.362C162.698 125.362 162.595 125.362 162.491 125.362C162.124 125.362 161.758 125.337 161.394 125.289C160.807 125.21 160.229 125.065 159.673 124.859C159.368 124.961 159.058 125.044 158.743 125.109C158.729 125.052 158.716 124.995 158.704 124.93C158.608 124.473 158.56 124.008 158.562 123.541C158.562 120.627 160.355 118.267 162.568 118.267C164.781 118.267 166.572 120.631 166.572 123.544Z" fill="black"/>
<path d="M175.119 113.719C175.12 112.437 174.821 111.172 174.246 110.028L169.535 111.502L173.671 109.058C172.978 108.049 172.068 107.211 171.009 106.603C169.95 105.996 168.769 105.636 167.553 105.549C167.36 105.254 167.147 104.972 166.917 104.704L160.151 106.823L165.701 103.54C164.64 102.72 163.393 102.177 162.073 101.957C160.753 101.737 159.399 101.848 158.131 102.28C156.864 102.712 155.722 103.451 154.806 104.433C153.89 105.415 153.229 106.608 152.881 107.908L158.677 114.618L152.39 110.044C150.797 111.181 149.663 112.854 149.195 114.761C148.726 116.667 148.955 118.68 149.838 120.431C150.721 122.183 152.201 123.557 154.007 124.303C155.813 125.049 157.825 125.118 159.678 124.497C161.353 125.116 163.184 125.167 164.891 124.642C166.081 124.904 167.314 124.894 168.5 124.614C169.686 124.333 170.794 123.789 171.743 123.021C172.693 122.253 173.459 121.281 173.985 120.176C174.512 119.071 174.785 117.862 174.786 116.637C174.786 116.457 174.786 116.278 174.768 116.099C175.001 115.328 175.119 114.526 175.119 113.719Z" fill="#6C63FF"/>
<path opacity="0.1" d="M174.978 115.238C172.49 114.764 169.938 114.731 167.439 115.141C164.61 115.612 161.718 116.648 158.951 115.892C157.327 115.448 155.924 114.42 154.338 113.848C152.807 113.311 151.158 113.212 149.575 113.562C148.971 115.014 148.796 116.61 149.07 118.159C149.345 119.708 150.057 121.145 151.121 122.298C152.186 123.451 153.558 124.272 155.073 124.662C156.589 125.052 158.184 124.995 159.669 124.497C161.344 125.116 163.175 125.167 164.882 124.642C166.073 124.906 167.307 124.897 168.494 124.617C169.681 124.338 170.79 123.794 171.741 123.026C172.691 122.257 173.458 121.285 173.985 120.179C174.512 119.073 174.785 117.863 174.786 116.637C174.786 116.458 174.786 116.279 174.768 116.1C174.854 115.817 174.924 115.529 174.978 115.238Z" fill="black"/>
<path d="M127.048 44.8467H126.286C126.06 44.8467 125.878 45.0303 125.878 45.2568V57.5134C125.878 57.7399 126.06 57.9235 126.286 57.9235H127.048C127.273 57.9235 127.456 57.7399 127.456 57.5134V45.2568C127.456 45.0303 127.273 44.8467 127.048 44.8467Z" fill="#3A3768"/>
<path d="M73.9274 34.6011H73.8579C73.6327 34.6011 73.4502 34.7847 73.4502 35.0112V38.4962C73.4502 38.7227 73.6327 38.9063 73.8579 38.9063H73.9274C74.1526 38.9063 74.3351 38.7227 74.3351 38.4962V35.0112C74.3351 34.7847 74.1526 34.6011 73.9274 34.6011Z" fill="#3A3768"/>
<path d="M74.0073 42.4844H73.8257C73.6005 42.4844 73.418 42.668 73.418 42.8945V49.5672C73.418 49.7937 73.6005 49.9773 73.8257 49.9773H74.0073C74.2325 49.9773 74.4151 49.7937 74.4151 49.5672V42.8945C74.4151 42.668 74.2325 42.4844 74.0073 42.4844Z" fill="#3A3768"/>
<path d="M73.9759 52.5991H73.8423C73.6171 52.5991 73.4346 52.7827 73.4346 53.0092V59.7464C73.4346 59.9729 73.6171 60.1566 73.8423 60.1566H73.9759C74.2011 60.1566 74.3836 59.9729 74.3836 59.7464V53.0092C74.3836 52.7827 74.2011 52.5991 73.9759 52.5991Z" fill="#3A3768"/>
<path d="M119.786 20.3745H80.8946C77.0604 20.3745 73.9521 23.5007 73.9521 27.3571V121.271C73.9521 125.128 77.0604 128.254 80.8946 128.254H119.786C123.62 128.254 126.728 125.128 126.728 121.271V27.3571C126.728 23.5007 123.62 20.3745 119.786 20.3745Z" fill="#3F3D56"/>
<path d="M101.931 23.5967H95.9391C95.5585 23.5967 95.25 23.907 95.25 24.2897V24.4079C95.25 24.7907 95.5585 25.101 95.9391 25.101H101.931C102.311 25.101 102.62 24.7907 102.62 24.4079V24.2897C102.62 23.907 102.311 23.5967 101.931 23.5967Z" fill="#E6E8EC"/>
<path d="M104.582 25.2026C105.051 25.2026 105.431 24.8202 105.431 24.3484C105.431 23.8766 105.051 23.4941 104.582 23.4941C104.113 23.4941 103.732 23.8766 103.732 24.3484C103.732 24.8202 104.113 25.2026 104.582 25.2026Z" fill="#E6E8EC"/>
<path d="M119.271 23.1846H113.235V23.917C113.235 24.8375 112.871 25.7203 112.224 26.3712C111.577 27.0221 110.699 27.3877 109.784 27.3877H90.5217C89.6065 27.3877 88.7288 27.0221 88.0816 26.3712C87.4345 25.7203 87.0709 24.8375 87.0709 23.917V23.1846H81.4016C80.8513 23.1846 80.3063 23.2936 79.7979 23.5055C79.2894 23.7174 78.8275 24.0279 78.4384 24.4194C78.0493 24.8109 77.7408 25.2757 77.5303 25.7871C77.3199 26.2986 77.2117 26.8467 77.2119 27.4003V121.229C77.2117 121.782 77.3199 122.33 77.5303 122.842C77.7408 123.353 78.0493 123.818 78.4384 124.21C78.8275 124.601 79.2894 124.912 79.7979 125.123C80.3063 125.335 80.8513 125.444 81.4016 125.444H119.271C120.382 125.444 121.449 125 122.235 124.21C123.021 123.419 123.462 122.347 123.462 121.229V27.4003C123.462 26.2822 123.021 25.2099 122.235 24.4193C121.449 23.6287 120.382 23.1846 119.271 23.1846Z" fill="#6C63FF"/>
<path opacity="0.1" d="M105.683 40.0205H79.1523V44.3186H105.683V40.0205Z" fill="black" stroke="#6C63FF" stroke-miterlimit="10"/>
<path opacity="0.1" d="M85.5621 69.3902C88.7089 69.3902 91.2599 66.8245 91.2599 63.6595C91.2599 60.4945 88.7089 57.9287 85.5621 57.9287C82.4153 57.9287 79.8643 60.4945 79.8643 63.6595C79.8643 66.8245 82.4153 69.3902 85.5621 69.3902Z" fill="black" stroke="#6C63FF" stroke-miterlimit="10"/>
<path d="M83.96 62.5852V64.7342H85.3844L87.165 66.6056V60.7119L85.3844 62.5852H83.96Z" fill="white"/>
<path opacity="0.1" d="M100.697 69.3902C103.844 69.3902 106.395 66.8245 106.395 63.6595C106.395 60.4945 103.844 57.9287 100.697 57.9287C97.55 57.9287 94.999 60.4945 94.999 63.6595C94.999 66.8245 97.55 69.3902 100.697 69.3902Z" fill="black" stroke="#6C63FF" stroke-miterlimit="10"/>
<path d="M100.696 66.0523C100.562 66.0516 100.43 66.0912 100.317 66.1659C100.205 66.2406 100.117 66.3472 100.065 66.4722C100.013 66.5971 99.9994 66.7348 100.025 66.8677C100.051 67.0006 100.116 67.1229 100.211 67.2189C100.306 67.3149 100.427 67.3805 100.559 67.4071C100.691 67.4338 100.828 67.4205 100.952 67.3688C101.077 67.3172 101.183 67.2295 101.258 67.1169C101.333 67.0043 101.373 66.8719 101.373 66.7365C101.373 66.5556 101.302 66.3822 101.175 66.254C101.048 66.1258 100.876 66.0533 100.696 66.0523ZM98.7021 59.8989C98.5674 59.8979 98.4353 59.9371 98.3228 60.0116C98.2102 60.0861 98.1222 60.1926 98.0699 60.3175C98.0176 60.4424 98.0034 60.5801 98.029 60.7132C98.0547 60.8463 98.119 60.9687 98.2139 61.0649C98.3088 61.1611 98.43 61.2268 98.5621 61.2536C98.6942 61.2804 98.8312 61.2672 98.9558 61.2156C99.0804 61.164 99.187 61.0763 99.2619 60.9637C99.3369 60.8511 99.377 60.7186 99.377 60.5831C99.377 60.4025 99.306 60.2294 99.1796 60.1012C99.0532 59.9731 98.8816 59.9004 98.7021 59.8989ZM98.7021 61.9513C98.5673 61.9502 98.4352 61.9895 98.3226 62.0641C98.21 62.1387 98.122 62.2452 98.0698 62.3703C98.0175 62.4953 98.0034 62.6331 98.0292 62.7662C98.0549 62.8993 98.1195 63.0217 98.2146 63.1178C98.3096 63.214 98.431 63.2795 98.5632 63.3061C98.6954 63.3328 98.8325 63.3193 98.9571 63.2674C99.0816 63.2155 99.188 63.1276 99.2628 63.0147C99.3376 62.9019 99.3773 62.7692 99.377 62.6336C99.377 62.4533 99.306 62.2802 99.1795 62.1524C99.0531 62.0245 98.8814 61.9522 98.7021 61.9513ZM98.7021 64.0018C98.5674 64.0007 98.4353 64.04 98.3228 64.1145C98.2102 64.189 98.1222 64.2955 98.0699 64.4204C98.0176 64.5453 98.0034 64.683 98.029 64.8161C98.0547 64.9491 98.119 65.0715 98.2139 65.1677C98.3088 65.2639 98.43 65.3296 98.5621 65.3565C98.6942 65.3833 98.8312 65.3701 98.9558 65.3184C99.0804 65.2668 99.187 65.1792 99.2619 65.0665C99.3369 64.9539 99.377 64.8215 99.377 64.6859C99.377 64.5054 99.306 64.3322 99.1796 64.2041C99.0532 64.0759 98.8816 64.0032 98.7021 64.0018ZM102.691 61.2672C102.825 61.2679 102.957 61.2284 103.069 61.1536C103.182 61.0789 103.269 60.9723 103.322 60.8473C103.374 60.7224 103.388 60.5847 103.362 60.4518C103.336 60.3189 103.271 60.1966 103.176 60.1006C103.081 60.0046 102.96 59.9391 102.828 59.9124C102.696 59.8857 102.559 59.899 102.435 59.9507C102.31 60.0024 102.204 60.09 102.129 60.2026C102.054 60.3152 102.014 60.4476 102.014 60.5831C102.014 60.6727 102.031 60.7614 102.065 60.8443C102.099 60.9272 102.149 61.0025 102.211 61.0661C102.274 61.1296 102.349 61.18 102.431 61.2145C102.513 61.249 102.601 61.2669 102.691 61.2672ZM100.696 64.0018C100.562 64.0011 100.43 64.0406 100.317 64.1154C100.205 64.1901 100.117 64.2967 100.065 64.4216C100.013 64.5466 99.9994 64.6842 100.025 64.8172C100.051 64.9501 100.116 65.0723 100.211 65.1684C100.306 65.2644 100.427 65.3299 100.559 65.3566C100.691 65.3833 100.828 65.37 100.952 65.3183C101.077 65.2666 101.183 65.1789 101.258 65.0664C101.333 64.9538 101.373 64.8214 101.373 64.6859C101.373 64.5051 101.302 64.3316 101.175 64.2034C101.048 64.0753 100.876 64.0028 100.696 64.0018ZM102.691 64.0018C102.556 64.0011 102.424 64.0406 102.312 64.1154C102.199 64.1901 102.112 64.2967 102.06 64.4216C102.008 64.5466 101.994 64.6842 102.019 64.8172C102.045 64.9501 102.11 65.0723 102.205 65.1684C102.3 65.2644 102.421 65.3299 102.553 65.3566C102.685 65.3833 102.822 65.37 102.946 65.3183C103.071 65.2666 103.177 65.1789 103.252 65.0664C103.327 64.9538 103.367 64.8214 103.367 64.6859C103.367 64.5051 103.296 64.3316 103.169 64.2034C103.042 64.0753 102.87 64.0028 102.691 64.0018ZM102.691 61.9513C102.556 61.9506 102.424 61.9901 102.312 62.0649C102.199 62.1398 102.111 62.2465 102.059 62.3715C102.007 62.4966 101.994 62.6343 102.02 62.7673C102.046 62.9003 102.11 63.0225 102.205 63.1185C102.301 63.2144 102.422 63.2798 102.554 63.3063C102.686 63.3328 102.823 63.3192 102.948 63.2672C103.072 63.2153 103.178 63.1273 103.253 63.0145C103.328 62.9017 103.368 62.7691 103.367 62.6336C103.367 62.4529 103.296 62.2797 103.169 62.1518C103.042 62.0238 102.87 61.9518 102.691 61.9513ZM100.696 61.9513C100.562 61.9506 100.43 61.9901 100.317 62.0649C100.205 62.1398 100.117 62.2465 100.065 62.3715C100.013 62.4966 99.9994 62.6343 100.025 62.7673C100.051 62.9003 100.116 63.0225 100.211 63.1185C100.306 63.2144 100.428 63.2798 100.56 63.3063C100.692 63.3328 100.829 63.3192 100.953 63.2672C101.078 63.2153 101.184 63.1273 101.259 63.0145C101.334 62.9017 101.373 62.7691 101.373 62.6336C101.373 62.4529 101.302 62.2797 101.175 62.1518C101.048 62.0238 100.876 61.9518 100.696 61.9513ZM100.696 59.8989C100.562 59.8982 100.43 59.9378 100.317 60.0125C100.205 60.0872 100.117 60.1938 100.065 60.3188C100.013 60.4437 99.9994 60.5814 100.025 60.7143C100.051 60.8473 100.116 60.9695 100.211 61.0655C100.306 61.1615 100.427 61.2271 100.559 61.2537C100.691 61.2804 100.828 61.2671 100.952 61.2154C101.077 61.1638 101.183 61.0761 101.258 60.9635C101.333 60.8509 101.373 60.7185 101.373 60.5831C101.373 60.4022 101.302 60.2288 101.175 60.1006C101.048 59.9724 100.876 59.8999 100.696 59.8989Z" fill="white"/>
<g opacity="0.4">
<path opacity="0.1" d="M85.5621 86.5826C88.7089 86.5826 91.2599 84.0168 91.2599 80.8518C91.2599 77.6868 88.7089 75.1211 85.5621 75.1211C82.4153 75.1211 79.8643 77.6868 79.8643 80.8518C79.8643 84.0168 82.4153 86.5826 85.5621 86.5826Z" fill="black" stroke="#6C63FF" stroke-miterlimit="10"/>
<path opacity="0.4" d="M88.2324 81.21H85.9176V83.5381H85.2054V81.21H82.8906V80.4936H85.2054V78.1655H85.9176V80.4936H88.2324V81.21Z" fill="white"/>
</g>
<path opacity="0.1" d="M115.832 69.3902C118.978 69.3902 121.529 66.8245 121.529 63.6595C121.529 60.4945 118.978 57.9287 115.832 57.9287C112.685 57.9287 110.134 60.4945 110.134 63.6595C110.134 66.8245 112.685 69.3902 115.832 69.3902Z" fill="black" stroke="#6C63FF" stroke-miterlimit="10"/>
<path d="M115.831 60.1655C115.405 60.1711 114.984 60.2612 114.592 60.4305C114.2 60.5999 113.845 60.8453 113.547 61.1526C113.25 61.4599 113.015 61.8232 112.857 62.2217C112.699 62.6202 112.621 63.0461 112.626 63.475V66.0485C112.624 66.1915 112.651 66.3335 112.703 66.4663C112.756 66.5991 112.834 66.7202 112.933 66.8227C113.032 66.9251 113.151 67.0069 113.281 67.0633C113.412 67.1198 113.552 67.1498 113.695 67.1517H114.763V64.195H113.338V63.4786C113.338 62.8137 113.601 62.1759 114.069 61.7058C114.536 61.2356 115.17 60.9714 115.831 60.9714C116.492 60.9714 117.126 61.2356 117.594 61.7058C118.061 62.1759 118.324 62.8137 118.324 63.4786V64.195H116.9V67.1499H117.968C118.11 67.1482 118.251 67.1184 118.382 67.062C118.512 67.0056 118.631 66.9239 118.73 66.8214C118.829 66.7189 118.907 66.5977 118.96 66.4648C119.012 66.3318 119.038 66.1898 119.036 66.0467V63.475C119.042 63.0461 118.964 62.6202 118.806 62.2217C118.648 61.8232 118.413 61.4599 118.115 61.1526C117.818 60.8453 117.463 60.5999 117.071 60.4305C116.679 60.2612 116.258 60.1711 115.831 60.1655Z" fill="white"/>
<g opacity="0.4">
<path opacity="0.1" d="M100.697 86.5826C103.844 86.5826 106.395 84.0168 106.395 80.8518C106.395 77.6868 103.844 75.1211 100.697 75.1211C97.55 75.1211 94.999 77.6868 94.999 80.8518C94.999 84.0168 97.55 86.5826 100.697 86.5826Z" fill="black" stroke="#6C63FF" stroke-miterlimit="10"/>
<path opacity="0.4" d="M102.834 80.2375V78.8048C102.833 78.7505 102.822 78.6969 102.8 78.6469C102.779 78.597 102.748 78.5518 102.709 78.5139C102.671 78.476 102.625 78.4461 102.575 78.4259C102.525 78.4058 102.471 78.3958 102.417 78.3965H97.3709C97.2621 78.3956 97.1574 78.438 97.0797 78.5145C97.0019 78.591 96.9575 78.6954 96.9561 78.8048V82.8898C96.9579 82.9991 97.0025 83.1032 97.0802 83.1796C97.1578 83.256 97.2623 83.2986 97.3709 83.2981H102.415C102.524 83.2991 102.629 83.2567 102.707 83.1802C102.785 83.1038 102.83 82.9994 102.832 82.8898V81.4571L104.434 83.0904V78.6043L102.834 80.2375Z" fill="white"/>
</g>
<path opacity="0.1" d="M115.832 86.5826C118.978 86.5826 121.529 84.0168 121.529 80.8518C121.529 77.6868 118.978 75.1211 115.832 75.1211C112.685 75.1211 110.134 77.6868 110.134 80.8518C110.134 84.0168 112.685 86.5826 115.832 86.5826Z" fill="black" stroke="#6C63FF" stroke-miterlimit="10"/>
<path d="M115.551 82.3277C115.244 82.5026 114.898 82.5945 114.545 82.5945C114.193 82.5945 113.847 82.5026 113.54 82.3277C112.753 82.5695 112.271 83.37 112.093 84.0738H116.998C116.82 83.37 116.339 82.5695 115.551 82.3277ZM114.546 78.5669C114.197 78.5665 113.854 78.6706 113.563 78.8658C113.272 79.0611 113.045 79.3388 112.911 79.6639C112.777 79.9889 112.742 80.3466 112.81 80.6917C112.879 81.0368 113.047 81.3539 113.294 81.6027C113.542 81.8515 113.857 82.0209 114.2 82.0894C114.543 82.158 114.899 82.1226 115.222 81.9878C115.545 81.853 115.821 81.6248 116.015 81.3321C116.21 81.0394 116.313 80.6953 116.313 80.3434C116.313 79.8723 116.127 79.4204 115.795 79.0872C115.464 78.7541 115.015 78.5669 114.546 78.5669ZM114.546 81.6973C114.281 81.6924 114.022 81.6094 113.802 81.4585C113.583 81.3077 113.412 81.0957 113.311 80.8484H115.78C115.679 81.0957 115.509 81.308 115.29 81.4591C115.07 81.6102 114.812 81.6936 114.546 81.6991V81.6973Z" fill="white"/>
<path d="M116.942 82.9992H119.57C119.488 82.6275 119.312 82.2836 119.058 82.001C118.804 81.7185 118.482 81.5071 118.123 81.3874C117.816 81.5622 117.469 81.6542 117.116 81.6543C116.88 81.6564 116.645 81.6164 116.422 81.5361C116.298 81.7552 116.141 81.9534 115.956 82.1235C116.363 82.3112 116.706 82.6159 116.942 82.9992ZM116.675 79.91H118.352C118.25 80.1565 118.079 80.3678 117.86 80.518C117.64 80.6681 117.382 80.7506 117.116 80.7553C116.972 80.7542 116.829 80.7288 116.693 80.68C116.671 80.8237 116.634 80.9647 116.584 81.1009C116.827 81.179 117.085 81.2031 117.338 81.1717C117.591 81.1403 117.835 81.054 118.052 80.9189C118.269 80.7837 118.455 80.6029 118.596 80.3888C118.737 80.1747 118.83 79.9324 118.869 79.6786C118.908 79.4249 118.892 79.1656 118.822 78.9186C118.752 78.6717 118.629 78.4429 118.463 78.2481C118.297 78.0533 118.09 77.897 117.858 77.7901C117.626 77.6831 117.374 77.6279 117.118 77.6284C116.821 77.6288 116.529 77.7045 116.268 77.8485C116.008 77.9925 115.788 78.2001 115.628 78.4522C115.895 78.607 116.126 78.817 116.307 79.0682C116.487 79.3195 116.613 79.6064 116.675 79.91Z" fill="white"/>
<path d="M100.697 109.506C103.844 109.506 106.395 106.94 106.395 103.775C106.395 100.61 103.844 98.0444 100.697 98.0444C97.55 98.0444 94.999 100.61 94.999 103.775C94.999 106.94 97.55 109.506 100.697 109.506Z" fill="#FF6F61"/>
<path d="M97.7711 105.189C98.0827 104.893 98.4376 104.647 98.8234 104.459C98.8831 104.432 98.9337 104.388 98.9688 104.333C99.004 104.277 99.0221 104.213 99.021 104.147L99.0513 103.033C100.14 102.708 101.304 102.739 102.374 103.123L102.344 104.237C102.343 104.301 102.359 104.365 102.39 104.422C102.421 104.478 102.467 104.526 102.522 104.559C102.908 104.762 103.259 105.028 103.558 105.347C103.59 105.381 103.629 105.409 103.671 105.428C103.714 105.447 103.76 105.458 103.807 105.459C103.854 105.461 103.9 105.453 103.944 105.436C103.988 105.419 104.028 105.394 104.062 105.361L104.966 104.498C105.035 104.433 105.074 104.343 105.077 104.249C105.08 104.154 105.045 104.062 104.981 103.993C104.434 103.412 103.779 102.946 103.053 102.62C102.327 102.294 101.544 102.115 100.749 102.094C99.9541 102.072 99.1629 102.208 98.4203 102.494C97.6778 102.78 96.9985 103.21 96.4214 103.76C96.3874 103.793 96.3602 103.832 96.3412 103.875C96.3222 103.918 96.3118 103.964 96.3107 104.011C96.3095 104.058 96.3176 104.105 96.3344 104.149C96.3513 104.193 96.3766 104.233 96.4089 104.267L97.2654 105.177C97.2976 105.211 97.3362 105.238 97.379 105.257C97.4218 105.277 97.4679 105.287 97.5147 105.288C97.5615 105.289 97.6081 105.281 97.6518 105.264C97.6955 105.247 97.7354 105.222 97.7693 105.189H97.7711Z" fill="white"/>
<path opacity="0.1" d="M116.544 48.0793C119.003 48.0793 120.996 46.0748 120.996 43.6021C120.996 41.1295 119.003 39.125 116.544 39.125C114.086 39.125 112.093 41.1295 112.093 43.6021C112.093 46.0748 114.086 48.0793 116.544 48.0793Z" fill="black" stroke="#6C63FF" stroke-miterlimit="10"/>
<path d="M117.549 44.6065C117.243 44.7814 116.896 44.8733 116.543 44.8733C116.191 44.8733 115.844 44.7814 115.537 44.6065C114.75 44.8483 114.268 45.6488 114.09 46.3544H118.997C118.819 45.6488 118.337 44.8483 117.549 44.6065ZM116.543 40.8457C116.194 40.8453 115.852 40.9493 115.561 41.1445C115.27 41.3397 115.043 41.6173 114.909 41.9422C114.775 42.2672 114.739 42.6248 114.807 42.9699C114.875 43.3149 115.044 43.632 115.291 43.8809C115.538 44.1297 115.853 44.2993 116.196 44.368C116.539 44.4368 116.895 44.4017 117.218 44.2672C117.541 44.1326 117.817 43.9047 118.012 43.6122C118.206 43.3197 118.31 42.9758 118.31 42.624C118.309 42.1528 118.123 41.7011 117.792 41.3677C117.461 41.0344 117.012 40.8467 116.543 40.8457ZM116.543 43.9779C116.278 43.9725 116.019 43.8893 115.8 43.7386C115.58 43.5878 115.409 43.376 115.308 43.129H117.779C117.677 43.3761 117.506 43.588 117.287 43.739C117.068 43.8901 116.809 43.9737 116.543 43.9797V43.9779Z" fill="white"/>
<path opacity="0.1" d="M72.0382 11.8897C71.6233 11.6479 71.0624 11.8789 70.7775 12.2675C70.4927 12.6562 70.4214 13.163 70.3413 13.634C70.1828 14.6924 70.0671 15.9084 70.7775 16.7071C69.6166 13.1665 66.278 10.4534 62.5869 10.0576" stroke="#6C63FF" stroke-width="3" stroke-miterlimit="10"/>
<path opacity="0.1" d="M143.979 70.3161C143.712 70.1603 143.352 70.3161 143.169 70.5596C143.006 70.8252 142.91 71.1262 142.887 71.4372C142.786 72.1195 142.709 72.9003 143.169 73.4071C142.778 72.2705 142.077 71.2672 141.147 70.5115C140.217 69.7557 139.094 69.2778 137.907 69.1323" stroke="#6C63FF" stroke-width="3" stroke-miterlimit="10"/>
<path opacity="0.1" d="M53.2583 47.1644C52.9912 47.0104 52.6315 47.1644 52.4481 47.4079C52.2853 47.674 52.1888 47.9756 52.1668 48.2873C52.0653 48.9678 51.9887 49.7486 52.4481 50.2572C52.0567 49.1208 51.3561 48.1177 50.4259 47.362C49.4958 46.6063 48.3734 46.1283 47.1865 45.9824" stroke="#6C63FF" stroke-width="3" stroke-miterlimit="10"/>
<path d="M124.079 130.906C124.257 131.245 124.592 131.453 124.914 131.637C127.153 132.928 129.512 133.997 131.958 134.827C132.019 134.862 132.087 134.883 132.157 134.889C132.227 134.894 132.298 134.884 132.363 134.858C132.429 134.833 132.488 134.792 132.536 134.741C132.584 134.689 132.62 134.627 132.642 134.56C132.923 134.083 133.231 133.306 133.158 132.678C133.389 132.536 133.557 132.31 133.626 132.047C133.723 131.727 133.869 131.425 134.061 131.152C134.394 130.647 134.796 130.14 134.85 129.526C134.845 129.307 134.866 129.088 134.912 128.874C135.006 128.591 135.257 128.405 135.446 128.179C135.74 127.821 135.88 127.359 136.014 126.909C136.57 125.041 137.125 123.173 137.588 121.277C137.738 120.663 137.876 120.047 138.081 119.45C138.259 118.927 138.487 118.426 138.713 117.924C139.522 116.107 140.463 114.352 141.528 112.674C141.695 113.237 141.897 113.79 142.132 114.328C142.253 114.606 142.383 114.88 142.506 115.158C142.971 116.203 142.887 117.547 143.459 118.53C143.696 118.933 143.93 119.336 144.16 119.739C144.291 119.936 144.392 120.151 144.461 120.378C144.498 120.536 144.502 120.7 144.529 120.86C144.65 121.576 145.228 122.081 145.549 122.72C145.843 123.304 145.905 123.974 146.083 124.617C146.505 126.103 147.541 127.395 147.646 128.944C147.66 129.362 147.65 129.78 147.616 130.197C147.59 130.927 147.638 131.658 147.76 132.379C147.77 132.451 147.789 132.522 147.817 132.59C146.905 133.955 145.5 134.91 143.9 135.251C143.597 135.312 143.25 135.376 143.092 135.656C142.901 135.989 143.117 136.447 143.448 136.626C143.779 136.806 144.16 136.788 144.516 136.755C147.071 136.54 149.598 136.071 152.061 135.355C152.185 135.329 152.299 135.267 152.388 135.176C152.476 135.045 152.514 134.887 152.497 134.73C152.495 134.151 152.361 133.581 152.105 133.063L152.283 133C152.383 132.284 152.016 131.591 151.731 130.926C151.236 129.767 150.965 128.516 150.574 127.31C149.819 124.982 148.599 122.81 148.305 120.374C148.225 119.705 148.026 119.024 147.983 118.351C147.898 116.979 147.805 115.6 147.508 114.264C147.258 113.164 146.865 112.115 146.617 111.003C146.37 109.891 146.29 108.721 146.653 107.657C146.756 107.353 146.895 107.065 146.989 106.762C147.346 105.578 147.005 104.296 146.66 103.107C146.551 102.731 146.443 102.356 146.336 101.982C146.192 101.49 146.049 100.995 145.893 100.507C145.914 100.487 145.934 100.467 145.955 100.444C146.268 100.086 146.265 99.5377 146.489 99.1097C146.6 98.8894 146.767 98.7086 146.884 98.4937C147.106 98.029 147.164 97.5019 147.046 97.0001C146.952 96.4986 146.763 96.0223 146.621 95.5334C146.234 94.1916 146.205 92.7712 146.535 91.4144C146.68 90.8359 146.892 90.2682 146.922 89.6719C146.932 89.2732 146.896 88.8747 146.813 88.4846C146.537 86.9802 145.996 85.4544 144.897 84.4605C144.311 83.9232 143.519 83.4522 143.457 82.6356C143.362 82.599 143.258 82.5952 143.161 82.6249C143.111 82.439 143.078 82.249 143.062 82.0572H143.07C143.125 82.0634 143.18 82.0634 143.234 82.0572C143.28 82.0542 143.325 82.0413 143.366 82.0196C143.389 82.0058 143.411 81.9896 143.43 81.9712C143.499 81.8998 143.559 81.8197 143.608 81.733C143.681 81.6112 143.747 81.4805 143.802 81.391C143.857 81.3014 143.946 81.1582 144.016 81.0328C144.224 80.6746 144.417 80.3105 144.595 79.9404V79.926C144.612 79.892 144.628 79.8562 144.644 79.8222L144.666 79.7738L144.698 79.7004C144.698 79.6825 144.714 79.6628 144.721 79.6449C144.728 79.627 144.741 79.6001 144.75 79.5768L144.774 79.5177C144.783 79.4962 144.79 79.4747 144.799 79.4515C144.808 79.4316 144.816 79.4113 144.823 79.3906C144.831 79.3691 144.839 79.3476 144.846 79.3261C144.853 79.3046 144.86 79.2849 144.869 79.2634C144.878 79.2419 144.881 79.2204 144.888 79.199L144.91 79.1345C144.91 79.113 144.92 79.0933 144.928 79.0718L144.945 79.0055L144.961 78.9429L144.977 78.8748C144.977 78.8551 144.977 78.8354 144.99 78.8139C145.002 78.7924 144.99 78.7674 145.002 78.7441C145.015 78.7208 145.002 78.7047 145.002 78.685L145.013 78.6151V78.556C145.013 78.531 145.013 78.5077 145.013 78.4844C145.013 78.4611 145.013 78.445 145.013 78.4253C145.013 78.4056 145.013 78.377 145.013 78.3537V78.3125C145.013 78.2874 145.013 78.2641 145.013 78.2391C145.013 78.214 145.013 78.2032 145.013 78.1853C145.013 78.1674 145.013 78.1352 145.013 78.1101C145.013 78.085 145.013 78.0761 145.013 78.06C145.005 77.9898 144.991 77.9204 144.972 77.8522C144.852 77.4351 144.609 77.0647 144.274 76.7902C143.951 76.5245 143.591 76.3068 143.206 76.1438C143.112 76.1075 143.026 76.0534 142.953 75.9844C142.867 75.8592 142.796 75.7246 142.741 75.5832C142.584 75.3074 142.271 75.1838 141.977 75.1104C141.683 75.037 141.368 74.9904 141.122 74.8024C141.101 74.7834 141.075 74.7688 141.048 74.7594C141.01 74.7564 140.972 74.7645 140.939 74.7827L140.254 75.0889C140.247 75.0461 140.231 75.0051 140.209 74.9683C140.186 74.9315 140.156 74.8996 140.121 74.8745C140.086 74.8493 140.046 74.8314 140.004 74.8218C139.962 74.8122 139.919 74.8111 139.876 74.8185C139.707 74.8597 139.553 74.9485 139.433 75.0746C139.412 75.0534 139.397 75.0269 139.39 74.9979C139.383 74.9689 139.383 74.9385 139.392 74.9098L138.858 75.268C138.792 75.311 138.671 75.3217 138.68 75.2394C138.382 75.5658 138.125 75.9265 137.912 76.3139C137.846 76.4322 137.79 76.5563 137.745 76.6846C137.745 76.7115 137.729 76.7383 137.722 76.7652C137.721 76.7705 137.721 76.776 137.722 76.7813C137.722 76.8046 137.711 76.8296 137.707 76.8547C137.706 76.8619 137.706 76.8691 137.707 76.8762C137.707 76.9067 137.707 76.9389 137.707 76.9693C137.706 77.0039 137.706 77.0386 137.707 77.0732C137.713 77.1727 137.744 77.2691 137.798 77.3526C137.852 77.4362 137.927 77.5041 138.015 77.5496C138.084 77.5751 138.156 77.5866 138.229 77.5836C138.382 77.5653 138.533 77.5342 138.681 77.4905C138.729 77.4786 138.778 77.4703 138.827 77.4654C138.85 77.4636 138.874 77.4636 138.897 77.4654C138.99 77.4632 139.081 77.4943 139.153 77.5532L139.164 77.5639C138.775 77.8453 138.459 78.2165 138.242 78.6462C138.025 79.0759 137.914 79.5516 137.917 80.0335C137.917 80.5076 138.024 80.9757 138.231 81.4017C138.16 81.4413 138.101 81.5003 138.062 81.5719C138.022 81.6435 138.004 81.7248 138.008 81.8064C137.962 81.6691 137.937 81.5253 137.935 81.3802C137.643 81.3211 137.431 81.665 137.326 81.9605C137.11 82.6284 136.943 83.3114 136.826 84.0038C136.735 84.4641 136.648 84.9243 136.555 85.3846C136.463 85.8448 136.377 86.3391 136.31 86.8173C136.152 88.0587 136.208 89.3181 136.475 90.5405C136.457 90.5799 136.441 90.6211 136.425 90.6604C136.372 90.8037 136.221 90.9255 136.203 91.0777C136.107 91.9893 136.68 92.8113 137.221 93.5258C137.266 93.5989 137.327 93.6603 137.399 93.7049C137.479 93.738 137.565 93.7491 137.65 93.7371C137.866 93.7266 138.081 93.7051 138.295 93.6727C138.307 93.7945 138.322 93.9144 138.336 94.0308C138.489 95.3167 138.751 96.6025 138.749 97.8973C138.747 99.1921 138.503 100.505 138.996 101.658C139.078 101.855 139.237 102.016 139.253 102.22H139.283C138.982 102.838 138.735 103.482 138.546 104.144C138.35 104.921 138.309 105.738 138.09 106.508C137.903 107.161 137.592 107.761 137.341 108.399C136.932 109.435 136.691 110.53 136.628 111.642C136.622 112.153 136.519 112.658 136.326 113.13C136.038 113.697 135.785 114.281 135.571 114.88C135.215 115.944 134.614 116.952 134.502 118.078C134.44 118.716 134.531 119.397 134.265 119.973C134.162 120.199 134.009 120.394 133.888 120.607C133.711 120.949 133.573 121.309 133.477 121.682L131.714 127.561C131.647 127.884 131.499 128.185 131.283 128.433C131.119 128.591 130.904 128.677 130.749 128.84C130.5 129.094 130.437 129.467 130.435 129.846C130.247 129.881 130.063 129.941 129.891 130.025C129.145 130.346 128.343 130.511 127.532 130.511C126.722 130.511 125.919 130.346 125.174 130.025C124.889 129.902 124.565 129.755 124.284 129.896C123.954 130.068 123.901 130.568 124.079 130.906ZM138.122 86.3713C138.228 85.8846 138.426 85.423 138.706 85.0121C139.105 84.3512 139.525 83.6976 139.906 83.0224L140.015 82.9168C140.045 83.0027 140.074 83.0959 140.1 83.1764C140.166 83.406 140.219 83.6392 140.259 83.8749C140.315 84.1698 140.332 84.4709 140.309 84.7703L140.284 84.79C140.14 84.8831 140.024 85.0137 139.947 85.1679C139.897 85.3215 139.897 85.4871 139.947 85.6407L139.931 85.6586L139.949 85.646C140.011 85.8932 140.127 86.1475 140.09 86.3982C140.049 86.7009 139.807 86.9211 139.655 87.1808C139.299 87.8058 139.413 88.755 138.827 89.1382L138.817 89.1633C138.691 89.1335 138.574 89.075 138.474 88.9924C138.374 88.9098 138.295 88.8053 138.242 88.6869C138.288 87.9222 138.003 87.1378 138.122 86.3713Z" fill="url(#paint0_linear)"/>
<path d="M152.73 134.764C152.749 134.919 152.709 135.076 152.618 135.203C152.523 135.294 152.405 135.356 152.276 135.382C149.705 136.089 147.074 136.552 144.417 136.764C144.036 136.793 143.633 136.814 143.297 136.637C142.96 136.46 142.736 136.007 142.941 135.679C143.106 135.403 143.475 135.339 143.783 135.28C145.45 134.952 146.928 133.99 147.907 132.593C148.024 132.393 148.176 132.216 148.355 132.07C148.697 131.836 149.151 131.891 149.555 131.972C150.268 132.119 151.213 132.292 151.856 132.643C152.499 132.994 152.719 134.078 152.73 134.764Z" fill="#3F3D56"/>
<path opacity="0.1" d="M152.73 134.764C152.749 134.919 152.709 135.076 152.618 135.203C152.523 135.294 152.405 135.356 152.276 135.382C149.705 136.089 147.074 136.552 144.417 136.764C144.036 136.793 143.633 136.814 143.297 136.637C142.96 136.46 142.736 136.007 142.941 135.679C143.106 135.403 143.475 135.339 143.783 135.28C145.45 134.952 146.928 133.99 147.907 132.593C148.024 132.393 148.176 132.216 148.355 132.07C148.697 131.836 149.151 131.891 149.555 131.972C150.268 132.119 151.213 132.292 151.856 132.643C152.499 132.994 152.719 134.078 152.73 134.764Z" fill="black"/>
<path d="M132.038 134.59C131.969 134.731 131.85 134.841 131.705 134.898C131.577 134.92 131.446 134.905 131.326 134.854C128.787 134.038 126.33 132.985 123.987 131.707C123.652 131.528 123.303 131.32 123.116 130.991C122.929 130.661 122.986 130.154 123.33 129.988C123.618 129.848 123.956 129.988 124.252 130.115C125.828 130.754 127.59 130.754 129.166 130.115C129.373 130.011 129.597 129.945 129.827 129.922C130.238 129.913 130.593 130.205 130.895 130.496C131.415 131.01 132.111 131.675 132.46 132.32C132.809 132.964 132.4 134.008 132.038 134.59Z" fill="#3F3D56"/>
<path opacity="0.1" d="M132.038 134.59C131.969 134.731 131.85 134.841 131.705 134.898C131.577 134.92 131.446 134.905 131.326 134.854C128.787 134.038 126.33 132.985 123.987 131.707C123.652 131.528 123.303 131.32 123.116 130.991C122.929 130.661 122.986 130.154 123.33 129.988C123.618 129.848 123.956 129.988 124.252 130.115C125.828 130.754 127.59 130.754 129.166 130.115C129.373 130.011 129.597 129.945 129.827 129.922C130.238 129.913 130.593 130.205 130.895 130.496C131.415 131.01 132.111 131.675 132.46 132.32C132.809 132.964 132.4 134.008 132.038 134.59Z" fill="black"/>
<path d="M145.61 100.295C145.875 101.011 146.098 101.728 146.322 102.444L146.66 103.555C147.016 104.728 147.372 105.992 147.004 107.161C146.906 107.464 146.762 107.749 146.648 108.057C146.27 109.106 146.358 110.272 146.61 111.359C146.863 112.446 147.273 113.49 147.533 114.583C147.848 115.901 147.939 117.269 148.028 118.614C148.072 119.278 148.279 119.95 148.364 120.611C148.671 123.012 149.94 125.165 150.727 127.454C151.135 128.641 151.416 129.875 151.934 131.019C152.23 131.675 152.613 132.353 152.509 133.064C151.062 133.58 149.458 133.571 148.094 132.864C148.008 132.833 147.933 132.776 147.88 132.702C147.826 132.627 147.797 132.538 147.794 132.446C147.669 131.737 147.622 131.017 147.652 130.297C147.686 129.888 147.696 129.476 147.682 129.065C147.574 127.538 146.493 126.264 146.055 124.796C145.877 124.171 145.795 123.503 145.489 122.926C145.154 122.296 144.552 121.793 144.42 121.091C144.392 120.933 144.388 120.772 144.351 120.616C144.278 120.391 144.171 120.178 144.036 119.984L143.309 118.786C142.713 117.815 142.8 116.49 142.317 115.458C142.189 115.184 142.052 114.921 141.926 114.642C141.682 114.111 141.472 113.566 141.297 113.008C140.188 114.655 139.206 116.385 138.359 118.182C138.114 118.673 137.894 119.175 137.7 119.688C137.487 120.276 137.344 120.885 137.186 121.49C136.705 123.361 136.117 125.204 135.546 127.042C135.407 127.486 135.259 127.937 134.955 128.295C134.759 128.517 134.499 128.7 134.399 128.981C134.352 129.191 134.33 129.407 134.335 129.622C134.278 130.229 133.86 130.729 133.513 131.234C133.313 131.505 133.16 131.808 133.06 132.129C133.019 132.274 132.948 132.407 132.851 132.521C132.755 132.636 132.635 132.728 132.5 132.791C132.365 132.855 132.218 132.889 132.069 132.89C131.92 132.892 131.772 132.862 131.636 132.801H131.622C131.48 132.73 131.345 132.649 131.216 132.557C130.878 132.345 130.559 132.105 130.259 131.841C129.995 131.584 129.756 131.301 129.547 130.996C129.511 130.944 129.488 130.884 129.479 130.822C129.47 130.759 129.475 130.695 129.495 130.635C129.515 130.575 129.548 130.52 129.592 130.475C129.637 130.43 129.691 130.397 129.75 130.376C129.713 129.878 129.702 129.311 130.058 128.967C130.224 128.806 130.448 128.72 130.619 128.566C130.842 128.324 130.996 128.027 131.068 127.706C131.676 125.781 132.282 123.857 132.888 121.932C132.989 121.562 133.133 121.205 133.317 120.869C133.443 120.657 133.602 120.466 133.71 120.244C133.986 119.674 133.888 119.004 133.956 118.374C134.072 117.262 134.691 116.27 135.067 115.22C135.292 114.628 135.555 114.05 135.854 113.492C136.055 113.029 136.162 112.53 136.169 112.025C136.235 110.924 136.486 109.842 136.91 108.825C137.17 108.202 137.496 107.605 137.69 106.959C137.919 106.2 137.96 105.394 138.167 104.631C138.365 103.973 138.623 103.335 138.938 102.725C139.196 102.188 139.461 101.638 139.887 101.221C140.585 100.537 141.612 100.313 142.586 100.283C143.56 100.252 144.639 100.397 145.61 100.295Z" fill="#3F3D56"/>
<path d="M139.632 86.3479C140.886 85.6029 142.125 84.834 143.352 84.0413C143.058 83.6433 142.896 83.1631 142.887 82.6677C142.887 82.648 142.887 82.6283 142.887 82.6086C142.869 82.1268 143.051 81.7132 142.447 81.7758C141.867 81.8511 141.294 81.9708 140.732 82.134C140.572 82.1752 139.183 82.6892 139.13 82.6372C139.439 83.0066 139.668 83.4374 139.801 83.9016C139.87 84.128 139.925 84.3582 139.967 84.5911C140.088 85.2071 140.093 85.9306 139.632 86.3479Z" fill="#A0616A"/>
<path d="M137.95 94.6091C138.11 95.877 138.382 97.1467 138.38 98.4218C138.379 99.6969 138.124 100.995 138.639 102.138C138.724 102.331 138.888 102.482 138.906 102.693C139.618 102.817 140.312 102.482 140.991 102.24C141.613 102.021 142.258 101.875 142.914 101.807C143.448 101.753 143.996 101.749 144.527 101.647C145.056 101.564 145.544 101.313 145.921 100.931C146.247 100.573 146.244 100.035 146.471 99.6145C146.587 99.3978 146.762 99.2205 146.885 99.0074C147.114 98.5522 147.174 98.0291 147.052 97.5335C146.928 97.044 146.781 96.561 146.609 96.0865C146.205 94.7672 146.174 93.3608 146.52 92.0248C146.669 91.4536 146.886 90.893 146.922 90.3038C146.933 89.9103 146.895 89.5169 146.81 89.1326C146.521 87.6498 145.957 86.1437 144.814 85.1641C144.203 84.6394 143.377 84.1684 143.313 83.3732C143.049 83.2693 142.766 83.4466 142.54 83.615L140.001 85.4972C139.85 85.5866 139.727 85.7161 139.645 85.8715C139.486 86.2529 139.851 86.672 139.792 87.0839C139.75 87.3829 139.497 87.5996 139.34 87.8575C138.966 88.4718 139.087 89.4084 138.477 89.7863C138.421 89.9009 138.37 90.0191 138.323 90.1444C138.105 90.7703 137.959 91.4193 137.887 92.0786C137.802 92.9213 137.823 93.7716 137.95 94.6091Z" fill="#3F3D56"/>
<path opacity="0.1" d="M139.138 82.6412C139.447 83.0105 139.676 83.4413 139.809 83.9055C140.011 83.9509 140.218 83.9738 140.425 83.9736C141.461 83.9736 142.156 82.7791 142.67 81.9589C142.654 81.4771 143.051 81.7171 142.448 81.7798C141.868 81.855 141.295 81.9747 140.733 82.138C140.573 82.1791 139.184 82.6931 139.138 82.6412Z" fill="black"/>
<path d="M140.426 83.7279C142.035 83.7279 143.339 82.4161 143.339 80.798C143.339 79.1799 142.035 77.8682 140.426 77.8682C138.817 77.8682 137.513 79.1799 137.513 80.798C137.513 82.4161 138.817 83.7279 140.426 83.7279Z" fill="#A0616A"/>
<path d="M138.196 82.8727L138.87 83.6147C139.091 83.858 139.466 83.8752 139.707 83.6531L141.969 81.5765C142.211 81.3544 142.228 80.9772 142.008 80.734L141.334 79.992C141.113 79.7487 140.738 79.7315 140.496 79.9535L138.235 82.0302C137.993 82.2522 137.976 82.6294 138.196 82.8727Z" fill="#3F3D56"/>
<path opacity="0.1" d="M138.196 82.8727L138.87 83.6147C139.091 83.858 139.466 83.8752 139.707 83.6531L141.969 81.5765C142.211 81.3544 142.228 80.9772 142.008 80.734L141.334 79.992C141.113 79.7487 140.738 79.7315 140.496 79.9535L138.235 82.0302C137.993 82.2522 137.976 82.6294 138.196 82.8727Z" fill="black"/>
<path d="M140.606 81.5916C140.74 81.5916 140.849 81.4826 140.849 81.348C140.849 81.2135 140.74 81.1045 140.606 81.1045C140.473 81.1045 140.364 81.2135 140.364 81.348C140.364 81.4826 140.473 81.5916 140.606 81.5916Z" fill="white"/>
<path opacity="0.1" d="M137.949 94.6093C140.196 94.2762 142.237 92.9187 143.798 91.2353C144.09 90.9584 144.316 90.6186 144.459 90.2414C144.537 89.9261 144.564 89.6001 144.539 89.2761L144.502 87.9831C144.486 87.4172 144.462 86.8298 144.19 86.3355C143.918 85.8413 143.31 85.4849 142.787 85.6908C141.41 86.2281 140.515 87.4566 139.728 88.7138C139.503 89.1056 139.257 89.4852 138.992 89.851C138.859 90.0211 138.677 90.1948 138.458 90.1716C138.412 90.1675 138.367 90.1553 138.325 90.1357C138.107 90.7617 137.96 91.4106 137.889 92.0699C137.802 92.9155 137.822 93.7688 137.949 94.6093Z" fill="black"/>
<path d="M137.749 87.059C137.861 86.5748 138.068 86.1181 138.358 85.7159C139.229 84.3459 140.208 83.0081 140.673 81.4482C139.995 81.5718 139.888 82.7466 139.2 82.7985L139.254 81.9515C139.254 81.8082 139.254 81.6345 139.138 81.5593C139.022 81.4841 138.816 81.5826 138.739 81.724C138.663 81.8655 138.647 82.0374 138.575 82.1825C138.504 82.3276 138.337 82.4565 138.189 82.392L138.128 82.1109C138.065 82.0975 137.999 82.0988 137.936 82.1148C137.873 82.1308 137.815 82.161 137.765 82.2031C137.716 82.2453 137.676 82.2982 137.65 82.3579C137.624 82.4176 137.611 82.4826 137.614 82.5478C137.565 82.4128 137.539 82.2706 137.537 82.127C137.233 82.0697 137.012 82.4081 136.903 82.7001C136.678 83.3572 136.503 84.0307 136.38 84.7148L136.1 86.0776C136.002 86.5486 135.906 87.0196 135.842 87.4942C135.674 88.7539 135.741 90.034 136.038 91.2693C136.411 91.0613 136.773 90.8335 137.122 90.587C137.391 90.3578 137.692 90.0981 137.794 89.7489C138.045 88.8678 137.601 87.9455 137.749 87.059Z" fill="#A0616A"/>
<path d="M142.787 85.3256C143.311 85.1197 143.918 85.476 144.19 85.9703C144.463 86.4646 144.486 87.0448 144.502 87.6179L144.538 88.9145C144.564 89.2384 144.538 89.5645 144.459 89.8797C144.316 90.2563 144.091 90.5958 143.8 90.8737C142.073 92.7344 139.764 94.1939 137.235 94.3175C137.147 94.3294 137.057 94.3183 136.974 94.2852C136.902 94.2396 136.841 94.1785 136.796 94.1062C136.231 93.4006 135.635 92.5893 135.727 91.6903C135.743 91.5399 135.905 91.4181 135.959 91.2784C136.298 90.4644 136.92 89.8023 137.709 89.4159L137.862 89.3443C137.921 89.4628 138.006 89.5668 138.109 89.6485C138.213 89.7303 138.334 89.7879 138.462 89.8171C138.676 89.8386 138.859 89.6666 138.996 89.4965C139.261 89.1301 139.507 88.7499 139.732 88.3575C140.515 87.0878 141.413 85.8647 142.787 85.3256Z" fill="#3F3D56"/>
<path d="M142.608 82.7143C142.36 82.5854 142.321 82.2541 142.296 81.9747C142.268 81.6494 142.219 81.3263 142.148 81.0076C142.072 80.6494 141.945 80.2805 141.642 80.0907C141.536 80.0246 141.415 79.9866 141.29 79.9804C141.165 79.9742 141.041 80 140.929 80.0553C140.816 80.1106 140.72 80.1936 140.648 80.2965C140.577 80.3995 140.532 80.5191 140.519 80.6441C140.522 80.7038 140.505 80.7628 140.469 80.8106C140.445 80.8332 140.416 80.8487 140.384 80.8554C140.244 80.8876 140.097 80.8662 139.972 80.7953C139.847 80.7244 139.753 80.6091 139.709 80.4722C139.657 80.2931 139.696 80.0621 139.57 79.9152C139.443 79.7684 139.294 79.7719 139.171 79.6752C139.097 79.6012 139.04 79.5112 139.005 79.4119C138.97 79.3127 138.958 79.2068 138.97 79.1022C138.97 78.8353 139.005 78.5165 138.792 78.3518C138.469 78.0993 137.985 78.5004 137.606 78.3518C137.501 78.3004 137.414 78.2185 137.356 78.1166C137.297 78.0147 137.271 77.8976 137.28 77.7805C137.302 77.5461 137.381 77.3208 137.511 77.1251C137.734 76.7411 138.003 76.3857 138.311 76.0667C138.311 76.1455 138.434 76.1365 138.501 76.0935L139.064 75.7497C139.055 75.7782 139.054 75.8089 139.062 75.8379C139.07 75.867 139.086 75.8929 139.109 75.9126C139.236 75.788 139.396 75.7012 139.57 75.6619C139.657 75.6456 139.747 75.6644 139.821 75.7143C139.895 75.7642 139.946 75.8412 139.963 75.9288L140.676 75.6189C140.704 75.5989 140.74 75.5899 140.774 75.5936C140.809 75.5972 140.842 75.6131 140.866 75.6386C141.123 75.8177 141.45 75.8697 141.756 75.9413C142.063 76.0129 142.388 76.1365 142.552 76.4087C142.611 76.5484 142.686 76.6806 142.775 76.8027C142.854 76.8724 142.945 76.9265 143.044 76.9621C143.445 77.1208 143.823 77.3348 144.166 77.5978C144.51 77.8642 144.764 78.2306 144.894 78.6473C145.086 79.3439 144.808 80.08 144.486 80.7229C144.24 81.2142 143.964 81.6897 143.66 82.1466C143.546 82.3257 143.389 82.6642 143.206 82.768C143.006 82.8238 142.794 82.8047 142.608 82.7143Z" fill="#3F3D56"/>
<path opacity="0.1" d="M137.612 77.6215C137.991 77.7683 138.475 77.3672 138.798 77.6215C139.006 77.7862 138.976 78.105 138.976 78.3718C138.964 78.4764 138.976 78.5824 139.011 78.6816C139.046 78.7809 139.102 78.8709 139.177 78.9449C139.3 79.0416 139.474 79.0649 139.576 79.1849C139.677 79.3049 139.663 79.5556 139.715 79.7419C139.759 79.8788 139.853 79.9941 139.978 80.065C140.103 80.1359 140.25 80.1573 140.389 80.1251C140.421 80.1184 140.451 80.1029 140.475 80.0803C140.511 80.0325 140.528 79.9735 140.525 79.9138C140.538 79.7888 140.583 79.6692 140.654 79.5662C140.726 79.4633 140.822 79.3802 140.935 79.325C141.047 79.2697 141.171 79.2439 141.296 79.2501C141.421 79.2563 141.542 79.2943 141.648 79.3604C141.951 79.5502 142.077 79.9263 142.154 80.2773C142.225 80.596 142.274 80.9191 142.302 81.2444C142.327 81.5237 142.366 81.8551 142.613 81.984C142.803 82.0771 143.02 82.0963 143.222 82.0377C143.4 81.9339 143.562 81.59 143.676 81.4163C143.981 80.9565 144.257 80.478 144.503 79.9836C144.707 79.6014 144.855 79.1911 144.941 78.7658C145.069 79.4249 144.805 80.109 144.503 80.7161C144.257 81.2074 143.981 81.6829 143.676 82.1398C143.562 82.3189 143.406 82.6574 143.222 82.7612C143.02 82.8198 142.803 82.8006 142.613 82.7075C142.366 82.5786 142.327 82.2472 142.302 81.9679C142.274 81.6426 142.225 81.3195 142.154 81.0008C142.077 80.6427 141.951 80.2737 141.648 80.0839C141.542 80.0178 141.421 79.9798 141.296 79.9736C141.171 79.9674 141.047 79.9932 140.935 80.0485C140.822 80.1037 140.726 80.1868 140.654 80.2897C140.583 80.3927 140.538 80.5123 140.525 80.6373C140.528 80.697 140.511 80.756 140.475 80.8038C140.451 80.8264 140.421 80.8419 140.389 80.8486C140.25 80.8808 140.103 80.8594 139.978 80.7885C139.853 80.7176 139.759 80.6023 139.715 80.4654C139.663 80.2863 139.702 80.0552 139.576 79.9084C139.449 79.7615 139.3 79.7651 139.177 79.6684C139.102 79.5944 139.046 79.5044 139.011 79.4051C138.976 79.3059 138.964 79.2 138.976 79.0954C138.976 78.8285 139.011 78.5097 138.798 78.345C138.475 78.0925 137.991 78.4936 137.612 78.345C137.507 78.2936 137.419 78.2117 137.361 78.1098C137.303 78.0079 137.277 77.8908 137.286 77.7737C137.292 77.6445 137.322 77.5175 137.375 77.3994C137.426 77.4987 137.51 77.5771 137.612 77.6215Z" fill="black"/>
</g>
<defs>
<linearGradient id="paint0_linear" x1="138.24" y1="136.777" x2="138.24" y2="74.7558" gradientUnits="userSpaceOnUse">
<stop stop-color="#808080" stop-opacity="0.25"/>
<stop offset="0.54" stop-color="#808080" stop-opacity="0.12"/>
<stop offset="1" stop-color="#808080" stop-opacity="0.1"/>
</linearGradient>
<clipPath id="clip0">
<rect width="204" height="138" fill="white"/>
</clipPath>
</defs>
</svg>
