<svg width="73" height="73" viewBox="0 0 73 73" fill="none" xmlns="http://www.w3.org/2000/svg">
<path d="M36.4997 6.0835C20.0108 6.0835 6.08301 20.0113 6.08301 36.5002C6.08301 52.989 20.0108 66.9168 36.4997 66.9168C52.9886 66.9168 66.9163 52.989 66.9163 36.5002C66.9163 20.0113 52.9886 6.0835 36.4997 6.0835ZM36.4997 21.2918C41.7526 21.2918 45.6247 25.1608 45.6247 30.4168C45.6247 35.6728 41.7526 39.5418 36.4997 39.5418C31.2498 39.5418 27.3747 35.6728 27.3747 30.4168C27.3747 25.1608 31.2498 21.2918 36.4997 21.2918ZM20.9689 51.015C23.6973 47 28.2476 44.3233 33.458 44.3233H39.5413C44.7548 44.3233 49.3021 47 52.0304 51.015C48.1432 55.176 42.6286 57.7918 36.4997 57.7918C30.3707 57.7918 24.8562 55.176 20.9689 51.015Z" fill="#C926B4"/>
</svg>
