<svg width="29" height="29" viewBox="0 0 29 29" fill="none" xmlns="http://www.w3.org/2000/svg">
<path fill-rule="evenodd" clip-rule="evenodd" d="M15.3457 6.66417C15.3211 6.69297 15.3141 6.69962 15.2924 6.73084C15.2438 6.8011 15.2099 6.88123 15.1933 6.96505C15.1849 7.00742 15.1824 7.04923 15.1813 7.09231L15.2298 12.3956C15.2314 12.4335 15.2309 12.4431 15.2364 12.4807C15.2426 12.5229 15.2531 12.5645 15.2678 12.6046C15.3319 12.7798 15.4745 12.9199 15.6509 12.9807C15.6912 12.9947 15.733 13.0044 15.7753 13.0099C15.813 13.0147 15.8226 13.014 15.8605 13.0149L21.1638 12.9665C21.2017 12.9648 21.2113 12.9654 21.2488 12.9599C21.3475 12.9454 21.4422 12.907 21.5232 12.8488C21.5809 12.8072 21.6315 12.7558 21.672 12.6972C21.7044 12.6504 21.7303 12.5992 21.7489 12.5454C21.8195 12.341 21.7773 12.1091 21.6393 11.9426C21.5848 11.8768 21.5168 11.8226 21.4406 11.7839C21.3771 11.7518 21.3081 11.7306 21.2376 11.7215C21.1999 11.7167 21.1903 11.7174 21.1524 11.7165L16.4741 11.7592L16.4314 7.08088L16.4295 7.03824C16.4253 7.0006 16.4252 6.99095 16.4171 6.95385C16.402 6.88431 16.3749 6.81744 16.3374 6.75699C16.3074 6.70863 16.2707 6.66441 16.2288 6.62594C16.0694 6.4798 15.8399 6.4261 15.6322 6.48631C15.5639 6.50614 15.499 6.53771 15.4413 6.57928C15.4104 6.60148 15.4039 6.60857 15.3756 6.63373C15.3656 6.64388 15.3557 6.65403 15.3457 6.66417Z" fill="#110F24"/>
<path fill-rule="evenodd" clip-rule="evenodd" d="M12.8672 21.5482C12.8918 21.5194 12.8988 21.5128 12.9204 21.4816C12.9691 21.4113 13.003 21.3312 13.0196 21.2474C13.028 21.205 13.0305 21.1632 13.0315 21.1201L12.9831 15.8168C12.9815 15.7789 12.982 15.7693 12.9765 15.7317C12.9703 15.6895 12.9598 15.6479 12.9451 15.6078C12.881 15.4326 12.7384 15.2925 12.562 15.2317C12.5217 15.2177 12.4799 15.208 12.4376 15.2025C12.3999 15.1977 12.3903 15.1984 12.3524 15.1975L7.04911 15.2459C7.01122 15.2476 7.0016 15.247 6.96404 15.2525C6.86537 15.267 6.77065 15.3054 6.6897 15.3636C6.63194 15.4052 6.58143 15.4566 6.54088 15.5152C6.50849 15.562 6.48255 15.6132 6.46397 15.667C6.39342 15.8714 6.4356 16.1033 6.57356 16.2698C6.62811 16.3356 6.69611 16.3899 6.77233 16.4285C6.83583 16.4606 6.90475 16.4818 6.97533 16.4909C7.01303 16.4957 7.02259 16.495 7.0605 16.4959L11.7388 16.4532L11.7815 21.1315L11.7834 21.1742C11.7876 21.2118 11.7877 21.2215 11.7958 21.2586C11.8109 21.3281 11.838 21.395 11.8755 21.4554C11.9055 21.5038 11.9422 21.548 11.9841 21.5865C12.1435 21.7326 12.373 21.7863 12.5807 21.7261C12.649 21.7063 12.7139 21.6747 12.7716 21.6331C12.8024 21.6109 12.809 21.6038 12.8373 21.5787C12.8473 21.5685 12.8572 21.5584 12.8672 21.5482Z" fill="#110F24"/>
</svg>
