<svg width="19" height="14" viewBox="0 0 19 14" fill="none" xmlns="http://www.w3.org/2000/svg">
<path d="M7.09713 11.2499C7.00302 11.9104 6.67376 12.5147 6.16983 12.952C5.66591 13.3892 5.02116 13.6299 4.354 13.6299C3.68685 13.6299 3.0421 13.3892 2.53817 12.952C2.03425 12.5147 1.70499 11.9104 1.61088 11.2499H0.791504V1.74992C0.791504 1.53996 0.874911 1.33859 1.02338 1.19013C1.17184 1.04166 1.37321 0.958252 1.58317 0.958252H12.6665C12.8765 0.958252 13.0778 1.04166 13.2263 1.19013C13.3748 1.33859 13.4582 1.53996 13.4582 1.74992V3.33325H15.8332L18.2082 6.54425V11.2499H16.5971C16.503 11.9104 16.1738 12.5147 15.6698 12.952C15.1659 13.3892 14.5212 13.6299 13.854 13.6299C13.1869 13.6299 12.5421 13.3892 12.0382 12.952C11.5342 12.5147 11.205 11.9104 11.1109 11.2499H7.09713ZM11.8748 2.54159H2.37484V8.9145C2.6872 8.59562 3.07198 8.35692 3.49643 8.21872C3.92089 8.08052 4.37244 8.04692 4.81268 8.12077C5.25291 8.19462 5.66878 8.37374 6.0249 8.64288C6.38102 8.91203 6.66685 9.26322 6.85805 9.66659H11.35C11.483 9.38713 11.6611 9.133 11.8748 8.9145V2.54159ZM13.4582 7.29159H16.6248V7.06596L15.0352 4.91659H13.4582V7.29159ZM13.854 12.0416C14.1691 12.0416 14.4712 11.9164 14.694 11.6937C14.9167 11.4709 15.0419 11.1687 15.0419 10.8537C15.0419 10.5386 14.9167 10.2365 14.694 10.0137C14.4712 9.79095 14.1691 9.66579 13.854 9.66579C13.539 9.66579 13.2368 9.79095 13.014 10.0137C12.7913 10.2365 12.6661 10.5386 12.6661 10.8537C12.6661 11.1687 12.7913 11.4709 13.014 11.6937C13.2368 11.9164 13.539 12.0416 13.854 12.0416ZM5.5415 10.8541C5.5415 10.6981 5.51079 10.5437 5.45111 10.3996C5.39143 10.2556 5.30396 10.1247 5.19369 10.0144C5.08342 9.90413 4.95251 9.81666 4.80844 9.75698C4.66437 9.6973 4.50995 9.66659 4.354 9.66659C4.19806 9.66659 4.04364 9.6973 3.89957 9.75698C3.75549 9.81666 3.62458 9.90413 3.51431 10.0144C3.40404 10.1247 3.31657 10.2556 3.2569 10.3996C3.19722 10.5437 3.1665 10.6981 3.1665 10.8541C3.1665 11.169 3.29161 11.4711 3.51431 11.6938C3.73701 11.9165 4.03906 12.0416 4.354 12.0416C4.66895 12.0416 4.97099 11.9165 5.19369 11.6938C5.41639 11.4711 5.5415 11.169 5.5415 10.8541Z" fill="url(#paint0_linear)"/>
<defs>
<linearGradient id="paint0_linear" x1="9.49984" y1="0.958252" x2="9.49984" y2="13.6299" gradientUnits="userSpaceOnUse">
<stop stop-color="#8D28AD"/>
<stop offset="1" stop-color="#C926B4"/>
</linearGradient>
</defs>
</svg>
