<svg width="24" height="19" viewBox="0 0 24 19" fill="none" xmlns="http://www.w3.org/2000/svg">
<g clip-path="url(#clip0)">
<path d="M4.36274 18.5634V17.3286C4.36274 16.8552 4.07455 16.5466 3.58059 16.5466C3.33365 16.5466 3.06609 16.6289 2.88084 16.8964C2.73684 16.67 2.53105 16.5466 2.22234 16.5466C2.01646 16.5466 1.81077 16.6083 1.64605 16.8347V16.5877H1.21387V18.5634H1.64605V17.4726C1.64605 17.1229 1.8313 16.9581 2.11949 16.9581C2.40749 16.9581 2.55168 17.1434 2.55168 17.4726V18.5634H2.98387V17.4726C2.98387 17.1229 3.18955 16.9581 3.45712 16.9581C3.74531 16.9581 3.88931 17.1434 3.88931 17.4726V18.5634H4.36274ZM10.7631 16.5877H10.0635V15.9909H9.6313V16.5877H9.24027V16.9787H9.63121V17.8843C9.63121 18.3371 9.81646 18.6046 10.3104 18.6046C10.4957 18.6046 10.7014 18.5429 10.8456 18.4606L10.722 18.0901C10.5985 18.1724 10.4545 18.193 10.3516 18.193C10.1458 18.193 10.0635 18.0695 10.0635 17.8637V16.9787H10.7631V16.5877ZM14.4265 16.5465C14.1796 16.5465 14.015 16.67 13.912 16.8347V16.5877H13.4798V18.5634H13.912V17.4521C13.912 17.1229 14.056 16.9376 14.3236 16.9376C14.4059 16.9376 14.5088 16.9582 14.5912 16.9788L14.7146 16.5672C14.6323 16.5466 14.5088 16.5466 14.4265 16.5466V16.5465ZM8.8904 16.7524C8.68452 16.6083 8.39643 16.5466 8.08771 16.5466C7.59384 16.5466 7.26459 16.7935 7.26459 17.1845C7.26459 17.5139 7.51152 17.699 7.94371 17.7608L8.14949 17.7814C8.3759 17.8225 8.49937 17.8843 8.49937 17.9872C8.49937 18.1312 8.33474 18.2342 8.04656 18.2342C7.75846 18.2342 7.53205 18.1312 7.38796 18.0284L7.18218 18.3576C7.40859 18.5223 7.71731 18.6046 8.02593 18.6046C8.60221 18.6046 8.93156 18.3371 8.93156 17.9666C8.93156 17.6167 8.66399 17.4315 8.25234 17.3698L8.04656 17.3492C7.86131 17.3285 7.7173 17.2875 7.7173 17.164C7.7173 17.0199 7.86131 16.9376 8.08771 16.9376C8.33474 16.9376 8.58168 17.0404 8.70515 17.1022L8.8904 16.7524ZM20.3743 16.5466C20.1273 16.5466 19.9627 16.67 19.8597 16.8347V16.5877H19.4275V18.5634H19.8597V17.4521C19.8597 17.1229 20.0038 16.9376 20.2713 16.9376C20.3537 16.9376 20.4566 16.9582 20.5389 16.9788L20.6624 16.5672C20.5801 16.5466 20.4566 16.5466 20.3743 16.5466ZM14.8587 17.5756C14.8587 18.1724 15.2703 18.6046 15.9083 18.6046C16.1964 18.6046 16.4022 18.5429 16.608 18.3783L16.4022 18.0284C16.2376 18.1519 16.073 18.2135 15.8877 18.2135C15.5378 18.2135 15.2909 17.9666 15.2909 17.5756C15.2909 17.2052 15.5378 16.9581 15.8877 16.9376C16.073 16.9376 16.2376 16.9993 16.4022 17.1229L16.608 16.773C16.4022 16.6083 16.1964 16.5466 15.9083 16.5466C15.2703 16.5466 14.8587 16.9788 14.8587 17.5756ZM18.8513 17.5756V16.5877H18.4192V16.8347C18.2751 16.6495 18.0693 16.5466 17.8017 16.5466C17.2461 16.5466 16.8139 16.9788 16.8139 17.5756C16.8139 18.1724 17.2461 18.6046 17.8017 18.6046C18.0898 18.6046 18.2957 18.5017 18.4192 18.3165V18.5634H18.8513V17.5756ZM17.2666 17.5756C17.2666 17.2257 17.493 16.9376 17.8634 16.9376C18.2133 16.9376 18.4603 17.2052 18.4603 17.5756C18.4603 17.9254 18.2133 18.2135 17.8634 18.2135C17.493 18.1929 17.2666 17.9254 17.2666 17.5756ZM12.101 16.5466C11.5247 16.5466 11.113 16.9581 11.113 17.5756C11.113 18.193 11.5246 18.6046 12.1215 18.6046C12.4096 18.6046 12.6978 18.5223 12.9242 18.3371L12.7183 18.0284C12.5537 18.1519 12.3479 18.2342 12.1421 18.2342C11.8746 18.2342 11.607 18.1107 11.5452 17.7607H13.0065V17.5962C13.0271 16.9581 12.6566 16.5466 12.1009 16.5466H12.101ZM12.101 16.917C12.3684 16.917 12.5538 17.0817 12.5948 17.3904H11.5658C11.607 17.1229 11.7922 16.917 12.101 16.917ZM22.8233 17.5756V15.8057H22.3912V16.8347C22.2471 16.6495 22.0413 16.5466 21.7737 16.5466C21.2181 16.5466 20.7859 16.9788 20.7859 17.5756C20.7859 18.1724 21.2181 18.6046 21.7737 18.6046C22.0619 18.6046 22.2677 18.5017 22.3912 18.3165V18.5634H22.8233V17.5756ZM21.2387 17.5756C21.2387 17.2257 21.465 16.9376 21.8355 16.9376C22.1854 16.9376 22.4323 17.2052 22.4323 17.5756C22.4323 17.9254 22.1854 18.2135 21.8355 18.2135C21.465 18.1929 21.2387 17.9254 21.2387 17.5756ZM6.79115 17.5756V16.5877H6.35896V16.8347C6.21487 16.6495 6.00909 16.5466 5.74152 16.5466C5.18587 16.5466 4.75368 16.9788 4.75368 17.5756C4.75368 18.1724 5.18587 18.6046 5.74152 18.6046C6.02971 18.6046 6.23549 18.5017 6.35896 18.3165V18.5634H6.79115V17.5756ZM5.18587 17.5756C5.18587 17.2257 5.41227 16.9376 5.78268 16.9376C6.13256 16.9376 6.37959 17.2052 6.37959 17.5756C6.37959 17.9254 6.13256 18.2135 5.78268 18.2135C5.41227 18.1929 5.18587 17.9254 5.18587 17.5756Z" fill="black"/>
<path d="M8.74707 1.58447H15.2299V13.233H8.74707V1.58447Z" fill="#FF5F00"/>
<path d="M9.15834 7.40897C9.15834 5.04225 10.2697 2.943 11.9778 1.58466C10.7225 0.596812 9.13781 0 7.40906 0C3.31341 0 0 3.31341 0 7.40897C0 11.5044 3.31341 14.8179 7.40897 14.8179C9.13772 14.8179 10.7224 14.2211 11.9778 13.2332C10.2697 11.8955 9.15834 9.77569 9.15834 7.40897Z" fill="#EB001B"/>
<path d="M23.9758 7.40897C23.9758 11.5044 20.6624 14.8179 16.5669 14.8179C14.8381 14.8179 13.2535 14.2211 11.998 13.2332C13.7268 11.8749 14.8176 9.77569 14.8176 7.40897C14.8176 5.04225 13.7062 2.943 11.998 1.58466C13.2534 0.596812 14.8381 0 16.5669 0C20.6624 0 23.9759 3.33403 23.9759 7.40897H23.9758Z" fill="#F79E1B"/>
</g>
<defs>
<clipPath id="clip0">
<rect width="24" height="18.6562" fill="white"/>
</clipPath>
</defs>
</svg>
