<svg width="26" height="16" viewBox="0 0 26 16" fill="none" xmlns="http://www.w3.org/2000/svg">
<path fill-rule="evenodd" clip-rule="evenodd" d="M9.42407 14.2523H16.4097V1.70605H9.42407V14.2523Z" fill="#FF5F00"/>
<path fill-rule="evenodd" clip-rule="evenodd" d="M9.8675 7.97907C9.8675 5.43374 11.0599 3.1668 12.9168 1.70597C11.5589 0.637439 9.84533 0 7.98293 0C3.57399 0 0 3.57218 0 7.97907C0 12.3857 3.57399 15.9581 7.98293 15.9581C9.84533 15.9581 11.5589 15.3207 12.9168 14.2522C11.0599 12.7911 9.8675 10.5244 9.8675 7.97907Z" fill="#EB001B"/>
<path fill-rule="evenodd" clip-rule="evenodd" d="M25.5843 12.9234V12.6136H25.5033L25.4104 12.8266L25.3173 12.6136H25.2363V12.9234H25.2935V12.6898L25.3807 12.8911H25.4399L25.5273 12.6892V12.9234H25.5843ZM25.072 12.9234V12.6665H25.1756V12.614H24.9117V12.6665H25.0152V12.9234H25.072ZM25.8335 7.97907C25.8335 12.3857 22.2596 15.9581 17.8506 15.9581C15.9882 15.9581 14.2748 15.3207 12.9167 14.2522C14.7736 12.7911 15.966 10.5244 15.966 7.97907C15.966 5.43374 14.7736 3.1668 12.9167 1.70597C14.2748 0.637439 15.9882 0 17.8506 0C22.2596 0 25.8335 3.57218 25.8335 7.97907Z" fill="#F79E1B"/>
</svg>
