<svg width="40" height="40" viewBox="0 0 40 40" fill="none" xmlns="http://www.w3.org/2000/svg">
<circle cx="20.1852" cy="20.1852" r="15.1852" fill="#C926B4"/>
<g clip-path="url(#clip0)">
<path d="M23.2223 20.1361L21.718 18.6318L18.6318 21.718L20.1361 23.2223C20.5513 23.6313 21.0986 23.8596 21.6823 23.8596C22.8792 23.8596 23.8596 22.8792 23.8596 21.6823C23.8596 21.0986 23.6306 20.5513 23.2223 20.1361Z" fill="#F7F5FC"/>
<path d="M13.9251 27.125C13.6453 27.125 13.415 26.9009 13.4095 26.6197L13.3751 24.9009C13.3724 24.7621 13.4253 24.6287 13.5229 24.5297C13.6192 24.4307 13.7525 24.375 13.8907 24.375H15.6095C15.8941 24.375 16.1251 24.606 16.1251 24.8906C16.1251 25.1752 15.8941 25.4062 15.6095 25.4062H14.4167L14.4407 26.5991C14.4462 26.8837 14.22 27.1195 13.9347 27.125C13.932 27.125 13.9285 27.125 13.9251 27.125Z" fill="#F7F5FC"/>
<path d="M26.6094 16.1255H24.8906C24.606 16.1255 24.375 15.8945 24.375 15.6099C24.375 15.3252 24.606 15.0942 24.8906 15.0942H26.0937V13.8911C26.0937 13.6065 26.3247 13.3755 26.6094 13.3755C26.894 13.3755 27.125 13.6065 27.125 13.8911V15.6099C27.125 15.8945 26.894 16.1255 26.6094 16.1255Z" fill="#F7F5FC"/>
<path d="M12.8456 23C12.6242 23 12.4194 22.8563 12.352 22.6329C12.1189 21.8581 12 21.0564 12 20.25C12 15.7008 15.7008 12 20.25 12C22.7862 12 25.1368 13.1364 26.6981 15.1185C26.8748 15.3419 26.8356 15.6664 26.6121 15.8424C26.3873 16.0191 26.0635 15.9799 25.8882 15.7565C24.5242 14.0247 22.4692 13.0312 20.25 13.0312C16.2694 13.0312 13.0312 16.2694 13.0312 20.25C13.0312 20.9554 13.1351 21.6566 13.3392 22.3359C13.4217 22.6081 13.2678 22.8962 12.9948 22.9787C12.9453 22.9931 12.8951 23 12.8456 23Z" fill="#F7F5FC"/>
<path d="M20.2502 28.5004C17.714 28.5004 15.3635 27.364 13.8021 25.3819C13.6255 25.1585 13.6646 24.834 13.8881 24.658C14.1122 24.4826 14.4367 24.5205 14.612 24.7439C15.976 26.4757 18.031 27.4691 20.2502 27.4691C24.2308 27.4691 27.469 24.231 27.469 20.2504C27.469 19.545 27.3651 18.8438 27.161 18.1645C27.0785 17.8923 27.2325 17.6042 27.5054 17.5217C27.7797 17.4392 28.065 17.5939 28.1482 17.8668C28.3813 18.6423 28.5002 19.444 28.5002 20.2504C28.5002 24.7996 24.7994 28.5004 20.2502 28.5004Z" fill="#F7F5FC"/>
<path d="M21.8828 24.375C21.2166 24.375 20.591 24.1158 20.1208 23.6449L16.8551 20.3792C16.3842 19.9083 16.125 19.2827 16.125 18.6172C16.125 17.2429 17.2429 16.125 18.6172 16.125C19.2834 16.125 19.909 16.3842 20.3792 16.8551L23.6449 20.1208C24.1158 20.5917 24.375 21.2173 24.375 21.8828C24.375 23.2571 23.2571 24.375 21.8828 24.375ZM18.6172 17.1562C17.8114 17.1562 17.1562 17.8114 17.1562 18.6172C17.1562 19.007 17.3082 19.3741 17.5839 19.6498L20.8495 22.9154C21.1252 23.1911 21.493 23.3438 21.8828 23.3438C22.6886 23.3438 23.3438 22.6886 23.3438 21.8828C23.3438 21.493 23.1918 21.1259 22.9161 20.8502L19.6505 17.5846C19.3748 17.3082 19.007 17.1562 18.6172 17.1562Z" fill="#F7F5FC"/>
<path d="M18.5977 21.1709L21.1703 18.5983L21.8995 19.3275L19.3269 21.9001L18.5977 21.1709Z" fill="#F7F5FC"/>
</g>
<defs>
<clipPath id="clip0">
<rect width="16.5" height="16.5" fill="white" transform="translate(12 12)"/>
</clipPath>
</defs>
</svg>
