<svg width="12" height="16" viewBox="0 0 12 16" fill="none" xmlns="http://www.w3.org/2000/svg">
<path d="M6.00044 0.666504C6.43818 0.666504 6.87163 0.752723 7.27605 0.920239C7.68047 1.08775 8.04793 1.33329 8.35746 1.64281C8.66699 1.95234 8.91252 2.31981 9.08004 2.72423C9.24755 3.12864 9.33377 3.5621 9.33377 3.99984V6.6665C9.33377 7.55056 8.98258 8.3984 8.35746 9.02353C7.73234 9.64865 6.8845 9.99984 6.00044 9.99984C5.11639 9.99984 4.26854 9.64865 3.64342 9.02353C3.0183 8.3984 2.66711 7.55056 2.66711 6.6665V3.99984C2.66711 3.11578 3.0183 2.26794 3.64342 1.64281C4.26854 1.01769 5.11639 0.666504 6.00044 0.666504ZM0.0371094 7.33317H1.38044C1.54197 8.44302 2.09769 9.45762 2.94593 10.1913C3.79417 10.9251 4.87823 11.3289 5.99977 11.3289C7.12132 11.3289 8.20538 10.9251 9.05362 10.1913C9.90186 9.45762 10.4576 8.44302 10.6191 7.33317H11.9631C11.8115 8.68565 11.2049 9.94647 10.2426 10.9089C9.28031 11.8713 8.01956 12.4781 6.66711 12.6298V15.3332H5.33377V12.6298C3.9812 12.4782 2.7203 11.8715 1.75789 10.9091C0.795488 9.94665 0.188718 8.68575 0.0371094 7.33317Z" fill="#BDBDBD"/>
</svg>
