<svg width="14" height="16" viewBox="0 0 14 16" fill="none" xmlns="http://www.w3.org/2000/svg">
<path d="M3.00729 0.583252H11.2802C11.397 0.583252 11.5121 0.610436 11.6166 0.662651C11.721 0.714867 11.8118 0.79068 11.8819 0.884085L13.9125 3.59159V14.8728C13.9125 15.0723 13.8333 15.2636 13.6922 15.4046C13.5512 15.5457 13.3599 15.6249 13.1604 15.6249H1.12708C0.927618 15.6249 0.736323 15.5457 0.59528 15.4046C0.454237 15.2636 0.375 15.0723 0.375 14.8728V3.59159L2.40562 0.884085C2.47568 0.79068 2.56652 0.714867 2.67095 0.662651C2.77538 0.610436 2.89053 0.583252 3.00729 0.583252ZM12.4083 5.09575H1.87917V14.1208H12.4083V5.09575ZM12.0323 3.59159L10.9042 2.08742H3.38333L2.25521 3.59159H12.0323ZM4.8875 6.59992V8.10409C4.8875 8.70248 5.12521 9.27637 5.54834 9.6995C5.97147 10.1226 6.54536 10.3603 7.14375 10.3603C7.74215 10.3603 8.31603 10.1226 8.73916 9.6995C9.16229 9.27637 9.4 8.70248 9.4 8.10409V6.59992H10.9042V8.10409C10.9042 9.10141 10.508 10.0579 9.80277 10.7631C9.09755 11.4683 8.14107 11.8645 7.14375 11.8645C6.14643 11.8645 5.18995 11.4683 4.48473 10.7631C3.77952 10.0579 3.38333 9.10141 3.38333 8.10409V6.59992H4.8875Z" fill="url(#paint0_linear)"/>
<defs>
<linearGradient id="paint0_linear" x1="7.14375" y1="0.583252" x2="7.14375" y2="15.6249" gradientUnits="userSpaceOnUse">
<stop stop-color="#8D28AD"/>
<stop offset="1" stop-color="#C926B4"/>
</linearGradient>
</defs>
</svg>
