<svg width="19" height="14" viewBox="0 0 19 14" fill="none" xmlns="http://www.w3.org/2000/svg">
<path d="M18.2944 7.90111H15.7008V5.65752H18.2944C18.6841 5.65752 19 5.37346 19 5.02261C19 4.67173 18.6841 4.3875 18.2944 4.3875H15.7008V1.27439C15.7008 0.819958 15.601 0.486413 15.4043 0.283232C15.2174 0.0899425 14.9716 0 14.6313 0C14.3066 0 14.0701 0.0893221 13.8868 0.281406C13.6924 0.484793 13.5937 0.818958 13.5937 1.2746V4.38788H8.71498L6.64059 1.56252C6.46306 1.31037 6.29613 1.07417 6.13403 0.847457C5.98808 0.643278 5.84573 0.477039 5.71127 0.352912C5.59224 0.243017 5.45659 0.157968 5.29793 0.0925959C5.14823 0.0310836 4.95791 0.000206782 4.73275 0.000206782C4.44557 0.000206782 4.18488 0.0710235 3.93525 0.216517C3.68823 0.360424 3.51747 0.538345 3.41318 0.760479C3.32164 0.971585 3.2732 1.29507 3.2732 1.71263V4.38767H0.705347C0.315708 4.38771 0 4.67194 0 5.02278C0 5.37363 0.315708 5.65769 0.705386 5.65769H3.27324V7.90153H0.705386C0.315708 7.90153 0 8.18569 0 8.53664C0 8.88738 0.315708 9.17133 0.705386 9.17133H3.27324V12.7257C3.27324 13.1667 3.37619 13.4969 3.58011 13.7067C3.77403 13.9067 4.0199 13.9996 4.3538 13.9996C4.67594 13.9996 4.9199 13.9063 5.1222 13.7059C5.32937 13.5006 5.43416 13.1706 5.43416 12.7257V9.17133H9.84886L12.2379 12.4686C12.404 12.6866 12.5755 12.9066 12.7466 13.1223C12.9009 13.316 13.0693 13.4867 13.247 13.6293C13.407 13.7582 13.5785 13.8527 13.7568 13.9104C13.9403 13.9698 14.1548 14 14.3929 14C15.039 14 15.7007 13.822 15.7007 12.5017V9.17133H18.2943C18.684 9.17133 18.9999 8.88696 18.9999 8.53622C19 8.18548 18.6841 7.90111 18.2944 7.90111ZM13.5937 5.65748V7.90108H11.2949L9.64782 5.65748H13.5937ZM5.43419 3.07951L6.38216 4.3875H5.43419V3.07951ZM5.43419 7.90111V5.65752H7.30264L8.9285 7.90111H5.43419ZM13.5937 11.0327L12.2275 9.17133H13.5937V11.0327Z" fill="#666666"/>
</svg>
