<svg width="39" height="39" viewBox="0 0 39 39" fill="none" xmlns="http://www.w3.org/2000/svg">
<g clip-path="url(#clip0)">
<path d="M34.1865 0H19.5005C16.8417 0 14.6865 2.15126 14.6865 4.814V26.8428C14.6865 27.7774 15.7583 28.324 16.5146 27.7569L21.1052 24.314H34.1865C36.8454 24.314 39.0005 22.1627 39.0005 19.5V4.814C39.0005 2.15513 36.8493 0 34.1865 0V0Z" fill="#EFF6FE"/>
<path d="M34.1859 0H26.8428V24.314H34.1859C36.8451 24.314 38.9999 22.163 38.9999 19.5V4.814C38.9999 2.15483 36.849 0 34.1859 0Z" fill="#D9E4EF"/>
<path d="M27.9854 17.6641C27.9854 18.2952 27.4739 18.8066 26.8428 18.8066C26.212 18.8066 25.7002 18.2952 25.7002 17.6641C25.7002 17.0333 26.212 16.5215 26.8428 16.5215C27.4739 16.5215 27.9854 17.0333 27.9854 17.6641Z" fill="#546D79"/>
<path d="M26.8414 5.50732C24.522 5.50732 22.6406 7.38425 22.6406 9.70808V9.70957C22.6406 10.3404 23.1521 10.8516 23.7832 10.8516C24.4143 10.8516 24.9258 10.3392 24.9258 9.70808C24.9258 8.65179 25.78 7.79248 26.8429 7.79248C27.8998 7.79248 28.7597 8.65239 28.7597 9.70957C28.7597 10.7665 27.8998 11.6264 26.8429 11.6264C26.2118 11.6264 25.7003 12.1381 25.7003 12.7689V13.9928C25.7003 14.6238 26.2118 15.1353 26.8429 15.1353C27.4737 15.1353 27.9855 14.6238 27.9855 13.9928V13.7538C29.749 13.2548 31.0448 11.6305 31.0448 9.70957C31.0448 7.39228 29.1599 5.50732 26.8414 5.50732Z" fill="#546D79"/>
<path d="M27.9854 17.6641C27.9854 18.2949 27.4736 18.8066 26.8428 18.8066V16.5215C27.4736 16.5215 27.9854 17.0336 27.9854 17.6641Z" fill="#546D79"/>
<path d="M31.0453 9.70957C31.0453 11.6308 29.7489 13.2548 27.9854 13.7535V13.9928C27.9854 14.6236 27.4736 15.1353 26.8428 15.1353V11.6261C27.9003 11.6261 28.7602 10.7662 28.7602 9.70957C28.7602 8.65239 27.9003 7.79248 26.8428 7.79248V5.50732C29.1607 5.50792 31.0453 7.39317 31.0453 9.70957Z" fill="#546D79"/>
<path d="M12.6625 23.7578C12.6625 26.7407 10.2443 29.1589 7.26141 29.1589C4.27851 29.1589 1.86035 26.7407 1.86035 23.7578C1.86035 20.7746 4.27851 18.3564 7.26141 18.3564C10.2443 18.3564 12.6625 20.7746 12.6625 23.7578Z" fill="#F178B6"/>
<path d="M12.6621 23.7578C12.6621 26.7407 10.2436 29.1586 7.26074 29.1586V18.3564C10.2436 18.3564 12.6621 20.7749 12.6621 23.7578Z" fill="#F178B6"/>
<path d="M7.26162 29.1589C3.25129 29.1589 0 32.4102 0 36.4206V37.8574C0 38.4885 0.511482 39 1.14258 39H13.381C14.0118 39 14.5235 38.4885 14.5235 37.8574V36.4206C14.5235 32.4102 11.2722 29.1589 7.26162 29.1589Z" fill="#C926B4"/>
<path d="M7.26104 29.1589C7.26104 29.1589 7.26104 29.1589 7.26074 29.1589V39H13.3801C14.0112 39 14.5227 38.4885 14.5227 37.8574V36.4206C14.523 32.4102 11.2717 29.1589 7.26104 29.1589Z" fill="#C926B4"/>
</g>
<defs>
<clipPath id="clip0">
<rect width="39" height="39" fill="white"/>
</clipPath>
</defs>
</svg>
