<svg width="24" height="24" viewBox="0 0 24 24" fill="none" xmlns="http://www.w3.org/2000/svg">
<g clip-path="url(#clip0)">
<path d="M2.66667 3.3335C1.95942 3.3335 1.28115 3.61445 0.781049 4.11454C0.280952 4.61464 0 5.29292 0 6.00016L0 18.0002C0 18.7074 0.280952 19.3857 0.781049 19.8858C1.28115 20.3859 1.95942 20.6668 2.66667 20.6668H8V3.3335H2.66667Z" fill="#009A49"/>
<path d="M8 3.3335H16V20.6668H8V3.3335Z" fill="#EEEEEE"/>
<path d="M21.3333 3.3335H16V20.6668H21.3333C22.0406 20.6668 22.7189 20.3859 23.219 19.8858C23.719 19.3857 24 18.7074 24 18.0002V6.00016C24 5.29292 23.719 4.61464 23.219 4.11454C22.7189 3.61445 22.0406 3.3335 21.3333 3.3335Z" fill="#009A49"/>
</g>
<defs>
<clipPath id="clip0">
<rect width="24" height="24" fill="white"/>
</clipPath>
</defs>
</svg>
