<svg width="23" height="21" viewBox="0 0 23 21" fill="none" xmlns="http://www.w3.org/2000/svg">
<path d="M11 18.0303C11 19.6708 9.88099 21 8.5 21C7.11901 21 6 19.6708 6 18.0303C6 18.0202 6 18.0108 6.00061 18H10.9994C11 18.0101 11 18.0202 11 18.0303Z" fill="white"/>
<path d="M17 15.7003C17 16.4181 16.431 17 15.729 17H1.27101C0.569038 17 0 16.4181 0 15.7003C0 15.3605 0.127684 15.0505 0.336992 14.8185C0.387132 14.7732 0.436107 14.7273 0.484498 14.6802C0.484498 14.6802 0.484498 14.6796 0.485081 14.6796C1.75259 13.4437 2.5426 11.6999 2.5426 9.7676L2.55834 9.04919C2.55834 6.09088 4.61993 3.62444 7.35435 3.07177V2.18821C7.35435 1.53777 7.86508 1.00954 8.49883 1H8.50117C9.13492 1.00954 9.64565 1.53777 9.64565 2.18821V3.07177C12.3801 3.62444 14.4417 6.09088 14.4417 9.04919L14.4574 9.7676C14.4574 11.6999 15.2474 13.4437 16.5149 14.6796C16.5155 14.6796 16.5155 14.6802 16.5155 14.6802C16.5639 14.7273 16.6129 14.7732 16.663 14.8185C16.8723 15.0505 17 15.3605 17 15.7003Z" fill="white"/>
<circle cx="16.5" cy="6.5" r="5.5" fill="#EB5757" stroke="white" stroke-width="2"/>
</svg>
