<svg width="102" height="102" viewBox="0 0 102 102" fill="none" xmlns="http://www.w3.org/2000/svg">
<path d="M51 102C79.1665 102 102 79.1665 102 51C102 22.8335 79.1665 0 51 0C22.8335 0 0 22.8335 0 51C0 79.1665 22.8335 102 51 102Z" fill="url(#paint0_linear)"/>
<path d="M27.0595 63.3021C27.7472 62.6092 27.7472 61.4894 27.0525 60.7999C25.3797 59.1306 24.4569 56.9065 24.4569 54.539C24.4569 52.1715 25.3797 49.9476 27.0525 48.2782C27.7472 47.5887 27.7472 46.4689 27.0595 45.776C26.3682 45.0813 25.2416 45.0847 24.5573 45.7726C22.2105 48.1108 20.918 51.223 20.918 54.5392C20.918 57.8554 22.2105 60.9676 24.5573 63.3056C25.2613 64.0061 26.3809 63.984 27.0595 63.3021ZM74.9439 45.7762C74.2526 46.4675 74.2526 47.5871 74.9439 48.2784C76.6201 49.9512 77.5429 52.1735 77.5429 54.5392C77.5429 56.9049 76.6201 59.1272 74.9439 60.8001C74.2526 61.4914 74.2526 62.6112 74.9439 63.3023C75.6348 63.9967 76.7546 63.9938 77.4461 63.3056C79.7893 60.964 81.0818 57.8502 81.0818 54.5392C81.0818 51.2282 79.7893 48.1144 77.4461 45.7728C76.755 45.0849 75.6352 45.0815 74.9439 45.7762ZM32.0535 58.2925C32.7446 57.6012 32.7446 56.4814 32.0535 55.7903C31.7182 55.455 31.5351 55.011 31.5351 54.5392C31.5351 54.0675 31.7182 53.6234 32.0535 53.2881C32.7446 52.5968 32.7446 51.477 32.0535 50.7859C31.3622 50.0947 30.2424 50.0947 29.5513 50.7859C28.549 51.7882 27.996 53.1224 27.996 54.5392C27.996 55.9561 28.549 57.2902 29.5513 58.2925C30.2426 58.9838 31.3624 58.9838 32.0535 58.2925ZM69.9465 50.7857C69.2554 51.477 69.2554 52.5968 69.9465 53.2879C70.2818 53.6232 70.4649 54.0673 70.4649 54.539C70.4649 55.0108 70.2818 55.4548 69.9465 55.7901C69.2554 56.4814 69.2554 57.601 69.9465 58.2923C70.6378 58.9836 71.7576 58.9836 72.4487 58.2923C73.451 57.29 74.004 55.9559 74.004 54.539C74.004 53.1222 73.451 51.788 72.4487 50.7857C71.7574 50.0947 70.6376 50.0947 69.9465 50.7857ZM80.5637 23.9386C81.255 23.2473 81.255 22.1277 80.5637 21.4364C79.8726 20.7451 78.7526 20.7451 78.0615 21.4364L62.7394 36.7586C60.7159 34.5275 58.0834 32.8403 55.0161 32.0606C52.5001 31.3522 49.4586 31.3625 47.0256 32.0502C39.989 33.8388 35.0745 40.1756 35.0745 47.461V64.4237C34.6246 64.8735 22.0523 77.4458 21.4365 78.0616C20.7452 78.7529 20.7452 79.8725 21.4365 80.5638C22.1276 81.2551 23.2474 81.2551 23.9387 80.5638L64.8618 39.6406L80.5637 23.9386ZM68.6952 66.9258C67.7206 66.9258 66.9258 66.1328 66.9258 65.1564V47.4612C66.9258 45.989 66.6767 44.5735 66.2986 43.2085L39.0421 70.465H68.6954C69.6736 70.465 70.4649 69.6735 70.4649 68.6955C70.4649 67.7173 69.6734 66.9258 68.6952 66.9258ZM51 77.543C53.304 77.543 55.2497 76.0592 55.9827 74.0039H46.0175C46.7503 76.0592 48.696 77.543 51 77.543ZM56.2042 28.7334C55.7221 26.299 53.5739 24.4572 51 24.4572C48.4225 24.4572 46.2727 26.3047 45.7946 28.7446C47.1772 28.3633 48.4725 27.9929 50.9896 27.9929C53.2125 27.9927 54.6059 28.3063 56.2042 28.7334Z" fill="#C926B4"/>
<defs>
<linearGradient id="paint0_linear" x1="51" y1="102" x2="51" y2="0" gradientUnits="userSpaceOnUse">
<stop stop-color="#C926B4" stop-opacity="0.53"/>
<stop offset="0.5028" stop-color="#D52DBF" stop-opacity="0.17"/>
<stop offset="1" stop-color="#EFA8E6" stop-opacity="0.19"/>
</linearGradient>
</defs>
</svg>
