<svg width="41" height="40" viewBox="0 0 41 40" fill="none" xmlns="http://www.w3.org/2000/svg">
<circle cx="20.5" cy="20" r="20" fill="#C926B4"/>
<path d="M16.6539 10V13.0008C16.6539 14.3758 16.05 15.7279 14.9081 16.9107C14.0157 17.8354 13.7663 18.609 14.1667 19.2109C14.6678 19.9663 15.8727 20 15.8847 20C18.0399 20 20.2537 19.445 20.2575 19.4438C21.7005 19.0799 23.0519 18.9689 24.0383 18.8882C25.3168 18.7829 26.1611 18.7137 26.4842 18.1535C26.7869 17.6305 26.2821 17.1075 26.0921 16.9107C24.9502 15.7279 24.3462 14.3758 24.3462 13.0008V10H16.6539Z" fill="white"/>
<path d="M24.3466 30V26.9992C24.3466 25.6242 24.9506 24.2721 26.0924 23.0893C26.9848 22.1646 27.2343 21.391 26.8339 20.7891C26.3328 20.0338 25.1279 20 25.1159 20C22.9607 20 20.7469 20.555 20.7431 20.5562C19.3 20.9201 17.9486 21.0311 16.9623 21.1118C15.6837 21.2171 14.8394 21.2863 14.5164 21.8465C14.2137 22.3695 14.7184 22.8925 14.9085 23.0893C16.0504 24.2721 16.6543 25.6242 16.6543 26.9992V30H24.3466Z" fill="white"/>
<path d="M12.3772 15.5562C11.149 16.8574 10.5 18.3937 10.5 19.9999C10.5 21.6061 11.149 23.1424 12.3772 24.4437L13.6257 23.7593C12.5876 22.6589 12.0385 21.3589 12.0385 19.9999C12.0385 18.6409 12.5876 17.3409 13.6257 16.2405L12.3772 15.5562Z" fill="white"/>
<path d="M28.6225 15.5562L27.374 16.2405C28.4122 17.3409 28.9613 18.6409 28.9613 19.9999C28.9613 21.3589 28.4122 22.6589 27.374 23.7593L28.6225 24.4437C29.8507 23.1424 30.4998 21.6061 30.4998 19.9999C30.4998 18.3937 29.8507 16.8574 28.6225 15.5562Z" fill="white"/>
</svg>
