<svg width="15" height="15" viewBox="0 0 15 15" fill="none" xmlns="http://www.w3.org/2000/svg">
<path d="M0.375 1.95437C0.375 1.08196 1.08196 0.375 1.95437 0.375H13.0456C13.918 0.375 14.625 1.08196 14.625 1.95437V13.0456C14.625 13.4645 14.4586 13.8662 14.1624 14.1624C13.8662 14.4586 13.4645 14.625 13.0456 14.625H1.95437C1.5355 14.625 1.13378 14.4586 0.837588 14.1624C0.541398 13.8662 0.375 13.4645 0.375 13.0456V1.95437ZM1.95833 1.95833V13.0417H13.0417V1.95833H1.95833ZM4.31117 12.3925C3.82428 12.1816 3.35987 11.9222 2.92496 11.6182C3.42708 10.8401 4.11639 10.2003 4.92977 9.75739C5.74315 9.31454 6.65462 9.08278 7.58075 9.08333C9.48075 9.08333 11.1567 10.0389 12.155 11.4955C11.7284 11.8111 11.2712 12.083 10.7902 12.307C10.4235 11.7987 9.94133 11.3849 9.3833 11.0997C8.82528 10.8145 8.20744 10.6661 7.58075 10.6667C6.22304 10.6667 5.02367 11.3507 4.31117 12.3925ZM7.5 8.29167C7.13613 8.29167 6.77582 8.22 6.43965 8.08075C6.10348 7.9415 5.79802 7.7374 5.54073 7.48011C5.28343 7.22281 5.07933 6.91736 4.94008 6.58119C4.80084 6.24501 4.72917 5.8847 4.72917 5.52083C4.72917 5.15696 4.80084 4.79665 4.94008 4.46048C5.07933 4.12431 5.28343 3.81885 5.54073 3.56156C5.79802 3.30426 6.10348 3.10016 6.43965 2.96092C6.77582 2.82167 7.13613 2.75 7.5 2.75C8.23487 2.75 8.93964 3.04193 9.45928 3.56156C9.97891 4.08119 10.2708 4.78596 10.2708 5.52083C10.2708 6.2557 9.97891 6.96048 9.45928 7.48011C8.93964 7.99974 8.23487 8.29167 7.5 8.29167ZM7.5 6.70833C7.81494 6.70833 8.11699 6.58322 8.33969 6.36052C8.56239 6.13782 8.6875 5.83578 8.6875 5.52083C8.6875 5.20589 8.56239 4.90384 8.33969 4.68114C8.11699 4.45844 7.81494 4.33333 7.5 4.33333C7.18506 4.33333 6.88301 4.45844 6.66031 4.68114C6.43761 4.90384 6.3125 5.20589 6.3125 5.52083C6.3125 5.83578 6.43761 6.13782 6.66031 6.36052C6.88301 6.58322 7.18506 6.70833 7.5 6.70833Z" fill="url(#paint0_linear)"/>
<defs>
<linearGradient id="paint0_linear" x1="7.5" y1="0.375" x2="7.5" y2="14.625" gradientUnits="userSpaceOnUse">
<stop stop-color="#8D28AD"/>
<stop offset="1" stop-color="#C926B4"/>
</linearGradient>
</defs>
</svg>
