<svg width="16" height="15" viewBox="0 0 16 15" fill="none" xmlns="http://www.w3.org/2000/svg">
<path fill-rule="evenodd" clip-rule="evenodd" d="M7.02745 1.50346C7.0735 1.35743 7.16491 1.22989 7.28839 1.13935C7.41187 1.04881 7.561 1 7.71412 1C7.86724 1 8.01637 1.04881 8.13985 1.13935C8.26333 1.22989 8.35474 1.35743 8.40079 1.50346L9.64079 5.31679H13.6408C13.7994 5.3108 13.9556 5.35689 14.0855 5.44802C14.2154 5.53915 14.312 5.67032 14.3603 5.82147C14.4087 5.97263 14.4063 6.13546 14.3534 6.2851C14.3005 6.43473 14.2001 6.56294 14.0675 6.65013L10.8208 9.00346L12.0608 12.8235C12.1098 12.969 12.1111 13.1263 12.0643 13.2726C12.0176 13.4189 11.9253 13.5464 11.8009 13.6365C11.6766 13.7265 11.5267 13.7745 11.3732 13.7734C11.2196 13.7723 11.0704 13.7221 10.9475 13.6301L7.69412 11.2501L4.44745 13.6101C4.32446 13.7021 4.1753 13.7523 4.02175 13.7534C3.8682 13.7545 3.71831 13.7065 3.59397 13.6165C3.46963 13.5264 3.37734 13.3989 3.33059 13.2526C3.28384 13.1063 3.28508 12.949 3.33412 12.8035L4.57412 8.98346L1.32745 6.63013C1.19484 6.54294 1.09442 6.41473 1.04154 6.2651C0.988648 6.11546 0.986202 5.95263 1.03457 5.80147C1.08294 5.65032 1.17947 5.51915 1.3094 5.42802C1.43933 5.33689 1.59553 5.2908 1.75412 5.29679H5.75412L7.02745 1.50346Z" stroke="#EC982D" stroke-width="1.5" stroke-linecap="round" stroke-linejoin="round"/>
</svg>
