<svg width="18" height="18" viewBox="0 0 18 18" fill="none" xmlns="http://www.w3.org/2000/svg">
<path d="M3.4785 3.162L8.5 2L13.5215 3.162C13.6572 3.19341 13.7786 3.27207 13.8656 3.38498C13.9526 3.4979 14 3.63833 14 3.78309V10.1385C14 10.767 13.8509 11.3858 13.566 11.94C13.2812 12.4942 12.8694 12.9665 12.3671 13.3152L8.5 16L4.63289 13.3152C4.13072 12.9666 3.71895 12.4943 3.4341 11.9403C3.14926 11.3862 3.00014 10.7675 3 10.1391V3.78309C3.00002 3.63833 3.04745 3.4979 3.13444 3.38498C3.22143 3.27207 3.34279 3.19341 3.4785 3.162ZM8.5 9.95455L10.2961 10.9377L9.95322 8.85555L11.4058 7.38045L9.39772 7.07627L8.5 5.18182L7.60167 7.07627L5.59417 7.38045L7.04678 8.85555L6.70456 10.9377L8.5 9.95455Z" fill="#F79F1A"/>
</svg>
