<svg width="19" height="19" viewBox="0 0 19 19" fill="none" xmlns="http://www.w3.org/2000/svg">
<g clip-path="url(#clip0)">
<path d="M10.5001 2.375C14.7688 2.375 18.3202 5.44667 19.0651 9.5C18.321 13.5533 14.7688 16.625 10.5001 16.625C6.23143 16.625 2.68002 13.5533 1.93506 9.5C2.67923 5.44667 6.23143 2.375 10.5001 2.375ZM10.5001 15.0417C12.1147 15.0413 13.6813 14.4929 14.9436 13.4862C16.2059 12.4795 17.0891 11.074 17.4486 9.5C17.0877 7.9272 16.204 6.52334 14.9418 5.51794C13.6797 4.51254 12.1138 3.96508 10.5001 3.96508C8.88644 3.96508 7.32052 4.51254 6.05836 5.51794C4.79619 6.52334 3.91246 7.9272 3.55164 9.5C3.91113 11.074 4.7943 12.4795 6.05659 13.4862C7.31888 14.4929 8.88552 15.0413 10.5001 15.0417ZM10.5001 13.0625C9.55527 13.0625 8.64913 12.6872 7.98103 12.0191C7.31293 11.351 6.9376 10.4448 6.9376 9.5C6.9376 8.55517 7.31293 7.64903 7.98103 6.98093C8.64913 6.31283 9.55527 5.9375 10.5001 5.9375C11.4449 5.9375 12.3511 6.31283 13.0192 6.98093C13.6873 7.64903 14.0626 8.55517 14.0626 9.5C14.0626 10.4448 13.6873 11.351 13.0192 12.0191C12.3511 12.6872 11.4449 13.0625 10.5001 13.0625ZM10.5001 11.4792C11.025 11.4792 11.5284 11.2706 11.8996 10.8995C12.2707 10.5283 12.4793 10.0249 12.4793 9.5C12.4793 8.97509 12.2707 8.47168 11.8996 8.10052C11.5284 7.72935 11.025 7.52083 10.5001 7.52083C9.97519 7.52083 9.47178 7.72935 9.10062 8.10052C8.72945 8.47168 8.52093 8.97509 8.52093 9.5C8.52093 10.0249 8.72945 10.5283 9.10062 10.8995C9.47178 11.2706 9.97519 11.4792 10.5001 11.4792Z" fill="url(#paint0_linear)"/>
</g>
<defs>
<linearGradient id="paint0_linear" x1="10.5001" y1="2.375" x2="10.5001" y2="16.625" gradientUnits="userSpaceOnUse">
<stop stop-color="#8D28AD"/>
<stop offset="1" stop-color="#C926B4"/>
</linearGradient>
<clipPath id="clip0">
<rect width="19" height="19" fill="white"/>
</clipPath>
</defs>
</svg>
