<svg width="39" height="39" viewBox="0 0 39 39" fill="none" xmlns="http://www.w3.org/2000/svg">
<g clip-path="url(#clip0)">
<path d="M19.5 27.625C13.4777 27.625 8.9375 25.1794 8.9375 21.9375V17.0625C8.9375 16.3898 9.4835 15.8438 10.1562 15.8438H28.8438C29.5165 15.8438 30.0625 16.3898 30.0625 17.0625V21.9375C30.0625 25.1794 25.5222 27.625 19.5 27.625Z" fill="#93C1F9"/>
<path d="M19.5 22.75C13.4777 22.75 8.9375 20.3044 8.9375 17.0625C8.9375 13.8206 13.4777 11.375 19.5 11.375C25.5222 11.375 30.0625 13.8206 30.0625 17.0625C30.0625 20.3044 25.5222 22.75 19.5 22.75Z" fill="#93C1F9"/>
<path d="M8.9375 17.0625V21.9375C8.9375 25.1794 13.4777 27.625 19.5 27.625V22.75C13.4777 22.75 8.9375 20.3044 8.9375 17.0625Z" fill="#EDEDED"/>
<path d="M19.5 11.375C13.4777 11.375 8.9375 13.8206 8.9375 17.0625C8.9375 20.3044 13.4777 22.75 19.5 22.75V11.375Z" fill="#EDEDED"/>
<path d="M2.4375 19.5C2.4375 10.0913 10.0913 2.4375 19.5 2.4375C23.6779 2.4375 27.5958 3.94875 30.6524 6.6235L29.6075 7.67C28.8405 8.43375 29.3816 9.75 30.4688 9.75H34.5312C35.204 9.75 35.75 9.204 35.75 8.53125V4.46875C35.75 3.39138 34.4403 2.83725 33.67 3.6075L32.3765 4.901C28.8616 1.76962 24.3328 0 19.5 0C8.74737 0 0 8.74737 0 19.5C0 21.4061 0.281125 23.3009 0.833625 25.1322C1.027 25.7741 1.70137 26.1414 2.353 25.948C2.9965 25.753 3.36212 25.0737 3.16712 24.4286C2.68287 22.8248 2.4375 21.1672 2.4375 19.5Z" fill="#607D8B"/>
<path d="M38.1663 13.8677C37.9713 13.2242 37.297 12.8553 36.647 13.0519C36.0018 13.2469 35.6378 13.9262 35.8328 14.5713C36.3171 16.1752 36.5625 17.8327 36.5625 19.4999C36.5625 28.9071 28.9087 36.5625 19.5 36.5625C15.3221 36.5625 11.4042 35.0512 8.34762 32.3765L9.3925 31.33C10.1595 30.5662 9.61837 29.25 8.53125 29.25H4.46875C3.796 29.25 3.25 29.796 3.25 30.4687V34.5312C3.25 35.6151 4.56787 36.1562 5.33 35.3925L6.6235 34.099C10.1384 37.2303 14.6672 39 19.5 39C30.2526 39 39 30.2526 39 19.4999C39 17.5938 38.7188 15.6991 38.1663 13.8677Z" fill="#607D8B"/>
<path d="M19.5 0C8.74737 0 0 8.74737 0 19.5C0 21.4061 0.281125 23.3009 0.833625 25.1322C0.99125 25.6587 1.47387 26 2.00037 26C2.11737 26 2.23438 25.9838 2.353 25.948C2.9965 25.753 3.36212 25.0737 3.16712 24.4286C2.68287 22.8248 2.4375 21.1672 2.4375 19.5C2.4375 10.0913 10.0913 2.4375 19.5 2.4375V0Z" fill="#546D79"/>
<path d="M8.53125 29.25H4.46875C3.796 29.25 3.25 29.796 3.25 30.4688V34.5312C3.25 35.2657 3.85287 35.75 4.48012 35.75C4.77912 35.75 5.083 35.6395 5.33 35.3925L6.6235 34.099C10.1384 37.2304 14.6672 39 19.5 39V36.5625C15.3221 36.5625 11.4043 35.0512 8.34763 32.3765L9.3925 31.33C10.1595 30.5663 9.61837 29.25 8.53125 29.25Z" fill="#546D79"/>
</g>
<defs>
<clipPath id="clip0">
<rect width="39" height="39" fill="white"/>
</clipPath>
</defs>
</svg>
