<svg width="17" height="17" viewBox="0 0 17 17" fill="none" xmlns="http://www.w3.org/2000/svg">
<g clip-path="url(#clip0_2380:5977)">
<path d="M11.2223 8.13608L9.71802 6.63184L6.63184 9.71802L8.13608 11.2223C8.55133 11.6313 9.09858 11.8596 9.68227 11.8596C10.8792 11.8596 11.8596 10.8792 11.8596 9.68227C11.8596 9.09858 11.6306 8.55133 11.2223 8.13608Z" fill="url(#paint0_linear_2380:5977)"/>
<path d="M1.9251 15.125C1.64529 15.125 1.41498 14.9009 1.40948 14.6197L1.3751 12.9009C1.37235 12.7621 1.42529 12.6287 1.52291 12.5297C1.61916 12.4307 1.75254 12.375 1.89073 12.375H3.60948C3.8941 12.375 4.1251 12.606 4.1251 12.8906C4.1251 13.1752 3.8941 13.4062 3.60948 13.4062H2.41666L2.44073 14.5991C2.44623 14.8837 2.22004 15.1195 1.93473 15.125C1.93198 15.125 1.92854 15.125 1.9251 15.125Z" fill="url(#paint1_linear_2380:5977)"/>
<path d="M14.6094 4.12549H12.8906C12.606 4.12549 12.375 3.89449 12.375 3.60986C12.375 3.32524 12.606 3.09424 12.8906 3.09424H14.0937V1.89111C14.0937 1.60649 14.3247 1.37549 14.6094 1.37549C14.894 1.37549 15.125 1.60649 15.125 1.89111V3.60986C15.125 3.89449 14.894 4.12549 14.6094 4.12549Z" fill="url(#paint2_linear_2380:5977)"/>
<path d="M0.845625 11C0.62425 11 0.419375 10.8563 0.352 10.6329C0.118938 9.85806 0 9.05644 0 8.25C0 3.70081 3.70081 0 8.25 0C10.7862 0 13.1368 1.13644 14.6981 3.1185C14.8748 3.34194 14.8356 3.66644 14.6121 3.84244C14.3873 4.01912 14.0635 3.97994 13.8882 3.7565C12.5242 2.02469 10.4692 1.03125 8.25 1.03125C4.26937 1.03125 1.03125 4.26937 1.03125 8.25C1.03125 8.95537 1.13506 9.65663 1.33925 10.3359C1.42175 10.6081 1.26775 10.8962 0.994812 10.9787C0.945312 10.9931 0.895125 11 0.845625 11Z" fill="url(#paint3_linear_2380:5977)"/>
<path d="M8.2502 16.5004C5.71401 16.5004 3.36345 15.364 1.80214 13.3819C1.62545 13.1585 1.66464 12.834 1.88808 12.658C2.1122 12.4826 2.4367 12.5205 2.61201 12.7439C3.97601 14.4757 6.03095 15.4691 8.2502 15.4691C12.2308 15.4691 15.469 12.231 15.469 8.25039C15.469 7.54502 15.3651 6.84377 15.161 6.16452C15.0785 5.89227 15.2325 5.6042 15.5054 5.5217C15.7797 5.4392 16.065 5.59389 16.1482 5.86683C16.3813 6.64233 16.5002 7.44395 16.5002 8.25039C16.5002 12.7996 12.7994 16.5004 8.2502 16.5004Z" fill="url(#paint4_linear_2380:5977)"/>
<path d="M9.88281 12.375C9.21663 12.375 8.591 12.1158 8.12075 11.6449L4.85512 8.37925C4.38419 7.90831 4.125 7.28269 4.125 6.61719C4.125 5.24287 5.24287 4.125 6.61719 4.125C7.28338 4.125 7.909 4.38419 8.37925 4.85512L11.6449 8.12075C12.1158 8.59169 12.375 9.21731 12.375 9.88281C12.375 11.2571 11.2571 12.375 9.88281 12.375ZM6.61719 5.15625C5.81144 5.15625 5.15625 5.81144 5.15625 6.61719C5.15625 7.007 5.30819 7.37413 5.58387 7.64981L8.8495 10.9154C9.12519 11.1911 9.493 11.3438 9.88281 11.3438C10.6886 11.3438 11.3438 10.6886 11.3438 9.88281C11.3438 9.493 11.1918 9.12587 10.9161 8.85019L7.6505 5.58456C7.37481 5.30819 7.007 5.15625 6.61719 5.15625Z" fill="url(#paint5_linear_2380:5977)"/>
<path d="M6.59766 9.1709L9.17029 6.59827L9.89949 7.32747L7.32686 9.9001L6.59766 9.1709Z" fill="url(#paint6_linear_2380:5977)"/>
</g>
<defs>
<linearGradient id="paint0_linear_2380:5977" x1="9.24571" y1="6.63184" x2="9.24571" y2="11.8596" gradientUnits="userSpaceOnUse">
<stop stop-color="#C926B4"/>
<stop offset="1" stop-color="#8D28AD"/>
</linearGradient>
<linearGradient id="paint1_linear_2380:5977" x1="2.75005" y1="12.375" x2="2.75005" y2="15.125" gradientUnits="userSpaceOnUse">
<stop stop-color="#C926B4"/>
<stop offset="1" stop-color="#8D28AD"/>
</linearGradient>
<linearGradient id="paint2_linear_2380:5977" x1="13.75" y1="1.37549" x2="13.75" y2="4.12549" gradientUnits="userSpaceOnUse">
<stop stop-color="#C926B4"/>
<stop offset="1" stop-color="#8D28AD"/>
</linearGradient>
<linearGradient id="paint3_linear_2380:5977" x1="7.4044" y1="0" x2="7.4044" y2="11" gradientUnits="userSpaceOnUse">
<stop stop-color="#C926B4"/>
<stop offset="1" stop-color="#8D28AD"/>
</linearGradient>
<linearGradient id="paint4_linear_2380:5977" x1="9.0958" y1="5.49951" x2="9.0958" y2="16.5004" gradientUnits="userSpaceOnUse">
<stop stop-color="#C926B4"/>
<stop offset="1" stop-color="#8D28AD"/>
</linearGradient>
<linearGradient id="paint5_linear_2380:5977" x1="8.25" y1="4.125" x2="8.25" y2="12.375" gradientUnits="userSpaceOnUse">
<stop stop-color="#C926B4"/>
<stop offset="1" stop-color="#8D28AD"/>
</linearGradient>
<linearGradient id="paint6_linear_2380:5977" x1="7.88397" y1="7.88458" x2="8.61318" y2="8.61379" gradientUnits="userSpaceOnUse">
<stop stop-color="#C926B4"/>
<stop offset="1" stop-color="#8D28AD"/>
</linearGradient>
<clipPath id="clip0_2380:5977">
<rect width="16.5" height="16.5" fill="white"/>
</clipPath>
</defs>
</svg>
