<svg width="30" height="31" viewBox="0 0 30 31" fill="none" xmlns="http://www.w3.org/2000/svg">
<path d="M28.9325 27.6505V5.65886L27.777 3.50774L25.4263 1.15699C25.0007 0.731298 24.4233 0.492188 23.8214 0.492188H22.8621L15.556 2.08983L7.76599 0.492188H2.91965C1.66612 0.492188 0.649902 1.50841 0.649902 2.76194V27.9083C0.649902 29.1618 1.66612 30.1781 2.91965 30.1781H26.0296L26.9929 29.9774C27.9553 29.7769 28.9325 28.9173 28.9325 27.6505Z" fill="#800080"/>
<path d="M24.3091 26.9497H6.3188C5.62605 26.9497 5.06445 26.3881 5.06445 25.6954V16.1516C5.06445 15.4589 5.62605 14.8973 6.3188 14.8973H24.3091C25.0019 14.8973 25.5635 15.4589 25.5635 16.1516V25.6954C25.5635 26.3881 25.0019 26.9497 24.3091 26.9497Z" fill="#F5BBEE"/>
<path d="M15.3138 25.1668C17.656 25.1668 19.5548 23.268 19.5548 20.9258C19.5548 18.5835 17.656 16.6848 15.3138 16.6848C12.9715 16.6848 11.0728 18.5835 11.0728 20.9258C11.0728 23.268 12.9715 25.1668 15.3138 25.1668Z" fill="#FFC0F7" fill-opacity="0.58"/>
<path d="M13.8624 22.5231L13.0544 20.8903C12.9446 20.6686 13.0354 20.3999 13.2572 20.2901C13.4789 20.1804 13.7477 20.2712 13.8574 20.493L14.394 21.5775L16.8618 19.2026C17.04 19.0312 17.3237 19.0365 17.4953 19.2148C17.6668 19.3931 17.6614 19.6766 17.4831 19.8482L14.5745 22.6473C14.3562 22.8574 13.9964 22.7943 13.8624 22.5231Z" fill="#C926B4"/>
<path d="M8.8413 11.3144H21.7871C22.3808 11.3144 22.8622 10.8331 22.8622 10.2393V0.492188H7.76611V10.2393C7.76611 10.8331 8.24746 11.3144 8.8413 11.3144Z" fill="#F9DAFF"/>
<path d="M29.3134 5.04387L27.7771 3.50757V6.64882V11.8538V27.9082C27.7771 29.1617 26.7609 30.178 25.5073 30.178H27.7084C28.962 30.178 29.9782 29.1617 29.9782 27.9082V6.64882C29.9782 6.04687 29.739 5.4695 29.3134 5.04387Z" fill="#800080"/>
<path d="M15.314 25.612C12.7284 25.612 10.625 23.5086 10.625 20.923C10.625 18.3375 12.7285 16.234 15.314 16.234C17.8995 16.234 20.0029 18.3375 20.0029 20.923C20.0029 23.5086 17.8995 25.612 15.314 25.612ZM15.314 17.13C13.2225 17.13 11.5209 18.8315 11.5209 20.923C11.5209 23.0145 13.2225 24.7161 15.314 24.7161C17.4055 24.7161 19.107 23.0146 19.107 20.923C19.107 18.8315 17.4054 17.13 15.314 17.13Z" fill="#C926B4"/>
<path d="M17.6836 8.79647V3.08467C17.6836 2.91971 17.8173 2.78601 17.9822 2.78601H20.6103C20.7753 2.78601 20.909 2.91971 20.909 3.08467V8.79641C20.909 8.96137 20.7753 9.09507 20.6103 9.09507H17.9822C17.8173 9.09513 17.6836 8.96143 17.6836 8.79647Z" fill="#EE7CDF"/>
</svg>
