<svg width="16" height="17" viewBox="0 0 16 17" fill="none" xmlns="http://www.w3.org/2000/svg">
<path d="M5.33301 5.54175V8.70841L0.583008 4.75008L5.33301 0.791748V3.95841H9.29134C10.971 3.95841 12.582 4.62567 13.7697 5.81341C14.9574 7.00114 15.6247 8.61204 15.6247 10.2917C15.6247 11.9715 14.9574 13.5824 13.7697 14.7701C12.582 15.9578 10.971 16.6251 9.29134 16.6251H2.16634V15.0417H9.29134C10.5511 15.0417 11.7593 14.5413 12.6501 13.6505C13.5409 12.7597 14.0413 11.5515 14.0413 10.2917C14.0413 9.03197 13.5409 7.82379 12.6501 6.93299C11.7593 6.04219 10.5511 5.54175 9.29134 5.54175H5.33301Z" fill="white"/>
</svg>
