<svg width="346" height="271" viewBox="0 0 346 271" fill="none" xmlns="http://www.w3.org/2000/svg">
<path d="M214.477 231.023C222.509 228.52 229.715 225.963 238.385 221.11C247.327 216.103 287.048 192.28 292.213 151.049C293.566 139.748 292.443 128.29 288.921 117.464C287.324 112.798 284.013 103.427 275.654 94.1584C265.423 82.806 253.748 78.4059 246.902 75.9176C232.498 70.6799 220.418 70.9559 214.664 71.1431C208.456 71.3451 197.498 71.7984 185.042 77.2234C176.916 80.7611 171.864 84.7966 164.42 90.8276C152.627 100.391 151.075 104.373 130.443 124.121C124.779 129.541 120.122 133.813 113.015 138.021C108.087 140.938 104.103 142.569 96.7526 145.545C78.6865 152.862 73.5427 154.343 67.631 158.463C56.1339 166.479 56.8786 175.222 56.3843 177.104C55.099 181.918 54.8014 186.94 55.5094 191.871C57.017 201.76 62.3602 208.225 65.6769 212.137C70.2295 217.458 75.7462 221.878 81.9389 225.165C86.238 227.426 90.6909 229.383 95.2648 231.023H214.477Z" fill="#E678D7" fill-opacity="0.3"/>
<path d="M239.978 224.034L239.735 223.604C251.549 216.988 290.497 192.185 295.678 150.81C297.075 139.077 295.909 127.181 292.26 115.939C290.789 111.636 287.342 101.561 278.495 91.7481C267.661 79.73 255.291 75.2326 248.646 72.8166C237.923 68.9691 226.541 67.2828 215.159 67.8554C209.018 68.0547 197.587 68.4254 184.393 74.168L184.195 73.7167C197.476 67.9358 209.408 67.5489 215.143 67.3632C226.587 66.787 238.033 68.4833 248.814 72.3537C255.5 74.7844 267.945 79.3092 278.863 91.419C287.778 101.307 291.247 111.449 292.728 115.78C296.4 127.093 297.573 139.064 296.168 150.871C290.959 192.476 251.842 217.389 239.978 224.034Z" fill="#F7D7F3"/>
<path d="M238.528 190.413H113.488C111.242 190.413 109.421 192.228 109.421 194.467V194.467C109.421 196.706 111.242 198.522 113.488 198.522H238.528C240.774 198.522 242.595 196.706 242.595 194.467C242.595 192.228 240.774 190.413 238.528 190.413Z" fill="#C5ADCD"/>
<path d="M109.298 231.023L115.922 198.522H123.621L111.774 231.023H109.298Z" fill="#935B50"/>
<path d="M234.635 198.522L241.779 231.023H238.258L226.675 198.522H234.635Z" fill="#935B50"/>
<path d="M72.2592 230.279L71.8721 230.047C71.9812 229.866 82.7666 211.949 84.4455 207.485L84.8683 207.643C83.1745 212.146 72.7038 229.54 72.2592 230.279Z" fill="#8B9D36"/>
<path d="M81.0018 198.09C81.4584 199.216 81.8074 200.382 82.0444 201.573C82.2867 202.74 82.4645 203.919 82.5772 205.105C82.6929 206.291 82.7419 207.482 82.724 208.673C82.7172 209.888 82.5939 211.099 82.356 212.29C81.8973 211.165 81.5473 209.998 81.311 208.807C81.0683 207.64 80.8913 206.461 80.7806 205.275C80.667 204.089 80.6189 202.898 80.6363 201.707C80.6438 200.492 80.7662 199.281 81.0018 198.09Z" fill="#8B9D36"/>
<path d="M77.021 203.515C77.5769 204.564 78.0299 205.664 78.3738 206.799C78.7206 207.909 79.0043 209.038 79.2237 210.18C79.4461 211.321 79.6027 212.474 79.6929 213.633C79.7959 214.815 79.7829 216.004 79.6541 217.184C79.0962 216.136 78.6423 215.036 78.2989 213.9C77.952 212.79 77.669 211.661 77.4514 210.519C77.231 209.377 77.0752 208.224 76.9847 207.065C76.8823 205.883 76.8945 204.695 77.021 203.515Z" fill="#8B9D36"/>
<path d="M74.8284 209.832C75.3179 210.806 75.7039 211.829 75.98 212.884C76.2588 213.912 76.4739 214.955 76.6243 216.009C76.7776 217.062 76.8646 218.124 76.885 219.189C76.9167 220.278 76.8325 221.369 76.6338 222.441C76.1421 221.467 75.7553 220.444 75.4798 219.388C75.2006 218.361 74.9862 217.317 74.8378 216.263C74.6865 215.21 74.6003 214.148 74.5796 213.083C74.5485 211.994 74.6319 210.904 74.8284 209.832Z" fill="#8B9D36"/>
<path d="M72.0669 216.136C72.5584 216.953 72.9504 217.825 73.2346 218.734C73.5189 219.612 73.7404 220.509 73.8974 221.419C74.0574 222.328 74.1513 223.247 74.1784 224.169C74.2171 225.121 74.1403 226.074 73.9499 227.007C73.4563 226.192 73.0634 225.32 72.7797 224.41C72.495 223.532 72.2743 222.635 72.1191 221.725C71.9612 220.816 71.8682 219.896 71.8406 218.974C71.8026 218.022 71.8785 217.07 72.0669 216.136Z" fill="#8B9D36"/>
<path d="M69.6293 220.077C70.1307 220.785 70.5446 221.551 70.862 222.358C71.1731 223.128 71.4321 223.919 71.6371 224.724C71.8402 225.523 71.9965 226.333 72.1051 227.151C72.1558 227.562 72.2023 227.972 72.2331 228.39C72.2491 228.815 72.2946 229.239 72.3693 229.658C72.2651 229.602 72.1649 229.539 72.0696 229.47L71.8263 229.226C71.6712 229.061 71.529 228.883 71.4008 228.696C71.1538 228.335 70.935 227.955 70.7466 227.561C70.3804 226.794 70.0928 225.992 69.888 225.167C69.6792 224.35 69.5439 223.516 69.4839 222.675C69.411 221.807 69.46 220.932 69.6293 220.077Z" fill="#8B9D36"/>
<path d="M83.3701 210.35C84.1891 209.454 85.1107 208.658 86.1158 207.976C87.0843 207.305 88.0983 206.703 89.1506 206.172C90.2014 205.639 91.2888 205.18 92.4045 204.799C93.5505 204.394 94.7407 204.126 95.9501 204.001C95.1329 204.898 94.2118 205.696 93.206 206.377C92.2377 207.048 91.2231 207.65 90.1696 208.178C89.1177 208.71 88.03 209.168 86.9144 209.549C85.7685 209.953 84.5789 210.222 83.3701 210.35Z" fill="#8B9D36"/>
<path d="M80.6729 215.371C81.7202 214.517 82.8554 213.777 84.0594 213.161C85.2286 212.55 86.4349 212.011 87.6711 211.549C88.906 211.083 90.1692 210.696 91.4532 210.389C92.7658 210.061 94.1099 209.874 95.4624 209.832C94.4166 210.688 93.2817 211.429 92.0773 212.044C90.9082 212.656 89.7015 213.194 88.4644 213.654C87.2286 214.117 85.9651 214.504 84.6813 214.811C83.3687 215.139 82.0251 215.326 80.6729 215.371Z" fill="#8B9D36"/>
<path d="M77.498 220.953C78.4306 220.128 79.4548 219.412 80.5507 218.82C81.6098 218.233 82.7075 217.719 83.8363 217.28C84.9637 216.839 86.1204 216.475 87.298 216.191C88.5071 215.887 89.7475 215.723 90.9945 215.703C90.0635 216.53 89.0395 217.247 87.943 217.839C86.8841 218.426 85.7859 218.939 84.6563 219.375C83.5279 219.815 82.371 220.178 81.1935 220.462C79.9846 220.765 78.7447 220.93 77.498 220.953Z" fill="#8B9D36"/>
<path d="M74.9893 225.249C75.8016 224.548 76.703 223.956 77.6704 223.489C78.5958 223.03 79.5563 222.645 80.5428 222.337C81.5283 222.027 82.5374 221.796 83.5602 221.647C84.6223 221.48 85.7019 221.455 86.7707 221.572C85.9597 222.275 85.0584 222.868 84.0904 223.335C83.1651 223.794 82.2042 224.178 81.2169 224.483C80.2307 224.792 79.2215 225.022 78.1988 225.171C77.1371 225.337 76.0579 225.364 74.9893 225.249Z" fill="#8B9D36"/>
<path d="M73.0088 229.104C73.9018 228.25 74.8907 227.501 75.9559 226.872C76.9842 226.251 78.0539 225.701 79.1573 225.226C80.2594 224.747 81.3934 224.345 82.5513 224.023C83.7402 223.678 84.9654 223.472 86.2021 223.411C85.3107 224.267 84.3221 225.017 83.2563 225.646C82.2282 226.267 81.158 226.816 80.0535 227.289C78.9505 227.766 77.8162 228.167 76.6584 228.49C75.4696 228.834 74.245 229.04 73.0088 229.104Z" fill="#8B9D36"/>
<path d="M84.2454 208.212C84.0806 207.013 84.1103 205.794 84.3334 204.604C84.5297 203.482 84.8387 202.382 85.2556 201.322C85.6686 200.26 86.1894 199.243 86.8098 198.286C87.4564 197.261 88.2659 196.347 89.2067 195.58C89.3751 196.779 89.3468 197.998 89.1229 199.189C88.927 200.311 88.6167 201.41 88.1968 202.47C87.7805 203.531 87.2585 204.547 86.6384 205.504C85.9914 206.529 85.1835 207.443 84.2454 208.212Z" fill="#8B9D36"/>
<path d="M71.0964 230.521L70.6455 230.513C70.6653 229.284 71.2006 200.302 77.0167 191.123L77.398 191.363C71.6495 200.436 71.1012 230.221 71.0964 230.521Z" fill="#50661A"/>
<path d="M75.3394 195.263C75.5183 193.918 75.5636 192.559 75.4747 191.206C75.3997 189.887 75.2528 188.573 75.0349 187.27C74.8242 185.972 74.5375 184.687 74.2003 183.413C73.8636 182.131 73.4383 180.896 72.984 179.582C72.8556 179.908 72.7581 180.246 72.6929 180.591C72.6201 180.929 72.567 181.271 72.5338 181.616C72.4633 182.291 72.4327 182.971 72.4421 183.65C72.462 184.987 72.5848 186.32 72.8094 187.638C73.0281 188.952 73.3373 190.249 73.7349 191.52C74.1282 192.824 74.6663 194.079 75.3394 195.263Z" fill="#50661A"/>
<path d="M82.4877 176.91C81.4881 177.871 80.6309 178.969 79.9419 180.171C79.2708 181.311 78.6999 182.507 78.2356 183.745C77.7671 184.981 77.4088 186.257 77.1647 187.556C76.8918 188.914 76.8165 190.304 76.9412 191.683C77.9438 190.724 78.8025 189.627 79.491 188.424C80.1627 187.284 80.7324 186.088 81.1933 184.848C81.6586 183.611 82.0156 182.335 82.2603 181.036C82.5324 179.678 82.6089 178.289 82.4877 176.91Z" fill="#50661A"/>
<path d="M87.2813 184.296C86.0953 185.246 84.9752 186.275 83.9287 187.376C82.8925 188.446 81.9038 189.541 80.9364 190.642L78.0622 193.93C77.5801 194.468 77.0928 194.999 76.5781 195.501C76.0695 196.034 75.477 196.48 74.8242 196.822C75.2224 196.891 75.6304 196.881 76.0245 196.792C76.422 196.713 76.8098 196.591 77.181 196.429C77.9076 196.111 78.5981 195.716 79.2407 195.252C80.488 194.342 81.6264 193.292 82.6336 192.123C83.6355 190.978 84.5375 189.749 85.3298 188.451C86.1453 187.149 86.8005 185.754 87.2813 184.296Z" fill="#50661A"/>
<path d="M87.2804 191.683C85.8184 192.41 84.4237 193.265 83.1127 194.238C81.8153 195.184 80.5673 196.195 79.3734 197.267C78.1769 198.337 77.037 199.468 75.9582 200.656C74.8504 201.854 73.8522 203.148 72.9756 204.523C74.4391 203.798 75.8346 202.943 77.1455 201.97C78.4431 201.025 79.6906 200.013 80.8828 198.938C82.0776 197.867 83.2168 196.735 84.2958 195.548C85.4029 194.349 86.4016 193.056 87.2804 191.683Z" fill="#50661A"/>
<path d="M86.7932 197.479C85.3203 198.162 83.9112 198.974 82.5825 199.906C81.2683 200.811 80.0016 201.784 78.7874 202.819C77.5708 203.851 76.4092 204.945 75.3072 206.098C74.176 207.261 73.1518 208.523 72.2471 209.868C73.7214 209.187 75.1314 208.376 76.46 207.443C77.7743 206.538 79.0404 205.565 80.2528 204.528C81.4678 203.494 82.6287 202.399 83.731 201.246C84.8617 200.083 85.8864 198.822 86.7932 197.479Z" fill="#50661A"/>
<path d="M86.4681 203.673C85.0024 204.223 83.5905 204.905 82.2504 205.713C80.9275 206.495 79.6474 207.346 78.4156 208.264C77.1816 209.179 75.9982 210.159 74.8709 211.202C73.7128 212.253 72.6556 213.41 71.7129 214.656C73.1798 214.109 74.5924 213.427 75.9324 212.619C77.2555 211.838 78.535 210.986 79.7654 210.066C80.9979 209.149 82.1805 208.168 83.3081 207.125C84.4655 206.074 85.5233 204.918 86.4681 203.673Z" fill="#50661A"/>
<path d="M86.7938 208.167C85.2603 208.782 83.7837 209.53 82.3808 210.401C80.9934 211.247 79.6498 212.162 78.355 213.143C77.0578 214.121 75.8118 215.164 74.6221 216.27C73.4027 217.382 72.2844 218.6 71.2803 219.909C72.8149 219.297 74.2923 218.55 75.695 217.678C77.0826 216.833 78.4257 215.917 79.719 214.934C81.0147 213.954 82.2599 212.91 83.45 211.805C84.6687 210.692 85.7876 209.475 86.7938 208.167Z" fill="#50661A"/>
<path d="M87.9301 212.378C86.3336 213.119 84.792 213.971 83.3173 214.93C81.8528 215.865 80.4359 216.853 79.0544 217.884C77.669 218.909 76.3219 219.978 74.9987 221.083C73.6617 222.177 72.3988 223.318 71.0156 224.447C71.9038 224.302 72.7711 224.049 73.5985 223.696C74.4177 223.354 75.2183 222.97 75.9969 222.545C77.5284 221.691 79.0009 220.736 80.4046 219.686C81.8032 218.64 83.1401 217.516 84.4088 216.317C85.7014 215.115 86.8802 213.796 87.9301 212.378Z" fill="#50661A"/>
<path d="M89.3122 216.751C87.5868 217.419 85.9127 218.212 84.3031 219.124C82.7035 220.012 81.151 220.966 79.6343 221.97C78.1173 222.974 76.637 224.029 75.1931 225.136C74.4715 225.691 73.7567 226.256 73.0488 226.831C72.3641 227.436 71.6366 227.992 70.8721 228.493C71.3515 228.493 71.8274 228.412 72.2793 228.252C72.7328 228.118 73.1731 227.955 73.6085 227.786C74.477 227.442 75.3161 227.049 76.1392 226.632C77.773 225.794 79.3571 224.862 80.8838 223.842C82.4102 222.83 83.8842 221.741 85.3 220.58C86.7412 219.416 88.0832 218.135 89.3122 216.751Z" fill="#50661A"/>
<path d="M73.9389 200.407C73.8656 198.946 73.6487 197.496 73.2914 196.077C72.9542 194.684 72.5373 193.311 72.0429 191.966C71.552 190.619 70.9831 189.302 70.339 188.02C69.6941 186.706 68.9201 185.459 68.0283 184.296C68.099 185.758 68.3148 187.209 68.6727 188.628C69.0097 190.021 69.4276 191.393 69.9243 192.738C70.4175 194.084 70.9873 195.401 71.631 196.682C72.2763 197.996 73.0493 199.244 73.9389 200.407Z" fill="#50661A"/>
<path d="M72.9751 205.464C72.6983 204.011 72.2808 202.588 71.7283 201.215C71.199 199.864 70.5936 198.545 69.9151 197.263C69.24 195.979 68.4914 194.734 67.6732 193.536C66.8499 192.305 65.9074 191.157 64.8594 190.109C65.1336 191.563 65.5502 192.987 66.1033 194.36C66.6324 195.711 67.2387 197.03 67.9193 198.311C68.5967 199.594 69.346 200.837 70.1639 202.036C70.9877 203.267 71.9291 204.415 72.9751 205.464Z" fill="#50661A"/>
<path d="M72.2479 210.354C71.7732 208.878 71.1622 207.45 70.4228 206.087C69.7085 204.743 68.9222 203.439 68.0674 202.179C67.2156 200.917 66.2952 199.702 65.3102 198.54C64.3179 197.347 63.2156 196.25 62.0176 195.263C62.4898 196.739 63.1001 198.168 63.8402 199.531C64.5541 200.875 65.3413 202.179 66.1983 203.438C67.0521 204.698 67.9733 205.912 68.9579 207.074C69.9505 208.267 71.0519 209.364 72.2479 210.354Z" fill="#50661A"/>
<path d="M71.7137 215.748C70.9693 214.154 70.0954 212.623 69.1009 211.17C68.1298 209.725 67.0935 208.333 65.9923 206.995C64.8946 205.653 63.7334 204.364 62.5086 203.126C61.2788 201.864 59.9462 200.706 58.5244 199.665C59.2659 201.261 60.1391 202.793 61.1348 204.245C62.106 205.69 63.1429 207.081 64.2457 208.418C65.3459 209.758 66.508 211.047 67.7318 212.285C68.9622 213.546 70.2939 214.704 71.7137 215.748Z" fill="#50661A"/>
<path d="M71.2801 221.343C70.3674 219.827 69.3327 218.388 68.186 217.039C67.0635 215.696 65.8817 214.412 64.6406 213.188C63.4031 211.961 62.1076 210.791 60.7541 209.68C59.3935 208.545 57.9412 207.525 56.4121 206.629C57.3221 208.147 58.3563 209.587 59.504 210.935C60.6265 212.278 61.809 213.561 63.0514 214.784C64.2914 216.009 65.5876 217.178 66.9401 218.29C68.3014 219.423 69.7528 220.444 71.2801 221.343Z" fill="#50661A"/>
<path d="M71.0156 224.93C70.0033 223.622 68.8785 222.404 67.654 221.291C66.4583 220.186 65.2075 219.142 63.9063 218.162C62.6076 217.179 61.2592 216.263 59.8665 215.418C58.4584 214.546 56.9761 213.8 55.4365 213.188C56.447 214.498 57.5713 215.716 58.7964 216.829C59.9918 217.934 61.2433 218.978 62.5458 219.956C63.8462 220.937 65.1952 221.852 66.5877 222.697C67.9958 223.568 69.4774 224.315 71.0156 224.93Z" fill="#50661A"/>
<path d="M70.8717 227.926C69.6572 226.732 68.3434 225.644 66.9444 224.671C65.5711 223.698 64.156 222.798 62.6991 221.97C61.2445 221.138 59.7492 220.378 58.2132 219.688C56.6632 218.978 55.055 218.402 53.4062 217.966C54.6191 219.162 55.9326 220.251 57.3322 221.224C58.7055 222.197 60.121 223.096 61.5788 223.922C63.035 224.751 64.5308 225.511 66.0662 226.201C67.6163 226.91 69.2239 227.487 70.8717 227.926Z" fill="#50661A"/>
<path d="M70.9834 229.87C69.5262 228.867 67.9896 227.985 66.3887 227.231C64.8122 226.473 63.2049 225.797 61.5714 225.192C59.938 224.586 58.2761 224.057 56.5857 223.605C54.8789 223.135 53.1361 222.806 51.375 222.622C52.8306 223.627 54.367 224.51 55.9687 225.263C57.5453 226.022 59.1515 226.701 60.7871 227.3C62.4215 227.903 64.0824 228.435 65.7739 228.884C67.4807 229.353 69.2229 229.683 70.9834 229.87Z" fill="#50661A"/>
<path d="M70.1941 229.715C69.7495 228.976 59.2788 211.582 57.585 207.079L58.0078 206.921C59.6866 211.385 70.4721 229.302 70.5812 229.483L70.1941 229.715Z" fill="#5E7C24"/>
<path d="M61.4289 197.597C60.9723 198.723 60.6233 199.889 60.3863 201.08C60.144 202.247 59.9662 203.426 59.8535 204.612C59.7378 205.798 59.6888 206.989 59.7067 208.18C59.7135 209.395 59.8368 210.606 60.0747 211.797C60.5335 210.672 60.8834 209.506 61.1197 208.314C61.3624 207.148 61.5394 205.969 61.6501 204.782C61.7637 203.596 61.8118 202.405 61.7944 201.214C61.7869 200 61.6645 198.789 61.4289 197.597Z" fill="#5E7C24"/>
<path d="M65.4094 203.022C64.8536 204.071 64.4005 205.171 64.0566 206.307C63.7099 207.417 63.4261 208.545 63.2067 209.687C62.9844 210.828 62.8278 211.981 62.7376 213.141C62.6346 214.323 62.6476 215.512 62.7763 216.691C63.3343 215.643 63.7882 214.543 64.1316 213.407C64.4785 212.297 64.7615 211.169 64.9791 210.026C65.1995 208.885 65.3553 207.732 65.4458 206.573C65.5482 205.391 65.536 204.202 65.4094 203.022Z" fill="#5E7C24"/>
<path d="M67.6031 209.339C67.1136 210.314 66.7277 211.337 66.4515 212.392C66.1728 213.419 65.9576 214.463 65.8072 215.516C65.654 216.57 65.5669 217.632 65.5465 218.696C65.5149 219.786 65.5991 220.876 65.7977 221.948C66.2894 220.974 66.6762 219.951 66.9518 218.896C67.2309 217.868 67.4453 216.825 67.5937 215.771C67.745 214.717 67.8313 213.655 67.8519 212.591C67.883 211.501 67.7996 210.411 67.6031 209.339Z" fill="#5E7C24"/>
<path d="M70.3644 215.644C69.8729 216.46 69.4809 217.332 69.1967 218.241C68.9123 219.12 68.6908 220.017 68.5338 220.926C68.3739 221.835 68.28 222.754 68.2529 223.677C68.2142 224.628 68.2909 225.581 68.4814 226.515C68.975 225.699 69.3678 224.827 69.6515 223.917C69.9362 223.039 70.157 222.142 70.3122 221.232C70.47 220.323 70.5631 219.404 70.5907 218.481C70.6287 217.53 70.5527 216.577 70.3644 215.644Z" fill="#5E7C24"/>
<path d="M72.8015 219.584C72.3001 220.292 71.8862 221.058 71.5688 221.865C71.2577 222.636 70.9988 223.426 70.7938 224.231C70.5907 225.03 70.4344 225.841 70.3257 226.658C70.275 227.07 70.2285 227.479 70.1977 227.897C70.1817 228.322 70.1362 228.746 70.0615 229.165C70.1658 229.11 70.2659 229.047 70.3612 228.977L70.6045 228.734C70.7596 228.568 70.9018 228.391 71.03 228.203C71.277 227.842 71.4958 227.463 71.6843 227.068C72.0504 226.301 72.338 225.499 72.5428 224.675C72.7516 223.858 72.8869 223.024 72.9469 222.183C73.0198 221.314 72.9708 220.439 72.8015 219.584Z" fill="#5E7C24"/>
<path d="M59.0624 209.857C58.2434 208.961 57.3219 208.165 56.3167 207.483C55.3483 206.813 54.3342 206.21 53.2819 205.679C52.2311 205.146 51.1438 204.687 50.028 204.306C48.882 203.902 47.6918 203.634 46.4824 203.508C47.2996 204.406 48.2208 205.203 49.2266 205.884C50.1948 206.556 51.2095 207.157 52.2629 207.686C53.3148 208.217 54.4025 208.675 55.5181 209.056C56.6641 209.46 57.8537 209.729 59.0624 209.857Z" fill="#5E7C24"/>
<path d="M61.7593 214.879C60.712 214.025 59.5768 213.284 58.3728 212.669C57.2035 212.057 55.9973 211.519 54.7611 211.056C53.5262 210.59 52.263 210.203 50.979 209.896C49.6664 209.568 48.3223 209.381 46.9697 209.339C48.0156 210.195 49.1505 210.937 50.3549 211.552C51.524 212.164 52.7306 212.701 53.9678 213.161C55.2036 213.625 56.467 214.011 57.7509 214.319C59.0635 214.646 60.4071 214.834 61.7593 214.879Z" fill="#5E7C24"/>
<path d="M64.934 220.46C64.0015 219.635 62.9772 218.92 61.8813 218.327C60.8222 217.74 59.7245 217.226 58.5957 216.788C57.4683 216.346 56.3117 215.982 55.1341 215.699C53.925 215.394 52.6845 215.23 51.4375 215.21C52.3685 216.037 53.3925 216.754 54.4891 217.346C55.5479 217.933 56.6461 218.446 57.7758 218.883C58.9041 219.322 60.061 219.685 61.2385 219.969C62.4475 220.273 63.6874 220.438 64.934 220.46Z" fill="#5E7C24"/>
<path d="M67.4426 224.756C66.6302 224.055 65.7288 223.463 64.7614 222.996C63.836 222.537 62.8755 222.152 61.889 221.845C60.9035 221.534 59.8944 221.303 58.8716 221.154C57.8095 220.987 56.7299 220.962 55.6611 221.079C56.4721 221.783 57.3734 222.376 58.3414 222.842C59.2667 223.302 60.2276 223.686 61.2149 223.991C62.2011 224.299 63.2103 224.529 64.233 224.678C65.2948 224.844 66.3739 224.871 67.4426 224.756Z" fill="#5E7C24"/>
<path d="M69.4238 228.612C68.5307 227.757 67.5418 227.008 66.4766 226.38C65.4483 225.759 64.3787 225.209 63.2752 224.733C62.1732 224.254 61.0391 223.852 59.8812 223.53C58.6923 223.185 57.4671 222.98 56.2305 222.918C57.1219 223.775 58.1105 224.525 59.1763 225.153C60.2044 225.774 61.2745 226.323 62.379 226.797C63.482 227.273 64.6163 227.674 65.7741 227.997C66.9629 228.341 68.1876 228.547 69.4238 228.612Z" fill="#5E7C24"/>
<path d="M58.1857 207.719C58.3505 206.519 58.3208 205.301 58.0978 204.111C57.9014 202.989 57.5925 201.889 57.1756 200.829C56.7626 199.767 56.2418 198.75 55.6213 197.793C54.9747 196.768 54.1652 195.853 53.2245 195.086C53.056 196.286 53.0843 197.505 53.3082 198.696C53.5041 199.818 53.8145 200.917 54.2344 201.977C54.6506 203.037 55.1727 204.054 55.7928 205.011C56.4397 206.035 57.2477 206.95 58.1857 207.719Z" fill="#5E7C24"/>
<path d="M127.704 155.727V152.327L130.433 154.707C130.433 154.707 135.207 152.667 137.935 154.82L141.573 152.327L140.777 156.407C141.182 158.617 141.448 160.85 141.573 163.092C141.573 163.092 159.477 174.438 158.454 190.19C158.454 190.19 158.478 192.336 156.504 195.987C155.444 197.91 154.118 199.675 152.564 201.23C150.481 203.323 148.832 205.805 147.711 208.533C147.711 208.533 144.993 209.587 146.572 204.885C147.341 202.653 148.624 200.631 150.318 198.981C152.166 197.155 154.83 194.057 155.896 190.516H132.251C132.251 190.516 132.749 188.373 133.901 188.02C133.901 188.02 129.296 178.504 128.386 174.651C127.477 170.798 128.386 163.772 128.386 163.772C128.386 163.772 126.454 159.353 127.704 155.727Z" fill="#EDEBEB"/>
<path d="M136.213 157.461C136.357 157.309 136.52 157.176 136.697 157.064C136.863 156.956 137.041 156.868 137.227 156.8C137.582 156.664 137.971 156.65 138.334 156.761C138.005 156.807 137.701 156.962 137.473 157.203C137.366 157.315 137.273 157.438 137.194 157.571C137.117 157.693 137.058 157.824 137.017 157.961C137 158.035 136.966 158.105 136.918 158.164C136.869 158.223 136.808 158.271 136.739 158.303C136.669 158.334 136.594 158.35 136.517 158.348C136.441 158.346 136.366 158.327 136.298 158.291C136.23 158.256 136.172 158.205 136.127 158.144C136.082 158.082 136.052 158.011 136.039 157.936C136.026 157.861 136.03 157.783 136.052 157.71C136.073 157.637 136.111 157.57 136.163 157.514L136.213 157.461Z" fill="#070707"/>
<path d="M130.828 157.961C130.786 157.824 130.727 157.693 130.651 157.571C130.571 157.438 130.478 157.315 130.371 157.203C130.143 156.962 129.839 156.807 129.51 156.761C129.873 156.65 130.262 156.664 130.617 156.8C130.803 156.868 130.981 156.956 131.147 157.064C131.324 157.176 131.487 157.309 131.631 157.461L131.679 157.512C131.724 157.56 131.759 157.616 131.782 157.678C131.805 157.739 131.815 157.804 131.813 157.869C131.811 157.935 131.795 157.999 131.768 158.058C131.741 158.118 131.702 158.171 131.654 158.216C131.606 158.26 131.55 158.295 131.488 158.318C131.427 158.34 131.362 158.351 131.296 158.349C131.231 158.346 131.166 158.331 131.107 158.304C131.047 158.276 130.993 158.238 130.949 158.19C130.889 158.125 130.847 158.047 130.828 157.961Z" fill="#070707"/>
<path d="M134.706 159.796C134.706 159.985 134.63 160.166 134.496 160.299C134.362 160.432 134.18 160.507 133.99 160.507C133.801 160.507 133.619 160.432 133.485 160.299C133.351 160.166 133.275 159.985 133.274 159.796C133.274 159.401 134.706 159.401 134.706 159.796Z" fill="#E2B5B5"/>
<path d="M145.779 157.232L137.549 160.229L137.444 159.77L146.12 158.9L137.504 160.239L137.398 159.781L145.779 157.232Z" fill="#CCC4C4"/>
<path d="M146.12 160.509C144.676 160.593 143.228 160.587 141.784 160.492C140.339 160.419 138.899 160.256 137.475 160.005C138.919 159.92 140.368 159.926 141.811 160.021C143.256 160.096 144.695 160.258 146.12 160.509Z" fill="#CCC4C4"/>
<path d="M121.711 157.232L130.091 159.781L129.986 160.239L121.37 158.9L130.046 159.77L129.941 160.229L121.711 157.232Z" fill="#CCC4C4"/>
<path d="M121.37 160.509C122.795 160.258 124.234 160.096 125.679 160.021C127.123 159.926 128.571 159.92 130.016 160.005C128.591 160.256 127.152 160.419 125.707 160.492C124.263 160.587 122.815 160.593 121.37 160.509Z" fill="#CCC4C4"/>
<path d="M134.447 168.924C135.292 168.924 135.976 168.241 135.976 167.399C135.976 166.557 135.292 165.875 134.447 165.875C133.603 165.875 132.918 166.557 132.918 167.399C132.918 168.241 133.603 168.924 134.447 168.924Z" fill="#EADD65"/>
<path d="M133.729 174.481L134.257 178.002L134.829 181.508C135.033 182.673 135.257 183.833 135.525 184.981L135.736 185.838L135.983 186.683C136.065 186.964 136.175 187.234 136.27 187.511C136.372 187.785 136.513 188.036 136.633 188.301L136.695 188.439L136.574 188.497C136.157 188.688 135.775 188.949 135.445 189.268C135.281 189.426 135.158 189.622 135.087 189.838C135.023 190.062 135.035 190.3 135.122 190.516C135.001 190.304 134.957 190.057 135 189.817C135.053 189.576 135.164 189.352 135.324 189.163C135.635 188.786 136.02 188.474 136.455 188.249L136.396 188.445C135.8 187.395 135.36 186.264 135.09 185.088C134.797 183.929 134.559 182.761 134.377 181.583C134.192 180.407 134.046 179.226 133.94 178.041C133.827 176.857 133.751 175.67 133.729 174.481Z" fill="#CCC4C4"/>
<path d="M151.463 175.869C150.648 175.101 149.698 174.489 148.66 174.066C147.644 173.632 146.517 173.524 145.437 173.757C144.378 174.041 143.421 174.616 142.673 175.416C141.891 176.182 141.279 177.104 140.877 178.122C140.521 179.146 140.461 180.25 140.703 181.308C140.953 182.377 141.395 183.392 142.008 184.303C143.257 186.148 144.804 187.773 146.589 189.111L147.017 189.438L146.493 189.333C145.799 189.179 145.084 189.146 144.378 189.236C144.027 189.277 143.692 189.409 143.406 189.617C143.125 189.84 142.94 190.161 142.89 190.515C142.916 190.148 143.083 189.805 143.357 189.558C143.644 189.323 143.987 189.166 144.353 189.102C145.076 188.965 145.818 188.962 146.543 189.091L146.447 189.314C144.571 188.023 142.947 186.403 141.653 184.533C141 183.584 140.526 182.525 140.253 181.406C139.979 180.266 140.049 179.07 140.455 177.969C140.889 176.896 141.546 175.927 142.382 175.125C143.188 174.282 144.227 173.695 145.366 173.438C146.509 173.223 147.691 173.378 148.739 173.881C149.769 174.359 150.695 175.034 151.463 175.869Z" fill="#CCC4C4"/>
<path d="M128.386 163.772C128.883 164.099 129.407 164.383 129.952 164.621C130.219 164.747 130.497 164.85 130.768 164.963C131.05 165.052 131.326 165.153 131.609 165.231C132.734 165.558 133.907 165.686 135.076 165.61C135.367 165.603 135.657 165.572 135.944 165.518C136.234 165.487 136.521 165.433 136.801 165.354L137.65 165.132L138.47 164.816L138.883 164.659C139.016 164.597 139.144 164.524 139.276 164.457L140.061 164.044C140.578 163.756 141.054 163.399 141.572 163.092C141.122 163.482 140.668 163.88 140.186 164.239L139.418 164.719C139.289 164.798 139.162 164.882 139.03 164.956L138.618 165.148C138.343 165.276 138.068 165.407 137.787 165.523L136.911 165.788C136.618 165.877 136.318 165.939 136.014 165.974C135.714 166.034 135.41 166.07 135.104 166.082C133.88 166.161 132.653 165.989 131.499 165.576C130.352 165.186 129.293 164.573 128.386 163.772Z" fill="#E2B5B5"/>
<path d="M162.806 55.3158L79.0776 55.2145C76.7646 55.2117 74.8874 57.0786 74.8846 59.3842L74.8099 120.715C74.8071 123.02 76.6798 124.892 78.9928 124.894L162.721 124.996C165.034 124.999 166.911 123.132 166.914 120.826L166.988 59.4956C166.991 57.19 165.119 55.3186 162.806 55.3158Z" fill="#E5E1E5"/>
<path d="M166.983 63.9815L74.8799 63.8701V63.4902L166.983 63.6021V63.9815Z" fill="#8D9AC9"/>
<path d="M80.0925 61.569C82.2972 61.569 82.3009 58.1533 80.0925 58.1533C77.8877 58.1533 77.884 61.569 80.0925 61.569Z" fill="#FFBA55"/>
<path d="M85.8034 61.5758C88.0082 61.5758 88.0118 58.1602 85.8034 58.1602C83.5986 58.1602 83.595 61.5758 85.8034 61.5758Z" fill="#F73C4F"/>
<path d="M91.1335 61.5822C93.3383 61.5822 93.3419 58.1665 91.1335 58.1665C88.9287 58.1665 88.925 61.5822 91.1335 61.5822Z" fill="#4F66D0"/>
<path d="M138.581 97.1532L103.22 97.1104V96.7305L138.581 96.7733V97.1532Z" fill="#8D9AC9"/>
<path d="M153.971 84.9985H87.8271V91.3681H153.971V84.9985Z" fill="#F7F7F9"/>
<path d="M102.151 81.4099C105.046 81.4099 105.051 76.9243 102.151 76.9243C99.2555 76.9243 99.2507 81.4099 102.151 81.4099Z" fill="#4F66D0"/>
<path d="M109.65 81.4099C112.545 81.4099 112.55 76.9243 109.65 76.9243C106.755 76.9243 106.75 81.4099 109.65 81.4099Z" fill="#F73C4F"/>
<path d="M117.15 81.4099C120.045 81.4099 120.05 76.9243 117.15 76.9243C114.255 76.9243 114.25 81.4099 117.15 81.4099Z" fill="#FFBA55"/>
<path d="M124.649 81.4099C127.544 81.4099 127.549 76.9243 124.649 76.9243C121.754 76.9243 121.749 81.4099 124.649 81.4099Z" fill="#4F66D0"/>
<path d="M132.149 81.4099C135.044 81.4099 135.049 76.9243 132.149 76.9243C129.254 76.9243 129.249 81.4099 132.149 81.4099Z" fill="#8B9D36"/>
<path d="M139.649 81.4099C142.544 81.4099 142.549 76.9243 139.649 76.9243C136.754 76.9243 136.749 81.4099 139.649 81.4099Z" fill="#F73C4F"/>
<path d="M151.411 88.4418C151.513 88.4418 151.614 88.4218 151.708 88.3829C151.802 88.3439 151.888 88.2869 151.96 88.2149C152.032 88.143 152.09 88.0575 152.129 87.9635C152.168 87.8695 152.188 87.7688 152.188 87.667V86.3761C152.188 86.1708 152.106 85.9739 151.96 85.8288C151.815 85.6836 151.617 85.6021 151.411 85.6021C151.205 85.6021 151.008 85.6836 150.862 85.8288C150.717 85.9739 150.635 86.1708 150.635 86.3761V87.667C150.635 87.7687 150.655 87.8694 150.693 87.9634C150.732 88.0574 150.789 88.1428 150.862 88.2148C150.934 88.2867 151.019 88.3438 151.113 88.3828C151.208 88.4217 151.309 88.4418 151.411 88.4418Z" fill="#4F66D0"/>
<path d="M152.705 87.4073V87.6089C152.711 87.9364 152.595 88.2544 152.38 88.5021C152.165 88.7498 151.866 88.9098 151.54 88.9514C151.36 88.9692 151.178 88.9493 151.007 88.8929C150.835 88.8365 150.677 88.7448 150.542 88.6239C150.408 88.5029 150.301 88.3552 150.227 88.1904C150.154 88.0256 150.116 87.8473 150.115 87.6669V87.4073C150.115 87.3736 150.109 87.3403 150.096 87.3092C150.083 87.2781 150.064 87.2498 150.04 87.226C150.016 87.2022 149.988 87.1833 149.957 87.1704C149.925 87.1575 149.892 87.1509 149.858 87.1509H149.855C149.821 87.1509 149.788 87.1575 149.756 87.1704C149.725 87.1833 149.697 87.2022 149.673 87.226C149.649 87.2498 149.63 87.2781 149.617 87.3092C149.604 87.3403 149.598 87.3736 149.598 87.4073V87.6669C149.598 88.1009 149.756 88.5201 150.041 88.848C150.326 89.1759 150.72 89.3907 151.151 89.4532V90.2472H150.633C150.564 90.2475 150.499 90.2749 150.45 90.3234C150.402 90.3719 150.375 90.4375 150.375 90.5059C150.375 90.5744 150.402 90.64 150.45 90.6885C150.499 90.737 150.564 90.7644 150.633 90.7647H152.186C152.255 90.7644 152.32 90.737 152.369 90.6885C152.417 90.64 152.445 90.5744 152.445 90.5059C152.445 90.4375 152.417 90.3719 152.369 90.3234C152.32 90.2749 152.255 90.2475 152.186 90.2472H151.668V89.4532C152.099 89.3909 152.493 89.1762 152.778 88.8482C153.064 88.5202 153.221 88.1009 153.222 87.6669V87.4073C153.222 87.3736 153.215 87.3403 153.202 87.3092C153.189 87.2781 153.17 87.2498 153.146 87.226C153.122 87.2022 153.094 87.1833 153.063 87.1704C153.032 87.1575 152.998 87.1509 152.964 87.1509H152.962C152.929 87.1509 152.895 87.1575 152.864 87.1704C152.833 87.1833 152.804 87.2022 152.781 87.226C152.757 87.2498 152.738 87.2781 152.725 87.3092C152.712 87.3403 152.705 87.3736 152.705 87.4073Z" fill="#F73C4F"/>
<path d="M111.563 86H111V91.1633H111.563V86Z" fill="black"/>
<path d="M89.6924 88.746C90.8879 89.828 92.5767 87.9777 91.3792 86.8939C90.1837 85.812 88.4949 87.6623 89.6924 88.746Z" fill="#E5E1E5"/>
<path d="M92.724 90.0087C92.6721 90.0088 92.622 89.9896 92.5836 89.9549L91.2923 88.7863C91.272 88.7679 91.2555 88.7457 91.2437 88.721C91.232 88.6962 91.2252 88.6694 91.2239 88.642C91.2225 88.6147 91.2266 88.5874 91.2359 88.5616C91.2451 88.5358 91.2594 88.5121 91.2778 88.4918C91.2963 88.4715 91.3185 88.4551 91.3434 88.4433C91.3682 88.4316 91.3951 88.4249 91.4225 88.4236C91.45 88.4222 91.4774 88.4263 91.5033 88.4355C91.5291 88.4448 91.5529 88.459 91.5732 88.4774L92.8645 89.6459C92.8958 89.6742 92.9178 89.7112 92.9275 89.7522C92.9373 89.7932 92.9344 89.8361 92.9192 89.8754C92.904 89.9147 92.8772 89.9484 92.8424 89.9722C92.8075 89.996 92.7663 90.0088 92.724 90.0087V90.0087Z" fill="#E5E1E5"/>
<path d="M182.625 115.111L174.938 103.808L175.949 101.802C176.022 101.297 175.983 100.782 175.835 100.294L174.727 96.6412C174.727 96.6412 173.742 95.1576 170.682 95.5909C170.682 95.5909 170.045 96.843 173.253 97.9781L172.462 99.1352L169.741 97.0878L167.824 95.9776C167.824 95.9776 166.505 92.8084 166.067 92.5348C166.067 92.5348 163.072 90.924 166.704 96.9281L166.683 99.5491C166.678 100.122 166.82 100.686 167.096 101.188C167.373 101.69 167.773 102.113 168.26 102.417L170.801 104.931L179.629 126.963C180.569 128.909 181.64 130.715 183.806 130.715L182.625 115.111Z" fill="#A96E46"/>
<path d="M170.957 103.004L171.151 102.947C171.239 102.922 171.32 102.877 171.389 102.817C171.458 102.757 171.512 102.682 171.549 102.598C171.585 102.514 171.602 102.424 171.599 102.332C171.596 102.241 171.573 102.152 171.532 102.07L165.664 90.6063C165.627 90.5327 165.575 90.4674 165.511 90.4141C165.448 90.3609 165.375 90.3208 165.295 90.2962C165.216 90.2716 165.133 90.263 165.051 90.2709C164.968 90.2788 164.888 90.3031 164.815 90.3423C164.674 90.4184 164.567 90.5462 164.518 90.6989C164.469 90.8516 164.481 91.0173 164.552 91.1613L170.225 102.681C170.29 102.812 170.398 102.916 170.532 102.975C170.666 103.034 170.816 103.044 170.957 103.004Z" fill="#1B2E35"/>
<path d="M167.337 101.563L170.056 102.675C170.174 102.723 170.305 102.728 170.426 102.689C170.547 102.651 170.65 102.57 170.718 102.463C170.757 102.4 170.783 102.33 170.794 102.257C170.805 102.184 170.801 102.11 170.782 102.038C170.763 101.967 170.729 101.901 170.683 101.843C170.637 101.785 170.579 101.737 170.514 101.703L167.365 100.034L169.759 100.782C169.846 100.809 169.937 100.819 170.028 100.811C170.119 100.802 170.207 100.776 170.287 100.733C170.367 100.691 170.438 100.633 170.496 100.562C170.553 100.492 170.596 100.411 170.622 100.324C170.674 100.151 170.655 99.9642 170.569 99.805C170.482 99.6458 170.337 99.527 170.163 99.4747L167.74 98.7444L169.954 98.7784C170.105 98.7807 170.25 98.7251 170.361 98.6231C170.472 98.5212 170.539 98.3807 170.549 98.2307C170.558 98.0896 170.516 97.9499 170.43 97.8375C170.344 97.7251 170.22 97.6476 170.081 97.6191L166.703 96.9282" fill="#A96E46"/>
<path d="M170.906 102.085C170.893 101.983 170.855 101.885 170.797 101.8C170.738 101.714 170.66 101.644 170.569 101.594L170.124 101.348L169.233 100.856L169 100.73L169.03 100.74L169.459 100.876L169.673 100.945C169.76 100.975 169.851 100.992 169.943 100.995C170.135 101 170.323 100.942 170.478 100.83C170.633 100.717 170.746 100.556 170.799 100.373C170.852 100.189 170.843 99.9935 170.772 99.816C170.702 99.6384 170.574 99.4892 170.409 99.3918C170.261 99.32 170.105 99.2646 169.945 99.2269L169.514 99.0996L168.872 98.9103C169.11 98.9106 169.348 98.9145 169.587 98.9128C169.751 98.908 169.874 98.9221 170.071 98.9017C170.164 98.8863 170.252 98.8529 170.332 98.8033C170.412 98.7536 170.481 98.6888 170.536 98.6124C170.644 98.4607 170.687 98.2726 170.656 98.0893C170.625 97.906 170.523 97.7423 170.371 97.6339C170.297 97.5817 170.213 97.5446 170.124 97.5248L169.893 97.4809L169.438 97.3978L168.527 97.239L166.703 96.9287L168.502 97.3595L169.403 97.5713L169.854 97.6735C169.993 97.6881 170.126 97.7335 170.245 97.8063C170.345 97.882 170.41 97.9939 170.428 98.1176C170.445 98.2413 170.412 98.3668 170.337 98.4666C170.3 98.5145 170.254 98.5546 170.202 98.5846C170.149 98.6147 170.091 98.6341 170.031 98.6418C169.921 98.6509 169.735 98.6355 169.591 98.6336C168.975 98.6106 168.359 98.5939 167.742 98.5835C167.707 98.5831 167.673 98.5942 167.644 98.6149C167.616 98.6356 167.595 98.6649 167.584 98.6985C167.578 98.7188 167.576 98.7401 167.578 98.7612C167.581 98.7823 167.587 98.8028 167.597 98.8214C167.607 98.8401 167.621 98.8566 167.637 98.87C167.654 98.8834 167.673 98.8934 167.693 98.8995L169.414 99.4291L169.844 99.5615C169.975 99.5941 170.103 99.6392 170.226 99.6963C170.321 99.7544 170.394 99.842 170.434 99.9456C170.474 100.049 170.479 100.163 170.447 100.27C170.415 100.375 170.349 100.467 170.26 100.533C170.171 100.598 170.063 100.633 169.952 100.632C169.894 100.631 169.836 100.62 169.782 100.601L169.566 100.535L169.136 100.403L167.414 99.8768C167.377 99.8653 167.337 99.8671 167.301 99.8819C167.265 99.8967 167.235 99.9235 167.216 99.9578C167.206 99.9771 167.2 99.9981 167.198 100.02C167.196 100.041 167.199 100.063 167.205 100.084C167.212 100.105 167.222 100.124 167.236 100.141C167.25 100.157 167.267 100.171 167.287 100.181L169.093 101.119L170.001 101.579L170.454 101.81C170.514 101.839 170.566 101.883 170.605 101.936C170.645 101.99 170.671 102.052 170.682 102.118C170.693 102.185 170.687 102.254 170.665 102.319C170.644 102.384 170.607 102.443 170.559 102.491C170.51 102.54 170.451 102.576 170.386 102.597C170.321 102.618 170.251 102.624 170.183 102.614C169.898 102.527 169.557 102.384 169.246 102.272L167.337 101.563L169.195 102.395C169.516 102.529 169.792 102.678 170.15 102.8C170.25 102.818 170.353 102.812 170.45 102.783C170.547 102.754 170.636 102.703 170.71 102.634C170.783 102.564 170.839 102.478 170.874 102.383C170.908 102.288 170.919 102.186 170.906 102.085Z" fill="#A96E46"/>
<path d="M212.512 201.25L221.314 205.395C221.314 205.395 220.019 210.843 213.218 210.251L208.365 207.271L212.512 201.25Z" fill="#A96E46"/>
<path d="M216.645 203.214C216.645 203.214 223.578 202.911 224.737 206.724C224.796 206.923 224.807 207.132 224.771 207.336C224.734 207.54 224.651 207.733 224.526 207.899L211.742 225.134C211.683 225.213 211.608 225.278 211.522 225.326C211.436 225.375 211.341 225.404 211.243 225.413C211.145 225.422 211.046 225.41 210.953 225.378C210.859 225.347 210.774 225.296 210.702 225.229C209.875 224.474 213.069 216.378 212.549 209.841C212.549 209.841 217.715 206.494 216.645 203.214Z" fill="#376F92"/>
<path d="M186.643 217.431L188.48 226.961C188.48 226.961 183.305 229.134 179.769 223.311L179.319 217.647L186.643 217.431Z" fill="#A96E46"/>
<path d="M187.491 221.916C187.491 221.916 191.828 227.317 189.424 230.5C189.298 230.664 189.135 230.797 188.948 230.888C188.762 230.979 188.556 231.025 188.348 231.023L166.846 230.907C166.747 230.906 166.65 230.885 166.56 230.844C166.471 230.803 166.391 230.744 166.325 230.67C166.26 230.596 166.211 230.51 166.182 230.416C166.153 230.322 166.144 230.223 166.155 230.126C166.279 229.015 174.657 226.726 179.644 222.45C179.644 222.45 185.467 224.713 187.491 221.916Z" fill="#376F92"/>
<path d="M180.154 144.611L176.117 181.978L177.054 219.725C177.061 219.982 177.168 220.226 177.352 220.406C177.537 220.586 177.785 220.686 178.043 220.686H186.76C187.004 220.686 187.24 220.596 187.422 220.433C187.603 220.269 187.718 220.045 187.743 219.803L190.15 196.733L207.52 209.309C207.632 209.391 207.76 209.447 207.896 209.476C208.032 209.505 208.173 209.504 208.308 209.475C208.444 209.446 208.572 209.389 208.684 209.307C208.796 209.225 208.89 209.121 208.959 209.001L213.401 201.252C213.512 201.058 213.554 200.831 213.519 200.609C213.484 200.388 213.374 200.185 213.207 200.034L194.956 183.511L198.993 162.624L202.701 155.6C204.046 153.052 204.648 150.179 204.439 147.308L203.991 141.162L180.154 144.611Z" fill="#376F92"/>
<path d="M181.691 147.294L181.394 154.098L181.062 160.9L180.395 174.504L180.024 181.304L179.838 184.704C179.74 185.828 179.877 186.961 180.242 188.029C180.615 189.096 181.21 190.072 181.987 190.894C182.746 191.738 183.538 192.553 184.372 193.322C185.195 194.105 186.082 194.816 187.026 195.449C187.953 196.113 189.022 196.552 190.149 196.733C189.016 196.569 187.937 196.146 186.996 195.496C186.038 194.876 185.136 194.176 184.297 193.403C183.453 192.638 182.656 191.823 181.89 190.982C181.095 190.15 180.485 189.161 180.099 188.079C179.723 186.993 179.576 185.84 179.669 184.695L179.835 181.294L180.169 174.492L180.912 160.892L181.284 154.092L181.691 147.294Z" fill="#10394F"/>
<path d="M191.688 183.894C191.964 183.998 192.249 184.077 192.539 184.133C192.821 184.191 193.109 184.209 193.396 184.186C193.681 184.173 193.96 184.104 194.218 183.983C194.484 183.859 194.732 183.7 194.955 183.511C194.787 183.767 194.562 183.981 194.298 184.137C194.027 184.294 193.725 184.388 193.412 184.411C192.795 184.445 192.184 184.262 191.688 183.894Z" fill="#10394F"/>
<path d="M186.5 96C186.5 96 181.724 111.624 195 96.5L201.249 98.9138C202.464 99.9198 203.309 101.301 203.648 102.839L208.026 122.67H202.692L203.99 141.162L178.976 144.803C178.976 144.803 179.94 116.264 186.5 96Z" fill="#F73C4F"/>
<path d="M182.22 139.486C182.671 139.223 183.131 138.984 183.584 138.733L184.915 137.937C185.781 137.384 186.608 136.772 187.39 136.105C188.173 135.445 188.88 134.701 189.498 133.885C189.803 133.474 190.074 133.039 190.309 132.584C190.559 132.133 190.747 131.651 190.87 131.15C190.735 132.195 190.352 133.193 189.751 134.06C189.167 134.937 188.46 135.727 187.652 136.406C186.854 137.088 185.99 137.688 185.072 138.2L183.673 138.907C183.187 139.1 182.708 139.305 182.22 139.486Z" fill="#B02336"/>
<path d="M196.374 122.998L198.08 132.443L191.52 147.965L188.601 150.695C189.051 153.45 190.286 156.018 192.159 158.093C192.159 158.093 194.115 154.504 193.971 150.767L205.857 137.113C206.707 136.137 207.331 134.986 207.686 133.743C208.04 132.5 208.117 131.194 207.909 129.918L206.73 122.67C206.73 122.67 199.859 120.163 196.374 122.998Z" fill="#A96E46"/>
<path d="M197.215 97.8071C197.215 97.8071 190.09 98.8132 191.778 108.73C193.466 118.646 194.367 123.101 194.367 123.101L208.028 122.67" fill="#F73C4F"/>
<path d="M197.214 97.8071C196.062 98.0636 194.998 98.6168 194.128 99.4115C193.269 100.202 192.62 101.192 192.238 102.292C192.043 102.839 191.899 103.401 191.806 103.974C191.761 104.26 191.753 104.552 191.725 104.841C191.69 105.129 191.678 105.419 191.687 105.71C191.708 106.876 191.826 108.038 192.039 109.184L193.312 116.121L194.538 123.067L194.361 122.927C196.638 122.855 198.916 122.824 201.193 122.771C203.47 122.717 205.749 122.705 208.027 122.67C205.751 122.779 203.476 122.911 201.2 123.001C198.924 123.092 196.649 123.204 194.372 123.276L194.221 123.281L194.195 123.136L192.919 116.194L191.691 109.243C191.477 108.076 191.372 106.892 191.378 105.706C191.375 105.408 191.394 105.111 191.435 104.816C191.47 104.521 191.485 104.223 191.537 103.93C191.645 103.343 191.806 102.768 192.018 102.21C192.426 101.09 193.12 100.095 194.031 99.3233C194.942 98.5513 196.039 98.0288 197.214 97.8071Z" fill="#B02336"/>
<path d="M188.02 147.61C188.092 148.26 188.199 148.906 188.34 149.544C188.467 150.184 188.629 150.816 188.816 151.438C189.181 152.684 189.672 153.889 190.282 155.035C190.876 156.186 191.628 157.249 192.516 158.194L193.194 158.893L193.946 159.513L194.321 159.828L194.73 160.097C195.003 160.276 195.276 160.458 195.548 160.646C194.342 160.093 193.241 159.336 192.295 158.408C191.35 157.471 190.552 156.397 189.929 155.222C189.319 154.045 188.846 152.803 188.52 151.519C188.192 150.241 188.024 148.928 188.02 147.61Z" fill="#10394F"/>
<path d="M169.804 87.0551C169.961 87.0551 170.116 87.0243 170.261 86.9645C170.406 86.9046 170.538 86.8169 170.649 86.7063C170.76 86.5957 170.848 86.4644 170.908 86.3199C170.968 86.1754 170.999 86.0205 170.999 85.8641V83.8798C170.999 83.5643 170.873 83.2616 170.649 83.0385C170.425 82.8153 170.122 82.6899 169.805 82.6899C169.488 82.6899 169.185 82.8153 168.961 83.0385C168.737 83.2616 168.611 83.5643 168.611 83.8798V85.8641C168.611 86.0204 168.642 86.1752 168.702 86.3197C168.761 86.4642 168.849 86.5955 168.96 86.7061C169.071 86.8167 169.202 86.9045 169.347 86.9643C169.492 87.0242 169.647 87.0551 169.804 87.0551Z" fill="#4F66D0"/>
<path d="M171.794 85.465V85.7748C171.803 86.2782 171.625 86.7671 171.295 87.1479C170.964 87.5287 170.505 87.7746 170.004 87.8385C169.727 87.8659 169.447 87.8353 169.183 87.7486C168.919 87.6619 168.676 87.521 168.47 87.335C168.263 87.1491 168.098 86.9221 167.985 86.6688C167.872 86.4155 167.814 86.1413 167.813 85.8641V85.465C167.813 85.3604 167.772 85.2602 167.698 85.1863C167.623 85.1123 167.523 85.0708 167.418 85.0708H167.413C167.308 85.0708 167.208 85.1123 167.133 85.1863C167.059 85.2602 167.018 85.3604 167.018 85.465V85.8641C167.019 86.5311 167.261 87.1755 167.699 87.6796C168.137 88.1836 168.743 88.5138 169.405 88.6099V89.8304H168.609C168.557 89.8302 168.505 89.8404 168.456 89.8603C168.407 89.8802 168.363 89.9095 168.326 89.9464C168.289 89.9834 168.259 90.0273 168.239 90.0756C168.219 90.124 168.209 90.1758 168.209 90.2281C168.209 90.2805 168.219 90.3323 168.239 90.3807C168.259 90.429 168.289 90.4729 168.326 90.5099C168.363 90.5468 168.407 90.5761 168.456 90.596C168.505 90.6159 168.557 90.626 168.609 90.6259H170.996C171.049 90.626 171.101 90.6159 171.15 90.596C171.198 90.5761 171.242 90.5468 171.279 90.5099C171.317 90.4729 171.346 90.429 171.366 90.3807C171.386 90.3323 171.397 90.2805 171.397 90.2281C171.397 90.1758 171.386 90.124 171.366 90.0756C171.346 90.0273 171.317 89.9834 171.279 89.9464C171.242 89.9095 171.198 89.8802 171.15 89.8603C171.101 89.8404 171.049 89.8302 170.996 89.8304H170.201V88.6099C170.863 88.5141 171.469 88.184 171.907 87.6799C172.345 87.1758 172.587 86.5312 172.588 85.8641V85.465C172.588 85.3604 172.546 85.2602 172.472 85.1863C172.398 85.1123 172.297 85.0708 172.193 85.0708H172.19C172.085 85.0708 171.984 85.1124 171.91 85.1863C171.836 85.2602 171.794 85.3605 171.794 85.465Z" fill="#F73C4F"/>
<path d="M273.74 230.781L274.127 230.549C274.018 230.368 263.233 212.451 261.554 207.987L261.131 208.145C262.825 212.648 273.295 230.042 273.74 230.781Z" fill="#8B9D36"/>
<path d="M264.998 198.592C264.542 199.718 264.193 200.884 263.956 202.075C263.713 203.242 263.536 204.421 263.423 205.607C263.307 206.792 263.258 207.984 263.276 209.175C263.283 210.389 263.406 211.601 263.644 212.792C264.103 211.667 264.453 210.5 264.689 209.309C264.932 208.142 265.109 206.963 265.219 205.777C265.333 204.591 265.381 203.4 265.364 202.209C265.356 200.994 265.234 199.783 264.998 198.592Z" fill="#8B9D36"/>
<path d="M268.978 204.018C268.422 205.066 267.969 206.166 267.625 207.302C267.278 208.412 266.994 209.54 266.775 210.682C266.553 211.824 266.396 212.977 266.306 214.136C266.203 215.318 266.216 216.507 266.345 217.686C266.903 216.638 267.357 215.539 267.7 214.403C268.047 213.293 268.33 212.164 268.547 211.022C268.768 209.88 268.924 208.727 269.014 207.568C269.116 206.386 269.104 205.197 268.978 204.018Z" fill="#8B9D36"/>
<path d="M271.172 210.333C270.682 211.308 270.296 212.331 270.02 213.386C269.741 214.414 269.526 215.457 269.376 216.511C269.222 217.564 269.135 218.626 269.115 219.69C269.083 220.78 269.167 221.871 269.366 222.943C269.858 221.969 270.245 220.946 270.52 219.89C270.799 218.863 271.014 217.819 271.162 216.765C271.313 215.712 271.4 214.65 271.42 213.585C271.451 212.496 271.368 211.406 271.172 210.333Z" fill="#8B9D36"/>
<path d="M273.934 216.638C273.442 217.455 273.05 218.327 272.766 219.236C272.482 220.114 272.26 221.011 272.103 221.921C271.943 222.83 271.849 223.749 271.822 224.671C271.784 225.623 271.86 226.576 272.051 227.509C272.544 226.694 272.937 225.822 273.221 224.912C273.506 224.034 273.726 223.137 273.881 222.227C274.039 221.318 274.132 220.398 274.16 219.476C274.198 218.524 274.122 217.572 273.934 216.638Z" fill="#8B9D36"/>
<path d="M276.37 220.579C275.868 221.287 275.455 222.053 275.137 222.86C274.826 223.63 274.567 224.421 274.362 225.226C274.159 226.025 274.003 226.835 273.894 227.653C273.843 228.064 273.797 228.474 273.766 228.891C273.75 229.317 273.705 229.741 273.63 230.16C273.734 230.104 273.834 230.041 273.93 229.971L274.173 229.728C274.328 229.563 274.47 229.385 274.598 229.198C274.845 228.837 275.064 228.457 275.253 228.063C275.619 227.296 275.906 226.494 276.111 225.669C276.32 224.852 276.455 224.018 276.515 223.177C276.588 222.308 276.539 221.434 276.37 220.579Z" fill="#8B9D36"/>
<path d="M262.631 210.852C261.812 209.957 260.89 209.16 259.885 208.479C258.917 207.808 257.903 207.205 256.85 206.675C255.799 206.141 254.712 205.682 253.596 205.302C252.45 204.897 251.26 204.629 250.051 204.503C250.868 205.401 251.789 206.199 252.795 206.88C253.763 207.551 254.778 208.153 255.831 208.681C256.883 209.212 257.971 209.67 259.087 210.051C260.232 210.455 261.422 210.724 262.631 210.852Z" fill="#8B9D36"/>
<path d="M265.328 215.873C264.28 215.019 263.145 214.279 261.941 213.663C260.772 213.052 259.566 212.513 258.329 212.051C257.095 211.585 255.831 211.197 254.547 210.891C253.235 210.563 251.891 210.376 250.538 210.333C251.584 211.19 252.719 211.931 253.923 212.546C255.092 213.158 256.299 213.696 257.536 214.156C258.772 214.619 260.035 215.006 261.319 215.313C262.632 215.641 263.975 215.828 265.328 215.873Z" fill="#8B9D36"/>
<path d="M268.501 221.455C267.569 220.63 266.545 219.914 265.449 219.321C264.39 218.735 263.292 218.221 262.163 217.782C261.036 217.341 259.879 216.977 258.701 216.693C257.492 216.389 256.252 216.225 255.005 216.205C255.936 217.032 256.96 217.749 258.056 218.341C259.115 218.928 260.213 219.441 261.343 219.877C262.472 220.317 263.628 220.68 264.806 220.964C266.015 221.267 267.255 221.432 268.501 221.455Z" fill="#8B9D36"/>
<path d="M271.012 225.752C270.2 225.05 269.298 224.458 268.331 223.991C267.405 223.532 266.445 223.147 265.458 222.84C264.473 222.529 263.464 222.298 262.441 222.15C261.379 221.982 260.299 221.957 259.23 222.074C260.041 222.778 260.943 223.371 261.911 223.837C262.836 224.297 263.797 224.681 264.784 224.986C265.77 225.294 266.78 225.524 267.802 225.673C268.864 225.84 269.943 225.866 271.012 225.752Z" fill="#8B9D36"/>
<path d="M272.992 229.606C272.099 228.752 271.11 228.003 270.045 227.374C269.017 226.753 267.947 226.203 266.844 225.728C265.742 225.249 264.607 224.847 263.45 224.524C262.261 224.18 261.035 223.974 259.799 223.913C260.69 224.769 261.679 225.519 262.745 226.148C263.773 226.769 264.843 227.318 265.947 227.791C267.05 228.268 268.185 228.669 269.342 228.992C270.531 229.336 271.756 229.542 272.992 229.606Z" fill="#8B9D36"/>
<path d="M261.754 208.714C261.919 207.515 261.889 206.296 261.666 205.106C261.47 203.984 261.161 202.884 260.744 201.824C260.331 200.762 259.81 199.745 259.19 198.788C258.543 197.763 257.734 196.848 256.793 196.082C256.624 197.281 256.653 198.5 256.877 199.691C257.073 200.813 257.383 201.912 257.803 202.972C258.219 204.033 258.741 205.049 259.361 206.006C260.008 207.031 260.816 207.945 261.754 208.714Z" fill="#8B9D36"/>
<path d="M274.903 231.023L275.354 231.016C275.334 229.787 274.799 200.804 268.983 191.625L268.602 191.866C274.35 200.939 274.898 230.724 274.903 231.023Z" fill="#50661A"/>
<path d="M270.661 195.765C270.482 194.421 270.437 193.062 270.526 191.708C270.601 190.389 270.747 189.076 270.965 187.773C271.176 186.475 271.463 185.19 271.8 183.916C272.137 182.633 272.562 181.399 273.016 180.084C273.145 180.411 273.242 180.749 273.308 181.093C273.38 181.431 273.433 181.774 273.467 182.118C273.537 182.794 273.568 183.473 273.558 184.153C273.538 185.489 273.416 186.822 273.191 188.14C272.972 189.454 272.663 190.751 272.265 192.023C271.872 193.326 271.334 194.581 270.661 195.765Z" fill="#50661A"/>
<path d="M263.512 177.412C264.511 178.373 265.369 179.471 266.058 180.673C266.729 181.813 267.3 183.009 267.764 184.247C268.232 185.483 268.591 186.759 268.835 188.058C269.108 189.416 269.183 190.806 269.058 192.185C268.056 191.226 267.197 190.129 266.509 188.926C265.837 187.786 265.267 186.59 264.806 185.35C264.341 184.113 263.984 182.837 263.739 181.538C263.467 180.18 263.391 178.791 263.512 177.412Z" fill="#50661A"/>
<path d="M258.719 184.798C259.905 185.748 261.025 186.777 262.071 187.878C263.107 188.948 264.096 190.043 265.064 191.144L267.938 194.432C268.42 194.97 268.907 195.501 269.422 196.003C269.931 196.536 270.523 196.982 271.176 197.324C270.778 197.393 270.37 197.383 269.975 197.294C269.578 197.215 269.19 197.093 268.819 196.931C268.092 196.613 267.402 196.218 266.759 195.754C265.512 194.844 264.374 193.794 263.366 192.625C262.364 191.48 261.463 190.251 260.67 188.953C259.855 187.651 259.2 186.256 258.719 184.798Z" fill="#50661A"/>
<path d="M258.719 192.185C260.181 192.913 261.575 193.768 262.886 194.74C264.184 195.686 265.432 196.697 266.626 197.77C267.822 198.84 268.962 199.971 270.041 201.158C271.149 202.356 272.147 203.651 273.023 205.026C271.56 204.3 270.164 203.446 268.854 202.473C267.556 201.527 266.309 200.515 265.116 199.441C263.921 198.369 262.782 197.238 261.703 196.05C260.596 194.852 259.597 193.559 258.719 192.185Z" fill="#50661A"/>
<path d="M259.207 197.98C260.68 198.664 262.089 199.476 263.418 200.408C264.732 201.313 265.999 202.285 267.213 203.32C268.429 204.353 269.591 205.447 270.693 206.6C271.824 207.763 272.848 209.025 273.753 210.37C272.279 209.689 270.869 208.878 269.54 207.945C268.226 207.04 266.96 206.067 265.747 205.03C264.532 203.996 263.371 202.901 262.269 201.748C261.139 200.585 260.114 199.324 259.207 197.98Z" fill="#50661A"/>
<path d="M259.531 204.175C260.997 204.725 262.409 205.407 263.749 206.215C265.072 206.997 266.352 207.848 267.584 208.766C268.818 209.681 270.001 210.661 271.128 211.704C272.286 212.755 273.344 213.912 274.286 215.158C272.82 214.611 271.407 213.929 270.067 213.121C268.744 212.34 267.464 211.487 266.234 210.568C265.001 209.651 263.819 208.67 262.691 207.627C261.534 206.576 260.476 205.42 259.531 204.175Z" fill="#50661A"/>
<path d="M259.207 208.669C260.74 209.284 262.217 210.032 263.62 210.903C265.007 211.749 266.351 212.664 267.646 213.645C268.943 214.623 270.189 215.666 271.379 216.772C272.598 217.884 273.716 219.102 274.72 220.411C273.186 219.799 271.709 219.052 270.306 218.18C268.918 217.335 267.575 216.419 266.282 215.436C264.986 214.456 263.741 213.412 262.551 212.307C261.332 211.194 260.213 209.977 259.207 208.669Z" fill="#50661A"/>
<path d="M258.069 212.88C259.666 213.621 261.207 214.473 262.682 215.432C264.147 216.367 265.564 217.355 266.945 218.386C268.33 219.411 269.678 220.48 271.001 221.584C272.338 222.679 273.601 223.82 274.984 224.949C274.096 224.803 273.228 224.551 272.401 224.198C271.582 223.856 270.781 223.472 270.003 223.047C268.471 222.193 266.999 221.237 265.595 220.188C264.196 219.142 262.859 218.018 261.591 216.819C260.298 215.617 259.119 214.298 258.069 212.88Z" fill="#50661A"/>
<path d="M256.688 217.253C258.414 217.922 260.088 218.715 261.698 219.626C263.297 220.515 264.85 221.468 266.366 222.472C267.883 223.476 269.364 224.531 270.807 225.639C271.529 226.194 272.244 226.759 272.952 227.334C273.637 227.939 274.364 228.494 275.129 228.995C274.649 228.995 274.173 228.914 273.721 228.754C273.268 228.62 272.828 228.458 272.392 228.288C271.524 227.944 270.685 227.551 269.861 227.135C268.228 226.296 266.644 225.364 265.117 224.345C263.59 223.332 262.116 222.243 260.701 221.082C259.259 219.919 257.917 218.638 256.688 217.253Z" fill="#50661A"/>
<path d="M272.061 200.909C272.134 199.448 272.351 197.998 272.708 196.579C273.045 195.186 273.462 193.813 273.957 192.468C274.447 191.121 275.016 189.803 275.66 188.522C276.305 187.208 277.079 185.961 277.971 184.798C277.9 186.26 277.685 187.711 277.327 189.13C276.99 190.523 276.572 191.895 276.075 193.24C275.582 194.586 275.012 195.903 274.368 197.184C273.723 198.498 272.95 199.746 272.061 200.909Z" fill="#50661A"/>
<path d="M273.024 205.966C273.301 204.513 273.719 203.089 274.271 201.716C274.801 200.366 275.406 199.047 276.084 197.765C276.76 196.481 277.508 195.236 278.326 194.038C279.15 192.807 280.092 191.659 281.14 190.611C280.866 192.065 280.449 193.489 279.896 194.862C279.367 196.213 278.761 197.532 278.08 198.813C277.403 200.096 276.653 201.339 275.836 202.538C275.012 203.769 274.07 204.917 273.024 205.966Z" fill="#50661A"/>
<path d="M273.753 210.856C274.228 209.381 274.839 207.953 275.578 206.59C276.292 205.246 277.079 203.941 277.933 202.681C278.785 201.419 279.706 200.204 280.691 199.043C281.683 197.85 282.785 196.753 283.983 195.765C283.511 197.241 282.901 198.67 282.161 200.033C281.447 201.377 280.66 202.682 279.803 203.94C278.949 205.201 278.028 206.415 277.043 207.577C276.05 208.769 274.949 209.867 273.753 210.856Z" fill="#50661A"/>
<path d="M274.287 216.251C275.032 214.656 275.905 213.125 276.9 211.672C277.871 210.227 278.907 208.836 280.009 207.497C281.106 206.156 282.267 204.866 283.492 203.628C284.722 202.367 286.055 201.209 287.476 200.167C286.735 201.763 285.862 203.295 284.866 204.748C283.895 206.192 282.858 207.583 281.755 208.921C280.655 210.26 279.493 211.549 278.269 212.788C277.039 214.048 275.707 215.207 274.287 216.251Z" fill="#50661A"/>
<path d="M274.72 221.845C275.632 220.329 276.667 218.89 277.814 217.541C278.936 216.198 280.118 214.914 281.359 213.69C282.597 212.462 283.892 211.293 285.246 210.182C286.606 209.047 288.059 208.027 289.588 207.131C288.678 208.649 287.644 210.089 286.496 211.437C285.373 212.78 284.191 214.063 282.948 215.286C281.709 216.511 280.412 217.68 279.06 218.792C277.698 219.925 276.247 220.946 274.72 221.845Z" fill="#50661A"/>
<path d="M274.983 225.432C275.996 224.124 277.121 222.907 278.345 221.794C279.541 220.689 280.792 219.644 282.093 218.664C283.391 217.682 284.74 216.766 286.133 215.92C287.541 215.049 289.023 214.303 290.562 213.69C289.552 215 288.428 216.218 287.203 217.331C286.007 218.437 284.756 219.48 283.453 220.458C282.153 221.439 280.804 222.354 279.411 223.2C278.003 224.071 276.522 224.818 274.983 225.432Z" fill="#50661A"/>
<path d="M275.128 228.428C276.342 227.234 277.656 226.146 279.055 225.173C280.429 224.2 281.844 223.299 283.3 222.472C284.755 221.64 286.25 220.88 287.786 220.19C289.336 219.48 290.945 218.904 292.593 218.468C291.381 219.664 290.067 220.753 288.667 221.725C287.294 222.699 285.879 223.598 284.421 224.424C282.965 225.253 281.469 226.012 279.933 226.703C278.383 227.412 276.776 227.989 275.128 228.428Z" fill="#50661A"/>
<path d="M275.016 230.372C276.473 229.369 278.01 228.487 279.61 227.733C281.187 226.975 282.794 226.299 284.428 225.694C286.061 225.088 287.723 224.559 289.413 224.107C291.12 223.637 292.863 223.308 294.624 223.124C293.168 224.129 291.632 225.012 290.03 225.765C288.454 226.524 286.848 227.203 285.212 227.802C283.578 228.405 281.917 228.937 280.225 229.386C278.518 229.855 276.776 230.185 275.016 230.372Z" fill="#50661A"/>
<path d="M275.806 230.217C276.251 229.478 286.721 212.084 288.415 207.581L287.992 207.423C286.313 211.887 275.528 229.804 275.419 229.985L275.806 230.217Z" fill="#5E7C24"/>
<path d="M284.571 198.099C285.028 199.225 285.377 200.391 285.614 201.582C285.856 202.749 286.034 203.928 286.147 205.114C286.262 206.3 286.311 207.491 286.293 208.682C286.287 209.897 286.163 211.108 285.925 212.299C285.467 211.174 285.117 210.008 284.88 208.816C284.638 207.65 284.461 206.471 284.35 205.284C284.236 204.098 284.188 202.907 284.206 201.716C284.213 200.502 284.336 199.291 284.571 198.099Z" fill="#5E7C24"/>
<path d="M280.59 203.524C281.146 204.573 281.599 205.673 281.943 206.809C282.29 207.919 282.574 209.047 282.793 210.189C283.015 211.33 283.172 212.483 283.262 213.643C283.365 214.825 283.352 216.014 283.224 217.193C282.666 216.145 282.212 215.045 281.868 213.909C281.521 212.799 281.238 211.671 281.021 210.528C280.8 209.387 280.644 208.234 280.554 207.075C280.452 205.893 280.464 204.704 280.59 203.524Z" fill="#5E7C24"/>
<path d="M278.397 209.841C278.886 210.816 279.272 211.839 279.548 212.894C279.827 213.921 280.042 214.965 280.193 216.018C280.346 217.072 280.433 218.134 280.453 219.198C280.485 220.288 280.401 221.378 280.202 222.45C279.71 221.476 279.324 220.453 279.048 219.398C278.769 218.37 278.555 217.327 278.406 216.273C278.255 215.219 278.169 214.157 278.148 213.093C278.117 212.003 278.2 210.913 278.397 209.841Z" fill="#5E7C24"/>
<path d="M275.634 216.146C276.126 216.962 276.518 217.834 276.802 218.743C277.086 219.622 277.308 220.519 277.465 221.428C277.625 222.337 277.719 223.256 277.746 224.179C277.784 225.13 277.708 226.083 277.517 227.017C277.024 226.201 276.631 225.329 276.347 224.419C276.062 223.541 275.842 222.644 275.686 221.734C275.529 220.825 275.436 219.906 275.408 218.983C275.37 218.032 275.446 217.079 275.634 216.146Z" fill="#5E7C24"/>
<path d="M273.198 220.086C273.699 220.794 274.113 221.56 274.43 222.367C274.742 223.138 275 223.928 275.205 224.733C275.409 225.532 275.565 226.343 275.674 227.16C275.724 227.572 275.771 227.981 275.802 228.399C275.818 228.824 275.863 229.248 275.938 229.667C275.833 229.612 275.733 229.549 275.638 229.479L275.395 229.236C275.24 229.07 275.097 228.893 274.969 228.705C274.722 228.344 274.503 227.965 274.315 227.57C273.949 226.803 273.661 226.001 273.456 225.177C273.248 224.36 273.112 223.526 273.052 222.685C272.979 221.816 273.028 220.941 273.198 220.086Z" fill="#5E7C24"/>
<path d="M286.938 210.359C287.757 209.463 288.679 208.667 289.684 207.985C290.653 207.315 291.667 206.712 292.719 206.181C293.77 205.648 294.857 205.189 295.973 204.808C297.119 204.403 298.309 204.136 299.519 204.01C298.701 204.908 297.78 205.705 296.774 206.386C295.806 207.057 294.791 207.659 293.738 208.188C292.686 208.719 291.598 209.177 290.483 209.558C289.337 209.962 288.147 210.231 286.938 210.359Z" fill="#5E7C24"/>
<path d="M284.241 215.381C285.289 214.527 286.424 213.786 287.628 213.171C288.797 212.559 290.003 212.021 291.239 211.558C292.474 211.092 293.738 210.705 295.022 210.398C296.334 210.07 297.678 209.883 299.031 209.841C297.985 210.697 296.85 211.439 295.646 212.054C294.477 212.666 293.27 213.203 292.033 213.663C290.797 214.127 289.533 214.513 288.25 214.821C286.937 215.148 285.593 215.336 284.241 215.381Z" fill="#5E7C24"/>
<path d="M281.066 220.962C281.999 220.137 283.023 219.421 284.119 218.829C285.178 218.242 286.276 217.728 287.405 217.29C288.532 216.848 289.689 216.484 290.866 216.201C292.075 215.896 293.316 215.732 294.563 215.712C293.632 216.539 292.608 217.256 291.511 217.848C290.452 218.435 289.354 218.948 288.225 219.385C287.096 219.824 285.939 220.187 284.762 220.471C283.553 220.775 282.313 220.94 281.066 220.962Z" fill="#5E7C24"/>
<path d="M278.557 225.258C279.369 224.557 280.27 223.965 281.238 223.498C282.163 223.039 283.124 222.654 284.11 222.347C285.096 222.036 286.105 221.805 287.128 221.656C288.19 221.489 289.269 221.464 290.338 221.581C289.527 222.285 288.626 222.878 287.658 223.344C286.733 223.804 285.772 224.188 284.784 224.493C283.798 224.801 282.789 225.031 281.766 225.18C280.704 225.346 279.625 225.373 278.557 225.258Z" fill="#5E7C24"/>
<path d="M276.576 229.114C277.469 228.259 278.458 227.51 279.523 226.882C280.552 226.261 281.621 225.711 282.725 225.235C283.827 224.756 284.961 224.354 286.119 224.032C287.308 223.687 288.533 223.482 289.77 223.42C288.878 224.277 287.889 225.027 286.824 225.655C285.796 226.276 284.725 226.825 283.621 227.299C282.518 227.775 281.384 228.176 280.226 228.499C279.037 228.843 277.812 229.049 276.576 229.114Z" fill="#5E7C24"/>
<path d="M287.815 208.221C287.65 207.022 287.68 205.804 287.903 204.613C288.099 203.491 288.408 202.392 288.825 201.331C289.238 200.269 289.759 199.252 290.379 198.296C291.026 197.27 291.835 196.356 292.776 195.589C292.944 196.789 292.916 198.008 292.692 199.198C292.496 200.32 292.186 201.42 291.766 202.479C291.35 203.54 290.828 204.556 290.208 205.513C289.561 206.538 288.753 207.452 287.815 208.221Z" fill="#5E7C24"/>
<path d="M299.518 230.038H52.375V231.024H299.518V230.038Z" fill="#C5ADCD"/>
<path d="M96.445 89.225H94.925L94.645 90H94.165L95.425 86.535H95.95L97.205 90H96.725L96.445 89.225ZM96.315 88.855L95.685 87.095L95.055 88.855H96.315ZM98.7241 90.045C98.5141 90.045 98.3258 90.01 98.1591 89.94C97.9925 89.8667 97.8608 89.7667 97.7641 89.64C97.6675 89.51 97.6141 89.3617 97.6041 89.195H98.0741C98.0875 89.3317 98.1508 89.4433 98.2641 89.53C98.3808 89.6167 98.5325 89.66 98.7191 89.66C98.8925 89.66 99.0291 89.6217 99.1291 89.545C99.2291 89.4683 99.2791 89.3717 99.2791 89.255C99.2791 89.135 99.2258 89.0467 99.1191 88.99C99.0125 88.93 98.8475 88.8717 98.6241 88.815C98.4208 88.7617 98.2541 88.7083 98.1241 88.655C97.9975 88.5983 97.8875 88.5167 97.7941 88.41C97.7041 88.3 97.6591 88.1567 97.6591 87.98C97.6591 87.84 97.7008 87.7117 97.7841 87.595C97.8675 87.4783 97.9858 87.3867 98.1391 87.32C98.2925 87.25 98.4675 87.215 98.6641 87.215C98.9675 87.215 99.2125 87.2917 99.3991 87.445C99.5858 87.5983 99.6858 87.8083 99.6991 88.075H99.2441C99.2341 87.9317 99.1758 87.8167 99.0691 87.73C98.9658 87.6433 98.8258 87.6 98.6491 87.6C98.4858 87.6 98.3558 87.635 98.2591 87.705C98.1625 87.775 98.1141 87.8667 98.1141 87.98C98.1141 88.07 98.1425 88.145 98.1991 88.205C98.2591 88.2617 98.3325 88.3083 98.4191 88.345C98.5091 88.3783 98.6325 88.4167 98.7891 88.46C98.9858 88.5133 99.1458 88.5667 99.2691 88.62C99.3925 88.67 99.4975 88.7467 99.5841 88.85C99.6741 88.9533 99.7208 89.0883 99.7241 89.255C99.7241 89.405 99.6825 89.54 99.5991 89.66C99.5158 89.78 99.3975 89.875 99.2441 89.945C99.0941 90.0117 98.9208 90.045 98.7241 90.045ZM100.821 87.765C100.911 87.6083 101.045 87.4783 101.221 87.375C101.401 87.2683 101.61 87.215 101.846 87.215C102.09 87.215 102.31 87.2733 102.506 87.39C102.706 87.5067 102.863 87.6717 102.976 87.885C103.09 88.095 103.146 88.34 103.146 88.62C103.146 88.8967 103.09 89.1433 102.976 89.36C102.863 89.5767 102.706 89.745 102.506 89.865C102.31 89.985 102.09 90.045 101.846 90.045C101.613 90.045 101.406 89.9933 101.226 89.89C101.05 89.7833 100.915 89.6517 100.821 89.495V91.3H100.366V87.26H100.821V87.765ZM102.681 88.62C102.681 88.4133 102.64 88.2333 102.556 88.08C102.473 87.9267 102.36 87.81 102.216 87.73C102.076 87.65 101.921 87.61 101.751 87.61C101.585 87.61 101.43 87.6517 101.286 87.735C101.146 87.815 101.033 87.9333 100.946 88.09C100.863 88.2433 100.821 88.4217 100.821 88.625C100.821 88.8317 100.863 89.0133 100.946 89.17C101.033 89.3233 101.146 89.4417 101.286 89.525C101.43 89.605 101.585 89.645 101.751 89.645C101.921 89.645 102.076 89.605 102.216 89.525C102.36 89.4417 102.473 89.3233 102.556 89.17C102.64 89.0133 102.681 88.83 102.681 88.62ZM103.98 86.815C103.894 86.815 103.82 86.785 103.76 86.725C103.7 86.665 103.67 86.5917 103.67 86.505C103.67 86.4183 103.7 86.345 103.76 86.285C103.82 86.225 103.894 86.195 103.98 86.195C104.064 86.195 104.134 86.225 104.19 86.285C104.25 86.345 104.28 86.4183 104.28 86.505C104.28 86.5917 104.25 86.665 104.19 86.725C104.134 86.785 104.064 86.815 103.98 86.815ZM104.2 87.26V90H103.745V87.26H104.2ZM105.431 87.705C105.511 87.5483 105.624 87.4267 105.771 87.34C105.921 87.2533 106.102 87.21 106.316 87.21V87.68H106.196C105.686 87.68 105.431 87.9567 105.431 88.51V90H104.976V87.26H105.431V87.705ZM107.076 86.815C106.989 86.815 106.916 86.785 106.856 86.725C106.796 86.665 106.766 86.5917 106.766 86.505C106.766 86.4183 106.796 86.345 106.856 86.285C106.916 86.225 106.989 86.195 107.076 86.195C107.159 86.195 107.229 86.225 107.286 86.285C107.346 86.345 107.376 86.4183 107.376 86.505C107.376 86.5917 107.346 86.665 107.286 86.725C107.229 86.785 107.159 86.815 107.076 86.815ZM107.296 87.26V90H106.841V87.26H107.296ZM109.407 87.21C109.74 87.21 110.01 87.3117 110.217 87.515C110.423 87.715 110.527 88.005 110.527 88.385V90H110.077V88.45C110.077 88.1767 110.008 87.9683 109.872 87.825C109.735 87.6783 109.548 87.605 109.312 87.605C109.072 87.605 108.88 87.68 108.737 87.83C108.597 87.98 108.527 88.1983 108.527 88.485V90H108.072V87.26H108.527V87.65C108.617 87.51 108.738 87.4017 108.892 87.325C109.048 87.2483 109.22 87.21 109.407 87.21Z" fill="black"/>
<path d="M192.663 90.8039L192.638 90.836L192.611 90.8695C192.607 90.8779 192.605 90.8868 192.604 90.896C192.604 90.9197 192.596 90.956 192.59 91.0035C192.584 91.0509 192.579 91.1291 192.574 91.2072C192.574 91.2365 192.574 91.2644 192.574 91.2951C192.574 91.3495 192.567 91.4068 192.565 91.464C192.565 91.5533 192.556 91.6454 192.553 91.7333C192.551 91.8212 192.553 91.9064 192.546 91.9817C192.539 92.0571 192.546 92.0947 192.546 92.1548C192.539 92.8399 192.529 93.7303 192.518 94.5885C192.508 95.8305 194.993 96.0985 195 96.5129C195.015 97.5177 189.529 104.88 187.394 104.917C185.259 104.953 185.302 100 185.302 100V98.5001L185.067 96.5129L185.302 95.49C185.229 95.4776 185.159 95.4575 185.091 95.43C184.999 95.3965 184.881 95.3491 184.744 95.2905C183.806 94.8718 182.218 93.7373 181.662 91.9412C181.146 90.2848 181.531 88.8446 181.546 87.8705C181.562 86.8965 181.165 86.2043 180.992 85.1144C180.771 83.7189 181.342 81.9689 182.039 81.5615C185.169 79.711 190.817 81.4707 190.817 81.4707C190.817 81.4707 193.657 82.0373 192.888 85.9433C193.083 85.8164 192.825 86.662 193.093 86.6104C193.656 86.5113 193.039 86.8532 193.364 87.1058C194.073 87.6515 194.073 88.9772 192.663 90.8039Z" fill="#A96E46"/>
<path d="M190.488 78.513C189.975 77.0824 186.542 75.6992 184.01 76.0572C182.391 76.2856 180.352 77.8109 180.055 79.1147C179.713 80.615 181.061 82.1793 181.246 83.387C182.422 80.3726 184.548 84.3328 188.896 81.7154C189.702 81.2307 189.405 82.7573 189.666 82.8061C192.024 82.4021 193.081 83.7241 192.1 87.6049C192.264 87.1159 193.285 86.581 193.784 88.2582C195.747 83.015 196.096 77.9739 190.488 78.513Z" fill="#1F1844"/>
<path d="M192.573 90.7725L192.549 90.804C192.542 90.815 192.534 90.826 192.524 90.837C192.52 90.8451 192.517 90.854 192.516 90.8631C192.516 90.8864 192.508 90.9221 192.503 90.9688C192.497 91.0155 192.493 91.0924 192.488 91.1693C192.488 91.1982 192.488 91.2256 192.488 91.2558C192.488 91.3094 192.481 91.3657 192.478 91.422C192.478 91.5099 192.472 91.6005 192.468 91.687C192.463 91.7736 192.467 91.8573 192.461 91.9315C192.454 92.0056 192.461 92.0427 192.461 92.1018C190.815 94.8565 188.074 95.8782 185.344 96.1158L185.507 95.3811C189.189 94.7865 191.058 92.1333 192.573 90.7725Z" fill="url(#paint0_linear)"/>
<defs>
<linearGradient id="paint0_linear" x1="191.83" y1="91.0705" x2="185.974" y2="96.7281" gradientUnits="userSpaceOnUse">
<stop stop-color="#A04400"/>
<stop offset="1" stop-color="#753200"/>
</linearGradient>
</defs>
</svg>
