<svg width="24" height="24" viewBox="0 0 24 24" fill="none" xmlns="http://www.w3.org/2000/svg">
<path fill-rule="evenodd" clip-rule="evenodd" d="M23.7815 21.0625C24.0728 20.7708 24.0728 20.4792 23.7815 20.1875L18.4759 14.8125C19.3498 13.3125 19.7867 11.6875 19.7867 9.9375C19.7867 7.18749 18.8193 4.84376 16.8843 2.90625C14.9493 0.96874 12.6294 0 9.92458 0C7.21975 0 4.88948 0.96874 2.93368 2.90625C0.977884 4.84376 0 7.18749 0 9.9375C0 12.6875 0.977884 15.0312 2.93368 16.9688C4.88948 18.9063 7.21975 19.875 9.92458 19.875C11.6723 19.875 13.3368 19.3958 14.9181 18.4375L20.1612 23.8125C20.2861 23.9375 20.4317 24 20.5982 24C20.8062 24 20.9727 23.9375 21.0975 23.8125L23.7815 21.0625ZM9.92484 3.87522C11.5893 3.87522 13.0042 4.47938 14.1693 5.68772C15.3345 6.85439 15.917 8.27104 15.917 9.93772C15.917 11.6044 15.3345 13.0315 14.1693 14.219C13.0042 15.4065 11.5893 16.0002 9.92484 16.0002C8.26033 16.0002 6.83512 15.4065 5.64916 14.219C4.4632 13.0315 3.87023 11.6044 3.87023 9.93772C3.87023 8.27104 4.4632 6.84397 5.64916 5.65647C6.83512 4.46896 8.26033 3.87522 9.92484 3.87522Z" fill="url(#paint0_linear)"/>
<defs>
<linearGradient id="paint0_linear" x1="12" y1="0" x2="12" y2="24" gradientUnits="userSpaceOnUse">
<stop stop-color="#8D28AD"/>
<stop offset="1" stop-color="#C926B4"/>
</linearGradient>
</defs>
</svg>
