<svg width="14" height="14" viewBox="0 0 14 14" fill="none" xmlns="http://www.w3.org/2000/svg">
<path fill-rule="evenodd" clip-rule="evenodd" d="M13.8726 12.2865C14.0425 12.1163 14.0425 11.9462 13.8726 11.776L10.7776 8.64062C11.2874 7.76562 11.5423 6.81771 11.5423 5.79688C11.5423 4.1927 10.9779 2.82553 9.84915 1.69531C8.72041 0.565099 7.36715 0 5.78934 0C4.21152 0 2.85219 0.565099 1.71131 1.69531C0.570432 2.82553 0 4.1927 0 5.79688C0 7.40105 0.570432 8.76822 1.71131 9.89844C2.85219 11.0287 4.21152 11.5938 5.78934 11.5938C6.80885 11.5938 7.7798 11.3142 8.70221 10.7552L11.7607 13.8906C11.8335 13.9635 11.9185 14 12.0156 14C12.137 14 12.2341 13.9635 12.3069 13.8906L13.8726 12.2865ZM5.78935 2.26042C6.76031 2.26042 7.58562 2.61284 8.26529 3.31771C8.94496 3.99827 9.2848 4.82465 9.2848 5.79688C9.2848 6.7691 8.94496 7.60156 8.26529 8.29427C7.58562 8.98698 6.76031 9.33333 5.78935 9.33333C4.81838 9.33333 3.98701 8.98698 3.2952 8.29427C2.60339 7.60156 2.25749 6.7691 2.25749 5.79688C2.25749 4.82465 2.60339 3.99219 3.2952 3.29948C3.98701 2.60677 4.81838 2.26042 5.78935 2.26042Z" fill="url(#paint0_linear)"/>
<defs>
<linearGradient id="paint0_linear" x1="7" y1="0" x2="7" y2="14" gradientUnits="userSpaceOnUse">
<stop stop-color="#8D28AD"/>
<stop offset="1" stop-color="#C926B4"/>
</linearGradient>
</defs>
</svg>
