<svg width="21" height="18" viewBox="0 0 21 18" fill="none" xmlns="http://www.w3.org/2000/svg">
<path d="M9.13001 5.1422V3.85645H1.30429C0.585625 3.85645 0 4.43375 0 5.1422V7.71372H9.40521C9.22392 6.92812 9.13001 6.08209 9.13001 5.1422Z" fill="#8D28AD"/>
<path d="M20.8151 10.2856C19.9256 11.637 18.5691 12.7864 16.6257 13.887C16.3271 14.0555 15.9906 14.1429 15.6514 14.1429C15.3123 14.1429 14.9758 14.0555 14.681 13.8896C12.7377 12.7864 11.3812 11.6357 10.4904 10.2856H0V16.7144C0 17.4242 0.585625 18.0002 1.30429 18.0002H19.5643C20.2843 18.0002 20.8686 17.4242 20.8686 16.7144V10.2856H20.8151ZM5.86929 14.1429H3.26072C2.90073 14.1429 2.60857 13.8549 2.60857 13.5C2.60857 13.1452 2.90073 12.8572 3.26072 12.8572H5.86929C6.22927 12.8572 6.52143 13.1452 6.52143 13.5C6.52143 13.8549 6.22927 14.1429 5.86929 14.1429Z" fill="#8D28AD"/>
<path d="M20.4737 1.98071L15.9087 0.0520731C15.743 -0.0173577 15.5591 -0.0173577 15.3935 0.0520731L10.8285 1.98071C10.5898 2.081 10.4346 2.31372 10.4346 2.57087V5.14238C10.4346 8.67949 11.761 10.747 15.3269 12.7721C15.4274 12.8286 15.5395 12.8569 15.6517 12.8569C15.7639 12.8569 15.8761 12.8286 15.9765 12.7721C19.5424 10.7521 20.8689 8.68464 20.8689 5.14238V2.57087C20.8689 2.31372 20.7137 2.081 20.4737 1.98071ZM18.1181 4.90194L15.5095 8.11633C15.3843 8.26805 15.1965 8.35677 14.9996 8.35677C14.9904 8.35677 14.98 8.35677 14.9722 8.35677C14.7648 8.34777 14.5731 8.24234 14.457 8.07133L13.1527 6.1427C12.9531 5.84697 13.034 5.44839 13.334 5.25167C13.6314 5.05624 14.037 5.13338 14.2379 5.43039L15.0478 6.62743L17.0982 4.09963C17.3238 3.82319 17.7347 3.77948 18.0151 3.99934C18.2968 4.21921 18.3412 4.62422 18.1181 4.90194Z" fill="#8D28AD"/>
</svg>
