<svg width="19" height="14" viewBox="0 0 19 14" fill="none" xmlns="http://www.w3.org/2000/svg">
<path d="M7.09762 11.2499C7.0035 11.9104 6.67425 12.5147 6.17032 12.952C5.6664 13.3892 5.02164 13.6299 4.35449 13.6299C3.68734 13.6299 3.04259 13.3892 2.53866 12.952C2.03474 12.5147 1.70548 11.9104 1.61137 11.2499H0.791992V1.74992C0.791992 1.53996 0.8754 1.33859 1.02387 1.19013C1.17233 1.04166 1.3737 0.958252 1.58366 0.958252H12.667C12.877 0.958252 13.0783 1.04166 13.2268 1.19013C13.3753 1.33859 13.4587 1.53996 13.4587 1.74992V3.33325H15.8337L18.2087 6.54425V11.2499H16.5976C16.5035 11.9104 16.1742 12.5147 15.6703 12.952C15.1664 13.3892 14.5216 13.6299 13.8545 13.6299C13.1873 13.6299 12.5426 13.3892 12.0387 12.952C11.5347 12.5147 11.2055 11.9104 11.1114 11.2499H7.09762ZM11.8753 2.54159H2.37533V8.9145C2.68769 8.59562 3.07247 8.35692 3.49692 8.21872C3.92137 8.08052 4.37293 8.04692 4.81317 8.12077C5.2534 8.19462 5.66927 8.37374 6.02539 8.64288C6.38151 8.91203 6.66733 9.26322 6.85853 9.66659H11.3504C11.4834 9.38713 11.6616 9.133 11.8753 8.9145V2.54159ZM13.4587 7.29159H16.6253V7.06596L15.0357 4.91659H13.4587V7.29159ZM13.8545 12.0416C14.1695 12.0416 14.4717 11.9164 14.6945 11.6937C14.9172 11.4709 15.0424 11.1687 15.0424 10.8537C15.0424 10.5386 14.9172 10.2365 14.6945 10.0137C14.4717 9.79095 14.1695 9.66579 13.8545 9.66579C13.5394 9.66579 13.2373 9.79095 13.0145 10.0137C12.7917 10.2365 12.6666 10.5386 12.6666 10.8537C12.6666 11.1687 12.7917 11.4709 13.0145 11.6937C13.2373 11.9164 13.5394 12.0416 13.8545 12.0416ZM5.54199 10.8541C5.54199 10.6981 5.51128 10.5437 5.4516 10.3996C5.39192 10.2556 5.30445 10.1247 5.19418 10.0144C5.08391 9.90413 4.953 9.81666 4.80893 9.75698C4.66485 9.6973 4.51044 9.66659 4.35449 9.66659C4.19855 9.66659 4.04413 9.6973 3.90006 9.75698C3.75598 9.81666 3.62507 9.90413 3.5148 10.0144C3.40453 10.1247 3.31706 10.2556 3.25739 10.3996C3.19771 10.5437 3.16699 10.6981 3.16699 10.8541C3.16699 11.169 3.2921 11.4711 3.5148 11.6938C3.7375 11.9165 4.03955 12.0416 4.35449 12.0416C4.66944 12.0416 4.97148 11.9165 5.19418 11.6938C5.41688 11.4711 5.54199 11.169 5.54199 10.8541Z" fill="white"/>
</svg>
