<svg width="17" height="20" viewBox="0 0 17 20" fill="none" xmlns="http://www.w3.org/2000/svg">
<path d="M10 11.5V6C10 4.93913 9.57857 3.92172 8.82843 3.17157C8.07828 2.42143 7.06087 2 6 2C4.93913 2 3.92172 2.42143 3.17157 3.17157C2.42143 3.92172 2 4.93913 2 6V11.5C2 13.2239 2.68482 14.8772 3.90381 16.0962C5.12279 17.3152 6.77609 18 8.5 18C10.2239 18 11.8772 17.3152 13.0962 16.0962C14.3152 14.8772 15 13.2239 15 11.5V2H17V11.5C17 13.7543 16.1045 15.9163 14.5104 17.5104C12.9163 19.1045 10.7543 20 8.5 20C6.24566 20 4.08365 19.1045 2.48959 17.5104C0.895533 15.9163 0 13.7543 0 11.5V6C0 4.4087 0.632141 2.88258 1.75736 1.75736C2.88258 0.632141 4.4087 0 6 0C7.5913 0 9.11742 0.632141 10.2426 1.75736C11.3679 2.88258 12 4.4087 12 6V11.5C12 12.4283 11.6313 13.3185 10.9749 13.9749C10.3185 14.6313 9.42826 15 8.5 15C7.57174 15 6.6815 14.6313 6.02513 13.9749C5.36875 13.3185 5 12.4283 5 11.5V6H7V11.5C7 11.8978 7.15804 12.2794 7.43934 12.5607C7.72064 12.842 8.10218 13 8.5 13C8.89782 13 9.27936 12.842 9.56066 12.5607C9.84196 12.2794 10 11.8978 10 11.5Z" fill="#BFBFC0"/>
</svg>
