<svg width="9" height="12" viewBox="0 0 9 12" fill="none" xmlns="http://www.w3.org/2000/svg">
<path d="M3.95835 8.71658C2.86565 8.57754 1.8669 8.02765 1.16508 7.17867C0.463259 6.32969 0.111044 5.24533 0.18002 4.14598C0.248997 3.04664 0.733988 2.0148 1.53642 1.2602C2.33885 0.505603 3.39851 0.0848627 4.50002 0.0834973C5.60287 0.082676 6.66454 0.502389 7.46871 1.25711C8.27287 2.01184 8.75901 3.04478 8.82807 4.14548C8.89713 5.24617 8.54392 6.33177 7.8404 7.1811C7.13688 8.03042 6.13599 8.57954 5.04168 8.71658V10.3752H3.95835V8.71658ZM4.50002 7.66683C5.36197 7.66683 6.18862 7.32442 6.79811 6.71493C7.40761 6.10543 7.75002 5.27878 7.75002 4.41683C7.75002 3.55488 7.40761 2.72823 6.79811 2.11873C6.18862 1.50924 5.36197 1.16683 4.50002 1.16683C3.63806 1.16683 2.81141 1.50924 2.20192 2.11873C1.59243 2.72823 1.25002 3.55488 1.25002 4.41683C1.25002 5.27878 1.59243 6.10543 2.20192 6.71493C2.81141 7.32442 3.63806 7.66683 4.50002 7.66683ZM0.708351 10.9168H8.29168V12.0002H0.708351V10.9168Z" fill="#AF1302"/>
</svg>
