<svg width="40" height="40" viewBox="0 0 40 40" fill="none" xmlns="http://www.w3.org/2000/svg">
<circle cx="20" cy="20" r="20" fill="#C926B4"/>
<path d="M16.3886 21.1744C17.7255 19.9177 17.9951 17.3508 16.9768 15.6832C16.6604 15.1681 15.9229 13.9579 15.6822 13.0053C15.4846 12.2091 15.3357 11.4015 15.2366 10.5872C15.2285 10.5143 15.2062 10.4437 15.1707 10.3795C15.1353 10.3152 15.0875 10.2585 15.0301 10.2126C14.9727 10.1667 14.9068 10.1326 14.8361 10.1121C14.7654 10.0916 14.6914 10.0852 14.6182 10.0932C14.5451 10.1012 14.4742 10.1235 14.4097 10.1588C14.3452 10.1941 14.2883 10.2417 14.2423 10.299C14.1963 10.3562 14.162 10.4219 14.1414 10.4923C14.1209 10.5627 14.1144 10.6365 14.1225 10.7094C14.2272 11.5741 14.3864 12.4314 14.5993 13.2762C14.8823 14.3865 15.68 15.701 16.0209 16.2605C16.7652 17.4774 16.5691 19.4736 15.6198 20.3684C15.0693 20.9134 14.473 21.4104 13.8372 21.8539C12.5983 22.6577 11.4307 23.4105 10.7311 24.9448C9.55456 27.5228 10.1339 28.7751 10.2052 28.9106C10.2534 29.0021 10.3258 29.0788 10.4146 29.1324C10.5033 29.186 10.605 29.2145 10.7088 29.2148C10.8032 29.2142 10.896 29.1897 10.9783 29.1435C11.0605 29.0972 11.1296 29.0308 11.1789 28.9506C11.2282 28.8703 11.2562 28.7788 11.2601 28.6848C11.264 28.5907 11.2437 28.4972 11.2012 28.4132C11.2012 28.4132 10.8024 27.4695 11.7449 25.4044C12.3109 24.1654 13.2512 23.557 14.4567 22.7754C15.1449 22.2971 15.7912 21.7616 16.3886 21.1744Z" fill="white"/>
<path d="M25.9279 12.9314C24.7981 12.4007 22.5855 11.6235 20.4174 12.3096C20.2209 12.3267 20.0231 12.3029 19.8363 12.2398C19.6495 12.1768 19.4779 12.0758 19.3323 11.9433C18.8331 11.4525 18.8465 10.611 18.8465 10.5755C18.8518 10.4282 18.7982 10.2849 18.6975 10.1771C18.5968 10.0692 18.4572 10.0057 18.3095 10.0004C18.1618 9.99506 18.018 10.0485 17.9097 10.1488C17.8015 10.2492 17.7377 10.3883 17.7324 10.5355C17.7324 10.5888 17.69 11.8811 18.539 12.7249C18.8039 12.9769 19.12 13.1692 19.4661 13.2887C19.8121 13.4083 20.1799 13.4522 20.5444 13.4177C20.5969 13.416 20.6487 13.4063 20.6982 13.3888C22.532 12.7804 24.4706 13.471 25.4622 13.935C27.2782 14.7877 29.5644 17.7098 28.702 21.2981C27.5879 25.9433 23.9692 27.0247 21.126 27.1157C19.3078 27.1735 18.0221 26.7538 16.7564 26.2831C16.03 26.0099 14.3989 26.172 13.8842 27.4577C13.7071 27.9159 13.6048 28.3994 13.5812 28.8899C13.5782 29.0373 13.634 29.18 13.7363 29.2865C13.8386 29.3931 13.9791 29.4548 14.1271 29.4583H14.1382C14.2837 29.4584 14.4234 29.4017 14.5275 29.3005C14.6316 29.1992 14.6918 29.0614 14.6953 28.9165C14.7144 28.5585 14.7896 28.2056 14.9181 27.8707C15.1632 27.2579 16.1013 27.2223 16.3665 27.3222C17.6856 27.813 19.1406 28.2881 21.1616 28.226C25.7162 28.0816 28.7756 25.7124 29.776 21.5646C30.7943 17.3279 28.1383 13.9683 25.9279 12.9314Z" fill="white"/>
<path d="M18.4233 20.4854C18.3393 20.4853 18.2569 20.5072 18.1842 20.5489C18.1114 20.5906 18.051 20.6506 18.0088 20.7229C17.8948 20.9261 17.7556 21.1141 17.5944 21.2825C17.3476 21.5264 17.0872 21.7562 16.8145 21.9708C16.5618 22.1586 16.3295 22.3722 16.1215 22.6081C15.9805 22.7835 15.8878 22.9924 15.8522 23.2142C15.8167 23.4361 15.8396 23.6634 15.9187 23.8738C16.1683 24.651 16.986 25.3371 18.0021 25.6169L18.0578 25.6346C19.1347 26.0521 20.2828 26.2565 21.4381 26.2364L21.7121 26.223C25.1013 26.001 27.2293 24.2246 27.8643 21.0538C27.8771 20.9849 27.8745 20.9141 27.8566 20.8464C27.8388 20.7786 27.8061 20.7157 27.761 20.662C27.7158 20.6083 27.6593 20.5652 27.5955 20.5358C27.5317 20.5065 27.4622 20.4915 27.3919 20.492L18.4233 20.4854Z" fill="white"/>
<path d="M20.4396 19.7261C20.2918 19.7261 20.1501 19.6676 20.0457 19.5635C19.9412 19.4594 19.8825 19.3182 19.8825 19.171C19.8843 18.9756 19.9282 18.7829 20.0112 18.6059C20.0942 18.4289 20.2145 18.2718 20.3638 18.1451C20.5131 17.9941 20.5175 17.9786 20.5175 17.9053C20.5175 17.832 20.5175 17.8143 20.3638 17.6655C20.2124 17.5405 20.0905 17.3837 20.0069 17.2064C19.9232 17.0291 19.8799 16.8356 19.8799 16.6396C19.8799 16.4437 19.9232 16.2502 20.0069 16.0729C20.0905 15.8955 20.2124 15.7388 20.3638 15.6138C20.5131 15.465 20.5175 15.4472 20.5175 15.374C20.5175 15.2267 20.5762 15.0855 20.6807 14.9814C20.7852 14.8773 20.9269 14.8188 21.0746 14.8188C21.2223 14.8188 21.364 14.8773 21.4685 14.9814C21.573 15.0855 21.6317 15.2267 21.6317 15.374C21.6285 15.57 21.5831 15.763 21.4985 15.94C21.4139 16.117 21.2922 16.2738 21.1415 16.3998C20.9966 16.5442 20.9877 16.5619 20.9877 16.6396C20.9877 16.7173 20.9877 16.7307 21.1415 16.8794C21.2925 17.0045 21.414 17.1611 21.4974 17.3382C21.5808 17.5153 21.624 17.7086 21.624 17.9042C21.624 18.0998 21.5808 18.2931 21.4974 18.4702C21.414 18.6473 21.2925 18.8039 21.1415 18.9289C20.9922 19.0799 20.9877 19.0955 20.9877 19.171C20.9877 19.3167 20.9303 19.4565 20.8277 19.5604C20.7252 19.6642 20.5857 19.7238 20.4396 19.7261Z" fill="white"/>
<path d="M22.7325 19.7261C22.5848 19.7261 22.4431 19.6676 22.3386 19.5635C22.2342 19.4594 22.1755 19.3182 22.1755 19.171C22.1772 18.9756 22.2211 18.7829 22.3042 18.6059C22.3872 18.4289 22.5075 18.2718 22.6568 18.1451C22.8061 17.9941 22.8105 17.9786 22.8105 17.9053C22.8105 17.832 22.8105 17.8143 22.6568 17.6655C22.5054 17.5405 22.3835 17.3837 22.2999 17.2064C22.2162 17.0291 22.1729 16.8356 22.1729 16.6396C22.1729 16.4437 22.2162 16.2502 22.2999 16.0729C22.3835 15.8955 22.5054 15.7388 22.6568 15.6138C22.8061 15.465 22.8105 15.4472 22.8105 15.374C22.8105 15.2267 22.8692 15.0855 22.9737 14.9814C23.0781 14.8773 23.2198 14.8188 23.3676 14.8188C23.5153 14.8188 23.657 14.8773 23.7615 14.9814C23.8659 15.0855 23.9246 15.2267 23.9246 15.374C23.9226 15.5693 23.8785 15.7619 23.7955 15.9389C23.7125 16.1158 23.5924 16.273 23.4433 16.3998C23.2985 16.5442 23.2896 16.5619 23.2896 16.6396C23.2896 16.7173 23.2896 16.7307 23.4433 16.8794C23.5943 17.0045 23.7159 17.1611 23.7993 17.3382C23.8827 17.5153 23.9259 17.7086 23.9259 17.9042C23.9259 18.0998 23.8827 18.2931 23.7993 18.4702C23.7159 18.6473 23.5943 18.8039 23.4433 18.9289C23.294 19.0799 23.2896 19.0955 23.2896 19.171C23.2896 19.3182 23.2309 19.4594 23.1264 19.5635C23.022 19.6676 22.8803 19.7261 22.7325 19.7261Z" fill="white"/>
<path d="M25.0255 19.7261C24.8778 19.7261 24.7361 19.6676 24.6316 19.5635C24.5271 19.4594 24.4684 19.3182 24.4684 19.171C24.4705 18.9756 24.5145 18.783 24.5975 18.6061C24.6806 18.4291 24.8007 18.2719 24.9497 18.1451C25.099 17.9941 25.1035 17.9786 25.1035 17.9053C25.1035 17.832 25.1035 17.8143 24.9497 17.6655C24.7983 17.5405 24.6765 17.3837 24.5928 17.2064C24.5092 17.0291 24.4658 16.8356 24.4658 16.6396C24.4658 16.4437 24.5092 16.2502 24.5928 16.0729C24.6765 15.8955 24.7983 15.7388 24.9497 15.6138C25.0946 15.4694 25.1035 15.4495 25.1035 15.374C25.1035 15.2267 25.1622 15.0855 25.2666 14.9814C25.3711 14.8773 25.5128 14.8188 25.6605 14.8188C25.8083 14.8188 25.95 14.8773 26.0544 14.9814C26.1589 15.0855 26.2176 15.2267 26.2176 15.374C26.2155 15.5693 26.1715 15.7619 26.0885 15.9389C26.0055 16.1158 25.8854 16.273 25.7363 16.3998C25.5915 16.5442 25.5826 16.5619 25.5826 16.6396C25.5826 16.7173 25.5826 16.7307 25.7363 16.8794C25.8873 17.0045 26.0088 17.1611 26.0922 17.3382C26.1756 17.5153 26.2189 17.7086 26.2189 17.9042C26.2189 18.0998 26.1756 18.2931 26.0922 18.4702C26.0088 18.6473 25.8873 18.8039 25.7363 18.9289C25.587 19.0799 25.5826 19.0955 25.5826 19.171C25.5826 19.3182 25.5239 19.4594 25.4194 19.5635C25.3149 19.6676 25.1732 19.7261 25.0255 19.7261Z" fill="white"/>
</svg>
