<svg width="197" height="155" viewBox="0 0 197 155" fill="none" xmlns="http://www.w3.org/2000/svg">
<path d="M148.146 101.811C154.562 76.8874 134.988 47.7988 104.426 36.84C73.8634 25.8812 43.8864 37.2022 37.4702 62.1261C31.0539 87.05 50.6281 116.139 81.1903 127.098C111.752 138.056 141.729 126.735 148.146 101.811Z" fill="#E578D7" fill-opacity="0.3"/>
<path d="M95.3666 137.115C124.344 137.115 147.834 132.353 147.834 126.479C147.834 120.604 124.344 115.842 95.3666 115.842C66.3898 115.842 42.8994 120.604 42.8994 126.479C42.8994 132.353 66.3898 137.115 95.3666 137.115Z" fill="#C5ADCD"/>
<path d="M141.466 130.432C145.516 128.959 148.348 126.035 147.791 123.902C147.234 121.769 143.499 121.235 139.448 122.708C135.398 124.182 132.566 127.105 133.123 129.238C133.68 131.371 137.415 131.906 141.466 130.432Z" fill="#090922" stroke="#090922" stroke-width="0.76" stroke-miterlimit="10"/>
<path d="M111.22 47.4872C111.014 47.5295 110.81 47.5842 110.609 47.6511L110.577 51.1784C110.565 52.5098 111.528 53.6127 112.717 53.6261C113.906 53.6395 114.889 52.5639 114.901 51.2325V51.2112L114.931 47.8459C113.401 47.2919 112.154 47.2949 111.22 47.4872Z" fill="#FDE5D0" stroke="#FDE5D0" stroke-miterlimit="10"/>
<path d="M110.639 44.3796L110.609 47.651C110.81 47.5841 111.014 47.5294 111.22 47.4871C111.161 44.9991 111.457 42.5127 111.457 42.5127C110.965 42.9514 110.646 43.6245 110.639 44.3796Z" fill="#D85C5E" stroke="#EA695E" stroke-miterlimit="10"/>
<path d="M113.065 52.4697C111.685 52.3996 111.279 49.9425 111.22 47.4868C111.014 47.5291 110.81 47.5838 110.609 47.6508L110.577 51.178C110.565 52.5094 111.528 53.6123 112.717 53.6257C113.906 53.6391 114.889 52.5636 114.901 51.2322V51.2108C114.444 51.9853 113.846 52.5109 113.065 52.4697Z" fill="#FDD8C4" stroke="#FDE5D0" stroke-miterlimit="10"/>
<path opacity="0.53" d="M113.457 51.0287C113.271 51.0281 113.092 50.9404 112.961 50.7849C112.829 50.6293 112.754 50.4186 112.754 50.1986V44.711C112.754 44.491 112.829 44.2803 112.961 44.1247C113.092 43.9692 113.271 43.8815 113.457 43.8809C113.644 43.8815 113.822 43.9692 113.954 44.1247C114.086 44.2803 114.16 44.491 114.161 44.711V50.2006C114.16 50.4202 114.085 50.6305 113.953 50.7856C113.822 50.9407 113.643 51.0281 113.457 51.0287Z" fill="white" stroke="white" stroke-miterlimit="10"/>
<path d="M121.962 34.2179C121.191 33.7261 120.292 32.8766 119.472 31.418L117.712 33.9551C117.025 34.9447 117.158 36.4267 118.006 37.2483C118.359 37.5905 118.801 37.7797 119.258 37.7844C119.258 37.7844 120.738 36.1231 121.962 34.2179Z" fill="#EA695E" stroke="#EA695E" stroke-width="0.94" stroke-miterlimit="10"/>
<path d="M121.963 34.2174C122.133 34.3261 122.308 34.4239 122.487 34.5106L124.306 31.888C124.993 30.8984 124.86 29.4164 124.011 28.5947C123.163 27.773 121.907 27.9106 121.22 28.9003L121.209 28.9161L119.474 31.4175C120.293 32.8781 121.192 33.7256 121.963 34.2174Z" fill="#FDE5D0" stroke="#FDE5D0" stroke-width="0.94" stroke-miterlimit="10"/>
<path d="M120.8 36.9427L122.487 34.5084C122.308 34.4218 122.133 34.3239 121.963 34.2153C120.739 36.1205 119.26 37.7818 119.26 37.7818C119.553 37.7873 119.844 37.7147 120.111 37.5694C120.377 37.4242 120.613 37.21 120.8 36.9427Z" fill="#D85C5E" stroke="#EA695E" stroke-width="0.94" stroke-miterlimit="10"/>
<path d="M123.17 29.2257C124.129 30.2192 123.17 32.3366 121.962 34.2174C122.132 34.3261 122.307 34.4239 122.486 34.5106L124.305 31.888C124.992 30.8984 124.859 29.4164 124.011 28.5947C123.162 27.773 121.906 27.9106 121.219 28.9003L121.208 28.9161C121.93 28.6479 122.627 28.6648 123.17 29.2257Z" fill="#FDD8C4" stroke="#FDE5D0" stroke-width="0.94" stroke-miterlimit="10"/>
<path opacity="0.53" d="M122.154 30.0372C122.288 30.1648 122.374 30.3497 122.393 30.5515C122.412 30.7534 122.362 30.9559 122.255 31.1148L119.427 35.2779C119.319 35.436 119.162 35.5372 118.991 35.5594C118.82 35.5815 118.648 35.5228 118.514 35.3962C118.38 35.2686 118.294 35.0837 118.275 34.8819C118.257 34.68 118.306 34.4775 118.413 34.3186L121.241 30.1555C121.349 29.9975 121.506 29.8964 121.677 29.8742C121.848 29.8521 122.02 29.9107 122.154 30.0372Z" fill="white" stroke="white" stroke-width="0.94" stroke-miterlimit="10"/>
<path d="M115.699 23.2742C114.922 23.4317 113.887 23.4193 112.619 22.9155L112.564 25.9013C112.556 26.3016 112.645 26.6963 112.82 27.0395C112.994 27.3828 113.248 27.6606 113.551 27.8407C113.854 28.0208 114.194 28.0958 114.532 28.057C114.869 28.0183 115.191 27.8673 115.459 27.6217C115.459 27.6217 115.727 25.4512 115.699 23.2742Z" fill="#EA695E" stroke="#EA695E" stroke-width="0.85" stroke-miterlimit="10"/>
<path d="M115.699 23.2741C115.871 23.2393 116.041 23.1937 116.208 23.1375L116.266 20.0509C116.271 19.4933 116.09 18.9557 115.762 18.5547C115.433 18.1536 114.984 17.9214 114.512 17.9083C114.04 17.8952 113.582 18.1024 113.238 18.4848C112.894 18.8673 112.692 19.3943 112.675 19.9516V19.971L112.62 22.9145C113.887 23.4192 114.922 23.4316 115.699 23.2741Z" fill="#FDE5D0" stroke="#FDE5D0" stroke-width="0.85" stroke-miterlimit="10"/>
<path d="M116.155 25.9992L116.208 23.1377C116.041 23.1938 115.871 23.2394 115.699 23.2743C115.727 25.4513 115.459 27.6228 115.459 27.6228C115.67 27.4304 115.842 27.1848 115.963 26.9039C116.083 26.623 116.149 26.3139 116.155 25.9992Z" fill="#D85C5E" stroke="#EA695E" stroke-width="0.85" stroke-miterlimit="10"/>
<path d="M114.211 18.8934C115.357 18.9704 115.672 21.125 115.699 23.2741C115.871 23.2393 116.041 23.1937 116.208 23.1375L116.266 20.0509C116.271 19.4933 116.09 18.9557 115.762 18.5547C115.433 18.1536 114.984 17.9214 114.512 17.9083C114.04 17.8952 113.582 18.1024 113.238 18.4848C112.894 18.8673 112.692 19.3943 112.675 19.9516V19.971C113.06 19.3008 113.562 18.8497 114.211 18.8934Z" fill="#FDD8C4" stroke="#FDE5D0" stroke-width="0.85" stroke-miterlimit="10"/>
<path opacity="0.53" d="M113.872 20.1494C114.027 20.1521 114.174 20.227 114.283 20.3578C114.391 20.4886 114.451 20.6646 114.449 20.8474L114.4 25.723C114.398 25.9057 114.334 26.0799 114.224 26.2075C114.113 26.3352 113.964 26.406 113.809 26.4046C113.655 26.4017 113.507 26.3271 113.399 26.1969C113.291 26.0666 113.231 25.8914 113.231 25.7091L113.281 20.8335C113.282 20.6504 113.346 20.4755 113.456 20.3472C113.567 20.219 113.716 20.1479 113.872 20.1494Z" fill="white" stroke="white" stroke-width="0.85" stroke-miterlimit="10"/>
<path d="M112.931 35.683C112.405 35.5256 111.757 35.1743 111.082 34.4331L110.329 36.316C110.187 36.6673 110.168 37.0705 110.277 37.4378C110.386 37.805 110.614 38.1066 110.91 38.2768C111.167 38.4204 111.458 38.454 111.733 38.3717C111.733 38.3717 112.424 37.077 112.931 35.683Z" fill="#EA695E" stroke="#EA695E" stroke-width="0.59" stroke-miterlimit="10"/>
<path d="M112.931 35.6827C113.047 35.7175 113.165 35.7448 113.284 35.7647L114.064 33.8202C114.205 33.4706 114.222 33.0693 114.113 32.7045C114.003 32.3398 113.775 32.0415 113.478 31.8753C113.182 31.7091 112.842 31.6885 112.533 31.8182C112.224 31.9479 111.971 32.2172 111.83 32.5668L111.826 32.5787L111.081 34.4328C111.756 35.173 112.404 35.5252 112.931 35.6827Z" fill="#FDE5D0" stroke="#FDE5D0" stroke-width="0.59" stroke-miterlimit="10"/>
<path d="M112.56 37.5675L113.284 35.7646C113.165 35.7447 113.047 35.7174 112.931 35.6826C112.423 37.0766 111.73 38.3693 111.73 38.3693C111.91 38.3164 112.078 38.217 112.221 38.0783C112.365 37.9397 112.48 37.7652 112.56 37.5675Z" fill="#D85C5E" stroke="#EA695E" stroke-width="0.59" stroke-miterlimit="10"/>
<path d="M113.052 32.4024C113.754 32.8316 113.431 34.3066 112.931 35.6812C113.048 35.716 113.165 35.7434 113.284 35.7632L114.065 33.8188C114.206 33.4691 114.223 33.0678 114.113 32.7031C114.003 32.3383 113.775 32.04 113.479 31.8738C113.183 31.7076 112.843 31.6871 112.533 31.8168C112.224 31.9465 111.972 32.2157 111.831 32.5653L111.826 32.5773C112.231 32.2797 112.655 32.159 113.052 32.4024Z" fill="#FDD8C4" stroke="#FDE5D0" stroke-width="0.59" stroke-miterlimit="10"/>
<path opacity="0.53" d="M110.987 37.0532L110.985 37.0517C110.888 36.9992 110.813 36.9036 110.776 36.7859C110.74 36.6682 110.744 36.5381 110.789 36.4242L112 33.3249C112.044 33.2109 112.125 33.1225 112.225 33.079C112.325 33.0356 112.435 33.0407 112.532 33.0933L112.534 33.0946C112.631 33.1471 112.706 33.2429 112.743 33.3607C112.779 33.4785 112.775 33.6087 112.731 33.7228L111.519 36.822C111.475 36.9359 111.394 37.0242 111.294 37.0676C111.194 37.1109 111.084 37.1057 110.987 37.0532Z" fill="white" stroke="white" stroke-width="0.59" stroke-miterlimit="10"/>
<path d="M95.2704 52.7784C95.0599 51.8593 94.9707 50.6143 95.2855 49.0425L92.6946 49.2626C92.2083 49.3047 91.7557 49.5721 91.4358 50.0064C91.1158 50.4408 90.9543 51.0068 90.9865 51.5811C91.0164 52.0772 91.191 52.5458 91.4806 52.9071C91.4806 52.9071 93.3871 53.0208 95.2704 52.7784Z" fill="#EA695E" stroke="#EA695E" stroke-width="0.87" stroke-miterlimit="10"/>
<path d="M95.2695 52.7788C95.3164 52.981 95.3726 53.18 95.4379 53.3749L98.1168 53.1479C98.3574 53.1278 98.5924 53.0519 98.8082 52.9247C99.024 52.7974 99.2165 52.6213 99.3746 52.4062C99.5327 52.1912 99.6534 51.9415 99.7298 51.6714C99.8061 51.4013 99.8367 51.1161 99.8197 50.8321C99.8026 50.5481 99.7384 50.2708 99.6305 50.0161C99.5227 49.7614 99.3735 49.5342 99.1912 49.3476C99.009 49.1609 98.7975 49.0185 98.5686 48.9284C98.3398 48.8383 98.0981 48.8022 97.8575 48.8223H97.841L95.2864 49.0389C94.9698 50.6147 95.0582 51.8597 95.2695 52.7788Z" fill="#FDE5D0" stroke="#FDE5D0" stroke-width="0.87" stroke-miterlimit="10"/>
<path d="M92.9528 53.5876L95.4363 53.3769C95.371 53.182 95.3148 52.9829 95.2679 52.7808C93.3847 53.0232 91.4795 52.9094 91.4795 52.9094C91.6669 53.1446 91.8964 53.3275 92.1513 53.4448C92.4061 53.5621 92.6799 53.6109 92.9528 53.5876Z" fill="#D85C5E" stroke="#EA695E" stroke-width="0.87" stroke-miterlimit="10"/>
<path d="M98.9208 50.569C98.9629 51.9541 97.128 52.5398 95.2695 52.7788C95.3164 52.981 95.3726 53.18 95.4379 53.3749L98.1168 53.1479C98.6028 53.1073 99.0553 52.8405 99.3746 52.4062C99.694 51.9719 99.8541 51.4057 99.8197 50.8321C99.7853 50.2585 99.5592 49.7245 99.1913 49.3476C98.8233 48.9707 98.3435 48.7817 97.8575 48.8223H97.8411C98.4577 49.2257 98.8972 49.7851 98.9208 50.569Z" fill="#FDD8C4" stroke="#FDE5D0" stroke-width="0.87" stroke-miterlimit="10"/>
<path opacity="0.53" d="M97.8011 50.2824C97.8136 50.4687 97.763 50.6534 97.6605 50.7959C97.5579 50.9384 97.4118 51.0272 97.2539 51.0429L93.0217 51.4528C92.8638 51.4675 92.7073 51.4078 92.5864 51.2868C92.4656 51.1658 92.3903 50.9933 92.3769 50.807C92.3644 50.6205 92.4149 50.4358 92.5175 50.2932C92.62 50.1506 92.7662 50.0617 92.9241 50.0459L97.1558 49.636C97.3139 49.6212 97.4706 49.6808 97.5915 49.802C97.7124 49.9231 97.7878 50.0958 97.8011 50.2824Z" fill="white" stroke="white" stroke-width="0.87" stroke-miterlimit="10"/>
<path d="M120.27 75.2595L117.603 75.4135C117.923 76.4951 118.143 78.1395 117.693 80.3318L120.475 80.1694C121.561 80.1058 122.402 78.9497 122.346 77.5994C122.289 76.2491 121.355 75.1964 120.27 75.2595Z" fill="#FDE5D0" stroke="#FDE5D0" stroke-miterlimit="10"/>
<path d="M117.602 75.4136L114.725 75.5815C113.64 75.6446 112.799 76.8011 112.855 78.1509C112.912 79.5012 113.846 80.5539 114.931 80.4903L117.692 80.3294C118.143 78.1415 117.923 76.4971 117.602 75.4136Z" fill="#EA695E" stroke="#EA695E" stroke-miterlimit="10"/>
<path d="M137.252 120.091L115.385 103.76C113.419 102.292 112.828 99.1896 114.072 96.8711L134.74 58.3228C135.984 56.0022 138.613 55.3047 140.577 56.7733L162.445 73.1044C164.411 74.5724 165.001 77.6749 163.757 79.9934L143.089 118.542C141.845 120.862 139.218 121.559 137.252 120.091Z" fill="#E6F3F8" stroke="#E6F3F8" stroke-miterlimit="10"/>
<path d="M141.018 59.7119L142.445 60.7775" stroke="#B9D6E0" stroke-width="7" stroke-miterlimit="10"/>
<path d="M143.281 61.4028L144.676 62.4441" stroke="#B9D6E0" stroke-width="7" stroke-miterlimit="10"/>
<path d="M145.459 63.0308L146.742 63.9886" stroke="#B9D6E0" stroke-width="7" stroke-miterlimit="10"/>
<path d="M147.497 64.5264L148.78 65.4847" stroke="#B9D6E0" stroke-width="7" stroke-miterlimit="10"/>
<path d="M149.629 66.1074L150.912 67.0652" stroke="#B9D6E0" stroke-width="7" stroke-miterlimit="10"/>
<path d="M151.616 67.604L152.899 68.5623" stroke="#B9D6E0" stroke-width="7" stroke-miterlimit="10"/>
<path d="M153.635 69.1265L154.918 70.0843" stroke="#B9D6E0" stroke-width="7" stroke-miterlimit="10"/>
<path d="M155.728 70.666L157.01 71.6238" stroke="#B9D6E0" stroke-width="7" stroke-miterlimit="10"/>
<path d="M157.808 72.2432L159.09 73.2015" stroke="#B9D6E0" stroke-width="7" stroke-miterlimit="10"/>
<path d="M160.05 73.9263C160.05 73.9263 160.887 74.6258 161.169 75.2179" stroke="#B9D6E0" stroke-width="7" stroke-miterlimit="10"/>
<path d="M161.592 76.2222C161.592 76.2222 161.886 77.409 161.793 78.0891" stroke="#B9D6E0" stroke-width="7" stroke-miterlimit="10"/>
<path d="M161.629 79.0703C161.629 79.0703 161.471 79.6327 161.082 80.359" stroke="#B9D6E0" stroke-width="7" stroke-miterlimit="10"/>
<path d="M160.583 81.2876L160.009 82.3582" stroke="#B9D6E0" stroke-width="7" stroke-miterlimit="10"/>
<path d="M159.686 82.9941L159.111 84.0648" stroke="#B9D6E0" stroke-width="7" stroke-miterlimit="10"/>
<path d="M158.757 84.7222L158.184 85.7923" stroke="#B9D6E0" stroke-width="7" stroke-miterlimit="10"/>
<path d="M157.85 86.4561L157.276 87.5266" stroke="#B9D6E0" stroke-width="7" stroke-miterlimit="10"/>
<path d="M156.916 88.144L156.342 89.2141" stroke="#B9D6E0" stroke-width="7" stroke-miterlimit="10"/>
<path d="M156.02 89.8286L155.446 90.8992" stroke="#B9D6E0" stroke-width="7" stroke-miterlimit="10"/>
<path d="M155.135 91.4604L154.562 92.5305" stroke="#B9D6E0" stroke-width="7" stroke-miterlimit="10"/>
<path d="M154.237 93.1665L153.663 94.2366" stroke="#B9D6E0" stroke-width="7" stroke-miterlimit="10"/>
<path d="M153.372 94.7627L152.798 95.8333" stroke="#B9D6E0" stroke-width="7" stroke-miterlimit="10"/>
<path d="M152.387 96.5991L151.813 97.6697" stroke="#B9D6E0" stroke-width="7" stroke-miterlimit="10"/>
<path d="M151.44 98.3887L150.866 99.4593" stroke="#B9D6E0" stroke-width="7" stroke-miterlimit="10"/>
<path d="M150.656 99.8354L150.082 100.906" stroke="#B9D6E0" stroke-width="7" stroke-miterlimit="10"/>
<path d="M149.82 101.393L149.246 102.463" stroke="#B9D6E0" stroke-width="7" stroke-miterlimit="10"/>
<path d="M148.902 103.048L148.328 104.118" stroke="#B9D6E0" stroke-width="7" stroke-miterlimit="10"/>
<path d="M117.332 95.5771L116.758 96.6472" stroke="#B9D6E0" stroke-width="7" stroke-miterlimit="10"/>
<path d="M118.369 93.6245L117.795 94.6946" stroke="#B9D6E0" stroke-width="7" stroke-miterlimit="10"/>
<path d="M119.408 91.6406L118.834 92.7112" stroke="#B9D6E0" stroke-width="7" stroke-miterlimit="10"/>
<path d="M120.438 89.7671L119.864 90.8372" stroke="#B9D6E0" stroke-width="7" stroke-miterlimit="10"/>
<path d="M121.378 88.0029L120.805 89.073" stroke="#B9D6E0" stroke-width="7" stroke-miterlimit="10"/>
<path d="M122.326 86.2441L121.752 87.3143" stroke="#B9D6E0" stroke-width="7" stroke-miterlimit="10"/>
<path d="M123.328 84.3789L122.754 85.449" stroke="#B9D6E0" stroke-width="7" stroke-miterlimit="10"/>
<path d="M124.294 82.5781L123.721 83.6482" stroke="#B9D6E0" stroke-width="7" stroke-miterlimit="10"/>
<path d="M125.306 80.688L124.732 81.7581" stroke="#B9D6E0" stroke-width="7" stroke-miterlimit="10"/>
<path d="M126.331 78.7808L125.757 79.8513" stroke="#B9D6E0" stroke-width="7" stroke-miterlimit="10"/>
<path d="M127.321 76.8838L126.747 77.9544" stroke="#B9D6E0" stroke-width="7" stroke-miterlimit="10"/>
<path d="M128.338 75.0518L127.765 76.1218" stroke="#B9D6E0" stroke-width="7" stroke-miterlimit="10"/>
<path d="M129.336 73.1836L128.762 74.2537" stroke="#B9D6E0" stroke-width="7" stroke-miterlimit="10"/>
<path d="M130.295 71.3711L129.722 72.4412" stroke="#B9D6E0" stroke-width="7" stroke-miterlimit="10"/>
<path d="M131.268 69.5615L130.693 70.6316" stroke="#B9D6E0" stroke-width="7" stroke-miterlimit="10"/>
<path d="M132.242 67.7236L131.668 68.7937" stroke="#B9D6E0" stroke-width="7" stroke-miterlimit="10"/>
<path d="M133.257 65.876L132.683 66.9461" stroke="#B9D6E0" stroke-width="7" stroke-miterlimit="10"/>
<path d="M134.302 63.8921L133.729 64.9627" stroke="#B9D6E0" stroke-width="7" stroke-miterlimit="10"/>
<path d="M135.172 62.2593L134.599 63.3299" stroke="#B9D6E0" stroke-width="7" stroke-miterlimit="10"/>
<path d="M135.999 60.731L135.425 61.8015" stroke="#B9D6E0" stroke-width="7" stroke-miterlimit="10"/>
<path d="M148.011 104.725L147.438 105.795" stroke="#B9D6E0" stroke-width="7" stroke-miterlimit="10"/>
<path d="M147.057 106.494L146.482 107.564" stroke="#B9D6E0" stroke-width="7" stroke-miterlimit="10"/>
<path d="M146.148 108.219L145.574 109.289" stroke="#B9D6E0" stroke-width="7" stroke-miterlimit="10"/>
<path d="M145.252 109.879L144.679 110.95" stroke="#B9D6E0" stroke-width="7" stroke-miterlimit="10"/>
<path d="M144.223 111.814L143.649 112.885" stroke="#B9D6E0" stroke-width="7" stroke-miterlimit="10"/>
<path d="M143.33 113.465L142.756 114.535" stroke="#B9D6E0" stroke-width="7" stroke-miterlimit="10"/>
<path d="M142.362 115.275C142.362 115.275 142.194 115.792 141.709 116.262" stroke="#B9D6E0" stroke-width="7" stroke-miterlimit="10"/>
<path d="M141.351 116.621C141.351 116.621 140.874 117.028 140.53 117.175" stroke="#B9D6E0" stroke-width="7" stroke-miterlimit="10"/>
<path d="M140.051 117.368C140.051 117.368 139.575 117.538 139.148 117.521" stroke="#B9D6E0" stroke-width="7" stroke-miterlimit="10"/>
<path d="M138.657 117.508L137.978 117.336" stroke="#B9D6E0" stroke-width="7" stroke-miterlimit="10"/>
<path d="M137.335 117.03L136.673 116.556" stroke="#B9D6E0" stroke-width="7" stroke-miterlimit="10"/>
<path d="M135.837 115.922L135.175 115.448" stroke="#B9D6E0" stroke-width="7" stroke-miterlimit="10"/>
<path d="M134.505 114.924L133.843 114.451" stroke="#B9D6E0" stroke-width="7" stroke-miterlimit="10"/>
<path d="M133.439 114.106L132.772 113.641" stroke="#B9D6E0" stroke-width="7" stroke-miterlimit="10"/>
<path d="M132.368 113.32L131.716 112.827" stroke="#B9D6E0" stroke-width="7" stroke-miterlimit="10"/>
<path d="M131.293 112.525L130.641 112.031" stroke="#B9D6E0" stroke-width="7" stroke-miterlimit="10"/>
<path d="M130.065 111.597L129.413 111.104" stroke="#B9D6E0" stroke-width="7" stroke-miterlimit="10"/>
<path d="M128.72 110.612L128.068 110.119" stroke="#B9D6E0" stroke-width="7" stroke-miterlimit="10"/>
<path d="M127.643 109.805L126.99 109.312" stroke="#B9D6E0" stroke-width="7" stroke-miterlimit="10"/>
<path d="M126.519 108.964L125.866 108.471" stroke="#B9D6E0" stroke-width="7" stroke-miterlimit="10"/>
<path d="M125.484 108.226L124.832 107.732" stroke="#B9D6E0" stroke-width="7" stroke-miterlimit="10"/>
<path d="M124.448 107.444L123.796 106.951" stroke="#B9D6E0" stroke-width="7" stroke-miterlimit="10"/>
<path d="M123.45 106.702L122.798 106.209" stroke="#B9D6E0" stroke-width="7" stroke-miterlimit="10"/>
<path d="M122.376 105.88L121.724 105.387" stroke="#B9D6E0" stroke-width="7" stroke-miterlimit="10"/>
<path d="M121.301 105.057L120.648 104.563" stroke="#B9D6E0" stroke-width="7" stroke-miterlimit="10"/>
<path d="M119.959 104.099L119.307 103.605" stroke="#B9D6E0" stroke-width="7" stroke-miterlimit="10"/>
<path d="M118.574 102.97L117.922 102.477" stroke="#B9D6E0" stroke-width="7" stroke-miterlimit="10"/>
<path d="M117.507 102.169C117.507 102.169 117.143 101.752 117.007 101.523" stroke="#B9D6E0" stroke-width="7" stroke-miterlimit="10"/>
<path d="M116.277 99.338C116.277 99.338 116.175 98.5262 116.34 97.8799" stroke="#B9D6E0" stroke-width="7" stroke-miterlimit="10"/>
<path d="M116.75 101.06C116.75 101.06 116.455 100.453 116.371 99.958" stroke="#B9D6E0" stroke-width="7" stroke-miterlimit="10"/>
<path d="M136.439 60.1888C136.439 60.1888 136.93 59.6622 137.368 59.4561" stroke="#B9D6E0" stroke-width="7" stroke-miterlimit="10"/>
<path d="M138.012 59.1768C138.012 59.1768 138.68 58.9975 139.309 59.0382" stroke="#B9D6E0" stroke-width="7" stroke-miterlimit="10"/>
<path d="M139.947 59.165L140.485 59.3812" stroke="#B9D6E0" stroke-width="7" stroke-miterlimit="10"/>
<path d="M149.497 68.2583L148.443 70.2231" stroke="#B9D6E0" stroke-width="7" stroke-miterlimit="10"/>
<path d="M147.665 71.7056L146.611 73.6709" stroke="#B9D6E0" stroke-width="7" stroke-miterlimit="10"/>
<path d="M145.806 75.2822L144.752 77.247" stroke="#B9D6E0" stroke-width="7" stroke-miterlimit="10"/>
<path d="M143.915 78.7456L142.861 80.7104" stroke="#B9D6E0" stroke-width="7" stroke-miterlimit="10"/>
<path d="M142.148 81.9653L141.095 83.9306" stroke="#B9D6E0" stroke-width="7" stroke-miterlimit="10"/>
<path d="M140.5 85.1792L139.446 87.1441" stroke="#B9D6E0" stroke-width="7" stroke-miterlimit="10"/>
<path d="M138.743 88.3442L137.689 90.3091" stroke="#B9D6E0" stroke-width="7" stroke-miterlimit="10"/>
<path d="M137.057 91.4922L136.003 93.457" stroke="#B9D6E0" stroke-width="7" stroke-miterlimit="10"/>
<path d="M135.251 94.873L134.197 96.8379" stroke="#B9D6E0" stroke-width="7" stroke-miterlimit="10"/>
<path d="M133.495 98.0991L132.441 100.064" stroke="#B9D6E0" stroke-width="7" stroke-miterlimit="10"/>
<path d="M131.732 101.391L130.679 103.356" stroke="#B9D6E0" stroke-width="7" stroke-miterlimit="10"/>
<path d="M130.162 104.406L129.108 106.371" stroke="#B9D6E0" stroke-width="7" stroke-miterlimit="10"/>
<path d="M128.664 107.162L127.61 109.126" stroke="#B9D6E0" stroke-width="7" stroke-miterlimit="10"/>
<path d="M132.258 69.335L134.011 70.645" stroke="#B9D6E0" stroke-width="7" stroke-miterlimit="10"/>
<path d="M135.037 71.3838L136.791 72.6938" stroke="#B9D6E0" stroke-width="7" stroke-miterlimit="10"/>
<path d="M137.869 73.4731L139.623 74.7827" stroke="#B9D6E0" stroke-width="7" stroke-miterlimit="10"/>
<path d="M140.69 75.6265L142.444 76.936" stroke="#B9D6E0" stroke-width="7" stroke-miterlimit="10"/>
<path d="M143.628 77.8057L145.382 79.1157" stroke="#B9D6E0" stroke-width="7" stroke-miterlimit="10"/>
<path d="M146.293 79.8369L148.047 81.147" stroke="#B9D6E0" stroke-width="7" stroke-miterlimit="10"/>
<path d="M149.299 82.019L151.053 83.3291" stroke="#B9D6E0" stroke-width="7" stroke-miterlimit="10"/>
<path d="M152.396 84.2856L154.149 85.5952" stroke="#B9D6E0" stroke-width="7" stroke-miterlimit="10"/>
<path d="M154.957 86.2422L156.711 87.5522" stroke="#B9D6E0" stroke-width="7" stroke-miterlimit="10"/>
<path d="M126.552 80.0151L128.306 81.3252" stroke="#B9D6E0" stroke-width="7" stroke-miterlimit="10"/>
<path d="M129.332 82.064L131.086 83.3735" stroke="#B9D6E0" stroke-width="7" stroke-miterlimit="10"/>
<path d="M132.162 84.1533L133.916 85.4629" stroke="#B9D6E0" stroke-width="7" stroke-miterlimit="10"/>
<path d="M134.985 86.3066L136.739 87.6162" stroke="#B9D6E0" stroke-width="7" stroke-miterlimit="10"/>
<path d="M137.923 88.4854L139.677 89.7954" stroke="#B9D6E0" stroke-width="7" stroke-miterlimit="10"/>
<path d="M140.586 90.5166L142.34 91.8261" stroke="#B9D6E0" stroke-width="7" stroke-miterlimit="10"/>
<path d="M143.594 92.6987L145.347 94.0083" stroke="#B9D6E0" stroke-width="7" stroke-miterlimit="10"/>
<path d="M146.689 94.9648L148.444 96.2749" stroke="#B9D6E0" stroke-width="7" stroke-miterlimit="10"/>
<path d="M149.252 96.9219L151.006 98.2314" stroke="#B9D6E0" stroke-width="7" stroke-miterlimit="10"/>
<path d="M121.471 90.064L123.204 91.4113" stroke="#B9D6E0" stroke-width="7" stroke-miterlimit="10"/>
<path d="M124.218 92.1719L125.951 93.5192" stroke="#B9D6E0" stroke-width="7" stroke-miterlimit="10"/>
<path d="M127.017 94.3218L128.75 95.6691" stroke="#B9D6E0" stroke-width="7" stroke-miterlimit="10"/>
<path d="M129.805 96.5361L131.538 97.8834" stroke="#B9D6E0" stroke-width="7" stroke-miterlimit="10"/>
<path d="M132.709 98.7773L134.442 100.125" stroke="#B9D6E0" stroke-width="7" stroke-miterlimit="10"/>
<path d="M135.342 100.865L137.075 102.213" stroke="#B9D6E0" stroke-width="7" stroke-miterlimit="10"/>
<path d="M138.312 103.112L140.046 104.459" stroke="#B9D6E0" stroke-width="7" stroke-miterlimit="10"/>
<path d="M141.374 105.444L143.107 106.792" stroke="#B9D6E0" stroke-width="7" stroke-miterlimit="10"/>
<path d="M143.905 107.456L145.639 108.803" stroke="#B9D6E0" stroke-width="7" stroke-miterlimit="10"/>
<path d="M145.648 69.0048C145.469 68.4659 145.144 68.0118 144.724 67.7131L142.135 65.875C141.918 66.9183 141.413 68.284 140.274 69.6839C142.401 71.0471 144.715 71.6875 145.648 69.0048Z" fill="#FDE5D0" stroke="#FDE5D0" stroke-miterlimit="10"/>
<path d="M140.274 69.6838C141.41 68.2838 141.915 66.9186 142.134 65.8748L139.34 63.8906C138.832 63.5318 138.223 63.4251 137.648 63.5939C137.073 63.7626 136.578 64.1931 136.271 64.7913C136.091 65.1446 135.984 65.5431 135.959 65.9543L136.001 66.0154C136.001 66.0154 138.035 68.2495 140.274 69.6838Z" fill="#EA695E" stroke="#EA695E" stroke-miterlimit="10"/>
<path d="M140.274 69.684C140.103 69.8953 139.917 70.1068 139.716 70.3184L142.418 72.2375C142.819 72.5225 143.285 72.6518 143.751 72.6074C144.218 72.563 144.66 72.347 145.017 71.9899C145.374 71.6328 145.626 71.1526 145.74 70.617C145.853 70.0814 145.821 69.5173 145.648 69.0044C144.715 71.6876 142.401 71.0472 140.274 69.684Z" fill="#FDE5D0" stroke="#FDE5D0" stroke-miterlimit="10"/>
<path d="M140.274 69.684C140.103 69.8953 139.917 70.1068 139.716 70.3184L142.418 72.2375C142.819 72.5225 143.285 72.6518 143.751 72.6074C144.218 72.563 144.66 72.347 145.017 71.9899C145.374 71.6328 145.626 71.1526 145.74 70.617C145.853 70.0814 145.821 69.5173 145.648 69.0044C144.715 71.6876 142.401 71.0472 140.274 69.684Z" fill="#FDD8C4" stroke="#FDE5D0" stroke-miterlimit="10"/>
<path d="M137.034 68.4137L139.715 70.3184C139.916 70.1068 140.102 69.8953 140.273 69.684C138.035 68.2498 136.002 66.0157 136.002 66.0157L135.96 65.9546C135.93 66.4415 136.014 66.9289 136.203 67.3629C136.392 67.7969 136.68 68.1606 137.034 68.4137Z" fill="#EA695E" stroke="#EA695E" stroke-miterlimit="10"/>
<path d="M137.034 68.4137L139.715 70.3184C139.916 70.1068 140.102 69.8953 140.273 69.684C138.035 68.2498 136.002 66.0157 136.002 66.0157L135.96 65.9546C135.93 66.4415 136.014 66.9289 136.203 67.3629C136.392 67.7969 136.68 68.1606 137.034 68.4137Z" fill="#D85C5E" stroke="#EA695E" stroke-miterlimit="10"/>
<path opacity="0.53" d="M142.64 69.2669L138.912 66.7268C138.745 66.6123 138.624 66.4246 138.574 66.2047C138.524 65.9847 138.55 65.7504 138.646 65.5529C138.742 65.3559 138.901 65.2123 139.088 65.1534C139.274 65.0944 139.473 65.125 139.64 65.2384L143.368 67.7785C143.535 67.893 143.656 68.0806 143.706 68.3006C143.756 68.5205 143.73 68.7548 143.635 68.9524C143.538 69.1493 143.379 69.2928 143.192 69.3518C143.006 69.4107 142.807 69.3802 142.64 69.2669Z" fill="white" stroke="white" stroke-miterlimit="10"/>
<path d="M139.805 79.7577C139.626 79.2188 139.301 78.7646 138.881 78.4661L136.291 76.6279C136.075 77.6712 135.57 79.0374 134.432 80.4374C136.559 81.8006 138.872 82.4414 139.805 79.7577Z" fill="#FDE5D0" stroke="#FDE5D0" stroke-miterlimit="10"/>
<path d="M134.432 80.4368C135.568 79.0369 136.073 77.6717 136.292 76.6274L133.498 74.6437C132.99 74.2848 132.381 74.178 131.806 74.3468C131.231 74.5155 130.736 74.9461 130.429 75.5444C130.249 75.8975 130.142 76.2961 130.117 76.7074L130.159 76.7685C130.159 76.7685 132.193 79.0026 134.432 80.4368Z" fill="#EA695E" stroke="#EA695E" stroke-miterlimit="10"/>
<path d="M134.433 80.4369C134.261 80.6482 134.075 80.8596 133.874 81.0709L136.576 82.9905C136.977 83.2758 137.443 83.4054 137.909 83.3611C138.376 83.3168 138.818 83.1009 139.175 82.7437C139.532 82.3865 139.785 81.9061 139.898 81.3703C140.011 80.8345 139.979 80.2703 139.805 79.7573C138.873 82.441 136.56 81.8002 134.433 80.4369Z" fill="#FDE5D0" stroke="#FDE5D0" stroke-miterlimit="10"/>
<path d="M134.433 80.4369C134.261 80.6482 134.075 80.8596 133.874 81.0709L136.576 82.9905C136.977 83.2758 137.443 83.4054 137.909 83.3611C138.376 83.3168 138.818 83.1009 139.175 82.7437C139.532 82.3865 139.785 81.9061 139.898 81.3703C140.011 80.8345 139.979 80.2703 139.805 79.7573C138.873 82.441 136.56 81.8002 134.433 80.4369Z" fill="#FDD8C4" stroke="#FDE5D0" stroke-miterlimit="10"/>
<path d="M131.192 79.1667L133.873 81.0709C134.074 80.8599 134.26 80.6486 134.432 80.437C132.193 79.0027 130.161 76.7686 130.161 76.7686L130.119 76.7075C130.088 77.1944 130.172 77.6818 130.361 78.1158C130.55 78.5498 130.838 78.9135 131.192 79.1667Z" fill="#EA695E" stroke="#EA695E" stroke-miterlimit="10"/>
<path d="M131.192 79.1667L133.873 81.0709C134.074 80.8599 134.26 80.6486 134.432 80.437C132.193 79.0027 130.161 76.7686 130.161 76.7686L130.119 76.7075C130.088 77.1944 130.172 77.6818 130.361 78.1158C130.55 78.5498 130.838 78.9135 131.192 79.1667Z" fill="#D85C5E" stroke="#EA695E" stroke-miterlimit="10"/>
<path opacity="0.53" d="M136.798 80.0202L133.07 77.4801C132.903 77.3655 132.782 77.1778 132.732 76.9579C132.682 76.738 132.708 76.5037 132.804 76.3061C132.901 76.1093 133.06 75.9657 133.246 75.9068C133.432 75.8479 133.631 75.8784 133.798 75.9917L137.526 78.5318C137.693 78.6462 137.815 78.8339 137.865 79.0539C137.914 79.2738 137.889 79.5082 137.793 79.7057C137.696 79.9026 137.537 80.0463 137.35 80.1052C137.164 80.1642 136.965 80.1336 136.798 80.0202Z" fill="white" stroke="white" stroke-miterlimit="10"/>
<path d="M152.592 89.2851C152.413 88.7459 152.089 88.2917 151.669 87.9934L149.078 86.1553C148.862 87.1985 148.357 88.5647 147.219 89.9647C149.346 91.3274 151.659 91.9687 152.592 89.2851Z" fill="#FDE5D0" stroke="#FDE5D0" stroke-miterlimit="10"/>
<path d="M147.217 89.9648C148.354 88.5648 148.859 87.1992 149.077 86.1554L146.284 84.1717C145.957 83.938 145.585 83.8073 145.203 83.792C144.821 83.7768 144.442 83.8775 144.103 84.0846C143.764 84.2917 143.475 84.5982 143.265 84.9747C143.054 85.3512 142.93 85.7851 142.902 86.2349L142.944 86.2965C142.944 86.2965 144.979 88.5291 147.217 89.9648Z" fill="#EA695E" stroke="#EA695E" stroke-miterlimit="10"/>
<path d="M147.219 89.9643C147.047 90.1749 146.861 90.3862 146.66 90.5982L149.362 92.5173C149.763 92.8025 150.229 92.9321 150.695 92.8878C151.162 92.8435 151.604 92.6276 151.961 92.2705C152.318 91.9134 152.571 91.4331 152.684 90.8974C152.797 90.3617 152.765 89.7976 152.592 89.2847C151.659 91.9684 149.346 91.327 147.219 89.9643Z" fill="#FDE5D0" stroke="#FDE5D0" stroke-miterlimit="10"/>
<path d="M147.219 89.9643C147.047 90.1749 146.861 90.3862 146.66 90.5982L149.362 92.5173C149.763 92.8025 150.229 92.9321 150.695 92.8878C151.162 92.8435 151.604 92.6276 151.961 92.2705C152.318 91.9134 152.571 91.4331 152.684 90.8974C152.797 90.3617 152.765 89.7976 152.592 89.2847C151.659 91.9684 149.346 91.327 147.219 89.9643Z" fill="#FDD8C4" stroke="#FDE5D0" stroke-miterlimit="10"/>
<path d="M143.978 88.694L146.659 90.5982C146.861 90.3866 147.047 90.1753 147.218 89.9643C144.979 88.5301 142.947 86.296 142.947 86.296L142.905 86.2344C142.874 86.7213 142.958 87.2087 143.147 87.6428C143.337 88.0769 143.624 88.4407 143.978 88.694Z" fill="#EA695E" stroke="#EA695E" stroke-miterlimit="10"/>
<path d="M143.978 88.694L146.659 90.5982C146.861 90.3866 147.047 90.1753 147.218 89.9643C144.979 88.5301 142.947 86.296 142.947 86.296L142.905 86.2344C142.874 86.7213 142.958 87.2087 143.147 87.6428C143.337 88.0769 143.624 88.4407 143.978 88.694Z" fill="#D85C5E" stroke="#EA695E" stroke-miterlimit="10"/>
<path opacity="0.53" d="M149.584 89.5471L145.855 87.0069C145.689 86.8926 145.567 86.7049 145.517 86.4851C145.467 86.2652 145.493 86.0309 145.589 85.8335C145.686 85.6366 145.845 85.4931 146.031 85.4341C146.218 85.3752 146.416 85.4057 146.584 85.519L150.311 88.0591C150.478 88.1734 150.6 88.361 150.65 88.5809C150.7 88.8008 150.674 89.0352 150.578 89.2326C150.481 89.4292 150.322 89.5725 150.136 89.6314C149.95 89.6904 149.751 89.66 149.584 89.5471Z" fill="white" stroke="white" stroke-miterlimit="10"/>
<path d="M146.743 98.1038L144.153 96.2656C143.904 97.4669 143.273 99.0939 141.734 100.709L144.437 102.629C144.945 102.987 145.554 103.094 146.129 102.925C146.704 102.757 147.199 102.326 147.506 101.728C147.81 101.127 147.901 100.409 147.758 99.73C147.615 99.0508 147.25 98.4662 146.743 98.1038Z" fill="#FDE5D0" stroke="#FDE5D0" stroke-miterlimit="10"/>
<path d="M144.152 96.2635L141.359 94.2798C140.85 93.921 140.242 93.8143 139.667 93.983C139.092 94.1518 138.596 94.5823 138.289 95.1805C137.985 95.7808 137.895 96.4987 138.038 97.1773C138.181 97.856 138.546 98.4403 139.053 98.8026L141.734 100.707C143.272 99.0918 143.903 97.4648 144.152 96.2635Z" fill="#EA695E" stroke="#EA695E" stroke-miterlimit="10"/>
<path d="M140.699 108.457L138.109 106.619C137.86 107.82 137.229 109.447 135.69 111.062L138.392 112.982C138.901 113.34 139.509 113.447 140.085 113.278C140.66 113.11 141.155 112.679 141.462 112.081C141.766 111.48 141.857 110.762 141.714 110.083C141.571 109.404 141.206 108.82 140.699 108.457Z" fill="#FDE5D0" stroke="#FDE5D0" stroke-miterlimit="10"/>
<path d="M138.11 106.618L135.317 104.634C134.808 104.275 134.2 104.168 133.625 104.337C133.05 104.506 132.554 104.936 132.247 105.534C131.943 106.135 131.853 106.853 131.996 107.531C132.139 108.21 132.504 108.794 133.011 109.157L135.692 111.061C137.23 109.444 137.86 107.819 138.11 106.618Z" fill="#EA695E" stroke="#EA695E" stroke-miterlimit="10"/>
<path d="M127.929 99.0745L125.339 97.2363C125.09 98.4371 124.46 100.064 122.921 101.68L125.623 103.599C126.132 103.958 126.74 104.064 127.315 103.896C127.89 103.727 128.385 103.296 128.692 102.698C128.997 102.098 129.087 101.379 128.944 100.7C128.801 100.021 128.436 99.4369 127.929 99.0745Z" fill="#FDE5D0" stroke="#FDE5D0" stroke-miterlimit="10"/>
<path d="M125.338 97.2353L122.545 95.2511C122.037 94.8922 121.428 94.7854 120.853 94.9542C120.278 95.123 119.783 95.5535 119.476 96.1518C119.172 96.752 119.082 97.4699 119.224 98.1486C119.367 98.8272 119.732 99.4116 120.239 99.774L122.92 101.679C124.459 100.063 125.09 98.4361 125.338 97.2353Z" fill="#EA695E" stroke="#EA695E" stroke-miterlimit="10"/>
<path d="M134.402 90.2255C134.224 89.6865 133.899 89.2324 133.479 88.9338L130.889 87.0957C130.673 88.139 130.168 89.5052 129.029 90.9051C131.156 92.2678 133.469 92.9092 134.402 90.2255Z" fill="#FDE5D0" stroke="#FDE5D0" stroke-miterlimit="10"/>
<path d="M129.031 90.9052C130.167 89.5053 130.673 88.1396 130.891 87.0958L128.097 85.1121C127.77 84.8784 127.398 84.7477 127.016 84.7325C126.635 84.7172 126.256 84.818 125.916 85.025C125.577 85.2321 125.288 85.5386 125.078 85.9151C124.868 86.2916 124.743 86.7255 124.716 87.1753L124.758 87.2369C124.758 87.2369 126.792 89.473 129.031 90.9052Z" fill="#EA695E" stroke="#EA695E" stroke-miterlimit="10"/>
<path d="M129.03 90.9047C128.859 91.1153 128.672 91.3267 128.472 91.5386L131.174 93.4577C131.574 93.7429 132.041 93.8725 132.507 93.8282C132.973 93.7839 133.416 93.568 133.773 93.2109C134.129 92.8538 134.382 92.3735 134.495 91.8378C134.608 91.3021 134.576 90.738 134.403 90.2251C133.47 92.9088 131.157 92.2674 129.03 90.9047Z" fill="#FDE5D0" stroke="#FDE5D0" stroke-miterlimit="10"/>
<path d="M129.03 90.9047C128.859 91.1153 128.672 91.3267 128.472 91.5386L131.174 93.4577C131.574 93.7429 132.041 93.8725 132.507 93.8282C132.973 93.7839 133.416 93.568 133.773 93.2109C134.129 92.8538 134.382 92.3735 134.495 91.8378C134.608 91.3021 134.576 90.738 134.403 90.2251C133.47 92.9088 131.157 92.2674 129.03 90.9047Z" fill="#FDD8C4" stroke="#FDE5D0" stroke-miterlimit="10"/>
<path d="M125.79 89.6349L128.472 91.5391C128.673 91.3275 128.859 91.1162 129.03 90.9052C126.792 89.473 124.759 87.2374 124.759 87.2374L124.717 87.1758C124.686 87.6626 124.771 88.15 124.96 88.584C125.149 89.018 125.437 89.3817 125.79 89.6349Z" fill="#EA695E" stroke="#EA695E" stroke-miterlimit="10"/>
<path d="M125.79 89.6349L128.472 91.5391C128.673 91.3275 128.859 91.1162 129.03 90.9052C126.792 89.473 124.759 87.2374 124.759 87.2374L124.717 87.1758C124.686 87.6626 124.771 88.15 124.96 88.584C125.149 89.018 125.437 89.3817 125.79 89.6349Z" fill="#D85C5E" stroke="#EA695E" stroke-miterlimit="10"/>
<path opacity="0.53" d="M131.397 90.488L127.669 87.9473C127.502 87.8331 127.38 87.6455 127.331 87.4256C127.281 87.2056 127.306 86.9713 127.403 86.7739C127.5 86.5771 127.659 86.4335 127.845 86.3746C128.031 86.3157 128.23 86.3462 128.397 86.4594L132.125 88.9996C132.292 89.1138 132.414 89.3014 132.464 89.5213C132.514 89.7413 132.488 89.9756 132.392 90.173C132.295 90.3698 132.136 90.5134 131.949 90.5724C131.763 90.6314 131.564 90.6011 131.397 90.488Z" fill="white" stroke="white" stroke-miterlimit="10"/>
<path d="M158.432 78.6357C158.253 78.0966 157.929 77.6425 157.509 77.344L154.919 75.5059C154.702 76.5491 154.197 77.9153 153.059 79.3153C155.186 80.68 157.499 81.3189 158.432 78.6357Z" fill="#FDE5D0" stroke="#FDE5D0" stroke-miterlimit="10"/>
<path d="M153.059 79.3149C154.195 77.9149 154.7 76.5493 154.919 75.5055L152.125 73.5213C151.617 73.1621 151.008 73.055 150.433 73.2234C149.858 73.3918 149.363 73.822 149.055 74.42C148.875 74.7732 148.768 75.1717 148.743 75.583L148.785 75.6446C148.785 75.6446 150.82 77.8802 153.059 79.3149Z" fill="#EA695E" stroke="#EA695E" stroke-miterlimit="10"/>
<path d="M153.058 79.3149C152.886 79.5255 152.7 79.7368 152.499 79.9488L155.201 81.8679C155.602 82.1531 156.068 82.2826 156.535 82.2384C157.001 82.1941 157.444 81.9781 157.8 81.621C158.157 81.2639 158.41 80.7837 158.523 80.248C158.636 79.7123 158.604 79.1482 158.431 78.6353C157.498 81.3184 155.185 80.6796 153.058 79.3149Z" fill="#FDE5D0" stroke="#FDE5D0" stroke-miterlimit="10"/>
<path d="M153.058 79.3149C152.886 79.5255 152.7 79.7368 152.499 79.9488L155.201 81.8679C155.602 82.1531 156.068 82.2826 156.535 82.2384C157.001 82.1941 157.444 81.9781 157.8 81.621C158.157 81.2639 158.41 80.7837 158.523 80.248C158.636 79.7123 158.604 79.1482 158.431 78.6353C157.498 81.3184 155.185 80.6796 153.058 79.3149Z" fill="#FDD8C4" stroke="#FDE5D0" stroke-miterlimit="10"/>
<path d="M149.819 78.0461L152.5 79.9503C152.701 79.7387 152.887 79.5274 153.058 79.3164C150.82 77.8816 148.788 75.648 148.788 75.648L148.745 75.5864C148.715 76.0734 148.799 76.5608 148.988 76.9949C149.178 77.429 149.465 77.7928 149.819 78.0461Z" fill="#EA695E" stroke="#EA695E" stroke-miterlimit="10"/>
<path d="M149.819 78.0461L152.5 79.9503C152.701 79.7387 152.887 79.5274 153.058 79.3164C150.82 77.8816 148.788 75.648 148.788 75.648L148.745 75.5864C148.715 76.0734 148.799 76.5608 148.988 76.9949C149.178 77.429 149.465 77.7928 149.819 78.0461Z" fill="#D85C5E" stroke="#EA695E" stroke-miterlimit="10"/>
<path opacity="0.53" d="M155.425 78.8973L151.697 76.3572C151.53 76.2429 151.409 76.0553 151.359 75.8354C151.309 75.6155 151.335 75.3812 151.431 75.1838C151.528 74.9869 151.687 74.8434 151.873 74.7843C152.06 74.7253 152.258 74.7557 152.426 74.8688L156.153 77.4089C156.32 77.5235 156.442 77.7112 156.492 77.9311C156.542 78.151 156.516 78.3853 156.42 78.5828C156.323 78.7797 156.164 78.9232 155.978 78.9822C155.791 79.0411 155.593 79.0106 155.425 78.8973Z" fill="white" stroke="white" stroke-miterlimit="10"/>
<path d="M107.831 64.3941L106.295 67.5205C107.377 67.8305 108.855 68.6065 110.36 70.4828L111.962 67.2214C112.587 65.9491 112.169 64.2724 111.033 63.4954C109.896 62.7174 108.456 63.1223 107.831 64.3941Z" fill="#EA695E" stroke="#EA695E" stroke-miterlimit="10"/>
<path d="M106.294 67.521L104.638 70.8927C104.013 72.165 104.431 73.8417 105.567 74.6187C106.704 75.3962 108.144 74.9913 108.769 73.7195L110.359 70.4834C108.855 68.6075 107.377 67.831 106.294 67.521Z" fill="#FDE5D0" stroke="#FDE5D0" stroke-miterlimit="10"/>
<path opacity="0.72" d="M108.218 82.1173L106.682 85.2436C107.764 85.5536 109.241 86.3291 110.746 88.206L112.348 84.9445C112.973 83.6722 112.555 81.9956 111.419 81.2186C110.283 80.4406 108.842 80.8455 108.218 82.1173Z" fill="#EA695E" stroke="#EA695E" stroke-miterlimit="10"/>
<path d="M106.682 85.2437L105.025 88.6149C104.4 89.8872 104.818 91.5639 105.954 92.3409C107.09 93.1183 108.531 92.7135 109.155 91.4417L110.746 88.2055C109.242 86.3291 107.765 85.5537 106.682 85.2437Z" fill="#FDE5D0" stroke="#FDE5D0" stroke-miterlimit="10"/>
<path d="M124.447 113.711L122.911 116.837C123.993 117.148 125.471 117.923 126.975 119.8L128.578 116.538C129.203 115.266 128.785 113.589 127.649 112.812C126.513 112.035 125.072 112.439 124.447 113.711Z" fill="#EA695E" stroke="#EA695E" stroke-miterlimit="10"/>
<path d="M122.911 116.837L121.254 120.209C120.629 121.48 121.047 123.158 122.183 123.935C123.32 124.712 124.76 124.307 125.385 123.035L126.975 119.799C125.47 117.923 123.992 117.147 122.911 116.837Z" fill="#FDE5D0" stroke="#FDE5D0" stroke-miterlimit="10"/>
<path d="M115.731 67.7311L112.844 68.9353C113.497 69.9995 114.195 71.7209 114.309 74.3007L117.322 73.0443C118.496 72.5545 119.099 70.9578 118.662 69.4972C118.225 68.0361 116.905 67.2413 115.731 67.7311Z" fill="#EA695E" stroke="#EA695E" stroke-miterlimit="10"/>
<path d="M112.844 68.9351L109.729 70.2332C108.555 70.723 107.951 72.3197 108.389 73.7808C108.826 75.2419 110.145 76.0367 111.32 75.5469L114.309 74.3009C114.196 71.7206 113.497 69.9982 112.844 68.9351Z" fill="#FDE5D0" stroke="#FDE5D0" stroke-miterlimit="10"/>
<path d="M120.452 117.144L117.565 118.348C118.219 119.413 118.917 121.134 119.031 123.714L122.043 122.457C123.218 121.968 123.821 120.371 123.384 118.91C122.946 117.451 121.627 116.656 120.452 117.144Z" fill="#EA695E" stroke="#EA695E" stroke-miterlimit="10"/>
<path d="M117.566 118.35L114.451 119.648C113.276 120.138 112.673 121.735 113.11 123.196C113.548 124.657 114.867 125.452 116.042 124.962L119.03 123.716C118.915 121.136 118.219 119.414 117.566 118.35Z" fill="#FDE5D0" stroke="#FDE5D0" stroke-miterlimit="10"/>
<path d="M123.011 112.354L120.124 113.558C120.777 114.622 121.476 116.343 121.59 118.923L124.602 117.667C125.776 117.177 126.38 115.58 125.942 114.119C125.504 112.659 124.186 111.864 123.011 112.354Z" fill="#EA695E" stroke="#EA695E" stroke-miterlimit="10"/>
<path d="M120.124 113.558L117.009 114.856C115.834 115.346 115.231 116.943 115.668 118.404C116.106 119.865 117.425 120.66 118.599 120.17L121.588 118.924C121.475 116.344 120.776 114.622 120.124 113.558Z" fill="#FDE5D0" stroke="#FDE5D0" stroke-miterlimit="10"/>
<path d="M120.127 93.7619L117.239 94.9656C117.893 96.0302 118.591 97.7516 118.705 100.331L121.717 99.0751C122.892 98.5853 123.495 96.9886 123.058 95.5275C122.62 94.0669 121.301 93.272 120.127 93.7619Z" fill="#EA695E" stroke="#EA695E" stroke-miterlimit="10"/>
<path d="M117.24 94.9653L114.125 96.264C112.95 96.7538 112.347 98.3505 112.784 99.8116C113.222 101.273 114.541 102.068 115.716 101.578L118.704 100.331C118.592 97.7514 117.893 96.0305 117.24 94.9653Z" fill="#FDE5D0" stroke="#FDE5D0" stroke-miterlimit="10"/>
<path d="M110.933 117.199L107.871 117.183C108.182 118.445 108.348 120.344 107.718 122.818L110.912 122.834C112.158 122.841 113.182 121.578 113.187 120.028C113.193 118.478 112.18 117.205 110.933 117.199Z" fill="#EA695E" stroke="#EA695E" stroke-miterlimit="10"/>
<path d="M107.871 117.183L104.569 117.167C103.323 117.16 102.299 118.423 102.296 119.973C102.29 121.522 103.306 122.796 104.551 122.802L107.721 122.818C108.35 120.344 108.181 118.445 107.871 117.183Z" fill="#FDE5D0" stroke="#FDE5D0" stroke-miterlimit="10"/>
<path d="M117.087 65.802L117.586 69.367C118.588 68.7942 120.147 68.283 122.319 68.6014L121.797 64.8814C121.594 63.4308 120.366 62.4506 119.072 62.704C117.776 62.9573 116.883 64.3513 117.087 65.802Z" fill="#FDE5D0" stroke="#FDE5D0" stroke-miterlimit="10"/>
<path d="M117.586 69.367L118.125 73.2122C118.328 74.6628 119.556 75.643 120.85 75.3896C122.146 75.1368 123.039 73.7428 122.836 72.2921L122.319 68.6014C120.147 68.283 118.588 68.7942 117.586 69.367Z" fill="#EA695E" stroke="#EA695E" stroke-miterlimit="10"/>
<path d="M110.144 113.548L110.644 117.113C111.646 116.54 113.204 116.029 115.377 116.347L114.855 112.628C114.652 111.177 113.424 110.198 112.13 110.45C110.834 110.703 109.941 112.097 110.144 113.548Z" fill="#EA695E" stroke="#EA695E" stroke-miterlimit="10"/>
<path d="M110.645 117.113L111.183 120.958C111.387 122.409 112.615 123.389 113.909 123.136C115.205 122.883 116.098 121.489 115.894 120.038L115.377 116.349C113.205 116.029 111.646 116.54 110.645 117.113Z" fill="#FDE5D0" stroke="#FDE5D0" stroke-miterlimit="10"/>
<path opacity="0.2" d="M137.368 88.9899C137.368 88.9899 133.332 87.8199 131.517 91.1713L131.537 76.963C131.539 75.2003 131.108 73.467 130.266 72.0114C129.785 71.1803 129.017 70.4554 128.33 70.2637L127.983 70.9095C129.058 72.0631 130.497 73.9077 130.497 75.5093V97.8686L144.012 96.8412L150.062 105.748L151.055 103.788C151.055 103.788 143.208 90.4311 137.368 88.9899Z" fill="#216DA8" stroke="#216DA8" stroke-miterlimit="10"/>
<path opacity="0.73" d="M127.982 70.9065C127.861 70.7769 127.745 70.6581 127.637 70.5453C127.509 70.4162 127.372 70.3013 127.227 70.2021C127.524 70.5995 127.674 71.0282 127.674 71.4788C127.674 72.224 127.264 72.9051 126.454 73.5028C125.774 74.004 124.814 74.4502 123.601 74.8282C121.16 75.5903 117.918 76.0101 114.478 76.0101C111.038 76.0101 107.798 75.5903 105.355 74.8282C104.142 74.4502 103.182 74.004 102.502 73.5028C101.692 72.9066 101.281 72.224 101.281 71.4788C101.281 70.8762 101.55 70.3158 102.081 69.8081C99.9454 70.0888 98.2705 72.2424 98.2705 74.8342V117.366C98.2705 121.884 101.403 125.58 105.231 125.58H123.123C127.179 125.58 130.497 121.665 130.497 116.878V75.5063C130.496 73.9047 129.056 72.0601 127.982 70.9065Z" fill="#215077"/>
<path opacity="0.63" d="M100.958 84.0697V101.232C100.958 101.515 101.038 101.79 101.184 102.013C101.331 102.236 101.536 102.396 101.768 102.467C104.999 103.45 117.245 106.689 126.727 102.529C126.933 102.438 127.11 102.275 127.235 102.062C127.359 101.848 127.426 101.595 127.425 101.336V84.1567C127.425 83.9638 127.388 83.7735 127.317 83.6001C127.246 83.4266 127.142 83.2746 127.013 83.1553C126.885 83.0361 126.735 82.9528 126.576 82.9117C126.416 82.8706 126.251 82.8728 126.092 82.9181C122.866 83.8357 114.031 85.6883 102.253 82.8218C102.096 82.7839 101.934 82.7877 101.779 82.8328C101.624 82.878 101.479 82.9634 101.355 83.0828C101.231 83.2023 101.131 83.3529 101.062 83.5235C100.993 83.6942 100.958 83.8808 100.958 84.0697Z" fill="#BEE2EC" stroke="#BEE2EC" stroke-miterlimit="10"/>
<path opacity="0.72" d="M120.468 92.4038H115.748V87.9138C115.748 87.7447 115.691 87.5828 115.59 87.4633C115.488 87.3438 115.351 87.2764 115.208 87.2759H113.054C112.91 87.2764 112.773 87.3438 112.672 87.4633C112.571 87.5828 112.513 87.7447 112.513 87.9138V92.4038H107.917C107.771 92.4043 107.631 92.473 107.528 92.5947C107.425 92.7165 107.367 92.8814 107.366 93.0536V95.3712C107.367 95.5433 107.425 95.7083 107.528 95.8301C107.631 95.9518 107.771 96.0204 107.917 96.021H112.513V101.337C112.513 101.506 112.571 101.668 112.672 101.787C112.773 101.907 112.91 101.974 113.054 101.975H115.208C115.351 101.974 115.488 101.907 115.59 101.787C115.691 101.668 115.748 101.506 115.748 101.337V96.021H120.468C120.613 96.0204 120.753 95.9518 120.856 95.8301C120.96 95.7083 121.018 95.5433 121.018 95.3712V93.0546C121.018 92.8823 120.96 92.717 120.857 92.5951C120.753 92.4731 120.614 92.4043 120.468 92.4038Z" fill="#F7F7F7" stroke="#F7F7F7" stroke-miterlimit="10"/>
<g opacity="0.32">
<path opacity="0.32" d="M105.577 69.2057C107.949 68.4655 111.11 68.0581 114.478 68.0581C117.845 68.0581 121.006 68.4655 123.378 69.2057C123.803 69.3384 124.182 69.475 124.517 69.6141C124.936 69.444 125.345 69.2401 125.74 69.004C125.153 68.6826 124.435 68.3895 123.601 68.1287C121.159 67.3666 117.918 66.9468 114.478 66.9468C111.037 66.9468 107.797 67.3666 105.355 68.1287C104.473 68.4039 103.725 68.7149 103.121 69.0567C103.518 69.287 103.928 69.4861 104.348 69.6528C104.706 69.5013 105.113 69.3523 105.577 69.2057Z" fill="#215077" stroke="#212840" stroke-miterlimit="10"/>
<path opacity="0.32" d="M126.29 70.6552V69.3392C126.121 69.2245 125.938 69.1127 125.739 69.0044C125.344 69.2405 124.936 69.4443 124.517 69.6145C125.361 69.9637 125.933 70.3239 126.29 70.6552Z" fill="#215077" stroke="#212840" stroke-miterlimit="10"/>
<path opacity="0.32" d="M104.347 69.6504C103.928 69.4836 103.518 69.2845 103.121 69.0542C102.908 69.173 102.702 69.3057 102.502 69.4516C102.482 69.4655 102.463 69.4799 102.444 69.4944V70.8854C102.752 70.5093 103.354 70.0736 104.347 69.6504Z" fill="#215077" stroke="#212840" stroke-miterlimit="10"/>
</g>
<g opacity="0.32">
<path opacity="0.32" d="M105.597 64.3492C107.939 63.604 111.06 63.1931 114.386 63.1931C117.712 63.1931 120.834 63.604 123.175 64.3492C123.338 64.4009 123.493 64.4532 123.641 64.5062C124.076 64.3316 124.502 64.1273 124.917 63.8941C124.422 63.6693 123.918 63.4762 123.405 63.3159C120.991 62.5473 117.787 62.1235 114.386 62.1235C110.985 62.1235 107.782 62.5468 105.367 63.3159C104.861 63.4742 104.363 63.6645 103.874 63.8857C104.278 64.1243 104.694 64.3329 105.12 64.5102C105.272 64.4562 105.431 64.4025 105.597 64.3492Z" fill="#215077" stroke="#212840" stroke-miterlimit="10"/>
<path opacity="0.32" d="M105.12 64.5102C104.694 64.3329 104.277 64.1244 103.874 63.8857C103.302 64.149 102.825 64.4329 102.442 64.7372V66.1313C102.794 65.6404 103.614 65.0468 105.12 64.5102Z" fill="white" stroke="white" stroke-miterlimit="10"/>
<path opacity="0.32" d="M126.29 66.0809V64.7073C125.92 64.4182 125.462 64.1471 124.916 63.894C124.502 64.1272 124.076 64.3316 123.641 64.5061C125.104 65.0257 125.921 65.5985 126.29 66.0809Z" fill="white" stroke="white" stroke-miterlimit="10"/>
</g>
<path opacity="0.72" d="M114.454 66.0134C111.228 66.0134 108.189 65.5976 105.897 64.8425C103.397 64.0178 102.075 62.8786 102.075 61.5477C102.075 60.2168 103.397 59.0777 105.897 58.2535C108.187 57.4979 111.226 57.0815 114.454 57.0815C117.683 57.0815 120.719 57.4974 123.011 58.253C125.511 59.0772 126.833 60.2163 126.833 61.5472C126.833 62.8781 125.511 64.0173 123.011 64.842C120.717 65.5976 117.678 66.0134 114.454 66.0134ZM114.454 58.1467C107.337 58.1467 102.968 60.1274 102.968 61.5477C102.968 62.9681 107.337 64.9488 114.454 64.9488C121.571 64.9488 125.94 62.9681 125.94 61.5477C125.94 60.1274 121.568 58.1467 114.454 58.1467Z" fill="#F7F7F7" stroke="#F7F7F7" stroke-miterlimit="10"/>
<g opacity="0.17">
<path opacity="0.17" d="M126.29 62.8496C126.29 62.8496 125.931 63.3181 124.916 63.8929C125.461 64.1449 125.919 64.416 126.29 64.7061V62.8496Z" fill="#215077" stroke="#212840" stroke-miterlimit="10"/>
<path opacity="0.17" d="M102.444 62.7573V64.7371C102.825 64.4337 103.302 64.1498 103.876 63.8855C103.33 63.5611 102.845 63.1875 102.444 62.7573Z" fill="#215077" stroke="#212840" stroke-miterlimit="10"/>
<path opacity="0.17" d="M103.121 69.0572C102.887 68.9213 102.661 68.7675 102.444 68.5967V69.4978C102.463 69.4834 102.482 69.469 102.502 69.4551C102.702 69.309 102.908 69.1762 103.121 69.0572Z" fill="#215077" stroke="#212840" stroke-miterlimit="10"/>
<path opacity="0.17" d="M123.405 70.0172C120.99 70.7857 117.787 71.2095 114.386 71.2095C110.984 71.2095 107.781 70.7857 105.367 70.0172C105.002 69.9014 104.664 69.7792 104.347 69.6515C103.354 70.0733 102.752 70.509 102.444 70.888V71.977C102.444 71.977 103.031 72.8573 105.277 73.6537C105.375 73.6865 105.474 73.7188 105.577 73.7531C107.949 74.4933 111.11 74.9007 114.477 74.9007C114.651 74.9007 114.824 74.8995 114.996 74.8972C116.885 74.8112 124.139 74.3507 126.29 72.2776V70.657C125.933 70.3257 125.364 69.9655 124.517 69.6138C124.175 69.7552 123.804 69.8897 123.405 70.0172Z" fill="#215077" stroke="#212840" stroke-miterlimit="10"/>
<path opacity="0.17" d="M126.29 68.626C126.113 68.7635 125.929 68.8897 125.74 69.004C125.939 69.1123 126.122 69.2241 126.29 69.3389V68.626Z" fill="#215077" stroke="#212840" stroke-miterlimit="10"/>
<path opacity="0.17" d="M123.64 64.5059C121.837 65.2386 118.933 65.951 114.405 66.0131C114.405 66.0131 108.996 66.1428 105.119 64.5098C103.614 65.0464 102.792 65.64 102.444 66.1309V67.202C102.828 67.743 103.785 68.4072 105.596 68.984C107.938 69.7292 111.06 70.14 114.386 70.14C117.711 70.14 120.833 69.7297 123.175 68.984C124.931 68.4251 125.884 67.7837 126.29 67.2526V66.0807C125.921 65.5983 125.104 65.0255 123.64 64.5059Z" fill="#215077" stroke="#212840" stroke-miterlimit="10"/>
</g>
<path d="M126.531 66.6668C126.531 66.4989 126.457 66.2991 126.29 66.0811V67.253C126.457 67.0344 126.531 66.8347 126.531 66.6668Z" fill="#BEE2EC" stroke="#BEE2EC" stroke-miterlimit="10"/>
<path d="M102.24 66.6674C102.24 66.8224 102.304 67.0042 102.444 67.2029V66.1318C102.304 66.3306 102.24 66.5129 102.24 66.6674Z" fill="#BEE2EC" stroke="#BEE2EC" stroke-miterlimit="10"/>
<path opacity="0.72" d="M127.227 70.2023C127.001 69.9112 126.74 69.6602 126.453 69.4571C126.401 69.4178 126.346 69.3796 126.29 69.3413V70.6573C126.627 70.9693 126.769 71.2535 126.769 71.481C126.769 72.0409 125.881 72.9714 123.378 73.7534C121.128 74.4553 118.169 74.8577 114.997 74.896C114.707 74.9089 114.544 74.9134 114.544 74.9134C109.992 74.8881 107.093 74.2988 105.277 73.655C103.004 72.8949 102.186 72.0156 102.186 71.4795C102.186 71.3111 102.266 71.1099 102.445 70.8893V69.4983C102.318 69.594 102.197 69.6976 102.08 69.8088C101.55 70.3165 101.28 70.8769 101.28 71.4795C101.28 72.2247 101.691 72.9058 102.501 73.5035C103.181 74.0047 104.143 74.4509 105.354 74.8289C107.795 75.591 111.036 76.0108 114.477 76.0108C117.917 76.0108 121.158 75.591 123.6 74.8289C124.813 74.4509 125.773 74.0047 126.453 73.5035C127.263 72.9073 127.673 72.2247 127.673 71.4795C127.675 71.0284 127.524 70.6017 127.227 70.2023Z" fill="#F7F7F7" stroke="#F7F7F7" stroke-miterlimit="10"/>
<path opacity="0.72" d="M126.289 64.707V66.0807C126.458 66.2988 126.531 66.4985 126.531 66.6664C126.531 66.8343 126.456 67.034 126.289 67.2526C125.883 67.7837 124.931 68.425 123.174 68.9839C120.833 69.7291 117.711 70.14 114.385 70.14C111.059 70.14 107.938 69.7296 105.596 68.9839C103.786 68.4072 102.827 67.7419 102.444 67.2019C102.303 67.0032 102.24 66.8214 102.24 66.6664C102.24 66.5114 102.303 66.3296 102.444 66.1308V64.7368C101.719 65.3161 101.346 65.9649 101.346 66.6664C101.346 67.3679 101.719 68.0172 102.444 68.5959C103.117 69.135 104.098 69.6139 105.366 70.0173C107.781 70.7858 110.984 71.2096 114.385 71.2096C117.786 71.2096 120.99 70.7858 123.404 70.0173C124.649 69.6198 125.616 69.1528 126.289 68.6262C127.039 68.04 127.426 67.3808 127.426 66.6669C127.426 65.953 127.039 65.2937 126.289 64.707Z" fill="#F7F7F7" stroke="#F7F7F7" stroke-miterlimit="10"/>
<path d="M120.14 54.729C120.096 54.6417 120.049 54.5572 119.998 54.4756C119.216 53.2306 117.757 52.9281 116.756 53.8034L114.296 55.955C115.102 56.6724 116.079 57.8926 116.814 59.924C116.89 60.1326 116.963 60.35 117.033 60.5762L119.601 58.3317C120.534 57.514 120.752 55.9471 120.14 54.729Z" fill="#EA695E" stroke="#EA695E" stroke-miterlimit="10"/>
<path d="M116.813 59.924C116.078 57.8931 115.102 56.6725 114.295 55.9551L111.643 58.2756C110.642 59.151 110.465 60.8863 111.245 62.1312C112.026 63.3762 113.486 63.6788 114.486 62.8034L117.033 60.5763C116.962 60.3497 116.889 60.1323 116.813 59.924Z" fill="#FDE5D0" stroke="#FDE5D0" stroke-miterlimit="10"/>
<path d="M116.813 59.924C116.889 60.1326 116.962 60.3501 117.032 60.5763L119.6 58.3318C120.535 57.514 120.753 55.9471 120.141 54.729C119.976 55.8537 119.354 56.7758 119.354 56.7758C118.437 58.1087 117.588 59.1356 116.813 59.924Z" fill="#D85C5E" stroke="#EA695E" stroke-miterlimit="10"/>
<path d="M114.486 62.8032L117.032 60.5761C116.962 60.3496 116.889 60.1322 116.814 59.9238C113.26 63.5385 111.244 62.1311 111.244 62.1311C112.026 63.3765 113.485 63.6786 114.486 62.8032Z" fill="#FDD8C4" stroke="#FDE5D0" stroke-miterlimit="10"/>
<path opacity="0.53" d="M116.988 54.958L112.956 58.6033C112.734 58.8035 112.692 59.1777 112.862 59.4391L112.927 59.5397C113.097 59.8011 113.414 59.8506 113.635 59.6504L117.668 56.0052C117.889 55.805 117.931 55.4308 117.762 55.1694L117.696 55.0688C117.527 54.8074 117.21 54.7578 116.988 54.958Z" fill="white" stroke="white" stroke-miterlimit="10"/>
<path opacity="0.29" d="M98.2686 117.449C98.2686 119.618 98.9988 121.699 100.299 123.233C101.598 124.767 103.361 125.628 105.199 125.628H123.121C123.121 125.628 100.722 125.652 102.315 84.8416C102.383 83.08 103.032 81.4198 104.125 80.2172C105.218 79.0145 106.667 78.3652 108.16 78.4086C113.533 78.5671 121.662 77.9551 126.453 73.5013C126.453 73.5013 123.867 76.2799 112.754 76.0583C112.754 76.0583 103.162 75.7647 101.464 72.312C101.464 72.312 100.731 70.7535 102.079 69.8066C101.579 69.8066 101.083 69.923 100.621 70.149C100.159 70.375 99.7386 70.7063 99.3847 71.1239C99.0308 71.5416 98.7501 72.0373 98.5586 72.583C98.3671 73.1287 98.2686 73.7135 98.2686 74.3041V117.449Z" fill="#212840" stroke="#212840" stroke-miterlimit="10"/>
<path opacity="0.29" d="M123.875 97.3062C123.875 97.3062 121.785 111.816 128.306 123.149C128.306 123.149 130.709 120.935 130.495 116.878C130.28 112.822 130.495 103.852 130.495 103.852L123.875 97.3062Z" fill="#212840" stroke="#212840" stroke-miterlimit="10"/>
<path d="M123.404 127.061C123.511 126.195 123.323 125.315 122.881 124.612C122.439 123.91 121.78 123.442 121.047 123.312L117.308 122.659C117.493 124.057 117.453 126.047 116.589 128.471C116.509 128.697 116.421 128.926 116.326 129.159L120.228 129.841C120.961 129.966 121.707 129.744 122.302 129.223C122.897 128.702 123.293 127.924 123.404 127.059V127.061Z" fill="#FDE5D0" stroke="#FDE5D0" stroke-miterlimit="10"/>
<path d="M116.589 128.472C117.453 126.046 117.493 124.055 117.308 122.659L113.275 121.954C112.912 121.89 112.542 121.912 112.185 122.017C111.829 122.122 111.494 122.31 111.199 122.568C110.904 122.826 110.655 123.15 110.466 123.522C110.277 123.894 110.152 124.306 110.099 124.735C110.045 125.164 110.063 125.601 110.152 126.021C110.242 126.442 110.4 126.837 110.619 127.185C110.838 127.534 111.113 127.827 111.428 128.05C111.743 128.273 112.092 128.42 112.455 128.484L116.328 129.161C116.422 128.928 116.509 128.698 116.589 128.472Z" fill="#EA695E" stroke="#EA695E" stroke-miterlimit="10"/>
<path opacity="0.58" d="M116.589 128.472C110.349 126.726 113.275 121.954 113.275 121.954C112.912 121.89 112.542 121.912 112.185 122.017C111.829 122.122 111.494 122.31 111.199 122.568C110.904 122.826 110.655 123.15 110.466 123.522C110.277 123.894 110.152 124.306 110.099 124.735C110.045 125.164 110.063 125.601 110.152 126.021C110.242 126.442 110.4 126.837 110.619 127.186C110.838 127.534 111.113 127.828 111.428 128.05C111.743 128.273 112.092 128.42 112.455 128.484L116.328 129.161L120.23 129.843C120.62 129.911 121.019 129.88 121.399 129.752C121.779 129.625 122.132 129.404 122.434 129.103C119.912 129.112 118.012 128.869 116.589 128.472Z" fill="#C94A47" stroke="#C94A47" stroke-miterlimit="10"/>
<path opacity="0.39" d="M120.668 125.44C120.717 125.04 120.63 124.633 120.426 124.309C120.222 123.984 119.917 123.768 119.578 123.708L117.85 123.404L115.985 123.078C115.649 123.025 115.308 123.131 115.037 123.372C114.766 123.613 114.586 123.971 114.536 124.367C114.487 124.763 114.571 125.167 114.771 125.491C114.972 125.814 115.272 126.032 115.607 126.097L117.396 126.409L119.199 126.725C119.538 126.783 119.883 126.68 120.158 126.439C120.433 126.198 120.616 125.839 120.668 125.439V125.44Z" fill="#FFFEFF" stroke="white" stroke-miterlimit="10"/>
<path d="M116.213 116.367C115.768 115.668 115.106 115.205 114.372 115.08C113.639 114.955 112.893 115.177 112.298 115.699L109.271 118.37C110.241 119.2 111.411 120.636 112.259 123.069C112.338 123.295 112.415 123.529 112.488 123.774L115.645 120.987C116.237 120.461 116.629 119.68 116.735 118.814C116.841 117.949 116.652 117.069 116.211 116.367H116.213Z" fill="#FDE5D0" stroke="#FDE5D0" stroke-miterlimit="10"/>
<path d="M112.26 123.069C111.41 120.635 110.239 119.201 109.271 118.371L106.005 121.252C105.411 121.776 105.018 122.557 104.912 123.424C104.805 124.29 104.995 125.171 105.439 125.872C105.884 126.573 106.546 127.038 107.28 127.163C108.014 127.288 108.76 127.064 109.354 126.54L112.489 123.775C112.415 123.53 112.338 123.296 112.26 123.069Z" fill="#EA695E" stroke="#EA695E" stroke-miterlimit="10"/>
<path opacity="0.32" d="M112.26 123.069C106.813 127.065 106.005 121.252 106.005 121.252C105.411 121.776 105.018 122.557 104.912 123.423C104.805 124.29 104.995 125.171 105.439 125.872C105.884 126.573 106.546 127.037 107.28 127.163C108.014 127.288 108.76 127.064 109.354 126.54L112.489 123.774L115.646 120.987C115.962 120.708 116.225 120.352 116.416 119.944C116.607 119.536 116.722 119.084 116.755 118.62C114.986 120.737 113.503 122.158 112.26 123.069Z" fill="#C94A47" stroke="#C94A47" stroke-miterlimit="10"/>
<path opacity="0.39" d="M113.311 117.516C113.105 117.193 112.799 116.979 112.46 116.921C112.121 116.863 111.776 116.966 111.501 117.207L110.102 118.442L108.592 119.774C108.317 120.016 108.136 120.377 108.087 120.778C108.037 121.178 108.125 121.585 108.33 121.909C108.536 122.233 108.842 122.448 109.181 122.506C109.52 122.564 109.865 122.46 110.14 122.218L111.591 120.94L113.051 119.652C113.325 119.408 113.506 119.047 113.555 118.647C113.604 118.247 113.517 117.84 113.313 117.515L113.311 117.516Z" fill="#FFFEFF" stroke="white" stroke-miterlimit="10"/>
<path d="M141.815 105.824C136.59 97.194 130.492 91.5797 127.556 92.4864C127.318 92.5578 127.093 92.6802 126.892 92.8475C126.55 93.1362 126.298 93.5515 126.13 94.0741C125.946 94.6435 125.864 95.342 125.877 96.1473C125.88 96.3584 125.889 96.5765 125.905 96.802C125.905 96.81 125.905 96.8174 125.905 96.8254C125.912 96.9208 125.92 97.0171 125.929 97.115C125.932 97.1394 125.934 97.1647 125.936 97.188C125.946 97.2954 125.958 97.4032 125.971 97.5134C126.463 101.618 128.799 107.664 132.462 113.712C136.345 120.126 140.71 124.873 143.901 126.517C143.952 126.544 144.003 126.567 144.054 126.594L144.149 126.639L144.197 126.662C144.239 126.681 144.281 126.7 144.32 126.718L144.334 126.724C145.06 127.043 145.716 127.186 146.282 127.135C146.621 127.111 146.95 126.994 147.244 126.795L147.703 126.348C147.775 126.253 147.841 126.152 147.9 126.045C149.556 123.045 147.03 114.436 141.815 105.824Z" fill="#216DA8" stroke="#216DA8" stroke-miterlimit="10"/>
<path d="M147.167 99.4325C142.414 92.5117 136.832 88.4479 134.318 89.9542C134.188 90.0316 134.065 90.125 133.952 90.2329C133.447 90.7172 133.157 91.4679 133.068 92.4217C133.063 92.4759 133.059 92.5301 133.055 92.5852C133.055 92.6071 133.053 92.6294 133.051 92.6513C133.049 92.6935 133.047 92.7367 133.045 92.7799L133.042 92.8505C133.042 92.9002 133.042 92.9449 133.039 92.9931C133.039 93.0114 133.039 93.0298 133.039 93.0487C133.039 93.1149 133.039 93.1812 133.039 93.2474C133.039 93.2663 133.039 93.2862 133.039 93.305C133.039 93.3547 133.042 93.4044 133.044 93.4541L133.047 93.5306C133.047 93.5803 133.052 93.625 133.055 93.6727C133.055 93.6975 133.058 93.7224 133.06 93.7472C133.064 93.8088 133.069 93.8709 133.075 93.9335L133.077 93.9643C133.084 94.0363 133.091 94.1094 133.099 94.1824L133.108 94.2574C133.114 94.3071 133.12 94.3597 133.127 94.4114C133.13 94.4392 133.134 94.467 133.138 94.4944C133.145 94.5485 133.153 94.6027 133.161 94.6573C133.164 94.6807 133.167 94.704 133.171 94.7279C133.183 94.8044 133.195 94.8814 133.208 94.9589L133.218 95.0155C133.229 95.0766 133.24 95.1372 133.251 95.1988L133.268 95.2853C133.278 95.3394 133.289 95.3941 133.3 95.4487C133.306 95.4775 133.311 95.5059 133.317 95.5347C133.331 95.6002 133.345 95.6663 133.359 95.7334L133.37 95.7831C133.389 95.8652 133.408 95.948 133.428 96.0315C133.434 96.0578 133.44 96.0846 133.447 96.1109C133.461 96.1701 133.476 96.2297 133.489 96.2893C133.497 96.3201 133.505 96.3509 133.513 96.3822C133.528 96.4413 133.544 96.5014 133.56 96.561C133.567 96.5889 133.574 96.6162 133.582 96.644C133.605 96.73 133.629 96.8159 133.654 96.9028C133.658 96.9177 133.662 96.9331 133.667 96.9485C133.688 97.0216 133.709 97.0976 133.731 97.1686L133.759 97.261C133.777 97.3216 133.796 97.3827 133.815 97.4438C133.825 97.4751 133.835 97.5069 133.845 97.5382C133.866 97.6073 133.887 97.6768 133.911 97.7459C133.918 97.7683 133.925 97.7901 133.933 97.812C133.961 97.9024 133.991 97.993 134.023 98.0837L134.05 98.1612C134.073 98.2288 134.097 98.2963 134.12 98.3639L134.155 98.4633L134.226 98.658L134.259 98.7489C134.293 98.8423 134.328 98.9359 134.364 99.0296L134.371 99.0485C134.405 99.1373 134.44 99.2265 134.475 99.3163L134.512 99.4102C134.538 99.4767 134.565 99.5428 134.591 99.6089C134.605 99.6422 134.619 99.6759 134.634 99.7082C134.662 99.7804 134.691 99.8525 134.723 99.9243L134.754 100.001C134.795 100.097 134.836 100.194 134.878 100.291C134.888 100.315 134.899 100.341 134.909 100.364L135.007 100.588C135.022 100.622 135.037 100.656 135.052 100.687L135.145 100.894L135.189 100.993C135.231 101.081 135.27 101.17 135.311 101.259L135.326 101.292C135.373 101.391 135.42 101.491 135.468 101.59C135.482 101.62 135.497 101.651 135.51 101.682C135.544 101.753 135.579 101.824 135.614 101.896C135.631 101.931 135.648 101.966 135.665 102C135.701 102.073 135.737 102.149 135.774 102.221L135.816 102.307C135.867 102.406 135.919 102.507 135.97 102.61C135.981 102.629 135.991 102.649 136 102.668C136.042 102.751 136.085 102.834 136.13 102.917C136.148 102.951 136.166 102.985 136.184 103.019C136.221 103.09 136.26 103.162 136.298 103.233C136.316 103.267 136.334 103.301 136.352 103.333L136.49 103.587L136.521 103.642C136.577 103.745 136.634 103.847 136.692 103.949C136.708 103.979 136.724 104.007 136.74 104.036C136.782 104.112 136.825 104.185 136.869 104.262C136.889 104.298 136.909 104.332 136.929 104.368C136.971 104.442 137.013 104.517 137.058 104.59L137.112 104.682C137.172 104.785 137.233 104.888 137.295 104.992L137.317 105.027C137.372 105.119 137.427 105.211 137.483 105.303L137.544 105.402C137.589 105.476 137.634 105.549 137.679 105.621L137.743 105.724C137.794 105.806 137.845 105.887 137.897 105.969L137.939 106.037C138.005 106.141 138.071 106.244 138.138 106.347L138.189 106.426C138.24 106.505 138.291 106.583 138.343 106.661L138.412 106.765C138.461 106.839 138.51 106.914 138.559 106.986L138.623 107.082C138.693 107.185 138.763 107.289 138.834 107.392C138.904 107.495 138.973 107.595 139.044 107.695L139.104 107.78C139.159 107.859 139.215 107.937 139.272 108.016L139.322 108.086C139.392 108.186 139.462 108.283 139.532 108.378L139.578 108.44C139.634 108.519 139.691 108.596 139.749 108.674L139.81 108.756C139.876 108.845 139.942 108.933 140.008 109.02L140.025 109.043C140.096 109.137 140.168 109.23 140.239 109.324L140.299 109.4C140.355 109.473 140.411 109.545 140.467 109.616L140.522 109.686C140.593 109.777 140.664 109.867 140.736 109.957L140.775 110.006C140.835 110.081 140.895 110.156 140.955 110.23L141.017 110.305C141.08 110.383 141.142 110.459 141.205 110.534L141.236 110.57C141.308 110.657 141.38 110.742 141.452 110.827L141.509 110.895C141.565 110.961 141.621 111.028 141.678 111.094L141.735 111.161C141.807 111.244 141.879 111.326 141.951 111.409L141.982 111.445C142.045 111.515 142.107 111.585 142.17 111.655L142.233 111.725C142.293 111.791 142.353 111.857 142.413 111.923L142.453 111.967C142.525 112.045 142.597 112.122 142.668 112.198L142.723 112.256L142.891 112.434L142.952 112.497C143.023 112.571 143.095 112.646 143.167 112.718L143.186 112.738C143.251 112.805 143.318 112.871 143.383 112.936L143.446 112.998C143.503 113.056 143.56 113.112 143.617 113.168C143.633 113.183 143.649 113.199 143.665 113.215L143.875 113.419L143.927 113.468C143.983 113.521 144.039 113.574 144.095 113.626L144.156 113.684C144.225 113.747 144.295 113.811 144.364 113.874L144.37 113.88C144.441 113.944 144.511 114.006 144.581 114.068L144.642 114.122C144.698 114.17 144.753 114.218 144.806 114.265L144.858 114.311C144.928 114.37 144.997 114.429 145.066 114.486L145.111 114.525C145.167 114.571 145.222 114.617 145.28 114.662L145.341 114.712L145.526 114.861L145.549 114.879C145.617 114.933 145.685 114.986 145.753 115.038L145.811 115.083L145.968 115.202L146.022 115.243C146.089 115.292 146.156 115.342 146.222 115.392L146.261 115.419C146.316 115.459 146.371 115.497 146.426 115.536L146.486 115.577C146.542 115.616 146.598 115.655 146.654 115.693L146.686 115.714C146.752 115.758 146.817 115.801 146.881 115.843L146.936 115.878C146.986 115.91 147.035 115.941 147.085 115.972L147.139 116.006C147.203 116.046 147.267 116.084 147.33 116.122L147.36 116.139C147.415 116.172 147.469 116.203 147.523 116.234L147.58 116.266L147.733 116.35L147.772 116.371C147.833 116.405 147.894 116.436 147.955 116.468L148.004 116.492L148.145 116.562L148.199 116.587C148.259 116.616 148.319 116.644 148.379 116.671L148.396 116.678C148.45 116.703 148.504 116.728 148.558 116.749L148.611 116.771C148.658 116.79 148.704 116.808 148.75 116.826L148.792 116.842C148.849 116.865 148.906 116.885 148.963 116.905L149.005 116.92C149.047 116.935 149.093 116.95 149.137 116.964L149.188 116.98C149.241 116.997 149.295 117.013 149.348 117.029C150.469 117.342 151.404 117.224 152.052 116.605C154.356 114.397 152.167 106.712 147.167 99.4325Z" fill="#216DA8" stroke="#216DA8" stroke-miterlimit="10"/>
<path d="M146.548 103.973C146.093 103.157 145.585 102.334 145.026 101.521C141.328 96.1365 136.85 93.1871 135.024 94.9333C134.957 94.9976 134.895 95.0677 134.837 95.143C134.979 97.8684 136.82 102.293 139.791 106.619C142.025 109.871 144.436 112.397 146.442 113.76C147.042 114.168 147.606 114.472 148.118 114.66C148.224 114.596 148.323 114.519 148.416 114.431C149.966 112.951 149.106 108.56 146.548 103.973Z" fill="#2193CE" stroke="#216DA8" stroke-miterlimit="10"/>
<path d="M148.417 114.433C149.967 112.95 149.107 108.56 146.549 103.973C149.479 110.779 147.152 113.214 146.443 113.76C147.043 114.167 147.607 114.471 148.12 114.66C148.225 114.596 148.324 114.52 148.417 114.433Z" fill="#2193CE" stroke="#216DA8" stroke-miterlimit="10"/>
<path opacity="0.44" d="M148.417 114.433C149.967 112.95 149.107 108.56 146.549 103.973C149.479 110.779 147.152 113.214 146.443 113.76C147.043 114.167 147.607 114.471 148.12 114.66C148.225 114.596 148.324 114.52 148.417 114.433Z" fill="#215077" stroke="#215077" stroke-miterlimit="10"/>
<path d="M145.938 100.742C141.838 94.7722 137.14 91.2484 135.442 92.8719C134.975 93.3191 134.784 94.1085 134.838 95.1428C134.896 95.0675 134.959 94.9974 135.025 94.9331C136.851 93.1869 141.329 96.1364 145.027 101.521C148.725 106.906 150.243 112.687 148.417 114.433C148.325 114.521 148.225 114.598 148.12 114.662C149.039 115 149.793 114.966 150.289 114.491C151.986 112.868 150.038 106.712 145.938 100.742Z" fill="#215077" stroke="#215077" stroke-miterlimit="10"/>
<path d="M149.36 117.023C146.503 116.228 142.435 112.63 138.841 107.397C134.934 101.707 132.743 95.7717 133.07 92.3994C133.16 91.4555 133.448 90.7138 133.951 90.2329C133.265 90.958 132.539 91.6288 131.778 92.2409C130.915 92.931 129.686 94.0682 128.617 94.9838C128.371 95.195 128.174 95.4755 128.043 95.7997C127.912 96.1238 127.853 96.4813 127.869 96.8398C128.041 100.788 130.118 106.858 133.831 112.988C136.948 118.135 140.94 121.472 143.933 123.371C144.244 123.568 144.598 123.648 144.949 123.599C145.299 123.549 145.628 123.373 145.89 123.095L149.724 119.025L152.056 116.598C151.412 117.215 150.478 117.334 149.36 117.023Z" fill="#21416B" stroke="#215077" stroke-miterlimit="10"/>
<path d="M146.281 127.136C145.75 127.186 145.139 127.061 144.467 126.782C144.282 126.706 144.093 126.618 143.9 126.519C140.708 124.875 136.342 120.125 132.46 113.714C128.798 107.665 126.462 101.619 125.97 97.5147C125.914 97.0619 125.882 96.6054 125.874 96.148C125.863 95.3427 125.945 94.6442 126.127 94.0749C126.295 93.5522 126.548 93.1369 126.889 92.8483C127.09 92.6809 127.315 92.5585 127.553 92.4871L127.473 92.356L125.039 94.4087L124.733 94.667C124.624 94.7798 124.525 94.906 124.438 95.0436C122.637 97.9285 125.18 106.695 130.495 115.473C136.021 124.599 142.509 130.377 145.239 128.692C145.3 128.655 145.358 128.614 145.414 128.569L145.714 128.277L147.239 126.796C146.946 126.995 146.618 127.111 146.281 127.136Z" fill="#21416B" stroke="#215077" stroke-miterlimit="10"/>
<path d="M132.293 95.5161L129.46 97.944C129.37 98.0202 129.258 98.0514 129.148 98.0309C129.039 98.0103 128.941 97.9397 128.875 97.8342C128.81 97.7279 128.784 97.5959 128.801 97.4667C128.818 97.3375 128.878 97.2216 128.968 97.1441L131.801 94.7168C131.891 94.6405 132.003 94.6092 132.113 94.6297C132.222 94.6501 132.32 94.7207 132.386 94.8261C132.451 94.9323 132.477 95.0644 132.46 95.1936C132.442 95.3228 132.383 95.4387 132.293 95.5161Z" fill="#212840" stroke="#212840" stroke-miterlimit="10"/>
<path d="M133.494 100.087L130.66 102.515C130.57 102.591 130.458 102.623 130.348 102.602C130.239 102.581 130.141 102.511 130.075 102.405C130.01 102.299 129.984 102.167 130.001 102.038C130.019 101.909 130.079 101.793 130.168 101.715L133.002 99.2874C133.092 99.2112 133.204 99.18 133.313 99.2005C133.423 99.2211 133.521 99.2918 133.586 99.3972C133.651 99.5035 133.678 99.6355 133.66 99.7647C133.643 99.8939 133.583 100.01 133.494 100.087Z" fill="#212840" stroke="#212840" stroke-miterlimit="10"/>
<path d="M135.214 104.658L132.38 107.086C132.29 107.162 132.178 107.193 132.069 107.173C131.959 107.152 131.861 107.082 131.796 106.976C131.731 106.87 131.705 106.738 131.722 106.609C131.739 106.479 131.799 106.363 131.889 106.286L134.722 103.858C134.813 103.782 134.924 103.751 135.034 103.771C135.143 103.792 135.242 103.863 135.307 103.968C135.372 104.074 135.398 104.206 135.381 104.336C135.363 104.465 135.303 104.581 135.214 104.658Z" fill="#212840" stroke="#212840" stroke-miterlimit="10"/>
<path d="M137.744 108.934L135.124 111.675C135.04 111.761 134.932 111.805 134.822 111.797C134.712 111.789 134.608 111.731 134.534 111.634C134.462 111.536 134.425 111.408 134.431 111.277C134.438 111.147 134.488 111.026 134.57 110.938L137.19 108.196C137.273 108.11 137.381 108.067 137.492 108.075C137.602 108.083 137.705 108.141 137.779 108.238C137.852 108.336 137.889 108.464 137.882 108.594C137.875 108.725 137.826 108.846 137.744 108.934Z" fill="#212840" stroke="#212840" stroke-miterlimit="10"/>
<path d="M147.971 119.423L145.351 122.165C145.268 122.251 145.159 122.295 145.049 122.287C144.939 122.279 144.836 122.22 144.762 122.123C144.689 122.025 144.652 121.897 144.659 121.767C144.666 121.637 144.715 121.515 144.797 121.428L147.417 118.686C147.5 118.6 147.609 118.557 147.719 118.564C147.829 118.572 147.933 118.631 148.007 118.728C148.079 118.826 148.116 118.954 148.11 119.084C148.103 119.214 148.053 119.336 147.971 119.423Z" fill="#212840" stroke="#212840" stroke-miterlimit="10"/>
<path d="M141.52 113.26L138.3 116.63C138.217 116.716 138.109 116.759 137.998 116.752C137.888 116.744 137.785 116.685 137.711 116.588C137.639 116.49 137.602 116.362 137.608 116.232C137.615 116.102 137.664 115.98 137.746 115.893L140.966 112.522C141.049 112.437 141.158 112.393 141.268 112.401C141.378 112.409 141.482 112.467 141.556 112.564C141.628 112.662 141.665 112.79 141.659 112.92C141.652 113.05 141.602 113.172 141.52 113.26Z" fill="#212840" stroke="#212840" stroke-miterlimit="10"/>
<path d="M145.546 116.812L142.077 120.444C141.994 120.53 141.885 120.573 141.775 120.565C141.665 120.558 141.561 120.499 141.487 120.402C141.415 120.304 141.378 120.176 141.385 120.046C141.391 119.916 141.441 119.794 141.523 119.707L144.993 116.075C145.076 115.989 145.184 115.945 145.295 115.953C145.405 115.961 145.508 116.019 145.582 116.116C145.655 116.215 145.691 116.343 145.685 116.473C145.678 116.603 145.628 116.725 145.546 116.812Z" fill="#212840" stroke="#212840" stroke-miterlimit="10"/>
<path d="M78.3182 66.8432C79.1768 66.8432 79.8727 66.0218 79.8727 65.0085C79.8727 63.9952 79.1768 63.1738 78.3182 63.1738C77.4597 63.1738 76.7637 63.9952 76.7637 65.0085C76.7637 66.0218 77.4597 66.8432 78.3182 66.8432Z" fill="#F1FCFF"/>
<path d="M102.002 40.6407C102.616 40.6407 103.113 40.0535 103.113 39.3291C103.113 38.6048 102.616 38.0176 102.002 38.0176C101.388 38.0176 100.891 38.6048 100.891 39.3291C100.891 40.0535 101.388 40.6407 102.002 40.6407Z" fill="#F1FCFF"/>
<path d="M157.011 94.8311C157.624 94.8311 158.122 94.2439 158.122 93.5195C158.122 92.7952 157.624 92.208 157.011 92.208C156.397 92.208 155.899 92.7952 155.899 93.5195C155.899 94.2439 156.397 94.8311 157.011 94.8311Z" fill="#F1FCFF"/>
<path d="M138.013 103.788C138.626 103.788 139.124 103.2 139.124 102.476C139.124 101.752 138.626 101.165 138.013 101.165C137.399 101.165 136.901 101.752 136.901 102.476C136.901 103.2 137.399 103.788 138.013 103.788Z" fill="#F1FCFF"/>
<path d="M57.9087 73.2367C58.3739 73.2367 58.751 72.7916 58.751 72.2426C58.751 71.6936 58.3739 71.2485 57.9087 71.2485C57.4435 71.2485 57.0664 71.6936 57.0664 72.2426C57.0664 72.7916 57.4435 73.2367 57.9087 73.2367Z" fill="#F1FCFF"/>
</svg>
