<svg width="22" height="22" viewBox="0 0 22 22" fill="none" xmlns="http://www.w3.org/2000/svg">
<path fill-rule="evenodd" clip-rule="evenodd" d="M0 11C0 4.92444 4.92403 0 11 0C17.0756 0 22 4.92403 22 11C22 17.0756 17.076 22 11 22C4.92444 22 0 17.076 0 11ZM1.1 11C1.1 16.4684 5.53193 20.9 11 20.9C16.4684 20.9 20.9 16.4681 20.9 11C20.9 5.53156 16.4681 1.1 11 1.1C5.53156 1.1 1.1 5.53193 1.1 11ZM15.5611 6.76109L9.35 12.9722L6.43891 10.0611C5.92036 9.54255 5.14255 10.3204 5.66109 10.8389L8.96109 14.1389L8.96737 14.1451L8.97556 14.1529C9.07688 14.2478 9.21004 14.3085 9.35 14.3099C9.49665 14.3084 9.63582 14.2419 9.73873 14.1391L9.73891 14.1389L16.3389 7.53891C16.8575 7.02036 16.0796 6.24255 15.5611 6.76109Z" fill="#C926B4"/>
</svg>
