<svg width="21" height="18" viewBox="0 0 21 18" fill="none" xmlns="http://www.w3.org/2000/svg">
<path d="M14.2995 2.55011C13.5395 2.54999 12.8098 2.84824 12.2674 3.38068C11.7251 3.91313 11.4134 4.63721 11.3995 5.39711L11.3715 6.97211C11.3699 7.05668 11.3504 7.13994 11.3143 7.21644C11.2782 7.29294 11.2264 7.36094 11.1622 7.41599C11.098 7.47105 11.0228 7.5119 10.9417 7.53588C10.8606 7.55985 10.7754 7.56641 10.6915 7.55511L9.13053 7.34311C7.07653 7.06311 5.10853 6.11711 3.22053 4.54411C2.62253 7.85411 3.79053 10.1471 6.60353 11.9161L8.35053 13.0141C8.43354 13.0663 8.5025 13.138 8.55138 13.223C8.60026 13.308 8.62757 13.4036 8.63093 13.5016C8.63428 13.5996 8.61358 13.6969 8.57062 13.785C8.52767 13.8731 8.46378 13.9494 8.38453 14.0071L6.79253 15.1701C7.73953 15.2291 8.63853 15.1871 9.38453 15.0391C14.1025 14.0971 17.2395 10.5471 17.2395 4.69111C17.2395 4.21311 16.2275 2.55011 14.2995 2.55011ZM9.39953 5.36011C9.41699 4.39616 9.71842 3.45878 10.2661 2.66534C10.8138 1.87189 11.5833 1.25763 12.4784 0.899481C13.3736 0.541329 14.3544 0.455194 15.2983 0.651862C16.2421 0.848529 17.107 1.31926 17.7845 2.00511C18.4955 2.00011 19.1005 2.18011 20.4535 1.36011C20.1185 3.00011 19.9535 3.71211 19.2395 4.69111C19.2395 12.3331 14.5425 16.0491 9.77653 17.0001C6.50853 17.6521 1.75653 16.5811 0.394531 15.1591C1.08853 15.1051 3.90853 14.8021 5.53853 13.6091C4.15953 12.7001 -1.32947 9.47011 2.27753 0.786115C3.97053 2.76311 5.68753 4.10911 7.42753 4.82311C8.58553 5.29811 8.86953 5.28811 9.40053 5.36111L9.39953 5.36011Z" fill="#828282"/>
</svg>
