<svg width="40" height="13" viewBox="0 0 40 13" fill="none" xmlns="http://www.w3.org/2000/svg">
<path fill-rule="evenodd" clip-rule="evenodd" d="M5.32814 0H0.0393072L0 0.240199C1.356 0.555006 2.56083 1.01699 3.60717 1.5943L6.48963 12.0755L9.90117 12.0707L14.9774 0.0940788H11.5628L8.40606 8.27733L8.06837 6.6149C7.98526 6.34309 7.87713 6.06802 7.74692 5.79314C7.82397 5.95236 7.89559 6.11337 7.96172 6.27597L6.81379 0.973114C6.61565 0.242509 6.03968 0.0261755 5.32814 0ZM29.1948 0.582847C28.557 0.34737 27.5556 0.0940788 26.3068 0.0940788C23.1238 0.0940788 20.8807 1.66805 20.861 3.92521C20.8437 5.59213 22.4616 6.52397 23.6844 7.07935C24.938 7.6479 25.3606 8.01041 25.3559 8.51854C25.3464 9.29701 24.353 9.651 23.4258 9.651C22.1375 9.651 21.4531 9.47517 20.3943 9.04217L19.9796 8.85859L19.527 11.4573C20.2784 11.7811 21.6708 12.0615 23.116 12.0755C26.5031 12.0755 28.7012 10.5209 28.7265 8.10956C28.7383 6.79043 27.8813 5.78578 26.0221 4.95619C24.8955 4.4194 24.2048 4.06154 24.2119 3.51778C24.2119 3.03598 24.7969 2.51933 26.0576 2.51933C27.1102 2.50306 27.875 2.72924 28.4679 2.96394L28.758 3.09795L29.1948 0.582847ZM37.4354 0.0940788H34.9893C34.2305 0.0940788 33.6632 0.308489 33.3299 1.08853L28.6261 12.0755H31.9534C31.9534 12.0755 32.4952 10.5986 32.62 10.2738C32.7904 10.2738 33.5938 10.275 34.4456 10.2763C35.407 10.2778 36.4301 10.2794 36.675 10.2794C36.7696 10.6986 37.0602 12.0755 37.0602 12.0755H40L37.4354 0.0940788ZM34.7916 4.4703C34.7916 4.4703 33.7934 7.13123 33.5306 7.82246H36.1596C36.0325 7.22163 35.4256 4.35989 35.4256 4.35989L35.211 3.32624C35.1225 3.57644 34.9972 3.91261 34.9064 4.15594L34.9064 4.15607C34.8341 4.34994 34.7837 4.48484 34.7916 4.4703ZM16.3761 0.0940788L14.4087 12.0755H17.5543L19.527 0.0940788H16.3761Z" fill="#3062FF"/>
</svg>
