<svg width="23" height="23" viewBox="0 0 23 23" fill="none" xmlns="http://www.w3.org/2000/svg">
<path d="M16.8077 8.18266H23V5.30766C23 3.47848 21.5119 1.99036 19.6827 1.99036H3.3173C1.48813 1.99036 0 3.47848 0 5.30766V17.6923C0 19.5214 1.48813 21.0096 3.3173 21.0096H19.6827C21.5119 21.0096 23 19.5214 23 17.6923V14.8173H16.8077C14.9785 14.8173 13.4904 13.3291 13.4904 11.5C13.4904 9.67078 14.9785 8.18266 16.8077 8.18266Z" fill="#4F4F4F"/>
<path d="M16.8077 9.50964C15.7102 9.50964 14.8173 10.4025 14.8173 11.5C14.8173 12.5976 15.7101 13.4904 16.8077 13.4904H23V9.50969H16.8077V9.50964ZM17.6923 12.1635H16.8077C16.4412 12.1635 16.1442 11.8664 16.1442 11.5C16.1442 11.1337 16.4413 10.8366 16.8077 10.8366H17.6923C18.0587 10.8366 18.3557 11.1337 18.3557 11.5C18.3557 11.8664 18.0587 12.1635 17.6923 12.1635Z" fill="#4F4F4F"/>
</svg>
