<svg width="19" height="19" viewBox="0 0 19 19" fill="none" xmlns="http://www.w3.org/2000/svg">
<g clip-path="url(#clip0)">
<path d="M18.8333 3.54167H19.625V11.4583H18.8333V13.8333C18.8333 14.0433 18.7499 14.2447 18.6015 14.3931C18.453 14.5416 18.2516 14.625 18.0417 14.625H3.79167C3.5817 14.625 3.38034 14.5416 3.23187 14.3931C3.08341 14.2447 3 14.0433 3 13.8333V1.16667C3 0.956704 3.08341 0.75534 3.23187 0.606874C3.38034 0.458407 3.5817 0.375 3.79167 0.375H18.0417C18.2516 0.375 18.453 0.458407 18.6015 0.606874C18.7499 0.75534 18.8333 0.956704 18.8333 1.16667V3.54167ZM17.25 11.4583H12.5C11.4502 11.4583 10.4434 11.0413 9.70104 10.299C8.9587 9.55663 8.54167 8.54982 8.54167 7.5C8.54167 6.45018 8.9587 5.44337 9.70104 4.70104C10.4434 3.9587 11.4502 3.54167 12.5 3.54167H17.25V1.95833H4.58333V13.0417H17.25V11.4583ZM18.0417 9.875V5.125H12.5C11.8701 5.125 11.266 5.37522 10.8206 5.82062C10.3752 6.26602 10.125 6.87011 10.125 7.5C10.125 8.12989 10.3752 8.73398 10.8206 9.17938C11.266 9.62478 11.8701 9.875 12.5 9.875H18.0417ZM12.5 6.70833H14.875V8.29167H12.5V6.70833Z" fill="url(#paint0_linear)"/>
</g>
<defs>
<linearGradient id="paint0_linear" x1="11.3125" y1="0.375" x2="11.3125" y2="14.625" gradientUnits="userSpaceOnUse">
<stop stop-color="#8D28AD"/>
<stop offset="1" stop-color="#C926B4"/>
</linearGradient>
<clipPath id="clip0">
<rect width="19" height="19" fill="white"/>
</clipPath>
</defs>
</svg>
