<svg width="39" height="39" viewBox="0 0 39 39" fill="none" xmlns="http://www.w3.org/2000/svg">
<path d="M0.00782609 39L2.64422 29.3124C0.907044 26.3345 -0.00563673 22.9476 2.61929e-05 19.5C2.61929e-05 8.73014 8.73017 0 19.5 0C30.2699 0 39 8.73014 39 19.5C39 30.2698 30.2699 39 19.5 39C16.0539 39.0055 12.6685 38.0936 9.69152 36.3577L0.00782609 39ZM12.4625 10.3506C12.2106 10.3662 11.9646 10.4326 11.739 10.5456C11.5275 10.6654 11.3344 10.8151 11.1657 10.9902C10.9317 11.2105 10.7991 11.4016 10.6568 11.5869C9.93607 12.5248 9.54841 13.6762 9.55502 14.859C9.55892 15.8145 9.80852 16.7446 10.1985 17.6143C10.9961 19.3732 12.3084 21.2355 14.042 22.9612C14.4593 23.3766 14.8668 23.7939 15.3056 24.1819C17.4572 26.0763 20.0212 27.4424 22.7936 28.1716L23.9031 28.3413C24.2639 28.3608 24.6246 28.3335 24.9873 28.3159C25.5552 28.2866 26.1098 28.1328 26.6117 27.8655C26.9354 27.6939 27.0875 27.6081 27.3585 27.4365C27.3585 27.4365 27.4424 27.3819 27.6023 27.261C27.8655 27.066 28.0274 26.9275 28.2458 26.6994C28.4076 26.5317 28.548 26.3347 28.6553 26.1105C28.8074 25.7926 28.9595 25.1862 29.0219 24.6811C29.0687 24.295 29.055 24.0844 29.0492 23.9538C29.0414 23.7451 28.8678 23.5287 28.6787 23.437L27.5438 22.9281C27.5438 22.9281 25.8473 22.189 24.8118 21.7171C24.7026 21.6695 24.5856 21.6424 24.4667 21.6372C24.3332 21.6235 24.1984 21.6385 24.0713 21.6812C23.9442 21.7239 23.8276 21.7934 23.7296 21.8848V21.8809C23.7198 21.8809 23.5892 21.9921 22.1793 23.7003C22.0984 23.809 21.9869 23.8912 21.8591 23.9363C21.7313 23.9815 21.593 23.9876 21.4617 23.9538C21.3347 23.9198 21.2102 23.8768 21.0893 23.8251C20.8475 23.7237 20.7636 23.6847 20.5979 23.6125L20.5881 23.6086C19.4725 23.1216 18.4397 22.4637 17.5266 21.6586C17.2809 21.4441 17.0528 21.2101 16.8188 20.9839C16.0516 20.2493 15.383 19.4181 14.8298 18.5113L14.7147 18.3261C14.6321 18.2016 14.5653 18.0673 14.5158 17.9263C14.4417 17.6397 14.6348 17.4096 14.6348 17.4096C14.6348 17.4096 15.1086 16.8909 15.329 16.6101C15.5124 16.3767 15.6836 16.1339 15.8418 15.8827C16.0719 15.5122 16.1441 15.132 16.0232 14.8375C15.4772 13.5037 14.9117 12.1758 14.3306 10.8576C14.2155 10.5963 13.8743 10.4091 13.5642 10.372C13.4589 10.3603 13.3536 10.3486 13.2483 10.3408C12.9864 10.3278 12.724 10.3304 12.4625 10.3486V10.3506Z" fill="#25D366"/>
</svg>
