<svg width="16" height="15" viewBox="0 0 16 15" fill="none" xmlns="http://www.w3.org/2000/svg">
<path d="M7.91746 1.21044C9.77709 -0.459183 12.6508 -0.403766 14.4424 1.39094C16.2331 3.18644 16.2949 6.04594 14.6292 7.91111L7.91588 14.6339L1.20413 7.91111C-0.461537 6.04594 -0.398995 3.18169 1.39096 1.39094C3.18409 -0.401391 6.0523 -0.461558 7.91746 1.21044ZM13.3214 2.50957C12.1339 1.32048 10.218 1.27219 8.97513 2.38844L7.91825 3.33686L6.86059 2.38923C5.61371 1.2714 3.70184 1.32048 2.51117 2.51115C1.33159 3.69073 1.27221 5.57886 2.35917 6.82653L7.91667 12.3927L13.4742 6.82732C14.5619 5.57886 14.5025 3.69311 13.3214 2.50957Z" fill="url(#paint0_linear)"/>
<defs>
<linearGradient id="paint0_linear" x1="7.91681" y1="0" x2="7.91681" y2="14.6339" gradientUnits="userSpaceOnUse">
<stop stop-color="#8D28AD"/>
<stop offset="1" stop-color="#C926B4"/>
</linearGradient>
</defs>
</svg>
